<?xml version="1.0" standalone="no"?>
<!DOCTYPE svg PUBLIC "-//W3C//DTD SVG 1.1//EN" "http://www.w3.org/Graphics/SVG/1.1/DTD/svg11.dtd" >
<svg xmlns="http://www.w3.org/2000/svg">
<metadata></metadata>
<defs>
<font id="athitisemibold" horiz-adv-x="0" >
<font-face units-per-em="2048" ascent="1536" descent="-512" />
<missing-glyph horiz-adv-x="614" />
<glyph unicode="fi" horiz-adv-x="1175" d="M53 782l29 183h111v137q0 80 57 141.5t145 104.5q113 25 238 24q156 0 274 -45l-55 -182q-90 25 -221 24q-113 0 -195 -18q-27 -51 -26 -113v-73h622v-965h-217v782h-405v-782h-217v782h-140z" />
<glyph unicode="fl" horiz-adv-x="1323" d="M53 782l29 183h111v131q0 80 58 145.5t144 108.5q119 23 271 22q201 0 376 -67v-1043q0 -51 11 -78h28l113 60l82 -109q-37 -55 -105.5 -100t-134.5 -47q-37 10 -87 44t-87 77t-37 77v596h-415v-782h-217v782h-140zM410 965h415v192q-88 16 -192 17q-115 0 -197 -19 q-27 -51 -26 -131v-59z" />
<glyph unicode="&#xe24;&#xe45;" horiz-adv-x="1753" d="M106 770v148q106 76 237.5 119.5t283.5 43.5q176 0 286 -69q166 70 326 69q170 0 269.5 -68.5t99.5 -183.5v-1232h-224v1259q-76 23 -178 23q-94 0 -184 -23q20 -49 20 -139v-1120h-227v1239q-82 41 -213 41q-166 0 -291 -60v-8l107 -127q29 -35 28 -84q0 -14 -4 -55 l-51 -295q-2 -8 -2 -21q0 -55 66 -55h131v-158q-96 -35 -213 -34q-96 0 -150.5 49t-54.5 137q0 12 4 45l64 395z" />
<glyph unicode="&#xe26;&#xe45;" horiz-adv-x="1759" d="M86 14v156h94q39 0 56.5 11.5t21.5 37.5l53 387l-135 164v148q109 78 228.5 120.5t261.5 42.5q168 0 272 -63q158 63 307 63q170 0 268.5 -68.5t98.5 -183.5v-1232h-221v1259q-78 23 -181 23q-68 0 -155 -19q16 -43 16 -100v-1163h-225v1241q-82 41 -205 41 q-147 0 -262 -62v-8l113 -127q29 -35 28 -82q0 -12 -4 -57l-57 -402q-25 -162 -209 -161q-41 0 -87 10t-77 24z" />
<glyph unicode=" "  horiz-adv-x="614" />
<glyph unicode="&#x09;" horiz-adv-x="614" />
<glyph unicode="&#xa0;" horiz-adv-x="614" />
<glyph unicode="!" horiz-adv-x="530" d="M147 0v213h236v-213h-236zM147 872v394h236v-394l-16 -530h-203z" />
<glyph unicode="&#x22;" horiz-adv-x="706" d="M244 1114q-4 84 6 148h176h31q10 -64 6 -148l-19 -256h-151h-31z" />
<glyph unicode="#" horiz-adv-x="1435" d="M115 330v194h243l31 224h-225v194h252l47 340l211 -6l-45 -334h239l47 340l211 -6l-45 -334h219v-194h-245l-29 -224h227v-194h-254l-45 -338l-215 8l45 330h-237l-45 -338l-215 8l45 330h-217zM573 524h238l31 224h-240z" />
<glyph unicode="$" horiz-adv-x="1107" d="M94 90l76 191q172 -92 389 -93q121 0 207 19q20 53 20 127q0 78 -49 118t-178 70q-137 33 -227 75t-143.5 116.5t-53.5 195.5q0 141 79 239.5t247 127.5v190h209v-184q94 -6 161.5 -28.5t137.5 -57.5v-61q0 -47 -10.5 -110.5t-24.5 -102.5h-174l-23 153q-82 12 -162 12 q-113 0 -164 -38.5t-51 -126.5q0 -76 54.5 -115t201.5 -72q207 -45 301.5 -126t94.5 -247q0 -147 -82 -246.5t-260 -121.5v-219h-209v213q-205 14 -367 102z" />
<glyph unicode="%" horiz-adv-x="1560" d="M135 924q0 156 69.5 238.5t209.5 82.5q125 0 192.5 -74.5t67.5 -222.5q0 -156 -68.5 -236.5t-210.5 -80.5q-125 0 -192.5 72.5t-67.5 220.5zM297 944q0 -98 21.5 -134t93.5 -36q53 0 88 14q16 59 16 144q0 100 -23.5 134t-93.5 34q-57 0 -88 -15q-14 -63 -14 -141z M326 37l749 1227l166 -62l-758 -1239zM885 272q0 156 69.5 239t208.5 83q125 0 192.5 -74t67.5 -221q0 -156 -68.5 -237.5t-209.5 -81.5q-125 0 -192.5 72.5t-67.5 219.5zM1047 293q0 -98 21.5 -133t92.5 -35q59 0 88 14q16 57 17 142q0 100 -23.5 135t-93.5 35 q-51 0 -88 -17q-14 -63 -14 -141z" />
<glyph unicode="&#x26;" horiz-adv-x="1427" d="M131 328q0 141 67.5 225t202.5 135v17q-55 55 -81.5 106t-26.5 119q0 152 102.5 231.5t284.5 79.5q133 0 224 -40t140 -99v-76q0 -37 -7 -85t-19 -77h-176l-19 156q-57 23 -147 22q-86 0 -123 -28.5t-37 -91.5q0 -57 17.5 -90t68.5 -80l309 -289q20 74 39 205l209 -45 q-16 -90 -32.5 -158t-36.5 -131l243 -242l-157 -110l-140 155h-16q-20 -72 -49 -112q-127 -57 -365 -58q-227 0 -351 92.5t-124 268.5zM354 338q0 -90 65.5 -131t192.5 -41q113 0 199 20q18 31 25 76l-310 293q-90 -29 -131 -78t-41 -139z" />
<glyph unicode="'" horiz-adv-x="503" d="M158 1114q-4 84 6 148h176q10 -63 6 -148l-18 -256h-152z" />
<glyph unicode="(" horiz-adv-x="667" d="M145 -8v1278q10 61 70.5 115.5t134.5 74.5q100 2 178 -20v-178h-159v-1262h159v-178q-78 -23 -178 -21q-74 21 -134 75t-71 116z" />
<glyph unicode=")" horiz-adv-x="667" d="M139 0h160v1262h-160v178q78 23 176 20q76 -20 136.5 -74.5t70.5 -115.5v-1278q-10 -61 -70.5 -115.5t-136.5 -75.5q-98 -2 -176 21v178z" />
<glyph unicode="*" horiz-adv-x="933" d="M115 997l55 166l217 -94l10 8l-18 248h174l-18 -248l8 -8l219 94l55 -166l-229 -57l-4 -10l166 -203l-142 -100l-135 219h-14l-135 -219l-142 100l168 203l-4 10z" />
<glyph unicode="+" horiz-adv-x="1140" d="M94 530v189h373v334h207v-334h373v-189h-373v-362h-207v362h-373z" />
<glyph unicode="," horiz-adv-x="520" d="M119 20v150q57 23 129 23q158 0 158 -158q0 -66 -29 -133.5t-78 -120.5l-137 31q63 111 65 208h-108z" />
<glyph unicode="-" horiz-adv-x="915" d="M145 449v198h625v-198h-625z" />
<glyph unicode="." horiz-adv-x="534" d="M145 0v238h242v-238h-242z" />
<glyph unicode="/" horiz-adv-x="950" d="M111 -152l534 1516l195 -47l-535 -1518z" />
<glyph unicode="0" horiz-adv-x="1282" d="M104 586q0 328 132.5 491.5t425.5 163.5q264 0 390 -147.5t126 -456.5q0 -332 -132.5 -493.5t-424.5 -161.5q-259 0 -388 148.5t-129 455.5zM332 625q0 -158 26.5 -252t95 -139.5t195.5 -45.5q72 0 137.5 9.5t104.5 25.5q59 168 59 375q0 164 -29.5 258t-98 136 t-189.5 42q-68 0 -133.5 -9t-106.5 -26q-61 -168 -61 -374z" />
<glyph unicode="1" horiz-adv-x="780" d="M74 1067l329 178q35 0 83.5 -22.5t84 -52t35.5 -50.5v-1120h-225v989l-19 12l-227 -79z" />
<glyph unicode="2" horiz-adv-x="1157" d="M100 0v279q238 135 371 222t217 182t84 200q0 90 -46 123.5t-155 33.5q-115 0 -209 -28v-178h-186q-35 109 -35 217v96q203 98 439 98q215 0 317 -85t102 -259q0 -147 -79.5 -265t-219 -215t-358.5 -212v-14h483v122h189q33 -94 33 -206v-111h-947z" />
<glyph unicode="3" horiz-adv-x="1085" d="M86 35l37 198q166 -49 352 -49q139 0 232 19q35 55 34 135q0 88 -51 127t-182 39h-205v196h209q215 0 215 170q0 90 -51 131t-158 41q-100 0 -209 -24v-152h-184q-35 113 -35 211v80q209 88 440 88q207 0 312.5 -90t105.5 -254q0 -111 -46 -176.5t-144 -110.5v-12 q115 -43 160 -105.5t45 -172.5q0 -168 -116 -256t-368 -88q-207 0 -393 55z" />
<glyph unicode="4" horiz-adv-x="1177" d="M66 391l581 854h279v-842h174v-192h-174v-211h-217v211h-592zM315 420l4 -17h390v295l24 322h-16z" />
<glyph unicode="5" horiz-adv-x="1095" d="M102 35l29 205q197 -55 375 -56q131 0 237 27q18 43 26.5 84t8.5 98q0 104 -50 146.5t-167 42.5q-76 0 -131 -11.5t-129 -42.5l-164 129l47 588h734v-203h-529l-22 -297q63 20 117.5 30.5t117.5 10.5q199 0 300.5 -92t101.5 -286q0 -428 -506 -428q-208 0 -396 55z" />
<glyph unicode="6" horiz-adv-x="1079" d="M102 475q0 240 120 420t368 350l182 -98q-174 -115 -271.5 -220.5t-138.5 -226.5q131 68 273 68q190 0 286.5 -95t96.5 -280q0 -166 -110.5 -279.5t-344.5 -113.5q-227 0 -344 126t-117 349zM326 475q0 -147 56 -210.5t193 -63.5q109 -1 187 22q31 74 31 166 q0 102 -43 145.5t-162 43.5q-133 0 -262 -62v-41z" />
<glyph unicode="7" horiz-adv-x="1118" d="M90 1114v131h944v-227q-193 -254 -300 -492.5t-159 -525.5l-233 20q59 319 169 553t284 453v12h-486v-147h-184q-35 100 -35 223z" />
<glyph unicode="8" horiz-adv-x="1171" d="M115 340q0 78 20.5 131t53 87t90.5 77v16q-70 47 -102 97.5t-32 136.5q0 164 126 260t347 96q205 0 310.5 -93t105.5 -263q0 -94 -34.5 -155.5t-106.5 -108.5v-17q90 -53 127 -112.5t37 -157.5q0 -168 -123 -260t-361 -92q-225 0 -341.5 94t-116.5 264zM336 352 q0 -72 27.5 -110.5t89 -54t170.5 -15.5q114 0 194 31q18 49 19 121q0 86 -24 131t-78 63.5t-159 18.5q-127 0 -210 -25q-16 -45 -22.5 -78t-6.5 -82zM365 881q0 -98 57 -134t199 -36q113 0 170 18q25 61 24 129q0 82 -21.5 123t-71.5 55.5t-147 14.5q-111 0 -186 -25 q-25 -74 -24 -145z" />
<glyph unicode="9" horiz-adv-x="1083" d="M61 799q0 121 50.5 222t156 162.5t262.5 61.5q225 0 338 -132t113 -363q0 -168 -53.5 -296t-158.5 -235.5t-275 -218.5l-183 96q145 96 233.5 182.5t133.5 178.5q-106 -55 -223 -56q-182 0 -288 105.5t-106 292.5zM287 803q0 -106 50 -158.5t163 -52.5q148 0 254 57 q2 16 4 47t2 54q0 152 -60.5 223t-189.5 71q-109 0 -186 -22q-37 -106 -37 -219z" />
<glyph unicode=":" horiz-adv-x="534" d="M145 0v238h242v-238h-242zM145 657v238h242v-238h-242z" />
<glyph unicode=";" horiz-adv-x="577" d="M145 125v149q57 23 129 23q158 0 158 -158q0 -66 -28.5 -133t-77.5 -121l-138 31q63 111 66 209h-109zM154 657v238h241v-238h-241z" />
<glyph unicode="&#x3c;" horiz-adv-x="1193" d="M104 418v207l879 362l66 -205l-709 -256v-12l709 -254l-66 -205z" />
<glyph unicode="=" horiz-adv-x="1181" d="M135 199v198h912v-198h-912zM135 616v197h912v-197h-912z" />
<glyph unicode="&#x3e;" horiz-adv-x="1193" d="M145 260l709 254v12l-709 256l66 205l879 -362v-207l-879 -363z" />
<glyph unicode="?" horiz-adv-x="1105" d="M115 1120v64q70 43 188.5 73.5t247.5 30.5q219 0 325.5 -89t106.5 -251q0 -98 -28.5 -161.5t-104.5 -120.5l-215 -150q-18 -14 -24.5 -31.5t-6.5 -52.5v-110h-223v155q0 45 11 73t42 50l326 238v100q0 80 -51.5 111.5t-161.5 31.5q-127 0 -221 -26v-133h-183 q-29 96 -28 198zM379 0v209h229v-209h-229z" />
<glyph unicode="@" horiz-adv-x="1617" d="M125 549q0 197 82 354.5t244.5 250.5t392.5 93q207 0 354.5 -75.5t224 -208t76.5 -297.5q0 -186 -85 -313.5t-261 -127.5q-68 0 -115 23.5t-88 75.5h-12q-45 -49 -95 -72t-124 -23q-109 0 -172.5 73t-63.5 194q0 160 79 275.5t233 115.5q61 0 99 -22.5t69 -63.5h8l28 61 l140 -22l-80 -434q47 -27 115 -27q63 0 102 10q45 106 45 268q0 199 -121 314.5t-360 115.5q-172 0 -293 -69.5t-182.5 -191t-61.5 -277.5q0 -262 139.5 -386t407.5 -124q150 0 259.5 28.5t203.5 82.5l61 -140q-86 -59 -230.5 -95t-299.5 -36q-359 0 -539 173t-180 497z M680 494q0 -111 86 -111q35 0 60.5 8t45.5 29l46 262q-16 25 -37 36t-50 11q-70 0 -110.5 -65.5t-40.5 -169.5z" />
<glyph unicode="A" horiz-adv-x="1277" d="M63 16q84 315 190.5 651.5t209.5 598.5h352q102 -262 208.5 -598t190.5 -652l-237 -16l-37 145q-41 160 -63 240h-478q-61 -223 -98 -385zM457 584h364q-98 328 -149 473h-64q-70 -195 -151 -473z" />
<glyph unicode="B" horiz-adv-x="1150" d="M145 0v1227q178 55 369 55q246 0 369 -88t123 -272q0 -94 -41 -160t-129 -113v-12q121 -35 176 -104.5t55 -176.5q0 -121 -49 -198.5t-165 -117.5t-314 -40h-394zM369 195h166q121 0 187 16t94 53t28 98q0 84 -54.5 127t-171.5 43h-249v-337zM369 725h340q73 77 73 177 q0 105 -62.5 145t-205.5 40q-74 0 -145 -16v-346z" />
<glyph unicode="C" horiz-adv-x="1208" d="M102 594q0 315 141.5 503.5t418.5 188.5q125 0 235.5 -25.5t175.5 -64.5v-102q0 -49 -7 -102.5t-19 -90.5h-173l-20 158q-76 18 -205 18q-115 0 -235 -26q-86 -184 -86 -445q0 -221 83 -318.5t277 -97.5q104 0 195.5 25t152.5 68l94 -174q-78 -61 -192.5 -94t-259.5 -33 q-287 0 -431.5 154.5t-144.5 457.5z" />
<glyph unicode="D" horiz-adv-x="1234" d="M145 0v1241q176 45 394 45q328 0 468 -161.5t140 -473.5q0 -215 -58.5 -356t-208 -218t-415.5 -77h-320zM369 207h114q229 0 379 43q29 70 44.5 170t15.5 209q0 162 -35 260t-118 144t-226 46q-82 0 -174 -12v-860z" />
<glyph unicode="E" horiz-adv-x="1136" d="M145 213v1053h863v-207h-639v-332h561v-197h-561v-323q123 -20 258 -21q203 0 358 39l39 -198q-154 -45 -403 -45q-228 0 -352 51t-124 180z" />
<glyph unicode="F" horiz-adv-x="1058" d="M145 0v1266h873v-207h-647v-338h542v-201h-542v-520h-226z" />
<glyph unicode="G" horiz-adv-x="1259" d="M102 594q0 322 149.5 507t446.5 185q133 0 247 -25.5t181 -64.5v-102q0 -109 -26 -189h-172l-21 154q-78 18 -233 18q-137 0 -252 -24q-45 -96 -69.5 -211t-24.5 -236q0 -221 90 -319.5t289 -98.5q125 0 219 21v297h-287v192h399l111 -90v-334q0 -86 -59.5 -152.5 t-166 -103t-243.5 -36.5q-285 0 -431.5 154.5t-146.5 457.5z" />
<glyph unicode="H" horiz-adv-x="1259" d="M143 0v1266h226v-549h522v549h225v-1266h-225v508h-522v-508h-226z" />
<glyph unicode="I" horiz-adv-x="528" d="M152 0v1266h225v-1266h-225z" />
<glyph unicode="J" horiz-adv-x="913" d="M53 43l51 193q127 -47 252 -48q111 0 179 31q12 49 12 123v924h225v-947q0 -166 -101.5 -251.5t-303.5 -85.5q-84 0 -168 16t-146 45z" />
<glyph unicode="K" horiz-adv-x="1255" d="M145 0v1266h226v-514h127q94 0 142 32.5t77 98.5l166 395l217 -76l-158 -356q-37 -80 -78 -121t-123 -68v-12q74 -23 109 -56.5t74 -105.5l174 -333l98 -19v-127q-70 -18 -152 -18q-69 0 -112 25.5t-70 80.5l-141 316q-33 76 -77 107.5t-134 31.5h-139v-547h-226z" />
<glyph unicode="L" horiz-adv-x="970" d="M145 0v1266h226v-1057h559v-209h-785z" />
<glyph unicode="M" horiz-adv-x="1458" d="M131 0l49 1266h285l256 -693h14l258 693h283l49 -1266h-227l-23 637l2 319l-16 5l-246 -615h-174l-246 615l-16 -5l4 -319l-25 -637h-227z" />
<glyph unicode="N" horiz-adv-x="1314" d="M145 0v1266h277l526 -979l17 4l-23 325v650h227v-1266h-276l-528 979l-17 -4l23 -328v-647h-226z" />
<glyph unicode="O" horiz-adv-x="1306" d="M98 610q0 342 139.5 509t436.5 167q534 0 534 -627q0 -343 -140 -509t-437 -166q-264 0 -398.5 158.5t-134.5 467.5zM322 645q0 -160 31.5 -259t106.5 -147.5t206 -48.5q145 0 235 37q82 186 82 396q0 160 -30.5 258t-105.5 147t-208 49q-152 0 -242 -37 q-75 -170 -75 -389v-6z" />
<glyph unicode="P" horiz-adv-x="1116" d="M145 0v1225q186 57 392 57q520 0 520 -434q0 -233 -133 -349t-412 -116h-141v-383h-226zM371 586h112q102 0 171 6t126 20q53 88 54 226q0 129 -73 184t-218 55q-104 0 -172 -16v-475z" />
<glyph unicode="Q" horiz-adv-x="1310" d="M98 614q0 338 139.5 505t436.5 167q270 0 402 -153.5t132 -462.5q0 -317 -121.5 -479t-379.5 -181q-18 -2 -41 -2v-110q66 -10 145 -11q186 0 307 27l31 -168q-113 -33 -336 -33q-84 0 -199.5 15.5t-156.5 33.5v111l45 141q-403 68 -404 600zM322 651q0 -158 31.5 -252 t106.5 -140t206 -46q145 0 235 37q82 182 82 383q0 160 -30.5 256t-105.5 142t-208 46q-152 0 -242 -37q-75 -170 -75 -383v-6z" />
<glyph unicode="R" horiz-adv-x="1226" d="M145 0v1229q190 57 385 57q244 0 369 -92t125 -287q0 -248 -227 -356v-19q51 -20 86 -50.5t63 -82.5l133 -249l95 -19v-127q-57 -18 -150 -18q-72 0 -113 24.5t-65 79.5l-115 244q-27 57 -47 86t-59 47t-105 18h-149v-485h-226zM371 678h319q55 33 83 83t28 128 q0 109 -64.5 152.5t-208.5 43.5q-94 0 -157 -14v-393z" />
<glyph unicode="S" horiz-adv-x="1112" d="M94 90l76 191q172 -92 389 -93q121 0 207 19q20 53 20 127q0 78 -49 118t-178 70q-137 33 -227 75t-143.5 116.5t-53.5 195.5q0 166 110.5 271.5t340.5 105.5q129 0 218 -23.5t165 -66.5v-74q0 -47 -10.5 -110.5t-24.5 -102.5h-174l-23 166q-82 12 -162 12 q-113 0 -164 -38.5t-51 -126.5q0 -76 54.5 -115t201.5 -72q207 -45 301.5 -126t94.5 -247q0 -172 -110.5 -275t-356.5 -103q-254 0 -451 106z" />
<glyph unicode="T" horiz-adv-x="1167" d="M66 1057v209h1036v-209h-406v-1057h-225v1057h-405z" />
<glyph unicode="U" horiz-adv-x="1282" d="M141 393v873h226v-828q0 -141 60 -195.5t208 -54.5q174 0 280 41v1037h226v-998q0 -152 -140.5 -219t-379.5 -67q-242 0 -361 105.5t-119 305.5z" />
<glyph unicode="V" horiz-adv-x="1251" d="M61 1268l234 14q61 -270 152.5 -572t166.5 -495h21q78 193 168 493t153 574l234 -14q-80 -324 -192.5 -669t-225.5 -599h-291q-114 254 -228 601t-192 667z" />
<glyph unicode="W" horiz-adv-x="1740" d="M66 1247l237 23q51 -301 100.5 -533.5t108.5 -480.5h16q72 203 254 764q-8 35 -10 47q-20 84 -37 170l226 20q59 -283 114 -490.5t144 -510.5h22q119 506 203 1014l229 -25q-125 -600 -321 -1245h-256q-139 403 -217 676h-27l-16 -51q-143 -438 -213 -625h-236 q-188 622 -321 1247z" />
<glyph unicode="X" horiz-adv-x="1298" d="M78 31q141 274 385 592q-102 139 -205.5 300.5t-175.5 303.5l240 45q117 -248 307 -541h35q100 137 177 263t150 278l228 -43q-141 -279 -388 -594q102 -141 203 -302t170 -302l-233 -47q-66 141 -137.5 266t-169.5 278h-35q-113 -170 -184.5 -286.5t-137.5 -257.5z" />
<glyph unicode="Y" horiz-adv-x="1290" d="M49 1225l223 51q160 -412 344 -686h58q188 287 344 686l223 -51q-98 -242 -199.5 -432.5t-238.5 -380.5h-45v-412h-226v412h-45q-137 190 -238.5 380.5t-199.5 432.5z" />
<glyph unicode="Z" horiz-adv-x="1183" d="M94 0v219l713 819v25h-469v-139h-188q-35 111 -35 241v101h950v-232l-705 -807v-28h508v143h189q35 -111 35 -242v-100h-998z" />
<glyph unicode="[" horiz-adv-x="632" d="M145 -174v1622h349v-201h-129v-1220h129v-201h-349z" />
<glyph unicode="\" horiz-adv-x="907" d="M111 1262l188 47l498 -1307l-189 -49z" />
<glyph unicode="]" horiz-adv-x="632" d="M139 27h129v1220h-129v201h348v-1622h-348v201z" />
<glyph unicode="^" horiz-adv-x="1224" d="M131 612l375 650h215l373 -650l-195 -77l-281 532h-12l-280 -532z" />
<glyph unicode="_" horiz-adv-x="1193" d="M115 0h964v-164h-964v164z" />
<glyph unicode="`" horiz-adv-x="661" d="M27 1823l268 30l172 -305l-178 -28z" />
<glyph unicode="a" horiz-adv-x="1007" d="M74 242q0 160 121.5 235.5t334.5 75.5q57 0 125 -6v112q0 88 -36.5 120t-131.5 32q-55 0 -120 -8l-21 -133h-174q-27 76 -27 155v52q74 43 176.5 72.5t208.5 29.5q166 0 256.5 -78t90.5 -223v-678h-191l-12 135h-17q-110 -151 -295 -151h-2q-143 0 -214.5 67.5 t-71.5 190.5zM303 270q0 -59 28.5 -84.5t84.5 -25.5q76 0 138 30.5t105 90.5v120q-78 14 -170 15q-104 0 -161 -17q-14 -35 -19.5 -63.5t-5.5 -65.5z" />
<glyph unicode="b" horiz-adv-x="1122" d="M143 39v1335h222v-391l-11 -154h13q139 154 301 154q188 0 274 -133t86 -344q0 -254 -131 -388t-379 -134q-195 0 -375 55zM365 199q74 -18 174 -19q137 0 198.5 73t61.5 247q0 147 -48.5 215.5t-152.5 68.5q-135 0 -233 -108v-477z" />
<glyph unicode="c" horiz-adv-x="958" d="M88 461q0 238 117 378t332 140q100 0 185 -23.5t142 -60.5v-74q0 -102 -26 -186h-170l-17 129q-49 14 -129 14q-115 0 -176 -22q-18 -51 -29.5 -132t-11.5 -159q0 -143 56.5 -212t197.5 -69q152 0 254 88l100 -157q-76 -66 -160.5 -99.5t-199.5 -33.5 q-252 0 -358.5 125.5t-106.5 353.5z" />
<glyph unicode="d" horiz-adv-x="1122" d="M94 481q0 211 88 354.5t277 143.5q94 0 165.5 -34t131.5 -97h12l-10 156v370h221v-1374h-203l-8 131h-16q-51 -70 -118 -108.5t-167 -38.5q-195 0 -284 127t-89 370zM324 475q0 -160 44 -227.5t160 -67.5q80 0 137.5 37t92.5 96v369q-51 51 -106.5 75.5t-127.5 24.5 q-104 0 -152 -74.5t-48 -232.5z" />
<glyph unicode="e" horiz-adv-x="1030" d="M94 473q0 242 119 376t338 134q190 0 288.5 -106.5t98.5 -290.5q0 -37 -2 -56l-133 -131l-496 7q4 -236 256 -236q96 0 167 22.5t142 67.5l62 -168q-80 -51 -168 -78.5t-213 -27.5q-234 0 -346.5 126t-112.5 361zM305 553l420 8q10 33 10 76q0 74 -50 117t-142 43 q-129 0 -181.5 -58.5t-56.5 -185.5z" />
<glyph unicode="f" horiz-adv-x="751" d="M53 782l29 183h111v157q0 76 57 140.5t133 103.5q78 14 164 14q109 0 207 -47l-60 -188q-43 18 -75.5 26.5t-73.5 8.5q-72 0 -121 -19q-14 -39 -14 -106v-90h237l-29 -183h-208v-782h-217v782h-140z" />
<glyph unicode="g" horiz-adv-x="1089" d="M94 455q0 252 85 390t290 138q100 0 164.5 -42t107.5 -118h15l12 142h186v-1063q0 -154 -117.5 -229.5t-318.5 -75.5q-106 0 -203.5 23.5t-158.5 60.5l47 176q63 -31 143 -49.5t156 -18.5q82 0 135 10.5t106 32.5v184l7 127h-17q-125 -135 -287 -135q-186 0 -269 125 t-83 322zM319 479q0 -141 44.5 -207.5t142.5 -66.5q131 0 229 117v344q-93 118 -225 118h-2q-106 0 -147.5 -72.5t-41.5 -232.5z" />
<glyph unicode="h" horiz-adv-x="1122" d="M143 0v1374h219v-399l-6 -156h13q135 164 331 164q143 0 215 -66.5t72 -211.5v-705h-221v762q-55 18 -129 18q-92 0 -156.5 -26.5t-118.5 -79.5v-674h-219z" />
<glyph unicode="i" horiz-adv-x="509" d="M141 1120v234h228v-234h-228zM145 0v965h217v-965h-217z" />
<glyph unicode="j" horiz-adv-x="612" d="M-78 -362l55 188q51 -16 85 -22.5t77 -6.5q57 0 103 15q14 39 14 116v1037h217v-1053q0 -150 -80 -234t-239 -84q-54 0 -117.5 11.5t-114.5 32.5zM252 1120v234h227v-234h-227z" />
<glyph unicode="k" horiz-adv-x="1071" d="M135 0v1374h217v-782h68q84 0 125 31.5t71 99.5l109 260l209 -76l-100 -231q-27 -66 -72 -105t-129 -63v-12q80 -20 120 -55t78 -109l95 -205l82 -18v-105q-66 -18 -131 -18q-64 0 -100 22.5t-58 73.5l-80 182q-35 80 -79 115t-130 35h-78v-414h-217z" />
<glyph unicode="l" horiz-adv-x="610" d="M131 184v1190h217v-1114q0 -51 10 -78h27l115 60l82 -109q-35 -57 -104.5 -101t-135.5 -46q-37 10 -87 43.5t-87 77t-37 77.5z" />
<glyph unicode="m" horiz-adv-x="1699" d="M143 0v965h189l16 -142h17q127 156 313 156q109 0 173 -37t91 -125h16q59 74 142.5 118t183.5 44q143 0 211 -61.5t68 -212.5v-705h-220v762q-61 16 -129 16q-154 0 -251 -94v-684h-220v766q-51 16 -122 16q-154 0 -259 -92v-690h-219z" />
<glyph unicode="n" horiz-adv-x="1122" d="M152 0v965h196l12 -150h17q133 168 332 168q141 0 209.5 -67.5t68.5 -210.5v-705h-219v762q-53 18 -125 18q-178 0 -272 -104v-676h-219z" />
<glyph unicode="o" horiz-adv-x="1089" d="M94 469q0 240 120 378t357 138q424 0 424 -502q0 -499 -475 -499h-2q-225 0 -324.5 126t-99.5 359zM311 492q0 -123 20.5 -191t74 -99.5t155.5 -31.5t176 29q41 92 41 258q0 125 -19.5 196.5t-73.5 105.5t-157 34q-102 0 -176 -29q-41 -94 -41 -272z" />
<glyph unicode="p" horiz-adv-x="1120" d="M143 -383v1348h201l8 -131h17q122 149 299 149h2q188 0 271 -129t83 -373q0 -215 -87 -356t-278 -141q-174 0 -290 122h-13l6 -141v-348h-219zM365 270q53 -51 109 -73.5t124 -22.5q111 0 157 78t46 235q0 160 -46 230.5t-169 70.5q-78 0 -133.5 -35.5t-87.5 -90.5v-392z " />
<glyph unicode="q" horiz-adv-x="1126" d="M94 459q0 256 131 391t379 135q182 0 369 -57v-1325h-221v381l10 149h-12q-61 -72 -130 -110.5t-165 -38.5q-190 0 -275.5 132t-85.5 343zM324 465q0 -147 48 -215t150 -68q68 0 124 28t106 83v475q-74 18 -168 18q-139 0 -199.5 -72.5t-60.5 -248.5z" />
<glyph unicode="r" horiz-adv-x="804" d="M143 0v963h193l12 -193h21q47 94 130 148.5t175 54.5q16 0 40.5 -16.5t37.5 -32.5l-23 -187h-92q-94 0 -167 -35.5t-108 -111.5v-590h-219z" />
<glyph unicode="s" horiz-adv-x="921" d="M82 63l63 173q68 -33 146 -51.5t153 -18.5q96 0 160 12q16 33 17 82q0 39 -13.5 60.5t-50.5 37t-115 31.5q-121 27 -195.5 59.5t-116.5 90t-42 151.5q0 127 96.5 210t288.5 83q186 0 318 -68v-65q0 -37 -7.5 -87t-19.5 -79h-168l-16 119q-66 8 -119 8q-86 0 -122 -24.5 t-36 -81.5q0 -55 44 -86t159 -54q119 -25 186.5 -54.5t104.5 -85.5t37 -151q0 -131 -96.5 -210.5t-297.5 -79.5h-5q-208 0 -353 79z" />
<glyph unicode="t" horiz-adv-x="825" d="M33 782l26 183h152v256h215v-256h322l-27 -183h-295v-493q0 -43 16 -88q49 -16 97 -17q41 0 92 12.5t94 32.5l45 -188q-45 -25 -103.5 -42t-119.5 -17h-8q-90 0 -166 22q-68 41 -115 95.5t-47 117.5v565h-178z" />
<glyph unicode="u" horiz-adv-x="1101" d="M131 270v695h221v-766q57 -16 123 -17q168 0 262 107v676h221v-965h-194l-12 147h-17q-68 -80 -143.5 -121.5t-179.5 -41.5q-144 0 -212.5 67.5t-68.5 218.5z" />
<glyph unicode="v" horiz-adv-x="985" d="M45 956l211 15q117 -467 229 -768h13q125 336 233 768l207 -15q-127 -485 -328 -956h-241q-103 231 -179.5 463.5t-144.5 492.5z" />
<glyph unicode="w" horiz-adv-x="1497" d="M68 961l215 14q55 -268 95 -441.5t87 -328.5h12q115 283 193 540q-18 68 -47 203l200 15q51 -246 94.5 -416t100.5 -346h12q98 276 215 774l211 -19q-78 -289 -149.5 -515t-155.5 -441h-246q-88 225 -153 453h-11q-49 -137 -127 -340l-43 -113h-225q-161 435 -278 961z " />
<glyph unicode="x" horiz-adv-x="1038" d="M49 14q109 223 285 459q-68 96 -144.5 227t-134.5 246l240 29q47 -111 94 -200t113 -195h28q82 121 130.5 202.5t97.5 192.5l229 -27q-117 -238 -289 -461q74 -104 148 -232t123 -241l-236 -30q-45 106 -91 194t-114 203h-26q-76 -113 -124 -199t-99 -198z" />
<glyph unicode="y" horiz-adv-x="1081" d="M68 963l225 14q106 -424 229 -735h66q96 311 194 735l226 -14q-84 -344 -182.5 -655.5t-194.5 -536.5q-33 -76 -128 -125t-181 -49q-124 0 -216 43v63q0 90 21 168h160v-86q29 -6 65 -6q23 0 76 8q49 123 94 256h-127q-117 272 -193.5 483t-133.5 437z" />
<glyph unicode="z" horiz-adv-x="956" d="M86 0v199l535 569v18h-312l-16 -118h-162q-27 80 -27 186v111h746v-220l-516 -552v-21h338l16 115h160q26 -81 26 -174v-7v-106h-788z" />
<glyph unicode="{" horiz-adv-x="888" d="M115 563v168q145 0 196 58.5t45 162.5l-8 146q-12 229 96.5 327.5t350.5 98.5v-197q-166 0 -226 -24q-12 -49 -12 -117q0 -23 4 -92l8 -168q6 -113 -41 -178.5t-147 -96.5v-8q100 -31 147 -96.5t41 -177.5l-8 -189q-4 -70 -4 -92q0 -68 12 -117q59 -25 226 -24v-197 q-242 0 -350.5 98.5t-96.5 327.5l8 166q6 104 -45 162.5t-196 58.5z" />
<glyph unicode="|" horiz-adv-x="524" d="M160 -287v1573h205v-1573h-205z" />
<glyph unicode="}" horiz-adv-x="888" d="M94 -53q164 0 225 24q12 49 13 117q0 23 -4 92l-9 189q-6 113 40.5 179t146.5 95v8q-100 29 -146.5 95.5t-40.5 179.5l9 168q4 70 4 92q0 68 -13 117q-61 25 -225 24v197q242 0 350.5 -98.5t96.5 -327.5l-9 -146q-6 -104 45.5 -162.5t196.5 -58.5v-168 q-145 0 -196.5 -58.5t-45.5 -162.5l9 -166q12 -229 -96.5 -327.5t-350.5 -98.5v197z" />
<glyph unicode="~" horiz-adv-x="948" d="M96 453q0 143 58.5 211.5t158.5 68.5q51 0 90 -14t86 -41q37 -20 59.5 -29.5t47.5 -9.5q41 0 62.5 26.5t25.5 82.5l170 -21q-6 -147 -60.5 -216t-156.5 -69q-55 0 -99 15.5t-96 44.5q-23 14 -46 24.5t-42 10.5q-41 0 -62.5 -27t-25.5 -82z" />
<glyph unicode="&#xa1;" horiz-adv-x="530" d="M147 -4v393l17 531h203l16 -531v-393h-236zM147 1049v213h236v-213h-236z" />
<glyph unicode="&#xa2;" horiz-adv-x="960" d="M94 461q0 211 90 341t262 156v308h189v-305q135 -18 231 -78v-68q0 -92 -26 -172h-170l-21 109q-57 14 -125 14q-115 0 -176 -23q-16 -51 -26.5 -125.5t-10.5 -152.5q0 -145 54.5 -215t195.5 -70q145 0 256 88l98 -155q-121 -109 -276 -127v-281h-197v285 q-188 27 -268 148.5t-80 322.5z" />
<glyph unicode="&#xa3;" horiz-adv-x="1167" d="M94 8v158l135 27v290h-131v181h131v219q0 184 114 283.5t335 99.5q106 0 184 -14.5t162 -47.5l-51 -182q-76 20 -139.5 28.5t-149.5 8.5q-68 0 -114 -3t-101 -16q-18 -72 -18 -209v-167h417v-181h-417v-288q129 -10 233 -11q178 0 399 21v-197q-225 -23 -475 -22 q-270 -1 -514 22z" />
<glyph unicode="&#xa4;" horiz-adv-x="1208" d="M121 956l129 123l139 -135q104 61 219 62q113 0 217 -62l142 135l127 -123l-140 -143q33 -55 48.5 -106.5t15.5 -110.5t-15.5 -110.5t-48.5 -106.5l140 -139l-127 -125l-142 137q-96 -61 -217 -62q-123 0 -219 62l-139 -137l-127 125l139 139q-33 55 -48 106.5t-15 110.5 t15 110.5t48 106.5zM381 596q0 -106 61.5 -166.5t165.5 -60.5q103 0 165.5 60t62.5 167q0 104 -61.5 167.5t-166.5 63.5q-104 0 -165.5 -63.5t-61.5 -167.5z" />
<glyph unicode="&#xa5;" horiz-adv-x="1318" d="M66 1225l221 51q154 -371 344 -680h57q199 326 344 680l221 -51q-86 -199 -169 -355.5t-193 -332.5h113v-150h-232v-86h232v-145h-232v-156h-225v156h-232v145h232v86h-232v150h111q-111 172 -192.5 328.5t-167.5 359.5z" />
<glyph unicode="&#xa6;" horiz-adv-x="524" d="M160 -225v659h205v-659h-205zM160 623v663h205v-663h-205z" />
<glyph unicode="&#xa7;" horiz-adv-x="1171" d="M119 504q0 86 40 145.5t120 106.5v12q-47 41 -71 88t-24 109q0 137 106.5 226t307.5 89q113 0 194.5 -22.5t149.5 -59.5v-49q0 -41 -8 -97.5t-21 -86.5h-180l-24 131q-70 8 -125 8q-94 0 -135 -27.5t-41 -93.5q0 -47 20.5 -74.5t69.5 -48t143 -41.5q137 -31 224 -65.5 t137.5 -95t50.5 -156.5q0 -176 -172 -260v-13q63 -63 63 -174q0 -139 -104.5 -227t-313.5 -88q-92 0 -168.5 14.5t-169.5 48.5l60 168q76 -25 140.5 -35t148.5 -10q92 0 168 19q16 49 16 94q0 43 -17.5 65.5t-58.5 37t-131 36.5q-197 47 -296 118t-99 208zM344 532 q0 -63 43 -100t166 -65q129 -33 215 -45q29 34 44 68t15 79q0 47 -17 74.5t-64.5 48t-139.5 39.5l-61 12q-86 16 -137 33q-63 -49 -64 -144z" />
<glyph unicode="&#xa8;" horiz-adv-x="757" d="M94 1049q0 53 31 81.5t84 28.5q55 0 86 -28.5t31 -81.5q0 -51 -31 -80t-86 -29q-53 0 -84 28.5t-31 80.5zM432 1049q0 53 31 81.5t86 28.5t85 -28.5t30 -81.5q0 -51 -30 -80t-85 -29t-86 28.5t-31 80.5z" />
<glyph unicode="&#xa9;" horiz-adv-x="1507" d="M115 631q0 182 79.5 326.5t225 226.5t334.5 82q188 0 333.5 -82t225.5 -226.5t80 -326.5t-80 -326.5t-225.5 -226.5t-333.5 -82q-189 0 -334.5 82t-225 226.5t-79.5 326.5zM223 631q0 -162 63.5 -282t183.5 -185.5t284 -65.5q247 0 388.5 143.5t141.5 389.5t-141.5 389 t-388.5 143q-164 0 -284 -65.5t-183.5 -185t-63.5 -281.5zM412 612q0 184 91 288t251 104q74 0 141.5 -17.5t103.5 -42.5v-43q0 -29 -6 -67.5t-16 -61.5h-121l-12 72q-72 10 -107 10q-61 0 -112 -10q-27 -49 -39.5 -104.5t-12.5 -129.5q0 -117 42 -166t145 -49 q61 0 117.5 15.5t93.5 42.5l55 -123q-45 -39 -114.5 -59.5t-151.5 -20.5q-170 0 -259 94t-89 268z" />
<glyph unicode="&#xaa;" horiz-adv-x="755" d="M80 733q0 115 83 170t234 55q49 0 92 -6v74q0 51 -22.5 72.5t-75.5 21.5q-49 0 -100 -10l-15 -82h-124q-23 63 -23 119v47q57 33 132 52.5t153 19.5q123 0 189.5 -58.5t66.5 -165.5v-489h-154l-6 86h-12q-74 -96 -197 -96q-104 0 -162.5 51t-58.5 139zM262 754 q0 -68 76 -68q47 0 85 16.5t75 51.5v67q-47 6 -107 6q-72 0 -117 -10q-12 -37 -12 -63z" />
<glyph unicode="&#xab;" horiz-adv-x="980" d="M96 514l273 373l161 -76l-213 -291v-12l213 -291l-161 -76zM449 514l268 365l162 -76l-209 -283v-12l209 -283l-162 -75z" />
<glyph unicode="&#xac;" horiz-adv-x="976" d="M94 518v199h789v-424h-211v225h-578z" />
<glyph unicode="&#xad;" horiz-adv-x="763" d="M127 410v202h512v-202h-512z" />
<glyph unicode="&#xae;" horiz-adv-x="1507" d="M115 631q0 182 79.5 326.5t225 226.5t334.5 82q188 0 333.5 -82t225.5 -226.5t80 -326.5t-80 -326.5t-225.5 -226.5t-333.5 -82q-189 0 -334.5 82t-225 226.5t-79.5 326.5zM223 631q0 -162 63.5 -282t183.5 -185.5t284 -65.5q247 0 388.5 143.5t141.5 389.5t-141.5 389 t-388.5 143q-164 0 -284 -65.5t-183.5 -185t-63.5 -281.5zM483 279v714q121 35 232 35q152 0 227.5 -57.5t75.5 -175.5q0 -72 -32 -125.5t-91 -81.5v-10q18 -10 31.5 -23.5t29.5 -40.5l68 -135l53 -10v-82q-6 -2 -29.5 -8.5t-56.5 -6.5q-45 0 -74.5 17.5t-46.5 54.5l-59 135 q-14 35 -34.5 52.5t-57.5 21.5h-80v-274h-156zM637 684h55q98 0 133 21.5t35 85.5q0 53 -31.5 76.5t-105.5 23.5q-47 0 -86 -8v-199z" />
<glyph unicode="&#xaf;" horiz-adv-x="831" d="M76 1004v196h678v-196h-678z" />
<glyph unicode="&#xb0;" horiz-adv-x="845" d="M84 909q0 168 104.5 260.5t288.5 92.5q340 0 340 -334q0 -168 -103.5 -260.5t-287.5 -92.5q-342 0 -342 334zM274 930q0 -109 39 -148t142 -39q75 1 149 21q23 63 23 143q0 109 -39 148t-144 39q-76 0 -149 -21q-20 -61 -21 -143z" />
<glyph unicode="&#xb1;" horiz-adv-x="1243" d="M145 616v189h369v334h213v-334h371v-189h-371v-350h-213v350h-369zM166 0v164h932v-164h-932z" />
<glyph unicode="&#xb2;" horiz-adv-x="696" d="M63 684v215q186 88 274.5 155.5t88.5 137.5q0 39 -18.5 54.5t-63.5 15.5q-37 0 -86 -13v-63h-145q-25 59 -25 137v45q129 61 268 62q129 0 191.5 -57.5t62.5 -158.5q0 -117 -92 -199.5t-272 -176.5v-9h219v62h145q20 -61 21 -146v-61h-568z" />
<glyph unicode="&#xb3;" horiz-adv-x="651" d="M45 711l21 145q109 -29 208 -29q68 0 117 9q10 35 10 63q0 41 -28.5 56.5t-89.5 15.5h-121v141h119q111 0 110 90q0 39 -21.5 56.5t-64.5 17.5t-86 -8v-64h-145q-25 63 -25 129v43q127 55 266 56q127 0 193.5 -54.5t66.5 -148.5q0 -68 -28.5 -109t-89.5 -69v-7 q68 -27 98.5 -66.5t30.5 -103.5q0 -199 -299 -198q-133 0 -242 35z" />
<glyph unicode="&#xb4;" horiz-adv-x="661" d="M88 1540l170 313l256 -26l-264 -316z" />
<glyph unicode="&#xb5;" horiz-adv-x="1103" d="M143 -436v1401h219v-768q49 -18 125 -19q86 0 147.5 27.5t115.5 89.5v670h219v-965h-195l-12 133h-17q-63 -80 -116.5 -114.5t-139.5 -34.5q-74 0 -124 41h-15v-461h-207z" />
<glyph unicode="&#xb6;" horiz-adv-x="1376" d="M125 879q0 190 104.5 288.5t298.5 98.5h537v-1512h-195v1329h-120v-1329h-193v752h-39q-184 0 -288.5 95t-104.5 278z" />
<glyph unicode="&#xb7;" horiz-adv-x="727" d="M231 551q0 55 38 93t96 38q55 0 94 -38t39 -93t-38 -92t-95 -37q-58 0 -96 37t-38 92z" />
<glyph unicode="&#xb8;" horiz-adv-x="657" d="M150 -430l45 131q59 -25 135 -25q57 0 84 7q8 18 8 45q0 53 -88 53q-51 0 -84 -17l-94 97l149 172l141 -29l-79 -110q31 14 79 14q82 0 124 -46t42 -128q0 -203 -254 -203q-124 0 -208 39z" />
<glyph unicode="&#xb9;" horiz-adv-x="487" d="M39 1321l199 109q47 -4 103 -31t56 -53v-666h-186v555l-12 8l-117 -39z" />
<glyph unicode="&#xba;" horiz-adv-x="794" d="M78 883q0 178 84 275t256 97q154 0 226.5 -95t72.5 -265q0 -176 -84 -272.5t-256 -96.5q-150 0 -224.5 93.5t-74.5 263.5zM264 901q0 -119 27.5 -166t111.5 -47q64 0 107 14q23 59 22 175q0 121 -27.5 167t-111.5 46q-63 0 -106 -15q-23 -72 -23 -174z" />
<glyph unicode="&#xbb;" horiz-adv-x="980" d="M102 225l209 283v12l-209 283l162 76l268 -365l-268 -364zM451 217l215 291v12l-215 291l161 76l273 -373l-273 -373z" />
<glyph unicode="&#xbc;" horiz-adv-x="1642" d="M104 1165l199 109q47 -4 103.5 -30.5t56.5 -53.5v-666h-193v549l-10 8l-113 -39zM309 31l772 1245l174 -51l-770 -1245zM893 254l352 477h193v-471h96v-145h-96v-115h-178v115h-310zM1092 270l4 -10h168v66q0 88 16 215h-8z" />
<glyph unicode="&#xbd;" horiz-adv-x="1644" d="M104 1165l199 109q47 -4 103.5 -30.5t56.5 -53.5v-666h-193v549l-10 8l-113 -39zM309 31l772 1245l174 -51l-770 -1245zM1049 -4v215q186 90 274 157.5t88 135.5q0 39 -18.5 54t-63.5 15q-47 0 -86 -12v-61h-145q-10 27 -17.5 64.5t-7.5 70.5v47q125 59 268 59 q129 0 191.5 -57t62.5 -156q0 -82 -48 -147.5t-122.5 -115.5t-193.5 -113v-9h219v60h145q20 -61 21 -146v-61h-567z" />
<glyph unicode="&#xbe;" horiz-adv-x="1695" d="M111 541l20 147q109 -29 209 -29q61 0 117 7q10 35 10 63q0 43 -28.5 58.5t-90.5 15.5h-121v141h119q57 0 84 22.5t27 67.5q0 74 -86 74q-43 0 -86 -8v-66h-146q-25 63 -24 129v45q123 53 266 54q127 0 193.5 -54.5t66.5 -148.5q0 -68 -28.5 -109t-90.5 -69v-7 q68 -27 98.5 -66.5t30.5 -102.5q0 -199 -299 -199q-122 0 -241 35zM414 31l772 1245l174 -51l-770 -1245zM946 254l352 477h193v-471h96v-145h-96v-115h-178v115h-309zM1147 270l4 -10h168v66q0 88 16 215h-8z" />
<glyph unicode="&#xbf;" horiz-adv-x="1105" d="M115 115q0 98 28.5 161.5t102.5 118.5l217 150q18 14 24.5 31.5t6.5 52.5v112h223v-155q0 -45 -12.5 -73t-42.5 -50l-324 -238v-102q0 -80 50 -110.5t161 -30.5q139 0 221 26v131h184q20 -80 29 -196v-64q-72 -43 -191.5 -73.5t-246.5 -30.5q-219 0 -324.5 88t-105.5 252 zM489 854v209h230v-209h-230z" />
<glyph unicode="&#xc0;" horiz-adv-x="1277" d="M63 16q84 315 190.5 651.5t209.5 598.5h352q102 -262 208.5 -598t190.5 -652l-237 -16l-37 145q-41 160 -63 240h-478q-61 -223 -98 -385zM305 1692l268 28l172 -305l-178 -29zM457 584h364q-98 328 -149 473h-64q-70 -195 -151 -473z" />
<glyph unicode="&#xc1;" horiz-adv-x="1277" d="M63 16q84 315 190.5 651.5t209.5 598.5h352q102 -262 208.5 -598t190.5 -652l-237 -16l-37 145q-41 160 -63 240h-478q-61 -223 -98 -385zM457 584h364q-98 328 -149 473h-64q-70 -195 -151 -473zM547 1417l170 312l256 -25l-264 -315z" />
<glyph unicode="&#xc2;" horiz-adv-x="1277" d="M63 16q84 315 190.5 651.5t209.5 598.5h352q102 -262 208.5 -598t190.5 -652l-237 -16l-37 145q-41 160 -63 240h-478q-61 -223 -98 -385zM342 1413l201 281h192l199 -281l-131 -27l-158 144h-12l-162 -144zM457 584h364q-98 328 -149 473h-64q-70 -195 -151 -473z" />
<glyph unicode="&#xc3;" horiz-adv-x="1277" d="M63 16q84 315 190.5 651.5t209.5 598.5h352q102 -262 208.5 -598t190.5 -652l-237 -16l-37 145q-41 160 -63 240h-478q-61 -223 -98 -385zM307 1425q4 115 48 172.5t139 57.5q33 0 62.5 -12.5t74.5 -36.5q23 -14 46 -24.5t42 -10.5q39 0 54 24.5t22 71.5l141 -43 q-4 -115 -47 -172t-135 -57q-35 0 -65 12t-68 35q-33 18 -54.5 27.5t-44.5 9.5q-37 0 -53 -26t-20 -71zM457 584h364q-98 328 -149 473h-64q-70 -195 -151 -473z" />
<glyph unicode="&#xc4;" horiz-adv-x="1277" d="M63 16q84 315 190.5 651.5t209.5 598.5h352q102 -262 208.5 -598t190.5 -652l-237 -16l-37 145q-41 160 -63 240h-478q-61 -223 -98 -385zM352 1503q0 53 31 82t84 29q55 0 86 -29t31 -82q0 -51 -31 -79.5t-86 -28.5q-53 0 -84 28.5t-31 79.5zM457 584h364 q-98 328 -149 473h-64q-70 -195 -151 -473zM690 1503q0 53 31 82t86 29t85 -29t30 -82q0 -51 -30 -79.5t-85 -28.5t-86 28.5t-31 79.5z" />
<glyph unicode="&#xc5;" horiz-adv-x="1277" d="M63 16q84 315 190.5 651.5t209.5 598.5h352q102 -262 208.5 -598t190.5 -652l-237 -16l-37 145q-41 160 -63 240h-478q-61 -223 -98 -385zM381 1593q0 90 71.5 152.5t204.5 62.5q111 0 173.5 -57t62.5 -154q0 -90 -74 -147t-203 -57q-112 0 -173.5 53t-61.5 147zM457 584 h364q-98 328 -149 473h-64q-70 -195 -151 -473zM537 1597q0 -35 25.5 -56t68.5 -21q67 0 100 10q8 37 8 59q0 41 -24.5 66.5t-69.5 25.5q-66 0 -98 -10q-10 -31 -10 -74z" />
<glyph unicode="&#xc6;" horiz-adv-x="1929" d="M29 53q285 590 641 1213h1128v-207h-637v-332h561v-197h-561v-325q121 -20 258 -21q197 0 359 37l39 -198q-156 -43 -406 -43q-225 0 -350 51t-125 180v174h-500l-194 -389zM541 588h395v463h-141q-92 -158 -254 -463z" />
<glyph unicode="&#xc7;" horiz-adv-x="1208" d="M102 594q0 315 141.5 503.5t418.5 188.5q125 0 235.5 -25.5t175.5 -64.5v-102q0 -49 -7 -102.5t-19 -90.5h-173l-20 158q-76 18 -205 18q-115 0 -235 -26q-86 -184 -86 -445q0 -221 83 -318.5t277 -97.5q104 0 195.5 25t152.5 68l94 -174q-113 -88 -307 -117 q-37 -6 -108 -10l-64 -88q31 14 80 14q82 0 124 -46t42 -128q0 -203 -254 -203q-125 0 -209 39l45 131q59 -25 135 -25q57 0 84 7q8 18 9 45q0 53 -89 53q-51 0 -83 -17l-95 97l113 131q-451 57 -451 602z" />
<glyph unicode="&#xc8;" horiz-adv-x="1136" d="M145 213v1053h863v-207h-639v-332h561v-197h-561v-323q123 -20 258 -21q203 0 358 39l39 -198q-154 -45 -403 -45q-228 0 -352 51t-124 180zM295 1694l268 28l172 -305l-178 -28z" />
<glyph unicode="&#xc9;" horiz-adv-x="1136" d="M145 213v1053h863v-207h-639v-332h561v-197h-561v-323q123 -20 258 -21q203 0 358 39l39 -198q-154 -45 -403 -45q-228 0 -352 51t-124 180zM463 1417l170 312l256 -27l-264 -313z" />
<glyph unicode="&#xca;" horiz-adv-x="1136" d="M145 213v1053h863v-207h-639v-332h561v-197h-561v-323q123 -20 258 -21q203 0 358 39l39 -198q-154 -45 -403 -45q-228 0 -352 51t-124 180zM276 1411l201 281h193l198 -281l-131 -25l-157 142h-13l-161 -142z" />
<glyph unicode="&#xcb;" horiz-adv-x="1136" d="M145 213v1053h863v-207h-639v-332h561v-197h-561v-323q123 -20 258 -21q203 0 358 39l39 -198q-154 -45 -403 -45q-228 0 -352 51t-124 180zM301 1503q0 53 30.5 82t84.5 29q55 0 85.5 -29t30.5 -82q0 -51 -30.5 -79.5t-85.5 -28.5q-54 0 -84.5 28.5t-30.5 79.5z M639 1503q0 53 30.5 82t86.5 29q55 0 84.5 -29t29.5 -82q0 -51 -29.5 -79.5t-84.5 -28.5q-56 0 -86.5 28.5t-30.5 79.5z" />
<glyph unicode="&#xcc;" horiz-adv-x="528" d="M-63 1694l268 28l172 -305l-178 -28zM152 0v1266h225v-1266h-225z" />
<glyph unicode="&#xcd;" horiz-adv-x="528" d="M152 0v1266h225v-1266h-225zM168 1417l170 312l256 -25l-264 -315z" />
<glyph unicode="&#xce;" horiz-adv-x="528" d="M-33 1413l201 281h190l201 -281l-133 -27l-156 144h-12l-164 -144zM152 0v1266h225v-1266h-225z" />
<glyph unicode="&#xcf;" horiz-adv-x="528" d="M-20 1503q0 53 30.5 82t85.5 29q53 0 84 -29t31 -82q0 -51 -30.5 -79.5t-84.5 -28.5q-53 0 -84.5 28.5t-31.5 79.5zM152 0v1266h225v-1266h-225zM317 1503q0 53 31 82t86 29t85 -29t30 -82q0 -51 -30 -79.5t-85 -28.5t-86 28.5t-31 79.5z" />
<glyph unicode="&#xd0;" horiz-adv-x="1357" d="M109 569v181h159v491q180 45 394 45q328 0 469 -161.5t141 -473.5q0 -215 -59.5 -356t-209 -218t-415.5 -77h-320v569h-159zM492 207h114q229 0 379 43q29 70 44 170t15 209q0 162 -34.5 260t-117.5 144t-226 46q-82 0 -174 -12v-317h188v-181h-188v-362z" />
<glyph unicode="&#xd1;" horiz-adv-x="1314" d="M145 0v1266h277l526 -979l17 4l-23 325v650h227v-1266h-276l-528 979l-17 -4l23 -328v-647h-226zM342 1419q4 115 48 172.5t138 57.5q33 0 63 -12.5t75 -37.5q23 -14 46 -24t42 -10q39 0 54 24.5t21 71.5l142 -43q-4 -115 -47 -172t-136 -57q-35 0 -64.5 12t-68.5 35 q-33 18 -54 27.5t-44 9.5q-37 0 -53.5 -26t-20.5 -71z" />
<glyph unicode="&#xd2;" horiz-adv-x="1306" d="M98 610q0 342 139.5 509t436.5 167q535 0 534 -629q0 -340 -140 -506.5t-437 -166.5q-264 0 -398.5 158.5t-134.5 467.5zM322 645q0 -160 31.5 -259t106.5 -147.5t206 -48.5q145 0 235 37q82 186 82 396q0 160 -30.5 258t-105.5 147t-208 49q-152 0 -242 -37 q-76 -172 -75 -395zM344 1694l268 28l172 -305l-178 -28z" />
<glyph unicode="&#xd3;" horiz-adv-x="1306" d="M98 610q0 342 139.5 509t436.5 167q535 0 534 -629q0 -340 -140 -506.5t-437 -166.5q-264 0 -398.5 158.5t-134.5 467.5zM322 645q0 -160 31.5 -259t106.5 -147.5t206 -48.5q145 0 235 37q82 186 82 396q0 160 -30.5 258t-105.5 147t-208 49q-152 0 -242 -37 q-76 -172 -75 -395zM551 1415l170 314l256 -27l-264 -316z" />
<glyph unicode="&#xd4;" horiz-adv-x="1306" d="M98 610q0 342 139.5 509t436.5 167q535 0 534 -629q0 -340 -140 -506.5t-437 -166.5q-264 0 -398.5 158.5t-134.5 467.5zM322 645q0 -160 31.5 -259t106.5 -147.5t206 -48.5q145 0 235 37q82 186 82 396q0 160 -30.5 258t-105.5 147t-208 49q-152 0 -242 -37 q-76 -172 -75 -395zM362 1411l201 281h193l198 -281l-131 -25l-157 142h-13l-161 -142z" />
<glyph unicode="&#xd5;" horiz-adv-x="1306" d="M98 610q0 342 139.5 509t436.5 167q535 0 534 -629q0 -340 -140 -506.5t-437 -166.5q-264 0 -398.5 158.5t-134.5 467.5zM322 645q0 -160 31.5 -259t106.5 -147.5t206 -48.5q145 0 235 37q82 186 82 396q0 160 -30.5 258t-105.5 147t-208 49q-152 0 -242 -37 q-76 -172 -75 -395zM344 1415q4 115 48 172.5t138 57.5q33 0 63 -12.5t75 -37.5q23 -14 46 -24t42 -10q39 0 54 24.5t21 69.5l142 -41q-4 -115 -47 -173.5t-135 -58.5q-35 0 -65 12.5t-69 35.5q-33 18 -54 27t-44 9q-37 0 -53.5 -24.5t-20.5 -69.5z" />
<glyph unicode="&#xd6;" horiz-adv-x="1306" d="M98 610q0 342 139.5 509t436.5 167q535 0 534 -629q0 -340 -140 -506.5t-437 -166.5q-264 0 -398.5 158.5t-134.5 467.5zM322 645q0 -160 31.5 -259t106.5 -147.5t206 -48.5q145 0 235 37q82 186 82 396q0 160 -30.5 258t-105.5 147t-208 49q-152 0 -242 -37 q-76 -172 -75 -395zM375 1503q0 53 30.5 82t83.5 29q55 0 86 -29t31 -82q0 -51 -30.5 -79.5t-86.5 -28.5q-53 0 -83.5 28.5t-30.5 79.5zM713 1503q0 53 30.5 82t85.5 29t85 -29t30 -82q0 -51 -29.5 -79.5t-85.5 -28.5q-55 0 -85.5 28.5t-30.5 79.5z" />
<glyph unicode="&#xd7;" horiz-adv-x="991" d="M94 371l279 260l-279 260l127 119l275 -269l272 269l127 -119l-279 -260l279 -260l-127 -119l-272 268l-275 -268z" />
<glyph unicode="&#xd8;" horiz-adv-x="1306" d="M98 610q0 342 139.5 509t436.5 167q86 0 153 -18l66 143l194 -47l-79 -174q201 -150 200 -533q0 -342 -140 -508.5t-437 -166.5q-98 0 -166 22l-76 -170l-194 49l92 203q-188 154 -189 524zM322 645q0 -231 67 -334l346 754q-43 12 -96 12q-152 0 -242 -37 q-76 -172 -75 -395zM555 203q53 -14 111 -15q145 0 235 37q82 190 82 398q0 242 -78 346z" />
<glyph unicode="&#xd9;" horiz-adv-x="1282" d="M141 393v873h226v-828q0 -141 60 -195.5t208 -54.5q174 0 280 41v1037h226v-998q0 -152 -140.5 -219t-379.5 -67q-242 0 -361 105.5t-119 305.5zM328 1694l268 28l172 -305l-178 -28z" />
<glyph unicode="&#xda;" horiz-adv-x="1282" d="M141 393v873h226v-828q0 -141 60 -195.5t208 -54.5q174 0 280 41v1037h226v-998q0 -152 -140.5 -219t-379.5 -67q-242 0 -361 105.5t-119 305.5zM514 1415l170 314l256 -27l-264 -316z" />
<glyph unicode="&#xdb;" horiz-adv-x="1282" d="M141 393v873h226v-828q0 -141 60 -195.5t208 -54.5q174 0 280 41v1037h226v-998q0 -152 -140.5 -219t-379.5 -67q-242 0 -361 105.5t-119 305.5zM344 1411l201 281h192l199 -281l-131 -25l-158 142h-12l-162 -142z" />
<glyph unicode="&#xdc;" horiz-adv-x="1282" d="M141 393v873h226v-828q0 -141 60 -195.5t208 -54.5q174 0 280 41v1037h226v-998q0 -152 -140.5 -219t-379.5 -67q-242 0 -361 105.5t-119 305.5zM358 1503q0 53 31 82t84 29q55 0 86 -29t31 -82q0 -51 -31 -79.5t-86 -28.5q-53 0 -84 28.5t-31 79.5zM696 1503q0 53 31 82 t86 29t85 -29t30 -82q0 -51 -30 -79.5t-85 -28.5t-86 28.5t-31 79.5z" />
<glyph unicode="&#xdd;" horiz-adv-x="1290" d="M49 1225l223 51q160 -412 344 -686h58q188 287 344 686l223 -51q-98 -242 -199.5 -432.5t-238.5 -380.5h-45v-412h-226v412h-45q-137 190 -238.5 380.5t-199.5 432.5zM535 1415l170 314l256 -27l-265 -316z" />
<glyph unicode="&#xde;" horiz-adv-x="1036" d="M145 0v1266h226v-234h161q205 0 318 -95t113 -280q0 -188 -113 -283t-318 -95h-161v-279h-226zM371 475h159q111 0 159 43t48 139t-49 136.5t-158 40.5h-159v-359z" />
<glyph unicode="&#xdf;" horiz-adv-x="1161" d="M139 0v985q0 184 110.5 279.5t303.5 95.5q188 0 295.5 -90t107.5 -244q0 -113 -55 -183.5t-168 -109.5v-12q154 -39 226.5 -127t72.5 -232q0 -186 -102.5 -283t-294.5 -97q-103 -1 -197 28l31 193q74 -23 156 -23q57 0 92 3t65 14q31 63 31 178q0 119 -74.5 178 t-249.5 59v201q131 0 188.5 47t57.5 139q0 82 -49 119t-147 37t-179 -18v-1137h-221z" />
<glyph unicode="&#xe0;" horiz-adv-x="1007" d="M74 242q0 160 121.5 235.5t334.5 75.5q57 0 125 -6v112q0 88 -36.5 120t-131.5 32q-55 0 -120 -8l-21 -133h-174q-27 76 -27 155v52q74 43 176.5 72.5t208.5 29.5q166 0 256.5 -78t90.5 -223v-678h-191l-12 135h-17q-111 -152 -297 -151q-143 0 -214.5 67.5t-71.5 190.5z M231 1397l269 28l172 -305l-178 -26zM303 270q0 -59 28.5 -84.5t84.5 -25.5q76 0 138 30.5t105 90.5v120q-78 14 -170 15q-104 0 -161 -17q-14 -35 -19.5 -63.5t-5.5 -65.5z" />
<glyph unicode="&#xe1;" horiz-adv-x="1007" d="M74 242q0 160 121.5 235.5t334.5 75.5q57 0 125 -6v112q0 88 -36.5 120t-131.5 32q-55 0 -120 -8l-21 -133h-174q-27 76 -27 155v52q74 43 176.5 72.5t208.5 29.5q166 0 256.5 -78t90.5 -223v-678h-191l-12 135h-17q-111 -152 -297 -151q-143 0 -214.5 67.5t-71.5 190.5z M303 270q0 -59 28.5 -84.5t84.5 -25.5q76 0 138 30.5t105 90.5v120q-78 14 -170 15q-104 0 -161 -17q-14 -35 -19.5 -63.5t-5.5 -65.5zM414 1120l170 314l256 -27l-265 -313z" />
<glyph unicode="&#xe2;" horiz-adv-x="1007" d="M74 242q0 160 121.5 235.5t334.5 75.5q57 0 125 -6v112q0 88 -36.5 120t-131.5 32q-55 0 -120 -8l-21 -133h-174q-27 76 -27 155v52q74 43 176.5 72.5t208.5 29.5q166 0 256.5 -78t90.5 -223v-678h-191l-12 135h-17q-111 -152 -297 -151q-143 0 -214.5 67.5t-71.5 190.5z M215 1116l201 281h192l199 -281l-131 -26l-158 143h-12l-162 -143zM303 270q0 -59 28.5 -84.5t84.5 -25.5q76 0 138 30.5t105 90.5v120q-78 14 -170 15q-104 0 -161 -17q-14 -35 -19.5 -63.5t-5.5 -65.5z" />
<glyph unicode="&#xe3;" horiz-adv-x="1007" d="M74 242q0 160 121.5 235.5t334.5 75.5q57 0 125 -6v112q0 88 -36.5 120t-131.5 32q-55 0 -120 -8l-21 -133h-174q-27 76 -27 155v52q74 43 176.5 72.5t208.5 29.5q166 0 256.5 -78t90.5 -223v-678h-191l-12 135h-17q-111 -152 -297 -151q-143 0 -214.5 67.5t-71.5 190.5z M203 1130q4 115 48 172.5t138 57.5q33 0 62.5 -12.5t74.5 -36.5q23 -14 46.5 -24.5t41.5 -10.5q39 0 54.5 24.5t21.5 69.5l141 -41q-4 -115 -47 -172t-135 -57q-35 0 -64.5 12t-68.5 35q-33 18 -54.5 27.5t-43.5 9.5q-37 0 -53.5 -25.5t-20.5 -71.5zM303 270 q0 -59 28.5 -84.5t84.5 -25.5q76 0 138 30.5t105 90.5v120q-78 14 -170 15q-104 0 -161 -17q-14 -35 -19.5 -63.5t-5.5 -65.5z" />
<glyph unicode="&#xe4;" horiz-adv-x="1007" d="M74 242q0 160 121.5 235.5t334.5 75.5q57 0 125 -6v112q0 88 -36.5 120t-131.5 32q-55 0 -120 -8l-21 -133h-174q-27 76 -27 155v52q74 43 176.5 72.5t208.5 29.5q166 0 256.5 -78t90.5 -223v-678h-191l-12 135h-17q-111 -152 -297 -151q-143 0 -214.5 67.5t-71.5 190.5z M240 1206q0 53 30.5 83t83.5 30q55 0 86 -29.5t31 -83.5q0 -51 -30.5 -78.5t-86.5 -27.5q-53 0 -83.5 27.5t-30.5 78.5zM303 270q0 -59 28.5 -84.5t84.5 -25.5q76 0 138 30.5t105 90.5v120q-78 14 -170 15q-104 0 -161 -17q-14 -35 -19.5 -63.5t-5.5 -65.5zM578 1206 q0 53 30.5 83t85.5 30t85 -29.5t30 -83.5q0 -51 -29.5 -78.5t-85.5 -27.5q-55 0 -85.5 27.5t-30.5 78.5z" />
<glyph unicode="&#xe5;" horiz-adv-x="1007" d="M74 242q0 160 121.5 235.5t334.5 75.5q57 0 125 -6v112q0 88 -36.5 120t-131.5 32q-55 0 -120 -8l-21 -133h-174q-27 76 -27 155v52q74 43 176.5 72.5t208.5 29.5q166 0 256.5 -78t90.5 -223v-678h-191l-12 135h-17q-111 -152 -297 -151q-143 0 -214.5 67.5t-71.5 190.5z M279 1294q0 92 71.5 154.5t204.5 62.5q111 0 173.5 -57t62.5 -154q0 -90 -74 -147t-203 -57q-113 0 -174 53t-61 145zM303 270q0 -59 28.5 -84.5t84.5 -25.5q76 0 138 30.5t105 90.5v120q-78 14 -170 15q-104 0 -161 -17q-14 -35 -19.5 -63.5t-5.5 -65.5zM434 1300 q0 -35 25.5 -56t68.5 -21q68 0 101 10q8 37 8 59q0 41 -24.5 66.5t-69.5 25.5q-66 0 -99 -10q-10 -31 -10 -74z" />
<glyph unicode="&#xe6;" horiz-adv-x="1607" d="M74 242q0 160 121.5 235.5t334.5 75.5q74 0 142 -6v112q0 86 -44 119t-141 33q-55 0 -120 -8l-21 -133h-174q-27 76 -27 155v52q74 43 175.5 72.5t207.5 29.5q100 0 175 -32t118 -91q111 127 312 127q190 0 286.5 -105.5t96.5 -289.5q0 -37 -3 -58l-133 -131l-487 7 q4 -117 61.5 -174.5t184.5 -57.5q98 0 169.5 22.5t141.5 67.5l61 -170q-80 -51 -168 -78.5t-215 -27.5q-242 0 -346 153q-80 -78 -169 -117.5t-228 -39.5q-145 0 -228 69.5t-83 188.5zM303 270q0 -59 31 -84.5t92 -25.5q146 0 250 98v143q-78 14 -187 15q-104 0 -161 -17 q-14 -35 -19.5 -63.5t-5.5 -65.5zM893 553l410 8q10 33 10 76q0 74 -50.5 117t-142.5 43q-127 0 -175 -57.5t-52 -186.5z" />
<glyph unicode="&#xe7;" horiz-adv-x="958" d="M88 461q0 238 117 378t332 140q100 0 185 -23.5t142 -60.5v-74q0 -102 -26 -186h-170l-17 129q-49 14 -129 14q-115 0 -176 -22q-18 -51 -29.5 -132t-11.5 -159q0 -143 56.5 -212t197.5 -69q152 0 254 88l100 -157q-68 -59 -144.5 -92t-176.5 -39l-66 -90q35 14 82 14 q82 0 123 -46t41 -128q0 -203 -252 -203q-125 0 -209 39l43 131q61 -25 138 -25q57 0 83 7q8 18 9 45q0 53 -90 53q-51 0 -84 -17l-93 97l113 131q-184 29 -263 149.5t-79 319.5z" />
<glyph unicode="&#xe8;" horiz-adv-x="1030" d="M94 473q0 242 119 376t338 134q190 0 288.5 -106.5t98.5 -290.5q0 -37 -2 -56l-133 -131l-496 7q4 -236 256 -236q96 0 167 22.5t142 67.5l62 -168q-80 -51 -168 -78.5t-213 -27.5q-234 0 -346.5 126t-112.5 361zM223 1397l269 28l172 -305l-179 -28zM305 553l420 8 q10 33 10 76q0 74 -50 117t-142 43q-129 0 -181.5 -58.5t-56.5 -185.5z" />
<glyph unicode="&#xe9;" horiz-adv-x="1030" d="M94 473q0 242 119 376t338 134q190 0 288.5 -106.5t98.5 -290.5q0 -37 -2 -56l-133 -131l-496 7q4 -236 256 -236q96 0 167 22.5t142 67.5l62 -168q-80 -51 -168 -78.5t-213 -27.5q-234 0 -346.5 126t-112.5 361zM305 553l420 8q10 33 10 76q0 74 -50 117t-142 43 q-129 0 -181.5 -58.5t-56.5 -185.5zM420 1120l170 312l256 -25l-264 -315z" />
<glyph unicode="&#xea;" horiz-adv-x="1030" d="M94 473q0 242 119 376t338 134q190 0 288.5 -106.5t98.5 -290.5q0 -37 -2 -56l-133 -131l-496 7q4 -236 256 -236q96 0 167 22.5t142 67.5l62 -168q-80 -51 -168 -78.5t-213 -27.5q-234 0 -346.5 126t-112.5 361zM244 1116l200 281h193l199 -281l-131 -26l-158 143h-12 l-162 -143zM305 553l420 8q10 33 10 76q0 74 -50 117t-142 43q-129 0 -181.5 -58.5t-56.5 -185.5z" />
<glyph unicode="&#xeb;" horiz-adv-x="1030" d="M94 473q0 242 119 376t338 134q190 0 288.5 -106.5t98.5 -290.5q0 -37 -2 -56l-133 -131l-496 7q4 -236 256 -236q96 0 167 22.5t142 67.5l62 -168q-80 -51 -168 -78.5t-213 -27.5q-234 0 -346.5 126t-112.5 361zM254 1206q0 53 30.5 83t84.5 30q55 0 85.5 -29.5 t30.5 -83.5q0 -51 -30.5 -78.5t-85.5 -27.5q-54 0 -84.5 27.5t-30.5 78.5zM305 553l420 8q10 33 10 76q0 74 -50 117t-142 43q-129 0 -181.5 -58.5t-56.5 -185.5zM592 1206q0 53 30.5 83t86.5 30q55 0 84.5 -29.5t29.5 -83.5q0 -51 -29.5 -78.5t-84.5 -27.5 q-56 0 -86.5 27.5t-30.5 78.5z" />
<glyph unicode="&#xec;" horiz-adv-x="499" d="M-106 1397l268 28l174 -305l-178 -28zM141 0v963h217v-963h-217z" />
<glyph unicode="&#xed;" horiz-adv-x="499" d="M141 0v963h217v-963h-217zM143 1120l170 314l256 -27l-264 -313z" />
<glyph unicode="&#xee;" horiz-adv-x="499" d="M-45 1116l201 281h192l199 -281l-133 -26l-156 143h-12l-164 -143zM141 0v963h217v-963h-217z" />
<glyph unicode="&#xef;" horiz-adv-x="499" d="M-35 1202q0 53 31 83t84 30t84 -30t31 -83q0 -49 -31 -77.5t-84 -28.5t-84 28.5t-31 77.5zM141 0v963h217v-963h-217zM303 1202q0 53 31 83t86 30t85 -30t30 -83q0 -49 -30 -77.5t-85 -28.5t-86 28.5t-31 77.5z" />
<glyph unicode="&#xf0;" horiz-adv-x="1189" d="M145 375q0 180 112 280.5t286 100.5q147 0 239 -90h13q-6 152 -88 266l-244 -88l-53 127l188 69q-63 47 -178 99l121 129q156 -74 245 -158l213 82l66 -133l-172 -60q70 -96 100.5 -218t30.5 -273q0 -244 -111.5 -392.5t-359.5 -148.5q-186 0 -297 106.5t-111 301.5z M362 375q0 -111 53.5 -164t168.5 -53q96 -1 188 26q33 94 33 224q0 51 -6 94q-55 33 -106.5 48t-112.5 15q-217 0 -218 -190z" />
<glyph unicode="&#xf1;" horiz-adv-x="1114" d="M152 0v965h196l12 -150h17q133 168 332 168q141 0 209.5 -67.5t68.5 -210.5v-705h-219v762q-53 18 -125 18q-178 0 -272 -104v-676h-219zM250 1126q4 115 48 172.5t138 57.5q33 0 62.5 -12.5t74.5 -36.5q23 -14 46.5 -24.5t42.5 -10.5q39 0 54 24.5t21 71.5l142 -43 q-4 -115 -47.5 -172t-135.5 -57q-35 0 -64.5 12t-68.5 35q-33 18 -54.5 27.5t-43.5 9.5q-37 0 -53.5 -26t-20.5 -71z" />
<glyph unicode="&#xf2;" horiz-adv-x="1089" d="M94 469q0 240 120 378t357 138q424 0 424 -502q0 -500 -477 -499q-225 0 -324.5 126t-99.5 359zM240 1397l268 28l172 -305l-178 -26zM311 492q0 -123 20.5 -191t74 -99.5t155.5 -31.5t176 29q41 92 41 258q0 125 -19.5 196.5t-73.5 105.5t-157 34q-102 0 -176 -29 q-41 -94 -41 -272z" />
<glyph unicode="&#xf3;" horiz-adv-x="1089" d="M94 469q0 240 120 378t357 138q424 0 424 -502q0 -500 -477 -499q-225 0 -324.5 126t-99.5 359zM311 492q0 -123 20.5 -191t74 -99.5t155.5 -31.5t176 29q41 92 41 258q0 125 -19.5 196.5t-73.5 105.5t-157 34q-102 0 -176 -29q-41 -94 -41 -272zM444 1120l170 312 l256 -25l-264 -315z" />
<glyph unicode="&#xf4;" horiz-adv-x="1089" d="M94 469q0 240 120 378t357 138q424 0 424 -502q0 -500 -477 -499q-225 0 -324.5 126t-99.5 359zM248 1116l201 281h192l199 -281l-131 -26l-158 143h-12l-162 -143zM311 492q0 -123 20.5 -191t74 -99.5t155.5 -31.5t176 29q41 92 41 258q0 125 -19.5 196.5t-73.5 105.5 t-157 34q-102 0 -176 -29q-41 -94 -41 -272z" />
<glyph unicode="&#xf5;" horiz-adv-x="1089" d="M94 469q0 240 120 378t357 138q424 0 424 -502q0 -500 -477 -499q-225 0 -324.5 126t-99.5 359zM229 1130q4 115 48.5 172.5t138.5 57.5q33 0 62.5 -12.5t74.5 -36.5q23 -14 46.5 -24.5t41.5 -10.5q39 0 54.5 24.5t21.5 69.5l141 -41q-4 -115 -47 -172t-135 -57 q-35 0 -64.5 12t-68.5 35q-33 18 -54.5 27.5t-44.5 9.5q-37 0 -53 -25.5t-20 -71.5zM311 492q0 -123 20.5 -191t74 -99.5t155.5 -31.5t176 29q41 92 41 258q0 125 -19.5 196.5t-73.5 105.5t-157 34q-102 0 -176 -29q-41 -94 -41 -272z" />
<glyph unicode="&#xf6;" horiz-adv-x="1089" d="M94 469q0 240 120 378t357 138q424 0 424 -502q0 -500 -477 -499q-225 0 -324.5 126t-99.5 359zM266 1206q0 53 31 83t84 30q55 0 86 -29.5t31 -83.5q0 -51 -31 -78.5t-86 -27.5q-53 0 -84 27.5t-31 78.5zM311 492q0 -123 20.5 -191t74 -99.5t155.5 -31.5t176 29 q41 92 41 258q0 125 -19.5 196.5t-73.5 105.5t-157 34q-102 0 -176 -29q-41 -94 -41 -272zM604 1206q0 53 31 83t86 30t85 -29.5t30 -83.5q0 -51 -30 -78.5t-85 -27.5t-86 27.5t-31 78.5z" />
<glyph unicode="&#xf7;" horiz-adv-x="1089" d="M94 535v184h901v-184h-901zM422 303q0 53 36 88t87 35q53 0 88 -35t35 -88t-36 -89t-87 -36t-87 36t-36 89zM422 952q0 53 36 88t87 35q53 0 88 -34.5t35 -88.5q0 -53 -36 -89t-87 -36t-87 36t-36 89z" />
<glyph unicode="&#xf8;" horiz-adv-x="1089" d="M94 469q0 240 120 378t357 138q61 0 105 -8l76 168l161 -47l-84 -185q166 -117 166 -430q0 -500 -477 -499q-66 0 -108 8l-103 -225l-162 49l109 237q-160 115 -160 416zM311 492q0 -84 8.5 -139.5t28.5 -92.5l242 528q-37 4 -62 5q-102 0 -176 -29q-41 -94 -41 -272z M494 174q41 -4 67 -4q102 0 176 29q41 92 41 258q0 180 -43 250z" />
<glyph unicode="&#xf9;" horiz-adv-x="1101" d="M131 270v695h221v-766q57 -16 123 -17q168 0 262 107v676h221v-965h-194l-12 147h-17q-68 -80 -143.5 -121.5t-179.5 -41.5q-144 0 -212.5 67.5t-68.5 218.5zM229 1397l269 28l172 -305l-178 -28z" />
<glyph unicode="&#xfa;" horiz-adv-x="1101" d="M131 270v695h221v-766q57 -16 123 -17q168 0 262 107v676h221v-965h-194l-12 147h-17q-68 -80 -143.5 -121.5t-179.5 -41.5q-144 0 -212.5 67.5t-68.5 218.5zM420 1120l170 312l256 -25l-264 -315z" />
<glyph unicode="&#xfb;" horiz-adv-x="1101" d="M131 270v695h221v-766q57 -16 123 -17q168 0 262 107v676h221v-965h-194l-12 147h-17q-68 -80 -143.5 -121.5t-179.5 -41.5q-144 0 -212.5 67.5t-68.5 218.5zM246 1116l200 281h193l199 -281l-131 -24l-158 141h-12l-162 -141z" />
<glyph unicode="&#xfc;" horiz-adv-x="1101" d="M131 270v695h221v-766q57 -16 123 -17q168 0 262 107v676h221v-965h-194l-12 147h-17q-68 -80 -143.5 -121.5t-179.5 -41.5q-144 0 -212.5 67.5t-68.5 218.5zM266 1206q0 53 31 83t84 30q55 0 86 -29.5t31 -83.5q0 -51 -31 -78.5t-86 -27.5q-53 0 -84 27.5t-31 78.5z M604 1206q0 53 31 83t86 30t85 -29.5t30 -83.5q0 -51 -30 -78.5t-85 -27.5t-86 27.5t-31 78.5z" />
<glyph unicode="&#xfd;" horiz-adv-x="1081" d="M68 963l225 14q106 -424 229 -735h66q96 311 194 735l226 -14q-84 -344 -182.5 -655.5t-194.5 -536.5q-33 -76 -128 -125t-181 -49q-124 0 -216 43v63q0 90 21 168h160v-86q29 -6 65 -6q23 0 76 8q49 123 94 256h-127q-117 272 -193.5 483t-133.5 437zM434 1120l170 312 l256 -25l-264 -315z" />
<glyph unicode="&#xfe;" horiz-adv-x="1048" d="M145 -369v1753h226v-485h14q57 37 116.5 55.5t131.5 18.5q172 0 257 -119t85 -311q0 -193 -85 -311.5t-257 -118.5q-72 0 -130.5 18.5t-117.5 54.5h-14v-555h-226zM371 356q86 -39 186 -39q105 0 150 56.5t45 169.5t-45 169t-146 56q-98 0 -190 -37v-375z" />
<glyph unicode="&#xff;" horiz-adv-x="1081" d="M68 963l225 14q106 -424 229 -735h66q96 311 194 735l226 -14q-84 -344 -182.5 -655.5t-194.5 -536.5q-33 -76 -128 -125t-181 -49q-124 0 -216 43v63q0 90 21 168h160v-86q29 -6 65 -6q23 0 76 8q49 123 94 256h-127q-117 272 -193.5 483t-133.5 437zM268 1206 q0 53 31 83t84 30q55 0 86 -29.5t31 -83.5q0 -51 -31 -78.5t-86 -27.5q-53 0 -84 27.5t-31 78.5zM606 1206q0 53 31 83t86 30t85 -29.5t30 -83.5q0 -51 -30 -78.5t-85 -27.5t-86 27.5t-31 78.5z" />
<glyph unicode="&#x100;" horiz-adv-x="1277" d="M63 16q84 315 190.5 651.5t209.5 598.5h352q102 -262 208.5 -598t190.5 -652l-237 -16l-37 145q-41 160 -63 240h-478q-61 -223 -98 -385zM340 1401v176h596v-176h-596zM457 584h364q-98 328 -149 473h-64q-70 -195 -151 -473z" />
<glyph unicode="&#x101;" horiz-adv-x="1007" d="M74 242q0 160 121.5 235.5t334.5 75.5q57 0 125 -6v112q0 88 -36.5 120t-131.5 32q-55 0 -120 -8l-21 -133h-174q-27 76 -27 155v52q74 43 176.5 72.5t208.5 29.5q166 0 256.5 -78t90.5 -223v-678h-191l-12 135h-17q-111 -152 -297 -151q-143 0 -214.5 67.5t-71.5 190.5z M221 1106v176h596v-176h-596zM303 270q0 -59 28.5 -84.5t84.5 -25.5q76 0 138 30.5t105 90.5v120q-78 14 -170 15q-104 0 -161 -17q-14 -35 -19.5 -63.5t-5.5 -65.5z" />
<glyph unicode="&#x102;" horiz-adv-x="1277" d="M63 16q84 315 190.5 651.5t209.5 598.5h352q102 -262 208.5 -598t190.5 -652l-237 -16l-37 145q-41 160 -63 240h-478q-61 -223 -98 -385zM338 1642l197 31q4 -57 25.5 -84.5t76.5 -27.5t76.5 27.5t25.5 84.5l197 -31q-12 -125 -85 -189t-214 -64t-214 64.5t-85 188.5z M457 584h364q-98 328 -149 473h-64q-70 -195 -151 -473z" />
<glyph unicode="&#x103;" horiz-adv-x="1007" d="M74 242q0 160 121.5 235.5t334.5 75.5q57 0 125 -6v112q0 88 -36.5 120t-131.5 32q-55 0 -120 -8l-21 -133h-174q-27 76 -27 155v52q74 43 176.5 72.5t208.5 29.5q166 0 256.5 -78t90.5 -223v-678h-191l-12 135h-17q-111 -152 -297 -151q-143 0 -214.5 67.5t-71.5 190.5z M231 1348l197 28q4 -57 25.5 -83.5t76.5 -26.5t77 26.5t26 83.5l196 -28q-12 -125 -84.5 -189.5t-214.5 -64.5q-141 0 -213.5 64.5t-85.5 189.5zM303 270q0 -59 28.5 -84.5t84.5 -25.5q76 0 138 30.5t105 90.5v120q-78 14 -170 15q-104 0 -161 -17q-14 -35 -19.5 -63.5 t-5.5 -65.5z" />
<glyph unicode="&#x104;" horiz-adv-x="1284" d="M63 16q84 315 190.5 651.5t209.5 598.5h352q102 -262 208.5 -598t190.5 -652l-77 -6q-63 -35 -88 -67.5t-25 -75.5q0 -23 6 -41q27 -8 76 -8q45 0 80 12l35 -145q-57 -29 -154 -29q-117 0 -178.5 44t-61.5 128q0 66 36 111t108 81q-43 152 -94 365h-478 q-61 -223 -98 -385zM457 584h364q-98 328 -149 473h-64q-70 -195 -151 -473z" />
<glyph unicode="&#x105;" horiz-adv-x="1007" d="M74 242q0 160 121.5 235.5t334.5 75.5q57 0 125 -6v112q0 88 -36.5 120t-131.5 32q-55 0 -120 -8l-21 -133h-174q-27 76 -27 155v52q74 43 176.5 72.5t208.5 29.5q166 0 256.5 -78t90.5 -223v-678h-33q-70 -37 -96.5 -77t-26.5 -89q0 -23 6 -41q27 -8 74 -8t80 10 l37 -145q-68 -29 -156 -29q-117 0 -177.5 44t-60.5 128q0 72 41 121t123 84l-14 137h-17q-111 -152 -297 -151q-143 0 -214.5 67.5t-71.5 190.5zM303 270q0 -59 28.5 -84.5t84.5 -25.5q76 0 138 30.5t105 90.5v120q-78 14 -170 15q-104 0 -161 -17q-14 -35 -19.5 -63.5 t-5.5 -65.5z" />
<glyph unicode="&#x106;" horiz-adv-x="1208" d="M102 594q0 315 141.5 503.5t418.5 188.5q125 0 235.5 -25.5t175.5 -64.5v-102q0 -49 -7 -102.5t-19 -90.5h-173l-20 158q-76 18 -205 18q-115 0 -235 -26q-86 -184 -86 -445q0 -221 83 -318.5t277 -97.5q104 0 195.5 25t152.5 68l94 -174q-78 -61 -192.5 -94t-259.5 -33 q-287 0 -431.5 154.5t-144.5 457.5zM563 1417l170 312l256 -25l-264 -315z" />
<glyph unicode="&#x107;" horiz-adv-x="958" d="M88 461q0 238 117 378t332 140q100 0 185 -23.5t142 -60.5v-74q0 -102 -26 -186h-170l-17 129q-49 14 -129 14q-115 0 -176 -22q-18 -51 -29.5 -132t-11.5 -159q0 -143 56.5 -212t197.5 -69q152 0 254 88l100 -157q-76 -66 -160.5 -99.5t-199.5 -33.5 q-252 0 -358.5 125.5t-106.5 353.5zM414 1120l170 312l256 -25l-265 -315z" />
<glyph unicode="&#x108;" horiz-adv-x="1208" d="M102 594q0 315 141.5 503.5t418.5 188.5q125 0 235.5 -25.5t175.5 -64.5v-102q0 -49 -7 -102.5t-19 -90.5h-173l-20 158q-76 18 -205 18q-115 0 -235 -26q-86 -184 -86 -445q0 -221 83 -318.5t277 -97.5q104 0 195.5 25t152.5 68l94 -174q-78 -61 -192.5 -94t-259.5 -33 q-287 0 -431.5 154.5t-144.5 457.5zM377 1411l201 281h192l199 -281l-131 -25l-158 142h-12l-162 -142z" />
<glyph unicode="&#x109;" horiz-adv-x="958" d="M88 461q0 238 117 378t332 140q100 0 185 -23.5t142 -60.5v-74q0 -102 -26 -186h-170l-17 129q-49 14 -129 14q-115 0 -176 -22q-18 -51 -29.5 -132t-11.5 -159q0 -143 56.5 -212t197.5 -69q152 0 254 88l100 -157q-76 -66 -160.5 -99.5t-199.5 -33.5 q-252 0 -358.5 125.5t-106.5 353.5zM225 1116l201 281h192l199 -281l-131 -26l-158 143h-12l-162 -143z" />
<glyph unicode="&#x10a;" horiz-adv-x="1208" d="M102 594q0 315 141.5 503.5t418.5 188.5q125 0 235.5 -25.5t175.5 -64.5v-102q0 -49 -7 -102.5t-19 -90.5h-173l-20 158q-76 18 -205 18q-115 0 -235 -26q-86 -184 -86 -445q0 -221 83 -318.5t277 -97.5q104 0 195.5 25t152.5 68l94 -174q-78 -61 -192.5 -94t-259.5 -33 q-287 0 -431.5 154.5t-144.5 457.5zM526 1526q0 63 37 99t103 36t103.5 -36t37.5 -99q0 -61 -38 -96t-103 -35q-66 0 -103 34.5t-37 96.5z" />
<glyph unicode="&#x10b;" horiz-adv-x="958" d="M88 461q0 238 117 378t332 140q100 0 185 -23.5t142 -60.5v-74q0 -102 -26 -186h-170l-17 129q-49 14 -129 14q-115 0 -176 -22q-18 -51 -29.5 -132t-11.5 -159q0 -143 56.5 -212t197.5 -69q152 0 254 88l100 -157q-76 -66 -160.5 -99.5t-199.5 -33.5 q-252 0 -358.5 125.5t-106.5 353.5zM387 1225q0 66 37 100.5t102 34.5q68 0 105 -35t37 -100q0 -59 -38 -94t-104 -35q-65 0 -102 34.5t-37 94.5z" />
<glyph unicode="&#x10c;" horiz-adv-x="1208" d="M102 594q0 315 141.5 503.5t418.5 188.5q125 0 235.5 -25.5t175.5 -64.5v-102q0 -49 -7 -102.5t-19 -90.5h-173l-20 158q-76 18 -205 18q-115 0 -235 -26q-86 -184 -86 -445q0 -221 83 -318.5t277 -97.5q104 0 195.5 25t152.5 68l94 -174q-78 -61 -192.5 -94t-259.5 -33 q-287 0 -431.5 154.5t-144.5 457.5zM365 1681l129 25l161 -141h13l157 141l131 -25l-198 -280h-193z" />
<glyph unicode="&#x10d;" horiz-adv-x="958" d="M88 461q0 238 117 378t332 140q100 0 185 -23.5t142 -60.5v-74q0 -102 -26 -186h-170l-17 129q-49 14 -129 14q-115 0 -176 -22q-18 -51 -29.5 -132t-11.5 -159q0 -143 56.5 -212t197.5 -69q152 0 254 88l100 -157q-76 -66 -160.5 -99.5t-199.5 -33.5 q-252 0 -358.5 125.5t-106.5 353.5zM227 1386l129 25l162 -141h12l158 141l131 -25l-198 -280h-193z" />
<glyph unicode="&#x10e;" horiz-adv-x="1234" d="M145 0v1241q176 45 394 45q328 0 468 -161.5t140 -473.5q0 -215 -58.5 -356t-208 -218t-415.5 -77h-320zM309 1681l129 25l162 -141h12l158 141l131 -25l-199 -280h-192zM369 207h114q229 0 379 43q29 70 44.5 170t15.5 209q0 162 -35 260t-118 144t-226 46 q-82 0 -174 -12v-860z" />
<glyph unicode="&#x10f;" horiz-adv-x="1265" d="M94 481q0 211 88 354.5t277 143.5q94 0 165.5 -34t131.5 -97h12l-10 156v370h221v-1374h-203l-8 131h-16q-51 -70 -118 -108.5t-167 -38.5q-195 0 -284 127t-89 370zM324 475q0 -160 44 -227.5t160 -67.5q80 0 137.5 37t92.5 96v369q-51 51 -106.5 75.5t-127.5 24.5 q-104 0 -152 -74.5t-48 -232.5zM1092 1212v150q57 23 129 22q82 0 119.5 -38.5t37.5 -118.5q0 -66 -28.5 -133.5t-77.5 -120.5l-137 31q63 113 65 208h-108z" />
<glyph unicode="&#x110;" horiz-adv-x="1339" d="M84 524v201h166v516q176 45 393 45q328 0 468 -161.5t140 -473.5q0 -215 -58 -356t-207.5 -218t-416.5 -77h-319v524h-166zM473 207h115q229 0 379 43q29 70 44 170t15 209q0 162 -35 260t-117.5 144t-226.5 46q-82 0 -174 -12v-342h199v-201h-199v-317z" />
<glyph unicode="&#x111;" horiz-adv-x="1177" d="M94 479q0 209 88 352.5t277 143.5q94 0 165.5 -34t131.5 -97h12l-8 121l-2 110h-283v168h283v131h221v-131h115v-168h-115v-1075h-203l-8 131h-16q-51 -70 -118 -108.5t-167 -38.5q-195 0 -284 126t-89 369zM324 473q0 -158 44 -225.5t160 -67.5q80 0 137.5 37t92.5 96 v365q-51 51 -106.5 75.5t-127.5 24.5q-104 0 -152 -73.5t-48 -231.5z" />
<glyph unicode="&#x112;" horiz-adv-x="1136" d="M145 213v1053h863v-207h-639v-332h561v-197h-561v-323q123 -20 258 -21q203 0 358 39l39 -198q-154 -45 -403 -45q-228 0 -352 51t-124 180zM285 1403v174h596v-174h-596z" />
<glyph unicode="&#x113;" horiz-adv-x="1030" d="M94 473q0 242 119 376t338 134q190 0 288.5 -106.5t98.5 -290.5q0 -37 -2 -56l-133 -131l-496 7q4 -236 256 -236q96 0 167 22.5t142 67.5l62 -168q-80 -51 -168 -78.5t-213 -27.5q-234 0 -346.5 126t-112.5 361zM242 1106v176h596v-176h-596zM305 553l420 8q10 33 10 76 q0 74 -50 117t-142 43q-129 0 -181.5 -58.5t-56.5 -185.5z" />
<glyph unicode="&#x114;" horiz-adv-x="1136" d="M145 213v1053h863v-207h-639v-332h561v-197h-561v-323q123 -20 258 -21q203 0 358 39l39 -198q-154 -45 -403 -45q-228 0 -352 51t-124 180zM301 1649l197 30q4 -57 25.5 -84.5t76.5 -27.5t76.5 27.5t25.5 84.5l197 -30q-12 -125 -85 -189.5t-214 -64.5t-214 64.5 t-85 189.5z" />
<glyph unicode="&#x115;" horiz-adv-x="1030" d="M94 473q0 242 119 376t338 134q190 0 288.5 -106.5t98.5 -290.5q0 -37 -2 -56l-133 -131l-496 7q4 -236 256 -236q96 0 167 22.5t142 67.5l62 -168q-80 -51 -168 -78.5t-213 -27.5q-234 0 -346.5 126t-112.5 361zM233 1354l197 28q4 -57 25.5 -83.5t76.5 -26.5t77 26.5 t26 83.5l196 -28q-12 -125 -84.5 -189.5t-214.5 -64.5q-141 0 -213.5 64.5t-85.5 189.5zM305 553l420 8q10 33 10 76q0 74 -50 117t-142 43q-129 0 -181.5 -58.5t-56.5 -185.5z" />
<glyph unicode="&#x116;" horiz-adv-x="1136" d="M145 213v1053h863v-207h-639v-332h561v-197h-561v-323q123 -20 258 -21q203 0 358 39l39 -198q-154 -45 -403 -45q-228 0 -352 51t-124 180zM455 1524q0 66 36.5 100.5t102.5 34.5q68 0 104.5 -35t36.5 -100q0 -59 -38 -94t-103 -35q-66 0 -102.5 34.5t-36.5 94.5z" />
<glyph unicode="&#x117;" horiz-adv-x="1030" d="M94 473q0 242 119 376t338 134q190 0 288.5 -106.5t98.5 -290.5q0 -37 -2 -56l-133 -131l-496 7q4 -236 256 -236q96 0 167 22.5t142 67.5l62 -168q-80 -51 -168 -78.5t-213 -27.5q-234 0 -346.5 126t-112.5 361zM305 553l420 8q10 33 10 76q0 74 -50 117t-142 43 q-129 0 -181.5 -58.5t-56.5 -185.5zM397 1229q0 66 37 100.5t103 34.5q68 0 104.5 -35t36.5 -100q0 -59 -38 -94t-103 -35q-66 0 -103 34.5t-37 94.5z" />
<glyph unicode="&#x118;" horiz-adv-x="1136" d="M145 213v1053h863v-207h-639v-332h561v-197h-561v-323q123 -20 258 -21q203 0 358 39l41 -202l-55 -19q-49 -31 -67.5 -61.5t-18.5 -71.5q0 -23 6 -41q27 -8 74 -8q39 0 82 12l34 -145q-68 -29 -153 -29q-117 0 -178.5 44t-61.5 128q0 94 80 156q-70 -6 -147 -6 q-227 0 -351.5 51t-124.5 180z" />
<glyph unicode="&#x119;" horiz-adv-x="1030" d="M94 473q0 242 119 376t338 134q190 0 288.5 -106.5t98.5 -290.5q0 -37 -2 -56l-133 -131l-496 7q4 -236 256 -236q96 0 167 22.5t142 67.5l62 -168q-61 -37 -98 -51q-41 -27 -57.5 -54.5t-16.5 -64.5q0 -25 6 -43q27 -8 74 -8q37 0 80 12l36 -145q-68 -29 -155 -29 q-117 0 -177.5 44t-60.5 128q0 66 35 109q-18 -4 -59 -4q-227 2 -337 128t-110 359zM305 553l420 8q10 33 10 76q0 74 -50 117t-142 43q-129 0 -181.5 -58.5t-56.5 -185.5z" />
<glyph unicode="&#x11a;" horiz-adv-x="1136" d="M145 213v1053h863v-207h-639v-332h561v-197h-561v-323q123 -20 258 -21q203 0 358 39l39 -198q-154 -45 -403 -45q-228 0 -352 51t-124 180zM301 1681l129 25l162 -141h12l158 141l131 -25l-199 -280h-192z" />
<glyph unicode="&#x11b;" horiz-adv-x="1030" d="M94 473q0 242 119 376t338 134q190 0 288.5 -106.5t98.5 -290.5q0 -37 -2 -56l-133 -131l-496 7q4 -236 256 -236q96 0 167 22.5t142 67.5l62 -168q-80 -51 -168 -78.5t-213 -27.5q-234 0 -346.5 126t-112.5 361zM240 1386l129 25l161 -141h13l157 141l131 -25l-198 -280 h-193zM305 553l420 8q10 33 10 76q0 74 -50 117t-142 43q-129 0 -181.5 -58.5t-56.5 -185.5z" />
<glyph unicode="&#x11c;" horiz-adv-x="1259" d="M102 594q0 322 149.5 507t446.5 185q133 0 247 -25.5t181 -64.5v-102q0 -109 -26 -189h-172l-21 154q-78 18 -233 18q-137 0 -252 -24q-45 -96 -69.5 -211t-24.5 -236q0 -221 90 -319.5t289 -98.5q125 0 219 21v297h-287v192h399l111 -90v-334q0 -86 -59.5 -152.5 t-166 -103t-243.5 -36.5q-285 0 -431.5 154.5t-146.5 457.5zM401 1411l201 281h193l198 -281l-131 -25l-157 142h-13l-162 -142z" />
<glyph unicode="&#x11d;" horiz-adv-x="1089" d="M94 455q0 252 85 390t290 138q100 0 164.5 -42t107.5 -118h15l12 146h186v-1067q0 -154 -117.5 -229.5t-318.5 -75.5q-106 0 -203.5 23.5t-158.5 60.5l47 176q63 -31 143 -49.5t156 -18.5q82 0 135 10.5t106 32.5v184l7 127h-17q-125 -135 -287 -135q-186 0 -269 125 t-83 322zM254 1116l201 281h192l199 -281l-131 -26l-158 143h-12l-162 -143zM319 479q0 -141 44.5 -207.5t142.5 -66.5q131 0 229 117v344q-94 119 -227 118q-106 0 -147.5 -72.5t-41.5 -232.5z" />
<glyph unicode="&#x11e;" horiz-adv-x="1259" d="M102 594q0 322 149.5 507t446.5 185q133 0 247 -25.5t181 -64.5v-102q0 -109 -26 -189h-172l-21 154q-78 18 -233 18q-137 0 -252 -24q-45 -96 -69.5 -211t-24.5 -236q0 -221 90 -319.5t289 -98.5q125 0 219 21v297h-287v192h399l111 -90v-334q0 -86 -59.5 -152.5 t-166 -103t-243.5 -36.5q-285 0 -431.5 154.5t-146.5 457.5zM391 1649l197 30q4 -57 25.5 -84.5t76.5 -27.5t76.5 27.5t26.5 84.5l196 -30q-12 -125 -85 -189.5t-214 -64.5t-214 64.5t-85 189.5z" />
<glyph unicode="&#x11f;" horiz-adv-x="1089" d="M94 455q0 252 85 390t290 138q100 0 164.5 -42t107.5 -118h15l12 146h186v-1067q0 -154 -117.5 -229.5t-318.5 -75.5q-106 0 -203.5 23.5t-158.5 60.5l47 176q63 -31 143 -49.5t156 -18.5q82 0 135 10.5t106 32.5v184l7 127h-17q-125 -135 -287 -135q-186 0 -269 125 t-83 322zM266 1354l197 28q4 -57 25.5 -83.5t76.5 -26.5t77 26.5t26 83.5l196 -28q-12 -125 -84.5 -189.5t-214.5 -64.5q-141 0 -213.5 64.5t-85.5 189.5zM319 479q0 -141 44.5 -207.5t142.5 -66.5q131 0 229 117v344q-94 119 -227 118q-106 0 -147.5 -72.5t-41.5 -232.5z " />
<glyph unicode="&#x120;" horiz-adv-x="1259" d="M102 594q0 322 149.5 507t446.5 185q133 0 247 -25.5t181 -64.5v-102q0 -109 -26 -189h-172l-21 154q-78 18 -233 18q-137 0 -252 -24q-45 -96 -69.5 -211t-24.5 -236q0 -221 90 -319.5t289 -98.5q125 0 219 21v297h-287v192h399l111 -90v-334q0 -86 -59.5 -152.5 t-166 -103t-243.5 -36.5q-285 0 -431.5 154.5t-146.5 457.5zM535 1526q0 63 36.5 99t102.5 36t103.5 -36t37.5 -99q0 -61 -38 -96t-103 -35q-66 0 -102.5 34.5t-36.5 96.5z" />
<glyph unicode="&#x121;" horiz-adv-x="1089" d="M94 455q0 252 85 390t290 138q100 0 164.5 -42t107.5 -118h15l12 146h186v-1067q0 -154 -117.5 -229.5t-318.5 -75.5q-106 0 -203.5 23.5t-158.5 60.5l47 176q63 -31 143 -49.5t156 -18.5q82 0 135 10.5t106 32.5v184l7 127h-17q-125 -135 -287 -135q-186 0 -269 125 t-83 322zM319 479q0 -141 44.5 -207.5t142.5 -66.5q131 0 229 117v344q-94 119 -227 118q-106 0 -147.5 -72.5t-41.5 -232.5zM426 1229q0 66 37 100.5t102 34.5q68 0 105 -35t37 -100q0 -59 -38 -94t-104 -35q-65 0 -102 34.5t-37 94.5z" />
<glyph unicode="&#x122;" horiz-adv-x="1259" d="M102 594q0 322 149.5 507t446.5 185q133 0 247 -25.5t181 -64.5v-102q0 -109 -26 -189h-172l-21 154q-78 18 -233 18q-137 0 -252 -24q-45 -96 -69.5 -211t-24.5 -236q0 -221 90 -319.5t289 -98.5q125 0 219 21v297h-287v192h399l111 -90v-334q0 -86 -59.5 -152.5 t-166 -103t-243.5 -36.5q-285 0 -431.5 154.5t-146.5 457.5zM553 -141q68 23 129 22q80 0 119 -40t39 -120q0 -66 -29 -133t-78 -120l-137 30q63 113 66 209h-109v152z" />
<glyph unicode="&#x123;" horiz-adv-x="1089" d="M94 455q0 252 85 390t290 138q100 0 164.5 -42t107.5 -118h15l12 146h186v-1067q0 -154 -117.5 -229.5t-318.5 -75.5q-106 0 -203.5 23.5t-158.5 60.5l47 176q63 -31 143 -49.5t156 -18.5q82 0 135 10.5t106 32.5v184l7 127h-17q-125 -135 -287 -135q-186 0 -269 125 t-83 322zM319 479q0 -141 44.5 -207.5t142.5 -66.5q131 0 229 117v344q-94 119 -227 118q-106 0 -147.5 -72.5t-41.5 -232.5zM446 1331v150q57 23 129 22q158 0 158 -157q0 -66 -28.5 -133.5t-77.5 -120.5l-138 30q63 111 66 209h-109z" />
<glyph unicode="&#x124;" horiz-adv-x="1259" d="M143 0v1266h226v-549h522v549h225v-1266h-225v508h-522v-508h-226zM334 1411l201 281h192l199 -281l-131 -25l-158 142h-12l-162 -142z" />
<glyph unicode="&#x125;" horiz-adv-x="1122" d="M143 0v1374h219v-399l-6 -156h13q135 164 331 164q143 0 215 -66.5t72 -211.5v-705h-221v762q-55 18 -129 18q-92 0 -156.5 -26.5t-118.5 -79.5v-674h-219zM313 1458l201 281h193l198 -281l-131 -24l-158 141h-12l-162 -141z" />
<glyph unicode="&#x126;" horiz-adv-x="1421" d="M94 877v176h127v213h225v-213h525v213h225v-213h131v-176h-131v-877h-225v508h-525v-508h-225v877h-127zM449 717h522v160h-522v-160z" />
<glyph unicode="&#x127;" horiz-adv-x="1120" d="M12 1083v156h129v135h221v-135h269v-156h-269v-108l-8 -156h13q68 78 147.5 121t185.5 43q143 0 214 -66.5t71 -211.5v-705h-221v762q-55 18 -129 18q-92 0 -156.5 -26.5t-116.5 -79.5v-674h-221v1083h-129z" />
<glyph unicode="&#x128;" horiz-adv-x="528" d="M-49 1421q4 115 48 172.5t138 57.5q33 0 62.5 -12.5t74.5 -36.5q23 -14 46.5 -24.5t41.5 -10.5q39 0 54.5 24.5t19.5 69.5l144 -41q-4 -115 -47.5 -172t-135.5 -57q-35 0 -64.5 12t-68.5 35q-33 18 -54.5 27.5t-43.5 9.5q-37 0 -53.5 -26t-20.5 -71zM152 0v1266h225 v-1266h-225z" />
<glyph unicode="&#x129;" horiz-adv-x="507" d="M-70 1081q4 115 48.5 173.5t138.5 58.5q33 0 60.5 -11.5t78.5 -37.5q23 -14 46.5 -24.5t41.5 -10.5q37 0 52.5 23.5t21.5 70.5l141 -43q-4 -115 -47 -172t-135 -57q-35 0 -64.5 12t-68.5 35q-33 18 -54.5 27.5t-44.5 9.5q-37 0 -52 -25t-21 -70zM145 0v963h217v-963h-217 z" />
<glyph unicode="&#x12a;" horiz-adv-x="634" d="M-20 1401v196h677v-196h-677zM205 0v1266h225v-1266h-225z" />
<glyph unicode="&#x12b;" horiz-adv-x="507" d="M-84 1106v197h678v-197h-678zM145 0v963h217v-963h-217z" />
<glyph unicode="&#x12c;" horiz-adv-x="528" d="M-35 1649l195 30q4 -59 26.5 -85.5t77.5 -26.5t76.5 27.5t26.5 84.5l196 -30q-12 -125 -84.5 -189.5t-214.5 -64.5q-141 0 -214 64.5t-85 189.5zM152 0v1266h225v-1266h-225z" />
<glyph unicode="&#x12d;" horiz-adv-x="499" d="M-49 1354l196 28q4 -57 26 -83.5t77 -26.5t76.5 26.5t25.5 83.5l197 -28q-12 -125 -85 -189.5t-214 -64.5t-214 64.5t-85 189.5zM141 0v963h217v-963h-217z" />
<glyph unicode="&#x12e;" horiz-adv-x="532" d="M63 -186q0 61 29 106t82 86h-20v1260h225v-1260h-2q-63 -33 -90 -67.5t-27 -83.5q0 -23 6 -41q27 -8 74 -9q47 0 80 11l37 -146q-68 -29 -156 -28q-117 0 -177.5 44t-60.5 128z" />
<glyph unicode="&#x12f;" horiz-adv-x="509" d="M45 -186q0 49 30.5 102t69.5 84v958h217v-958h3q-72 -33 -97.5 -63.5t-25.5 -81.5q0 -23 6 -41q27 -8 74 -9q47 0 79 11l37 -146q-68 -29 -155 -28q-117 0 -177.5 44t-60.5 128zM141 1110v233h228v-233h-228z" />
<glyph unicode="&#x130;" horiz-adv-x="530" d="M125 1499q0 63 37 99t102 36q66 0 104 -35.5t38 -99.5q0 -61 -38 -96t-104 -35q-65 0 -102 35t-37 96zM152 0v1266h225v-1266h-225z" />
<glyph unicode="&#x131;" horiz-adv-x="475" d="M129 0v963h217v-963h-217z" />
<glyph unicode="&#x132;" horiz-adv-x="1454" d="M152 0v1266h225v-1266h-225zM594 43l51 193q127 -47 252 -48q111 0 178 31q12 49 12 123v924h226v-947q0 -166 -101.5 -251.5t-304.5 -85.5q-84 0 -168 16t-145 45z" />
<glyph unicode="&#x133;" horiz-adv-x="1099" d="M141 1110v233h228v-233h-228zM145 0v958h217v-958h-217zM403 -362l56 188q49 -16 84 -22.5t78 -6.5q55 0 100 15q16 43 16 116v1030h217v-1046q0 -150 -79.5 -234t-239.5 -84q-53 0 -116.5 11.5t-115.5 32.5zM733 1110v233h228v-233h-228z" />
<glyph unicode="&#x134;" horiz-adv-x="913" d="M53 43l51 193q127 -47 252 -48q111 0 179 31q12 49 12 123v924h225v-947q0 -166 -101.5 -251.5t-303.5 -85.5q-84 0 -168 16t-146 45zM342 1411l201 281h192l199 -281l-131 -25l-158 142h-12l-162 -142z" />
<glyph unicode="&#x135;" horiz-adv-x="622" d="M-78 -362l55 188q49 -16 84 -22.5t78 -6.5q55 0 101 15q16 43 16 116v1030h217v-1046q0 -150 -80 -234t-239 -84q-54 0 -117.5 11.5t-114.5 32.5zM53 1116l201 281h192l199 -281l-131 -24l-158 141h-12l-162 -141z" />
<glyph unicode="&#x136;" horiz-adv-x="1255" d="M145 0v1266h226v-514h127q94 0 142 32.5t77 98.5l166 395l217 -76l-158 -356q-37 -80 -78 -121t-123 -68v-12q74 -23 109 -56.5t74 -105.5l174 -333l98 -19v-127q-70 -18 -152 -18q-69 0 -112 25.5t-70 80.5l-141 316q-33 76 -77 107.5t-134 31.5h-139v-547h-226z M506 -135q57 23 129 22q82 0 120 -38.5t38 -118.5q0 -66 -29 -133.5t-78 -120.5l-137 30q63 113 65 209h-108v150z" />
<glyph unicode="&#x137;" horiz-adv-x="1071" d="M135 0v1374h217v-782h68q84 0 125 31.5t71 99.5l109 260l209 -76l-100 -231q-27 -66 -72 -105t-129 -63v-12q80 -20 120 -55t78 -109l95 -205l82 -18v-105q-66 -18 -131 -18q-64 0 -100 22.5t-58 73.5l-80 182q-35 80 -79 115t-130 35h-78v-414h-217zM408 -135 q57 23 129 22q82 0 119.5 -38.5t37.5 -118.5q0 -66 -28.5 -133.5t-77.5 -120.5l-137 30q63 113 65 209h-108v150z" />
<glyph unicode="&#x138;" horiz-adv-x="1017" d="M119 0v981h215v-389h63q84 0 125 31.5t72 99.5l113 264l215 -49l-111 -262q-27 -63 -68 -104.5t-112 -63.5v-12q72 -20 108.5 -55t67.5 -103l98 -205l60 -18v-107q-57 -18 -119 -18q-113 0 -148 86l-82 188q-35 80 -78.5 115t-131.5 35h-72v-414h-215z" />
<glyph unicode="&#x139;" horiz-adv-x="970" d="M145 0v1266h226v-1057h559v-209h-785zM172 1415l170 311l256 -26l-264 -314z" />
<glyph unicode="&#x13a;" horiz-adv-x="610" d="M131 184v1190h217v-1114q0 -51 10 -78h27l115 60l82 -109q-35 -57 -104.5 -101t-135.5 -46q-37 10 -87 43.5t-87 77t-37 77.5zM143 1434l170 311l256 -27l-264 -313z" />
<glyph unicode="&#x13b;" horiz-adv-x="970" d="M145 0v1266h226v-1057h559v-209h-785zM426 -135q57 23 129 22q82 0 120 -38.5t38 -118.5q0 -66 -29 -133.5t-78 -120.5l-137 30q63 113 66 209h-109v150z" />
<glyph unicode="&#x13c;" horiz-adv-x="610" d="M131 184v1190h217v-1114q0 -51 10 -78h27l115 60l82 -109q-35 -57 -104.5 -101t-135.5 -46q-37 10 -87 43.5t-87 77t-37 77.5zM190 -135q57 23 129 22q82 0 120 -38.5t38 -118.5q0 -66 -28.5 -133.5t-77.5 -120.5l-138 30q63 113 66 209h-109v150z" />
<glyph unicode="&#x13d;" horiz-adv-x="970" d="M145 0v1266h226v-1057h559v-209h-785zM535 1102v149q57 23 129 23q82 0 119.5 -39t37.5 -119q0 -66 -28.5 -133.5t-77.5 -120.5l-137 31q63 111 65 209h-108z" />
<glyph unicode="&#x13e;" horiz-adv-x="733" d="M131 184v1190h217v-1114q0 -51 10 -78h27l115 60l82 -109q-35 -57 -104.5 -101t-135.5 -46q-37 10 -87 43.5t-87 77t-37 77.5zM481 1161v150q57 23 129 22q82 0 120 -39t38 -118q0 -66 -28.5 -133.5t-77.5 -120.5l-138 30q63 113 66 209h-109z" />
<glyph unicode="&#x13f;" horiz-adv-x="970" d="M145 0v1266h226v-1057h559v-209h-785zM535 600q0 55 37.5 92t95.5 37q55 0 94 -37t39 -92q0 -57 -38 -93t-95 -36q-58 0 -95.5 36t-37.5 93z" />
<glyph unicode="&#x140;" horiz-adv-x="792" d="M131 184v1190h217v-1114q0 -51 10 -78h27l115 60l82 -109q-35 -57 -104.5 -101t-135.5 -46q-37 10 -87 43.5t-87 77t-37 77.5zM502 616q0 53 38 91t95 38q55 0 94 -37.5t39 -91.5q0 -57 -38 -94t-95 -37t-95 37t-38 94z" />
<glyph unicode="&#x141;" horiz-adv-x="1015" d="M-33 598l223 70v598h226v-525l221 68l53 -172l-274 -86v-342h559v-209h-785v479l-170 -53z" />
<glyph unicode="&#x142;" horiz-adv-x="624" d="M-115 662l252 79v633h217v-565l201 65l55 -172l-256 -81v-359q0 -51 11 -78h26l115 60l82 -109q-37 -55 -105.5 -100t-134.5 -47q-37 10 -87 44t-87 77t-37 77v367l-196 -64z" />
<glyph unicode="&#x143;" horiz-adv-x="1314" d="M145 0v1266h277l526 -979l17 4l-23 325v650h227v-1266h-276l-528 979l-17 -4l23 -328v-647h-226zM551 1421l170 314l256 -27l-264 -315z" />
<glyph unicode="&#x144;" horiz-adv-x="1114" d="M152 0v965h196l12 -150h17q133 168 332 168q141 0 209.5 -67.5t68.5 -210.5v-705h-219v762q-53 18 -125 18q-178 0 -272 -104v-676h-219zM461 1120l170 312l256 -25l-264 -315z" />
<glyph unicode="&#x145;" horiz-adv-x="1314" d="M145 0v1266h277l526 -979l17 4l-23 325v650h227v-1266h-276l-528 979l-17 -4l23 -328v-647h-226zM563 -135q57 23 129 22q82 0 120 -38.5t38 -118.5q0 -66 -28.5 -133.5t-78.5 -120.5l-137 30q63 113 66 209h-109v150z" />
<glyph unicode="&#x146;" horiz-adv-x="1114" d="M152 0v965h196l12 -150h17q133 168 332 168q141 0 209.5 -67.5t68.5 -210.5v-705h-219v762q-53 18 -125 18q-178 0 -272 -104v-676h-219zM444 -135q57 23 129 22q82 0 120 -38.5t38 -118.5q0 -66 -28.5 -133.5t-77.5 -120.5l-138 30q63 113 66 209h-109v150z" />
<glyph unicode="&#x147;" horiz-adv-x="1314" d="M145 0v1266h277l526 -979l17 4l-23 325v650h227v-1266h-276l-528 979l-17 -4l23 -328v-647h-226zM371 1681l129 25l162 -141h12l157 141l132 -25l-199 -280h-193z" />
<glyph unicode="&#x148;" horiz-adv-x="1114" d="M152 0v965h196l12 -150h17q133 168 332 168q141 0 209.5 -67.5t68.5 -210.5v-705h-219v762q-53 18 -125 18q-178 0 -272 -104v-676h-219zM279 1386l129 25l161 -141h13l157 141l131 -25l-198 -280h-193z" />
<glyph unicode="&#x149;" horiz-adv-x="1249" d="M-100 905v150q57 23 129 22q158 0 157 -157q0 -63 -29.5 -132t-78.5 -122l-137 30q66 109 67 209h-108zM287 0v965h196l13 -150h16q133 168 332 168q141 0 209.5 -67.5t68.5 -210.5v-705h-219v762q-53 18 -125 18q-178 0 -272 -104v-676h-219z" />
<glyph unicode="&#x14a;" horiz-adv-x="1314" d="M145 0v1266h277l526 -979l17 4l-23 325v650h227v-1282q0 -131 -39.5 -221.5t-136 -154t-262.5 -104.5l-78 215q162 31 248 78q12 57 12 142v61l-548 979l-17 -4l23 -328v-647h-226z" />
<glyph unicode="&#x14b;" horiz-adv-x="1122" d="M152 0v965h196l12 -150h17q133 168 332 168q141 0 209.5 -67.5t68.5 -210.5v-756q0 -168 -89 -272.5t-286 -168.5l-98 213q166 37 240 84q14 49 14 166v791q-53 18 -125 18q-178 0 -272 -104v-676h-219z" />
<glyph unicode="&#x14c;" horiz-adv-x="1306" d="M98 610q0 342 139.5 509t436.5 167q535 0 534 -629q0 -340 -140 -506.5t-437 -166.5q-264 0 -398.5 158.5t-134.5 467.5zM322 645q0 -160 31.5 -259t106.5 -147.5t206 -48.5q145 0 235 37q82 186 82 396q0 160 -30.5 258t-105.5 147t-208 49q-152 0 -242 -37 q-76 -172 -75 -395zM352 1401v176h596v-176h-596z" />
<glyph unicode="&#x14d;" horiz-adv-x="1089" d="M94 469q0 240 120 378t357 138q424 0 424 -502q0 -500 -477 -499q-225 0 -324.5 126t-99.5 359zM246 1106v174h596v-174h-596zM311 492q0 -123 20.5 -191t74 -99.5t155.5 -31.5t176 29q41 92 41 258q0 125 -19.5 196.5t-73.5 105.5t-157 34q-102 0 -176 -29 q-41 -94 -41 -272z" />
<glyph unicode="&#x14e;" horiz-adv-x="1306" d="M98 610q0 342 139.5 509t436.5 167q535 0 534 -629q0 -340 -140 -506.5t-437 -166.5q-264 0 -398.5 158.5t-134.5 467.5zM322 645q0 -160 31.5 -259t106.5 -147.5t206 -48.5q145 0 235 37q82 186 82 396q0 160 -30.5 258t-105.5 147t-208 49q-152 0 -242 -37 q-76 -172 -75 -395zM348 1649l197 30q4 -57 25.5 -84.5t76.5 -27.5t76.5 27.5t26.5 84.5l196 -30q-12 -125 -85 -189.5t-214 -64.5t-214 64.5t-85 189.5z" />
<glyph unicode="&#x14f;" horiz-adv-x="1089" d="M94 469q0 240 120 378t357 138q424 0 424 -502q0 -500 -477 -499q-225 0 -324.5 126t-99.5 359zM246 1354l196 28q4 -57 25.5 -83.5t77.5 -26.5q55 0 76.5 26.5t25.5 83.5l197 -28q-12 -125 -85 -189.5t-214 -64.5q-142 0 -214.5 64.5t-84.5 189.5zM311 492 q0 -123 20.5 -191t74 -99.5t155.5 -31.5t176 29q41 92 41 258q0 125 -19.5 196.5t-73.5 105.5t-157 34q-102 0 -176 -29q-41 -94 -41 -272z" />
<glyph unicode="&#x150;" horiz-adv-x="1306" d="M98 610q0 342 139.5 509t436.5 167q535 0 534 -629q0 -340 -140 -506.5t-437 -166.5q-264 0 -398.5 158.5t-134.5 467.5zM322 645q0 -160 31.5 -259t106.5 -147.5t206 -48.5q145 0 235 37q82 186 82 396q0 160 -30.5 258t-105.5 147t-208 49q-152 0 -242 -37 q-76 -172 -75 -395zM338 1626v150q57 23 127 22q82 0 120 -39t38 -119q0 -63 -30 -131.5t-79 -122.5l-133 31q63 113 65 209h-108zM702 1626v150q57 23 129 22q80 0 118 -39t38 -119q0 -63 -29.5 -131.5t-78.5 -122.5l-134 31q63 113 66 209h-109z" />
<glyph unicode="&#x151;" horiz-adv-x="1089" d="M94 469q0 240 120 378t357 138q424 0 424 -502q0 -500 -477 -499q-225 0 -324.5 126t-99.5 359zM223 1331v152q68 23 127 22q80 0 119 -40t39 -119q0 -63 -29.5 -131t-79.5 -121l-133 28q63 113 66 209h-109zM311 492q0 -123 20.5 -191t74 -99.5t155.5 -31.5t176 29 q41 92 41 258q0 125 -19.5 196.5t-73.5 105.5t-157 34q-102 0 -176 -29q-41 -94 -41 -272zM588 1331v152q68 23 129 22q80 0 117.5 -40t37.5 -119q0 -63 -29.5 -131t-78.5 -121l-133 28q63 113 65 209h-108z" />
<glyph unicode="&#x152;" horiz-adv-x="1859" d="M98 610q0 342 139.5 509t436.5 167q117 0 229 -20h838v-207h-637v-332h561v-197h-561v-313q123 -33 262 -33q193 0 354 37l39 -198q-156 -43 -405 -43q-254 0 -381 88h-17q-125 -86 -333 -86q-258 0 -391.5 159.5t-133.5 468.5zM322 645q0 -162 31.5 -260t106.5 -147.5 t206 -49.5q135 0 221 31v838q-59 12 -112.5 16t-135.5 4q-152 0 -242 -37q-76 -172 -75 -395z" />
<glyph unicode="&#x153;" horiz-adv-x="1689" d="M78 469q0 240 119.5 378t357.5 138q215 0 324 -141h12q123 139 336 139q193 0 291 -106.5t98 -290.5q0 -37 -2 -56l-133 -131l-496 7q4 -119 63.5 -175.5t190.5 -56.5q98 0 170 22.5t141 67.5l62 -170q-80 -51 -168 -78.5t-215 -27.5q-231 0 -346 131h-19 q-119 -137 -362 -137q-226 0 -325 127t-99 360zM295 492q0 -123 20.5 -192t73.5 -100.5t156 -31.5q94 0 176 29q41 94 41 260q0 125 -19.5 196.5t-74 105.5t-156.5 34t-176 -29q-41 -94 -41 -272zM983 553l420 8q10 45 10 76q0 76 -50 118t-144 42q-127 0 -180.5 -59.5 t-55.5 -184.5z" />
<glyph unicode="&#x154;" horiz-adv-x="1226" d="M145 0v1229q190 57 385 57q244 0 369 -92t125 -287q0 -248 -227 -356v-19q51 -20 86 -50.5t63 -82.5l133 -249l95 -19v-127q-57 -18 -150 -18q-72 0 -113 24.5t-65 79.5l-115 244q-27 57 -47 86t-59 47t-105 18h-149v-485h-226zM371 678h319q55 33 83 83t28 128 q0 109 -64.5 152.5t-208.5 43.5q-94 0 -157 -14v-393zM438 1417l170 312l256 -25l-264 -315z" />
<glyph unicode="&#x155;" horiz-adv-x="804" d="M143 0v963h193l12 -193h21q47 94 130 148.5t175 54.5q16 0 40.5 -16.5t37.5 -32.5l-23 -187h-92q-94 0 -167 -35.5t-108 -111.5v-590h-219zM309 1120l170 314l256 -27l-264 -313z" />
<glyph unicode="&#x156;" horiz-adv-x="1226" d="M145 0v1229q190 57 385 57q244 0 369 -92t125 -287q0 -248 -227 -356v-19q51 -20 86 -50.5t63 -82.5l133 -249l95 -19v-127q-57 -18 -150 -18q-72 0 -113 24.5t-65 79.5l-115 244q-27 55 -46 83.5t-55 47t-98 20.5h-161v-485h-226zM371 678h319q55 33 83 83t28 128 q0 109 -64.5 152.5t-208.5 43.5q-94 0 -157 -14v-393zM473 -135q57 23 129 22q158 0 158 -157q0 -66 -29 -133.5t-78 -120.5l-137 30q63 111 66 209h-109v150z" />
<glyph unicode="&#x157;" horiz-adv-x="804" d="M123 -135q57 23 129 22q158 0 158 -157q0 -66 -29 -133.5t-78 -120.5l-137 30q63 111 65 209h-108v150zM143 0v963h193l12 -193h21q47 94 130 148.5t175 54.5q16 0 40.5 -16.5t37.5 -32.5l-23 -187h-92q-94 0 -167 -35.5t-108 -111.5v-590h-219z" />
<glyph unicode="&#x158;" horiz-adv-x="1226" d="M145 0v1229q190 57 385 57q244 0 369 -92t125 -287q0 -248 -227 -356v-19q51 -20 86 -50.5t63 -82.5l133 -249l95 -19v-127q-57 -18 -150 -18q-72 0 -113 24.5t-65 79.5l-115 244q-29 59 -49 88t-60 46t-110 17h-141v-485h-226zM270 1681l129 25l162 -141h12l158 141 l131 -25l-198 -280h-193zM371 678h319q55 33 83 83t28 128q0 109 -64.5 152.5t-208.5 43.5q-94 0 -157 -14v-393z" />
<glyph unicode="&#x159;" horiz-adv-x="800" d="M143 0v963h193l12 -193h21q47 94 130 148.5t175 54.5q16 0 40.5 -16.5t37.5 -32.5l-23 -187h-92q-94 0 -167 -35.5t-108 -111.5v-590h-219zM154 1386l129 25l161 -141h13l157 141l131 -25l-198 -280h-193z" />
<glyph unicode="&#x15a;" horiz-adv-x="1112" d="M94 90l76 191q172 -92 389 -93q121 0 207 19q20 53 20 127q0 78 -49 118t-178 70q-137 33 -227 75t-143.5 116.5t-53.5 195.5q0 166 110.5 271.5t340.5 105.5q129 0 218 -23.5t165 -66.5v-74q0 -47 -10.5 -110.5t-24.5 -102.5h-174l-23 166q-82 12 -162 12 q-113 0 -164 -38.5t-51 -126.5q0 -76 54.5 -115t201.5 -72q207 -45 301.5 -126t94.5 -247q0 -172 -110.5 -275t-356.5 -103q-254 0 -451 106zM459 1417l170 312l256 -25l-264 -315z" />
<glyph unicode="&#x15b;" horiz-adv-x="921" d="M82 63l63 173q68 -33 146 -51.5t153 -18.5q96 0 160 12q16 33 17 82q0 39 -13.5 60.5t-50.5 37t-115 31.5q-121 27 -195.5 59.5t-116.5 90t-42 151.5q0 127 96.5 210t288.5 83q186 0 318 -68v-65q0 -37 -7.5 -87t-19.5 -79h-168l-16 119q-66 8 -119 8q-86 0 -122 -24.5 t-36 -81.5q0 -55 44 -86t159 -54q119 -25 186.5 -54.5t104.5 -85.5t37 -151q0 -131 -96.5 -210.5t-297.5 -79.5q-211 -1 -358 79zM332 1120l170 312l256 -25l-264 -315z" />
<glyph unicode="&#x15c;" horiz-adv-x="1112" d="M94 90l76 191q172 -92 389 -93q121 0 207 19q20 53 20 127q0 78 -49 118t-178 70q-137 33 -227 75t-143.5 116.5t-53.5 195.5q0 166 110.5 271.5t340.5 105.5q129 0 218 -23.5t165 -66.5v-74q0 -47 -10.5 -110.5t-24.5 -102.5h-174l-23 166q-82 12 -162 12 q-113 0 -164 -38.5t-51 -126.5q0 -76 54.5 -115t201.5 -72q207 -45 301.5 -126t94.5 -247q0 -172 -110.5 -275t-356.5 -103q-254 0 -451 106zM274 1411l201 281h193l198 -281l-131 -25l-157 142h-13l-162 -142z" />
<glyph unicode="&#x15d;" horiz-adv-x="921" d="M82 63l63 173q68 -33 146 -51.5t153 -18.5q96 0 160 12q16 33 17 82q0 39 -13.5 60.5t-50.5 37t-115 31.5q-121 27 -195.5 59.5t-116.5 90t-42 151.5q0 127 96.5 210t288.5 83q186 0 318 -68v-65q0 -37 -7.5 -87t-19.5 -79h-168l-16 119q-66 8 -119 8q-86 0 -122 -24.5 t-36 -81.5q0 -55 44 -86t159 -54q119 -25 186.5 -54.5t104.5 -85.5t37 -151q0 -131 -96.5 -210.5t-297.5 -79.5q-211 -1 -358 79zM162 1116l200 281h193l199 -281l-131 -26l-158 143h-12l-162 -143z" />
<glyph unicode="&#x15e;" horiz-adv-x="1112" d="M94 90l76 191q172 -92 389 -93q121 0 207 19q20 53 20 127q0 78 -49 118t-178 70q-137 33 -227 75t-143.5 116.5t-53.5 195.5q0 166 110.5 271.5t340.5 105.5q129 0 218 -23.5t165 -66.5v-74q0 -47 -10.5 -110.5t-24.5 -102.5h-174l-23 166q-82 12 -162 12 q-113 0 -164 -38.5t-51 -126.5q0 -76 54.5 -115t201.5 -72q207 -45 301.5 -126t94.5 -247q0 -150 -85 -250t-272 -122l-73 -105q31 14 80 15q82 0 122.5 -45t40.5 -127q0 -205 -252 -205q-120 0 -208 41l43 131q61 -25 137 -25q57 0 84 6q8 18 8 45q0 53 -90 54 q-49 0 -82 -17l-94 97l112 131q-221 12 -389 104z" />
<glyph unicode="&#x15f;" horiz-adv-x="921" d="M82 63l63 173q68 -33 146 -51.5t153 -18.5q96 0 160 12q16 33 17 82q0 39 -13.5 60.5t-50.5 37t-115 31.5q-121 27 -195.5 59.5t-116.5 90t-42 151.5q0 127 96.5 210t288.5 83q186 0 318 -68v-65q0 -37 -7.5 -87t-19.5 -79h-168l-16 119q-66 8 -119 8q-86 0 -122 -24.5 t-36 -81.5q0 -55 44 -86t159 -54q119 -25 186.5 -54.5t104.5 -85.5t37 -151q0 -113 -70 -188.5t-211 -95.5l-74 -105q35 14 82 15q82 0 123 -45t41 -127q0 -205 -254 -205q-121 0 -209 41l45 131q59 -25 135 -25q57 0 86 6q6 20 7 45q0 53 -89 54q-51 0 -84 -17l-92 97 l111 131q-178 10 -299 77z" />
<glyph unicode="&#x160;" horiz-adv-x="1112" d="M94 90l76 191q172 -92 389 -93q121 0 207 19q20 53 20 127q0 78 -49 118t-178 70q-137 33 -227 75t-143.5 116.5t-53.5 195.5q0 166 110.5 271.5t340.5 105.5q129 0 218 -23.5t165 -66.5v-74q0 -47 -10.5 -110.5t-24.5 -102.5h-174l-23 166q-82 12 -162 12 q-113 0 -164 -38.5t-51 -126.5q0 -76 54.5 -115t201.5 -72q207 -45 301.5 -126t94.5 -247q0 -172 -110.5 -275t-356.5 -103q-254 0 -451 106zM274 1681l129 25l162 -141h13l157 141l131 -25l-198 -280h-193z" />
<glyph unicode="&#x161;" horiz-adv-x="921" d="M82 63l63 173q68 -33 146 -51.5t153 -18.5q96 0 160 12q16 33 17 82q0 39 -13.5 60.5t-50.5 37t-115 31.5q-121 27 -195.5 59.5t-116.5 90t-42 151.5q0 127 96.5 210t288.5 83q186 0 318 -68v-65q0 -37 -7.5 -87t-19.5 -79h-168l-16 119q-66 8 -119 8q-86 0 -122 -24.5 t-36 -81.5q0 -55 44 -86t159 -54q119 -25 186.5 -54.5t104.5 -85.5t37 -151q0 -131 -96.5 -210.5t-297.5 -79.5q-211 -1 -358 79zM147 1386l129 25l162 -141h13l157 141l131 -25l-198 -280h-193z" />
<glyph unicode="&#x162;" horiz-adv-x="1167" d="M66 1057v209h1036v-209h-406v-1057h-59l-80 -111q35 14 82 15q82 0 123 -46t41 -126q0 -205 -252 -205q-121 0 -209 41l43 129q70 -25 137 -25q41 0 84 6q8 18 8 46q0 55 -90 55q-51 0 -84 -17l-92 97l123 141v1057h-405z" />
<glyph unicode="&#x163;" horiz-adv-x="825" d="M33 762l26 180h152v279h215v-279h322l-27 -180h-295v-473q0 -43 16 -88q49 -16 97 -17q41 0 92 12.5t94 32.5l45 -188q-45 -25 -103.5 -42t-119.5 -17q-27 0 -39 2l-64 -90q35 14 82 14q82 0 123 -46t41 -128q0 -203 -254 -203q-123 0 -209 39l45 131q61 -25 138 -25 q55 0 84 7q6 20 6 45q0 53 -88 53q-51 0 -84 -17l-92 97l126 149q-10 8 -58 42t-70.5 74t-22.5 91v545h-178z" />
<glyph unicode="&#x164;" horiz-adv-x="1167" d="M66 1057v209h1036v-209h-406v-1057h-225v1057h-405zM287 1681l129 25l162 -141h12l158 141l131 -25l-199 -280h-193z" />
<glyph unicode="&#x165;" horiz-adv-x="825" d="M33 762l26 180h152v279h215v-279h322l-27 -180h-295v-473q0 -43 16 -88q49 -16 97 -17q41 0 92 12.5t94 32.5l45 -188q-45 -25 -103.5 -42t-119.5 -17q-94 -1 -174 22q-68 41 -115 95.5t-47 117.5v545h-178zM100 1653l129 26l162 -141h12l158 141l131 -26l-198 -279h-193 z" />
<glyph unicode="&#x166;" horiz-adv-x="1167" d="M66 1057v209h1036v-209h-406v-359h236v-182h-236v-516h-225v516h-235v182h235v359h-405z" />
<glyph unicode="&#x167;" horiz-adv-x="825" d="M33 762l26 180h152v279h215v-279h322l-27 -180h-295v-154h227v-170h-227v-153q0 -43 16 -88q49 -16 97 -17q41 0 92 12.5t94 32.5l45 -186q-45 -25 -103.5 -42t-119.5 -17q-94 -1 -174 22q-68 41 -115 95.5t-47 117.5v223h-156v170h156v154h-178z" />
<glyph unicode="&#x168;" horiz-adv-x="1282" d="M141 393v873h226v-828q0 -141 60 -195.5t208 -54.5q174 0 280 41v1037h226v-998q0 -152 -140.5 -219t-379.5 -67q-242 0 -361 105.5t-119 305.5zM334 1425q4 115 48 172.5t138 57.5q33 0 62.5 -12.5t74.5 -36.5q23 -14 46.5 -24.5t41.5 -10.5q39 0 54.5 24.5t21.5 71.5 l142 -43q-4 -115 -47.5 -172t-135.5 -57q-35 0 -64.5 12t-68.5 35q-33 18 -54.5 27.5t-43.5 9.5q-37 0 -53.5 -26t-20.5 -71z" />
<glyph unicode="&#x169;" horiz-adv-x="1101" d="M131 270v695h221v-766q57 -16 123 -17q168 0 262 107v676h221v-965h-194l-12 147h-17q-68 -80 -143.5 -121.5t-179.5 -41.5q-144 0 -212.5 67.5t-68.5 218.5zM233 1157q4 115 48.5 172t138.5 57q33 0 62.5 -12t74.5 -37q23 -14 46.5 -24t41.5 -10q39 0 54.5 24.5 t21.5 71.5l141 -43q-4 -115 -47 -172.5t-135 -57.5q-35 0 -64.5 12.5t-68.5 35.5q-33 18 -54.5 27t-43.5 9q-37 0 -53.5 -24.5t-20.5 -69.5z" />
<glyph unicode="&#x16a;" horiz-adv-x="1282" d="M141 393v873h226v-828q0 -141 60 -195.5t208 -54.5q174 0 280 41v1037h226v-998q0 -152 -140.5 -219t-379.5 -67q-242 0 -361 105.5t-119 305.5zM342 1401v176h596v-176h-596z" />
<glyph unicode="&#x16b;" horiz-adv-x="1101" d="M131 270v695h221v-766q57 -16 123 -17q168 0 262 107v676h221v-965h-194l-12 147h-17q-68 -80 -143.5 -121.5t-179.5 -41.5q-144 0 -212.5 67.5t-68.5 218.5zM254 1106v174h596v-174h-596z" />
<glyph unicode="&#x16c;" horiz-adv-x="1282" d="M141 393v873h226v-828q0 -141 60 -195.5t208 -54.5q174 0 280 41v1037h226v-998q0 -152 -140.5 -219t-379.5 -67q-242 0 -361 105.5t-119 305.5zM340 1649l197 30q4 -57 25.5 -84.5t76.5 -27.5t76.5 27.5t25.5 84.5l197 -30q-12 -125 -85 -189.5t-214 -64.5t-214 64.5 t-85 189.5z" />
<glyph unicode="&#x16d;" horiz-adv-x="1101" d="M131 270v695h221v-766q57 -16 123 -17q168 0 262 107v676h221v-965h-194l-12 147h-17q-68 -80 -143.5 -121.5t-179.5 -41.5q-144 0 -212.5 67.5t-68.5 218.5zM252 1350l197 30q4 -57 25.5 -84.5t76.5 -27.5t76.5 27.5t25.5 84.5l197 -30q-12 -125 -85 -189.5t-214 -64.5 t-214 64.5t-85 189.5z" />
<glyph unicode="&#x16e;" horiz-adv-x="1282" d="M141 393v873h226v-828q0 -141 60 -195.5t208 -54.5q174 0 280 41v1037h226v-998q0 -152 -140.5 -219t-379.5 -67q-242 0 -361 105.5t-119 305.5zM391 1581q0 90 72 152.5t205 62.5q111 0 173 -57.5t62 -151.5q0 -92 -73.5 -149.5t-202.5 -57.5q-113 0 -174.5 53.5 t-61.5 147.5zM547 1587q0 -35 25.5 -56.5t68.5 -21.5q67 1 100 11q8 33 9 59q0 39 -25 64.5t-70 25.5q-66 0 -98 -10q-10 -31 -10 -72z" />
<glyph unicode="&#x16f;" horiz-adv-x="1101" d="M131 270v695h221v-766q57 -16 123 -17q168 0 262 107v676h221v-965h-194l-12 147h-17q-68 -80 -143.5 -121.5t-179.5 -41.5q-144 0 -212.5 67.5t-68.5 218.5zM303 1288q0 92 71.5 154.5t205.5 62.5q111 0 173 -57t62 -154q0 -90 -73.5 -147t-202.5 -57q-113 0 -174.5 53 t-61.5 145zM457 1294q0 -35 25.5 -56t68.5 -21q67 0 100 10q8 37 8 59q0 41 -24.5 66.5t-69.5 25.5q-66 0 -98 -10q-10 -33 -10 -74z" />
<glyph unicode="&#x170;" horiz-adv-x="1282" d="M141 393v873h226v-828q0 -141 60 -195.5t208 -54.5q174 0 280 41v1037h226v-998q0 -152 -140.5 -219t-379.5 -67q-242 0 -361 105.5t-119 305.5zM322 1626v150q57 23 127 22q82 0 119.5 -39t37.5 -119q0 -63 -29.5 -131.5t-78.5 -122.5l-133 31q63 113 65 209h-108z M686 1626v150q57 23 129 22q80 0 118 -39t38 -119q0 -63 -30 -131.5t-79 -122.5l-133 31q63 113 66 209h-109z" />
<glyph unicode="&#x171;" horiz-adv-x="1101" d="M131 270v695h221v-766q57 -16 123 -17q168 0 262 107v676h221v-965h-194l-12 147h-17q-68 -80 -143.5 -121.5t-179.5 -41.5q-144 0 -212.5 67.5t-68.5 218.5zM227 1331v150q57 23 127 22q158 0 158 -157q0 -63 -29.5 -132t-79.5 -122l-133 30q63 111 66 209h-109z M592 1331v150q57 23 129 22q80 0 118 -39t38 -118q0 -63 -30 -132t-79 -122l-133 30q63 111 65 209h-108z" />
<glyph unicode="&#x172;" horiz-adv-x="1282" d="M141 393v873h226v-828q0 -141 60 -195.5t208 -54.5q174 0 280 41v1037h226v-998q0 -244 -379 -278q-53 -33 -73.5 -63.5t-20.5 -71.5q0 -23 6 -41q27 -8 74 -9q45 0 79 11l37 -146q-68 -29 -155 -28q-117 0 -177.5 44t-60.5 128q0 106 98 170q-428 20 -428 409z" />
<glyph unicode="&#x173;" horiz-adv-x="1101" d="M131 270v695h221v-766q57 -16 123 -17q168 0 262 107v676h221v-965h-63q-68 -35 -93.5 -67.5t-25.5 -77.5q0 -23 6 -41q27 -8 74 -9q47 0 80 11l37 -146q-68 -29 -156 -28q-117 0 -177 44t-60 128q0 76 46 125t136 86l-10 122h-17q-68 -80 -143.5 -121.5t-179.5 -41.5 q-143 0 -212 67.5t-69 218.5z" />
<glyph unicode="&#x174;" horiz-adv-x="1740" d="M66 1247l237 23q51 -301 100.5 -533.5t108.5 -480.5h16q72 203 254 764q-8 35 -10 47q-20 84 -37 170l226 20q59 -283 114 -490.5t144 -510.5h22q119 506 203 1014l229 -25q-125 -600 -321 -1245h-256q-139 403 -217 676h-27l-16 -51q-143 -438 -213 -625h-236 q-188 622 -321 1247zM573 1411l201 281h193l198 -281l-131 -25l-157 142h-13l-162 -142z" />
<glyph unicode="&#x175;" horiz-adv-x="1497" d="M68 961l215 14q55 -268 95 -441.5t87 -328.5h12q115 283 193 540q-18 68 -47 203l200 15q51 -246 94.5 -416t100.5 -346h12q98 276 215 774l211 -19q-78 -289 -149.5 -515t-155.5 -441h-246q-88 225 -153 453h-11q-49 -137 -127 -340l-43 -113h-225q-161 435 -278 961z M453 1116l200 281h193l198 -281l-131 -26l-157 143h-13l-161 -143z" />
<glyph unicode="&#x176;" horiz-adv-x="1290" d="M49 1225l223 51q160 -412 344 -686h58q188 287 344 686l223 -51q-98 -242 -199.5 -432.5t-238.5 -380.5h-45v-412h-226v412h-45q-137 190 -238.5 380.5t-199.5 432.5zM348 1411l201 281h192l199 -281l-131 -25l-158 142h-12l-162 -142z" />
<glyph unicode="&#x177;" horiz-adv-x="1081" d="M68 963l225 14q106 -424 229 -735h66q96 311 194 735l226 -14q-84 -344 -182.5 -655.5t-194.5 -536.5q-33 -76 -128 -125t-181 -49q-124 0 -216 43v63q0 90 21 168h160v-86q29 -6 65 -6q23 0 76 8q49 123 94 256h-127q-117 272 -193.5 483t-133.5 437zM248 1116l201 281 h192l199 -281l-131 -26l-158 143h-12l-162 -143z" />
<glyph unicode="&#x178;" horiz-adv-x="1290" d="M49 1225l223 51q160 -412 344 -686h58q188 287 344 686l223 -51q-98 -242 -199.5 -432.5t-238.5 -380.5h-45v-412h-226v412h-45q-137 190 -238.5 380.5t-199.5 432.5zM358 1503q0 53 31 82t84 29q55 0 86 -29t31 -82q0 -51 -31 -79.5t-86 -28.5q-53 0 -84 28.5t-31 79.5z M698 1503q0 53 31 82t86 29t85 -29t30 -82q0 -51 -30 -79.5t-85 -28.5t-86 28.5t-31 79.5z" />
<glyph unicode="&#x179;" horiz-adv-x="1183" d="M94 0v219l713 819v25h-469v-139h-188q-35 111 -35 241v101h950v-232l-705 -807v-28h508v143h189q35 -111 35 -242v-100h-998zM463 1415l170 314l256 -27l-264 -316z" />
<glyph unicode="&#x17a;" horiz-adv-x="956" d="M86 0v199l535 569v18h-312l-16 -118h-162q-27 80 -27 186v111h746v-220l-516 -552v-21h338l16 115h160q27 -84 26 -181v-106h-788zM369 1120l170 314l256 -27l-265 -313z" />
<glyph unicode="&#x17b;" horiz-adv-x="1183" d="M94 0v219l713 819v25h-469v-139h-188q-35 111 -35 241v101h950v-232l-705 -807v-28h508v143h189q35 -111 35 -242v-100h-998zM467 1526q0 63 37 99t102 36q66 0 104 -36t38 -99q0 -61 -38 -96t-104 -35q-65 0 -102 34.5t-37 96.5z" />
<glyph unicode="&#x17c;" horiz-adv-x="956" d="M86 0v199l535 569v18h-312l-16 -118h-162q-27 80 -27 186v111h746v-220l-516 -552v-21h338l16 115h160q27 -84 26 -181v-106h-788zM344 1229q0 66 37 100.5t102 34.5q68 0 105 -35t37 -100q0 -59 -38 -94t-104 -35q-65 0 -102 34.5t-37 94.5z" />
<glyph unicode="&#x17d;" horiz-adv-x="1183" d="M94 0v219l713 819v25h-469v-139h-188q-35 111 -35 241v101h950v-232l-705 -807v-28h508v143h189q35 -111 35 -242v-100h-998zM295 1681l129 25l162 -141h12l158 141l131 -25l-199 -280h-192z" />
<glyph unicode="&#x17e;" horiz-adv-x="956" d="M86 0v199l535 569v18h-312l-16 -118h-162q-27 80 -27 186v111h746v-220l-516 -552v-21h338l16 115h160q27 -84 26 -181v-106h-788zM188 1386l129 25l162 -141h13l157 141l131 -25l-198 -280h-193z" />
<glyph unicode="&#x18f;" horiz-adv-x="1318" d="M96 479q0 47 2 72l211 188l658 -10q0 184 -95.5 268t-279.5 84q-129 0 -217 -29.5t-187 -93.5l-82 175q117 74 231 113.5t271 39.5q299 0 442.5 -168t143.5 -475q0 -324 -146.5 -493.5t-439.5 -169.5q-254 0 -383 133t-129 366zM319 430q0 -115 74 -182.5t228 -67.5 q182 0 265 90t83 265l-641 -11q-8 -47 -9 -94z" />
<glyph unicode="&#x192;" horiz-adv-x="987" d="M-41 -272l41 182q41 -6 90 -6q72 0 121 16q33 45 45 129l102 725h-141l51 182h115l20 146q10 74 74 134t144 103q61 10 133 11q68 0 119 -17.5t104 -48.5l-74 -172q-41 18 -72.5 26.5t-70.5 8.5q-76 0 -125 -25q-20 -33 -31 -92l-10 -76l240 2l-54 -182h-211l-104 -739 q-25 -174 -103.5 -258t-232.5 -84q-92 0 -170 35z" />
<glyph unicode="&#x1a0;" horiz-adv-x="1353" d="M98 610q0 342 139.5 509t436.5 167q242 0 368 -133h25q37 68 53.5 142.5t16.5 170.5h213q0 -174 -48.5 -281.5t-158.5 -180.5q66 -141 65 -347q0 -342 -140 -508.5t-437 -166.5q-264 0 -398.5 159.5t-134.5 468.5zM322 645q0 -162 31.5 -260t106.5 -147.5t206 -49.5 q145 0 235 37q82 190 82 398q0 160 -30.5 258t-105.5 147t-208 49q-152 0 -242 -37q-76 -172 -75 -395z" />
<glyph unicode="&#x1a1;" horiz-adv-x="1185" d="M94 469q0 240 120 378t357 138q231 0 336 -160h19q31 53 43 120t14 169h213q0 -160 -50 -266.5t-169 -177.5q18 -80 18 -187q0 -502 -477 -501q-225 0 -324.5 127t-99.5 360zM311 492q0 -123 20.5 -192t74 -100.5t155.5 -31.5q94 0 176 29q41 94 41 260 q0 125 -19.5 196.5t-73.5 105.5t-157 34q-102 0 -176 -29q-41 -94 -41 -272z" />
<glyph unicode="&#x1af;" horiz-adv-x="1497" d="M123 389v877h225v-832q0 -141 60.5 -194.5t207.5 -53.5q174 0 281 41v1039h221v-197h19q182 98 182 361h217q0 -225 -106.5 -364.5t-307.5 -197.5v-604q0 -152 -140 -218t-380 -66q-479 -1 -479 409z" />
<glyph unicode="&#x1b0;" horiz-adv-x="1286" d="M131 270v695h221v-766q57 -16 123 -17q168 0 262 107v676h221v-146h17q66 43 93.5 112.5t27.5 182.5h204q0 -178 -82.5 -295t-259.5 -186v-633h-194l-12 147h-17q-68 -80 -143.5 -121.5t-179.5 -41.5q-144 0 -212.5 67.5t-68.5 218.5z" />
<glyph unicode="&#x1cd;" horiz-adv-x="1277" d="M63 16q84 315 190.5 651.5t209.5 598.5h352q102 -262 208.5 -598t190.5 -652l-237 -16l-37 145q-41 160 -63 240h-478q-61 -223 -98 -385zM342 1681l129 25l162 -141h12l158 141l131 -25l-199 -280h-192zM457 584h364q-98 328 -149 473h-64q-70 -195 -151 -473z" />
<glyph unicode="&#x1ce;" horiz-adv-x="1007" d="M74 242q0 160 121.5 235.5t334.5 75.5q57 0 125 -6v112q0 88 -36.5 120t-131.5 32q-55 0 -120 -8l-21 -133h-174q-27 76 -27 155v52q74 43 176.5 72.5t208.5 29.5q166 0 256.5 -78t90.5 -223v-678h-191l-12 135h-17q-111 -152 -297 -151q-143 0 -214.5 67.5t-71.5 190.5z M229 1386l129 25l162 -141h12l158 141l131 -25l-198 -280h-193zM303 270q0 -59 28.5 -84.5t84.5 -25.5q76 0 138 30.5t105 90.5v120q-78 14 -170 15q-104 0 -161 -17q-14 -35 -19.5 -63.5t-5.5 -65.5z" />
<glyph unicode="&#x1cf;" horiz-adv-x="528" d="M-33 1681l129 25l164 -141h10l158 141l133 -25l-201 -280h-190zM152 0v1266h225v-1266h-225z" />
<glyph unicode="&#x1d0;" horiz-adv-x="499" d="M-45 1386l127 25l164 -141h12l156 141l133 -25l-199 -280h-192zM141 0v963h217v-963h-217z" />
<glyph unicode="&#x1d1;" horiz-adv-x="1306" d="M98 610q0 342 139.5 509t436.5 167q535 0 534 -629q0 -340 -140 -506.5t-437 -166.5q-264 0 -398.5 158.5t-134.5 467.5zM322 645q0 -160 31.5 -259t106.5 -147.5t206 -48.5q145 0 235 37q82 186 82 396q0 160 -30.5 258t-105.5 147t-208 49q-152 0 -242 -37 q-76 -172 -75 -395zM356 1681l129 25l162 -141h12l158 141l131 -25l-198 -280h-193z" />
<glyph unicode="&#x1d2;" horiz-adv-x="1089" d="M94 469q0 240 120 378t357 138q424 0 424 -502q0 -500 -477 -499q-225 0 -324.5 126t-99.5 359zM244 1386l129 25l162 -141h12l158 141l131 -25l-199 -280h-193zM311 492q0 -123 20.5 -191t74 -99.5t155.5 -31.5t176 29q41 92 41 258q0 125 -19.5 196.5t-73.5 105.5 t-157 34q-102 0 -176 -29q-41 -94 -41 -272z" />
<glyph unicode="&#x1d3;" horiz-adv-x="1282" d="M141 393v873h226v-828q0 -141 60 -195.5t208 -54.5q174 0 280 41v1037h226v-998q0 -152 -140.5 -219t-379.5 -67q-242 0 -361 105.5t-119 305.5zM344 1681l129 25l162 -141h12l158 141l131 -25l-199 -280h-192z" />
<glyph unicode="&#x1d4;" horiz-adv-x="1101" d="M131 270v695h221v-766q57 -16 123 -17q168 0 262 107v676h221v-965h-194l-12 147h-17q-68 -80 -143.5 -121.5t-179.5 -41.5q-144 0 -212.5 67.5t-68.5 218.5zM250 1386l129 25l162 -141h12l158 141l131 -25l-199 -280h-192z" />
<glyph unicode="&#x1d5;" horiz-adv-x="1282" d="M141 393v873h226v-828q0 -141 60 -195.5t208 -54.5q174 0 280 41v1037h226v-998q0 -152 -140.5 -219t-379.5 -67q-242 0 -361 105.5t-119 305.5zM307 1718v197h678v-197h-678zM360 1503q0 53 31 82t84 29q55 0 86 -29t31 -82q0 -51 -31 -79.5t-86 -28.5q-53 0 -84 28.5 t-31 79.5zM698 1503q0 53 31 82t86 29t85 -29t30 -82q0 -51 -30 -79.5t-85 -28.5t-86 28.5t-31 79.5z" />
<glyph unicode="&#x1d6;" horiz-adv-x="1101" d="M131 270v695h221v-766q57 -16 123 -17q168 0 262 107v676h221v-965h-194l-12 147h-17q-68 -80 -143.5 -121.5t-179.5 -41.5q-144 0 -212.5 67.5t-68.5 218.5zM209 1421v197h678v-197h-678zM264 1206q0 53 31 82t84 29q55 0 86 -28.5t31 -82.5q0 -51 -31 -79.5t-86 -28.5 q-53 0 -84 28.5t-31 79.5zM602 1206q0 53 31 82t86 29t85 -28.5t30 -82.5q0 -51 -30 -79.5t-85 -28.5t-86 28.5t-31 79.5z" />
<glyph unicode="&#x1d7;" horiz-adv-x="1282" d="M141 393v873h226v-828q0 -141 60 -195.5t208 -54.5q174 0 280 41v1037h226v-998q0 -152 -140.5 -219t-379.5 -67q-242 0 -361 105.5t-119 305.5zM358 1501q0 53 31 83t84 30q55 0 86 -30t31 -83q0 -51 -31 -78.5t-86 -27.5q-53 0 -84 27.5t-31 78.5zM541 1765l170 312 l256 -27l-265 -313zM696 1501q0 53 31 83t86 30t85 -30t30 -83q0 -51 -30 -78.5t-85 -27.5t-86 27.5t-31 78.5z" />
<glyph unicode="&#x1d8;" horiz-adv-x="1101" d="M131 270v695h221v-766q57 -16 123 -17q168 0 262 107v676h221v-965h-194l-12 147h-17q-68 -80 -143.5 -121.5t-179.5 -41.5q-144 0 -212.5 67.5t-68.5 218.5zM264 1206q0 53 31 83t84 30q55 0 86 -29.5t31 -83.5q0 -51 -31 -78.5t-86 -27.5q-53 0 -84 27.5t-31 78.5z M459 1470l170 312l256 -27l-264 -313zM602 1206q0 53 31 83t86 30t85 -29.5t30 -83.5q0 -51 -30 -78.5t-85 -27.5t-86 27.5t-31 78.5z" />
<glyph unicode="&#x1d9;" horiz-adv-x="1282" d="M141 393v873h226v-828q0 -141 60 -195.5t208 -54.5q174 0 280 41v1037h226v-998q0 -152 -140.5 -219t-379.5 -67q-242 0 -361 105.5t-119 305.5zM342 1997l125 24l164 -141h12l156 141l129 -24l-199 -279h-186zM356 1503q0 53 31 82t84 29q55 0 86 -29t31 -82 q0 -51 -31 -79.5t-86 -28.5q-53 0 -84 28.5t-31 79.5zM694 1503q0 53 31 82t86 29t85 -29t30 -82q0 -51 -30 -79.5t-85 -28.5t-86 28.5t-31 79.5z" />
<glyph unicode="&#x1da;" horiz-adv-x="1101" d="M131 270v695h221v-766q57 -16 123 -17q168 0 262 107v676h221v-965h-194l-12 147h-17q-68 -80 -143.5 -121.5t-179.5 -41.5q-144 0 -212.5 67.5t-68.5 218.5zM258 1700l125 26l164 -143h12l156 143l129 -26l-199 -277h-186zM264 1206q0 53 31 83t84 30q55 0 86 -29.5 t31 -83.5q0 -51 -31 -78.5t-86 -27.5q-53 0 -84 27.5t-31 78.5zM602 1206q0 53 31 83t86 30t85 -29.5t30 -83.5q0 -51 -30 -78.5t-85 -27.5t-86 27.5t-31 78.5z" />
<glyph unicode="&#x1db;" horiz-adv-x="1282" d="M141 393v873h226v-828q0 -141 60 -195.5t208 -54.5q174 0 280 41v1037h226v-998q0 -152 -140.5 -219t-379.5 -67q-242 0 -361 105.5t-119 305.5zM348 1999l238 31l153 -275l-147 -26zM358 1503q0 53 31 82t84 29q55 0 86 -29t31 -82q0 -51 -31 -79.5t-86 -28.5 q-53 0 -84 28.5t-31 79.5zM696 1503q0 53 31 82t86 29t85 -29t30 -82q0 -51 -30 -79.5t-85 -28.5t-86 28.5t-31 79.5z" />
<glyph unicode="&#x1dc;" horiz-adv-x="1101" d="M131 270v695h221v-766q57 -16 123 -17q168 0 262 107v676h221v-965h-194l-12 147h-17q-68 -80 -143.5 -121.5t-179.5 -41.5q-144 0 -212.5 67.5t-68.5 218.5zM248 1702l237 31l154 -275l-147 -26zM264 1206q0 53 31 83t84 30q55 0 86 -29.5t31 -83.5q0 -51 -31 -78.5 t-86 -27.5q-53 0 -84 27.5t-31 78.5zM602 1206q0 53 31 83t86 30t85 -29.5t30 -83.5q0 -51 -30 -78.5t-85 -27.5t-86 27.5t-31 78.5z" />
<glyph unicode="&#x1e6;" horiz-adv-x="1259" d="M102 594q0 322 149.5 507t446.5 185q133 0 247 -25.5t181 -64.5v-102q0 -109 -26 -189h-172l-21 154q-78 18 -233 18q-137 0 -252 -24q-45 -96 -69.5 -211t-24.5 -236q0 -221 90 -319.5t289 -98.5q125 0 219 21v297h-287v192h399l111 -90v-334q0 -86 -59.5 -152.5 t-166 -103t-243.5 -36.5q-285 0 -431.5 154.5t-146.5 457.5zM393 1681l129 25l162 -141h12l158 141l131 -25l-199 -280h-192z" />
<glyph unicode="&#x1e7;" horiz-adv-x="1089" d="M94 455q0 252 85 390t290 138q100 0 164.5 -42t107.5 -118h15l12 146h186v-1067q0 -154 -117.5 -229.5t-318.5 -75.5q-106 0 -203.5 23.5t-158.5 60.5l47 176q63 -31 143 -49.5t156 -18.5q82 0 135 10.5t106 32.5v184l7 127h-17q-125 -135 -287 -135q-186 0 -269 125 t-83 322zM272 1386l129 25l162 -141h12l158 141l131 -25l-198 -280h-193zM319 479q0 -141 44.5 -207.5t142.5 -66.5q131 0 229 117v344q-94 119 -227 118q-106 0 -147.5 -72.5t-41.5 -232.5z" />
<glyph unicode="&#x1fa;" horiz-adv-x="1277" d="M63 16q84 315 190.5 651.5t209.5 598.5h352q102 -262 208.5 -598t190.5 -652l-237 -16l-37 145q-41 160 -63 240h-478q-61 -223 -98 -385zM379 1577q0 92 71.5 154.5t204.5 62.5q111 0 173.5 -57.5t62.5 -153.5q0 -92 -74 -149.5t-203 -57.5q-112 0 -173.5 53.5 t-61.5 147.5zM457 584h364q-98 328 -149 473h-64q-70 -195 -151 -473zM520 1915l170 313l256 -26l-264 -316zM532 1583q0 -35 26 -56.5t69 -21.5q67 1 100 11q8 37 8 59q0 41 -24.5 65.5t-69.5 24.5q-63 0 -98 -8q-10 -33 -11 -74z" />
<glyph unicode="&#x1fb;" horiz-adv-x="1007" d="M74 242q0 160 121.5 235.5t334.5 75.5q57 0 125 -6v112q0 88 -36.5 120t-131.5 32q-55 0 -120 -8l-21 -133h-174q-27 76 -27 155v52q74 43 176.5 72.5t208.5 29.5q166 0 256.5 -78t90.5 -223v-678h-191l-12 135h-17q-111 -152 -297 -151q-143 0 -214.5 67.5t-71.5 190.5z M260 1280q0 92 71.5 154.5t205.5 62.5q111 0 173 -57.5t62 -153.5q0 -92 -73.5 -149.5t-202.5 -57.5q-113 0 -174.5 53.5t-61.5 147.5zM303 270q0 -59 28.5 -84.5t84.5 -25.5q76 0 138 30.5t105 90.5v120q-78 14 -170 15q-104 0 -161 -17q-14 -35 -19.5 -63.5t-5.5 -65.5z M414 1286q0 -35 25.5 -56.5t68.5 -21.5q67 1 100 11q8 37 8 59q0 41 -24.5 65.5t-69.5 24.5q-63 0 -98 -8q-10 -33 -10 -74zM418 1608l170 313l256 -27l-264 -315z" />
<glyph unicode="&#x1fc;" horiz-adv-x="1929" d="M29 53q285 590 641 1213h1128v-207h-637v-332h561v-197h-561v-325q121 -20 258 -21q197 0 359 37l39 -198q-156 -43 -406 -43q-225 0 -350 51t-125 180v174h-500l-194 -389zM541 588h395v463h-141q-92 -158 -254 -463zM1020 1415l170 314l256 -27l-264 -316z" />
<glyph unicode="&#x1fd;" horiz-adv-x="1607" d="M74 242q0 160 121.5 235.5t334.5 75.5q74 0 142 -6v112q0 86 -44 119t-141 33q-55 0 -120 -8l-21 -133h-174q-27 76 -27 155v52q74 43 175.5 72.5t207.5 29.5q100 0 175 -32t118 -91q111 127 312 127q190 0 286.5 -105.5t96.5 -289.5q0 -37 -3 -58l-133 -131l-487 7 q4 -117 61.5 -174.5t184.5 -57.5q98 0 169.5 22.5t141.5 67.5l61 -170q-80 -51 -168 -78.5t-215 -27.5q-242 0 -346 153q-80 -78 -169 -117.5t-228 -39.5q-145 0 -228 69.5t-83 188.5zM303 270q0 -59 31 -84.5t92 -25.5q146 0 250 98v143q-78 14 -187 15q-104 0 -161 -17 q-14 -35 -19.5 -63.5t-5.5 -65.5zM698 1120l170 312l256 -25l-264 -315zM893 553l410 8q10 33 10 76q0 74 -50.5 117t-142.5 43q-127 0 -175 -57.5t-52 -186.5z" />
<glyph unicode="&#x1fe;" horiz-adv-x="1306" d="M98 610q0 342 139.5 509t436.5 167q86 0 153 -18l66 143l194 -47l-79 -174q201 -150 200 -533q0 -342 -140 -508.5t-437 -166.5q-98 0 -166 22l-76 -170l-194 49l92 203q-188 154 -189 524zM322 645q0 -231 67 -334l346 754q-43 12 -96 12q-152 0 -242 -37 q-76 -172 -75 -395zM535 1425l170 312l256 -27l-265 -313zM555 203q53 -14 111 -15q145 0 235 37q82 190 82 398q0 242 -78 346z" />
<glyph unicode="&#x1ff;" horiz-adv-x="1089" d="M94 469q0 240 120 378t357 138q61 0 105 -8l76 168l161 -47l-84 -185q166 -117 166 -430q0 -500 -477 -499q-66 0 -108 8l-103 -225l-162 49l109 237q-160 115 -160 416zM311 492q0 -84 8.5 -139.5t28.5 -92.5l242 528q-37 4 -62 5q-102 0 -176 -29q-41 -94 -41 -272z M410 1128l170 314l256 -27l-265 -315zM494 174q41 -4 67 -4q102 0 176 29q41 92 41 258q0 180 -43 250z" />
<glyph unicode="&#x218;" horiz-adv-x="1112" d="M94 90l76 191q172 -92 389 -93q121 0 207 19q20 53 20 127q0 78 -49 118t-178 70q-137 33 -227 75t-143.5 116.5t-53.5 195.5q0 166 110.5 271.5t340.5 105.5q129 0 218 -23.5t165 -66.5v-74q0 -47 -10.5 -110.5t-24.5 -102.5h-174l-23 166q-82 12 -162 12 q-113 0 -164 -38.5t-51 -126.5q0 -76 54.5 -115t201.5 -72q207 -45 301.5 -126t94.5 -247q0 -172 -110.5 -275t-356.5 -103q-254 0 -451 106zM455 -137q61 20 129 20q82 0 119.5 -39t37.5 -118q0 -66 -28.5 -133.5t-77.5 -120.5l-137 30q63 113 65 209h-108v152z" />
<glyph unicode="&#x219;" horiz-adv-x="921" d="M82 63l63 173q68 -33 146 -51.5t153 -18.5q96 0 160 12q16 33 17 82q0 39 -13.5 60.5t-50.5 37t-115 31.5q-121 27 -195.5 59.5t-116.5 90t-42 151.5q0 127 96.5 210t288.5 83q186 0 318 -68v-65q0 -37 -7.5 -87t-19.5 -79h-168l-16 119q-66 8 -119 8q-86 0 -122 -24.5 t-36 -81.5q0 -55 44 -86t159 -54q119 -25 186.5 -54.5t104.5 -85.5t37 -151q0 -131 -96.5 -210.5t-297.5 -79.5q-211 -1 -358 79zM338 -137q61 20 129 20q82 0 120 -39t38 -118q0 -66 -29 -133.5t-78 -120.5l-137 30q63 113 65 209h-108v152z" />
<glyph unicode="&#x21a;" horiz-adv-x="1167" d="M66 1057v209h1036v-209h-406v-1057h-225v1057h-405zM438 -129q57 23 129 23q82 0 120 -39t38 -119q0 -66 -28.5 -133.5t-78.5 -120.5l-137 31q63 111 66 208h-109v150z" />
<glyph unicode="&#x21b;" horiz-adv-x="825" d="M33 762l26 180h152v279h215v-279h322l-27 -180h-295v-473q0 -43 16 -88q49 -16 97 -17q41 0 92 12.5t94 32.5l45 -188q-45 -25 -103.5 -42t-119.5 -17q-94 -1 -174 22q-68 41 -115 95.5t-47 117.5v545h-178zM328 -137q61 20 129 20q82 0 119.5 -39t37.5 -118 q0 -66 -28.5 -133.5t-77.5 -120.5l-137 30q63 113 65 209h-108v152z" />
<glyph unicode="&#x237;" horiz-adv-x="608" d="M-78 -362l55 188q51 -16 85 -22.5t77 -6.5q57 0 103 15q14 39 14 116v1030h217v-1046q0 -150 -80 -234t-239 -84q-54 0 -117.5 11.5t-114.5 32.5z" />
<glyph unicode="&#x251;" horiz-adv-x="1085" d="M94 455q0 252 81 390t288 138q180 0 270 -164h15l12 150h194v-969l-194 -2l-12 133h-17q-59 -72 -130 -111.5t-163 -39.5q-190 0 -267 134t-77 341zM317 475q0 -154 44.5 -230.5t140.5 -76.5q135 0 235 123v379q-49 61 -102 93t-125 32q-113 0 -153 -79t-40 -241z" />
<glyph unicode="&#x259;" horiz-adv-x="1030" d="M92 385q0 37 2 55l133 131l496 -8q-2 117 -63.5 175.5t-190.5 58.5q-98 0 -170 -22.5t-141 -67.5l-62 170q82 49 170 77.5t213 28.5q233 0 345 -125t112 -360q0 -244 -118 -377t-337 -133q-192 0 -290.5 106.5t-98.5 290.5zM295 334q0 -76 50 -119t144 -43 q127 0 179.5 59.5t56.5 186.5l-420 -8q-10 -47 -10 -76z" />
<glyph unicode="&#x261;" horiz-adv-x="1089" d="M135 426q0 252 85 389t290 137q100 0 164.5 -41t105.5 -116h15l12 145h188v-1067q0 -154 -118.5 -229.5t-319.5 -75.5q-104 0 -201.5 23.5t-158.5 60.5l47 176q61 -31 141 -49.5t156 -18.5q84 0 138 10.5t105 32.5v185l7 127h-17q-129 -135 -287 -135q-186 0 -269 124.5 t-83 321.5zM358 451q0 -141 44 -208t143 -67q69 0 124.5 28.5t104.5 88.5v344q-96 119 -227 119q-106 0 -147.5 -73t-41.5 -232z" />
<glyph unicode="&#x2bb;" horiz-adv-x="540" d="M119 1024q0 66 28.5 133.5t77.5 120.5l135 -31q-63 -113 -65 -209h108v-151q-72 -23 -129 -23q-155 0 -155 160z" />
<glyph unicode="&#x2bc;" horiz-adv-x="540" d="M127 1104v151q68 23 127 23q80 0 119 -40t39 -120q0 -63 -30 -131.5t-79 -122.5l-133 31q63 113 66 209h-109z" />
<glyph unicode="&#x2be;" horiz-adv-x="360" d="M53 915v125l31 -2q20 0 41 4q8 16 8 43q0 59 -80 60v133q127 0 187.5 -45t60.5 -137q0 -88 -61.5 -134.5t-186.5 -46.5z" />
<glyph unicode="&#x2bf;" horiz-adv-x="401" d="M66 1096q0 92 60 137t187 45v-133q-80 0 -80 -60q0 -27 9 -43q20 -4 41 -4l30 2v-125q-125 0 -186 46.5t-61 134.5z" />
<glyph unicode="&#x2c6;" horiz-adv-x="684" d="M45 985l201 281h192l199 -281l-131 -27l-158 142h-12l-162 -142z" />
<glyph unicode="&#x2c7;" horiz-adv-x="684" d="M45 1239l129 27l162 -144h12l158 144l131 -27l-199 -281h-192z" />
<glyph unicode="&#x2c8;" horiz-adv-x="358" d="M84 967v428h190v-428h-190z" />
<glyph unicode="&#x2c9;" horiz-adv-x="628" d="M78 967v172h471v-172h-471z" />
<glyph unicode="&#x2ca;" horiz-adv-x="538" d="M98 977l127 272l256 -26l-221 -275z" />
<glyph unicode="&#x2cb;" horiz-adv-x="538" d="M74 1223l256 26l127 -272l-162 -29z" />
<glyph unicode="&#x2cc;" horiz-adv-x="440" d="M123 0h190v-428h-190v428z" />
<glyph unicode="&#x2d8;" horiz-adv-x="757" d="M80 1235l196 31q4 -57 26 -85t77 -28t76.5 27.5t25.5 85.5l197 -31q-12 -125 -85 -189.5t-214 -64.5t-214 64.5t-85 189.5z" />
<glyph unicode="&#x2d9;" horiz-adv-x="651" d="M186 1122q0 63 37 99t103 36t103.5 -35.5t37.5 -99.5q0 -61 -38 -96t-103 -35q-66 0 -103 35t-37 96z" />
<glyph unicode="&#x2da;" horiz-adv-x="675" d="M80 1092q0 92 71.5 154.5t204.5 62.5q111 0 173.5 -57.5t62.5 -153.5q0 -90 -74 -147.5t-203 -57.5q-112 0 -173.5 53t-61.5 146zM236 1098q0 -35 25.5 -56.5t68.5 -21.5q67 0 100 10q8 37 8 60q0 41 -24.5 66.5t-69.5 25.5q-66 0 -98 -11q-10 -31 -10 -73z" />
<glyph unicode="&#x2db;" horiz-adv-x="612" d="M109 -186q0 78 49 129t145 88l119 -31q-66 -37 -91.5 -68.5t-25.5 -76.5q0 -23 6 -41q27 -8 74 -9q47 0 80 11l37 -146q-68 -29 -156 -28q-117 0 -177 44t-60 128z" />
<glyph unicode="&#x2dc;" horiz-adv-x="856" d="M113 1069q4 115 48 172t138 57q33 0 62.5 -12t74.5 -37q23 -14 46.5 -24.5t41.5 -10.5q39 0 54.5 25t21.5 72l141 -43q-4 -115 -47 -172.5t-135 -57.5q-35 0 -64.5 12.5t-68.5 34.5q-33 18 -54.5 27.5t-43.5 9.5q-37 0 -53.5 -24.5t-20.5 -69.5z" />
<glyph unicode="&#x2dd;" horiz-adv-x="878" d="M115 1094v149q57 23 127 23q158 0 157 -158q0 -63 -29.5 -132t-78.5 -122l-133 31q63 111 65 209h-108zM479 1094v149q57 23 129 23q80 0 118 -39t38 -119q0 -63 -29.5 -132t-79.5 -122l-133 31q63 111 66 209h-109z" />
<glyph unicode="&#x300;" d="M-596 989l170 314l256 -27l-262 -315z" />
<glyph unicode="&#x301;" d="M-596 989l170 314l256 -27l-262 -315z" />
<glyph unicode="&#x302;" d="M-756 985l201 281h193l198 -281l-133 -27l-156 142h-12l-164 -142z" />
<glyph unicode="&#x303;" d="M-797 1038q4 115 48 172.5t139 57.5q33 0 60.5 -11.5t78.5 -37.5q23 -14 46.5 -24.5t41.5 -10.5q37 0 53.5 25.5t20.5 70.5l141 -43q-4 -115 -47 -172t-135 -57q-35 0 -64.5 12t-66.5 35q-6 2 -26.5 14t-39 17.5t-33.5 5.5q-39 0 -54 -25t-21 -72z" />
<glyph unicode="&#x304;" d="M-631 967v176h471v-176h-471z" />
<glyph unicode="&#x306;" d="M-750 1235l197 31q4 -57 25.5 -85t76.5 -28t77 27.5t26 85.5l196 -31q-12 -125 -84.5 -189.5t-214.5 -64.5q-141 0 -213.5 64.5t-85.5 189.5z" />
<glyph unicode="&#x307;" d="M-473 1122q0 63 37 99t102 36q66 0 102.5 -35.5t36.5 -99.5q0 -61 -36.5 -96t-102.5 -35q-65 0 -102 35t-37 96z" />
<glyph unicode="&#x308;" d="M-932 1049q0 53 31 81.5t84 28.5t84 -28.5t31 -81.5q0 -51 -31 -80t-84 -29t-84 28.5t-31 80.5zM-594 1049q0 53 31 81.5t86 28.5q53 0 84 -28.5t31 -81.5q0 -51 -31 -80t-84 -29q-55 0 -86 28.5t-31 80.5z" />
<glyph unicode="&#x309;" d="M-569 1409q92 41 207 41q104 0 160.5 -48t56.5 -130q0 -158 -193 -168v-92h-133l-33 108v88q106 0 145.5 8.5t39.5 43.5q0 29 -18.5 39t-65.5 10q-59 0 -121 -21z" />
<glyph unicode="&#x30a;" d="M-655 1092q0 92 71.5 154.5t204.5 62.5q111 0 173.5 -57.5t62.5 -153.5q0 -90 -74 -147.5t-201 -57.5q-114 0 -175.5 52t-61.5 147zM-502 1098q0 -35 25.5 -56.5t68.5 -21.5q70 0 101 10q8 25 8 60q0 41 -23.5 66.5t-68.5 25.5q-68 0 -101 -11q-10 -31 -10 -73z" />
<glyph unicode="&#x30b;" d="M-774 1094v149q61 23 129 23q156 0 156 -158q0 -66 -29 -133.5t-78 -120.5l-135 31q63 111 65 209h-108zM-410 1094v149q61 23 131 23q80 0 117 -39t37 -119q0 -66 -28.5 -133.5t-77.5 -120.5l-136 31q63 111 66 209h-109z" />
<glyph unicode="&#x30c;" d="M-756 1239l127 27l164 -144h12l156 144l133 -27l-198 -281h-193z" />
<glyph unicode="&#x31b;" d="M113 696v160q109 0 150.5 24.5t41.5 80.5h-112v141q72 20 126 20q92 0 137.5 -49t45.5 -133q0 -113 -85 -179.5t-243 -66.5q-41 0 -61 2z" />
<glyph unicode="&#x323;" d="M186 -225q0 63 37 99t103 36t103.5 -36t37.5 -99q0 -61 -38 -96t-103 -35q-66 0 -103 34.5t-37 96.5z" />
<glyph unicode="&#x324;" d="M-932 -262q0 53 31 81.5t84 28.5t84 -28.5t31 -81.5q0 -51 -31 -80t-84 -29t-84 29t-31 80zM-594 -262q0 53 31 81.5t86 28.5q53 0 84 -28.5t31 -81.5q0 -51 -31 -80t-84 -29q-55 0 -86 29t-31 80z" />
<glyph unicode="&#x326;" d="M102 -299l117 238h283l-203 -238h-197z" />
<glyph unicode="&#x327;" d="M-549 -430l45 131q61 -25 137 -25q55 0 84 7q6 20 7 45q0 53 -89 53q-51 0 -84 -17l-92 97l148 172l141 -29l-80 -110q35 14 82 14q82 0 123 -46t41 -128q0 -203 -254 -203q-123 0 -209 39z" />
<glyph unicode="&#x328;" d="M109 -186q0 78 49 129t145 88l119 -31q-66 -37 -91.5 -68.5t-25.5 -76.5q0 -23 6 -41q27 -8 74 -9q47 0 80 11l37 -146q-68 -29 -156 -28q-117 0 -177 44t-60 128z" />
<glyph unicode="&#x32e;" d="M80 -291q12 125 85 189.5t214 64.5t214 -64.5t85 -189.5l-197 -31q-4 57 -25.5 85t-76.5 28t-76.5 -27.5t-26.5 -85.5z" />
<glyph unicode="&#x331;" d="M-842 -61h682v-185h-682v185z" />
<glyph unicode="&#x3c0;" horiz-adv-x="1277" d="M63 762v201h1111v-201h-183v-498q0 -51 8 -82q35 -6 74 -6q37 0 86 4v-184q-51 -18 -129 -19q-117 0 -188.5 70t-71.5 197v518h-307v-762h-223v762h-177z" />
<glyph unicode="&#xe01;" horiz-adv-x="1175" d="M102 770v148q233 164 514 163q141 0 235.5 -41t137.5 -106.5t43 -136.5v-797h-223v836q-86 43 -217 43q-182 0 -285 -62v-8l107 -127q33 -39 32 -92q0 -14 -4 -47l-80 -543h-221l86 606z" />
<glyph unicode="&#xe02;" horiz-adv-x="1062" d="M94 870v191h152q119 0 175 -58.5t56 -154.5q0 -72 -21.5 -119t-62.5 -106q-37 -53 -54 -90t-17 -89v-98q0 -84 43 -123t153 -39q106 0 178 21v856h224v-731q0 -94 -44.5 -173t-135.5 -128t-226 -49q-227 0 -321.5 96t-94.5 260v129q0 70 23.5 115t68.5 98 q33 39 48.5 65.5t15.5 61.5t-17.5 50t-50.5 15h-92z" />
<glyph unicode="&#xe03;" horiz-adv-x="1114" d="M86 954q0 49 12 107h166v-129q12 -4 19 -4q63 0 73 133h179q27 -55 39 -106.5t12 -112.5q0 -84 -33 -134.5t-94 -105.5q-51 -47 -75 -81t-24 -85v-96q0 -80 44.5 -119t158.5 -39q113 0 185 21v858h223v-733q0 -150 -104.5 -249t-307.5 -99q-227 0 -324.5 93t-97.5 257 v135q0 78 38 126t108 99q47 37 67.5 59.5t20.5 49.5t-9 49h-12q-27 -31 -57.5 -45.5t-75.5 -14.5q-63 0 -97 44.5t-34 121.5z" />
<glyph unicode="&#xe04;" horiz-adv-x="1216" d="M84 655q0 207 138 316.5t396 109.5q205 0 330 -81.5t125 -217.5v-782h-223v844q-41 14 -106.5 23.5t-133.5 9.5q-160 0 -232.5 -53.5t-72.5 -184.5q0 -100 33 -186h12q106 117 244 159l145 -34l2 -52q2 -43 -3 -96t-17 -92h-152l-14 78q-55 -6 -121 -54l-94 -362h-236 l109 279q-63 92 -96 181t-33 195z" />
<glyph unicode="&#xe05;" horiz-adv-x="1251" d="M84 655q0 426 324 426q74 0 134 -33.5t95 -91.5q84 125 244 125q129 0 227 -59v-1022h-223v868q-25 10 -76 11q-49 0 -83 -22.5t-48 -61.5h-105q-20 43 -47.5 64.5t-72.5 21.5q-84 0 -116 -59.5t-32 -182.5q0 -109 31 -186h16q102 117 244 159l145 -34l2 -52 q2 -39 -3 -93t-15 -95h-154l-14 78q-55 -6 -121 -54l-94 -362h-236l107 276q-63 92 -96 182.5t-33 196.5z" />
<glyph unicode="&#xe06;" horiz-adv-x="1198" d="M92 954q0 49 12 107h166v-133q6 -2 19 -2q63 0 73 135h179q51 -104 51 -223q0 -82 -31 -132.5t-88 -105.5q-47 -43 -70.5 -79t-23.5 -87v-151q66 -51 137.5 -75t161.5 -24q100 0 153 21v856h224v-828q0 -127 -82 -190t-230 -63q-221 -1 -360 157h-16l-11 -137h-200v465 q0 78 35.5 125t103.5 98q43 35 62.5 57.5t19.5 49.5q0 29 -10 51h-11q-25 -33 -55.5 -47.5t-77.5 -14.5q-63 0 -97 46.5t-34 123.5z" />
<glyph unicode="&#xe07;" horiz-adv-x="1048" d="M37 817l217 57l225 -671h86q80 115 121 239.5t41 274.5q0 86 -27 153q-39 10 -98 11q-59 0 -125 -13l-31 189q66 14 107 19t88 5q152 0 230.5 -91t78.5 -271q0 -205 -67.5 -378t-204.5 -341h-354z" />
<glyph unicode="&#xe08;" horiz-adv-x="1107" d="M111 926v80q223 76 432 75q252 0 358.5 -120.5t106.5 -358.5q0 -178 -59.5 -312t-184.5 -290h-361l-129 356q-8 23 -20 31t-39 8h-70v185h127q80 0 113 -27t55 -90l107 -281h100q141 190 141 416q0 102 -24.5 161.5t-83.5 88.5t-166 29q-109 0 -201 -23v-115h-174 q-29 90 -28 187z" />
<glyph unicode="&#xe09;" horiz-adv-x="1177" d="M119 928v67q109 39 229.5 62.5t233.5 23.5q225 0 338.5 -90t113.5 -266v-725h-200l-11 145h-16q-66 -82 -137.5 -123.5t-182.5 -41.5q-133 0 -206.5 61t-73.5 186v166h-76v178h164q131 0 131 -131v-241q57 -16 119 -17q154 0 266 109v371q0 125 -57.5 171t-194.5 46 q-115 0 -237 -31v-115h-175q-29 90 -28 195z" />
<glyph unicode="&#xe0a;" horiz-adv-x="1089" d="M102 870v191h152q119 0 175 -58.5t56 -156.5q0 -72 -21.5 -119t-62.5 -106q-37 -51 -54 -88t-17 -89v-98q0 -82 47 -122t160 -40q117 0 188 21v303q0 63 -31.5 94t-99.5 47v162q57 0 86 25.5t39 72.5q2 10 12 60.5t12 111.5l232 -32q-6 -94 -41 -179q-18 -47 -54 -76.5 t-98 -48.5v-8q88 -29 127 -79t39 -144v-184q0 -92 -46 -172t-141 -129t-231 -49q-424 0 -424 356v129q0 70 24 115t69 96q33 39 48 64.5t15 60.5q0 70 -67 69h-93z" />
<glyph unicode="&#xe0b;" horiz-adv-x="1175" d="M106 954q0 49 13 107h166v-129q12 -4 18 -4q63 0 74 133h174q27 -55 40 -106.5t13 -112.5q0 -80 -28.5 -128t-83.5 -104q-47 -47 -70 -81.5t-23 -88.5v-96q0 -82 48.5 -122t162.5 -40q127 0 199 21v307q0 66 -30.5 96.5t-100.5 44.5v162q59 0 87 26.5t38 73.5 q23 92 24 170l234 -32q-10 -100 -43 -177q-18 -49 -53 -78.5t-97 -45.5v-9q86 -31 125 -81t39 -142v-190q0 -94 -48 -174t-144.5 -127t-233.5 -47q-430 0 -430 350v139q0 76 35 123t96 96q45 37 63.5 58.5t18.5 52.5q0 27 -8 49h-12q-27 -31 -56.5 -45.5t-74.5 -14.5 q-63 0 -97.5 44.5t-34.5 121.5z" />
<glyph unicode="&#xe0c;" horiz-adv-x="1792" d="M111 770v148q233 164 512 163q139 0 231 -40t135 -104.5t43 -139.5v-521q63 -49 122.5 -70.5t135.5 -21.5q80 0 135 21v856h224v-823q0 -258 -283 -258q-104 0 -183 37.5t-153 119.5h-16l-10 -137h-191v836q-86 41 -213 41q-160 0 -285 -60v-8l107 -127q31 -37 31 -84 q0 -25 -7 -55l-51 -295q-2 -8 -2 -21q0 -55 66 -55h131v-158q-96 -35 -213 -34q-96 0 -150.5 49t-54.5 137q0 12 4 45l64 395z" />
<glyph unicode="&#xe0d;" horiz-adv-x="1771" d="M111 770v148q233 164 512 163q141 0 232 -41t132 -105.5t41 -137.5v-426q0 -100 40 -138t140 -38q106 0 197 28v838h223v-830q0 -100 -104 -163v-11l55 -59q6 -31 6 -59q0 -145 -107.5 -222t-285.5 -77q-164 0 -342 53l49 192q90 -27 156.5 -38t132.5 -11q139 0 190 17 q0 80 -22 155q-76 -16 -152 -16q-188 0 -292.5 84t-104.5 252v508q-86 41 -207 41q-160 0 -285 -60v-8l107 -127q31 -37 31 -84q0 -25 -7 -55l-51 -295q-2 -8 -2 -23q0 -53 66 -53h131v-158q-96 -35 -213 -34q-96 0 -150.5 48t-54.5 134q0 12 4 49l64 395z" />
<glyph unicode="&#xe0e;" horiz-adv-x="1208" d="M74 23v155h94q39 0 56.5 11.5t21.5 37.5l49 379l-135 164v148q233 164 493 163q141 0 234.5 -41t135.5 -105.5t42 -137.5v-885q0 -68 -33 -132.5t-87 -105.5t-116 -41q-117 35 -229 35q-80 0 -152.5 -12t-171.5 -41l-49 186q106 35 187.5 50.5t158.5 15.5 q76 0 136.5 -14.5t119.5 -40.5h13v1026q-76 41 -211 41q-154 0 -269 -62v-8l113 -127q31 -37 31 -82q0 -23 -6 -57l-54 -393q-25 -162 -208 -162q-41 0 -87.5 10t-76.5 25z" />
<glyph unicode="&#xe0f;" horiz-adv-x="1208" d="M74 23v155h96q39 0 55.5 10.5t20.5 38.5l49 379l-135 164v148q233 164 493 163q141 0 234.5 -41t135.5 -105.5t42 -137.5v-854q0 -156 -72.5 -246t-222.5 -90h-170l-31 108q-41 -63 -88 -94t-137 -31q-79 1 -192 54l53 182q39 -16 81 -26.5t74 -10.5q66 0 105 10.5 t67 30.5l-36 96h186l47 -145q57 0 100 12q12 43 13 117v928q-76 41 -211 41q-154 0 -269 -62v-8l113 -127q31 -37 31 -82q0 -23 -6 -57l-54 -393q-25 -162 -208 -162q-41 0 -87.5 10t-76.5 25z" />
<glyph unicode="&#xe10;" horiz-adv-x="1206" d="M61 -408l48 177q39 -18 83 -29.5t74 -11.5q63 0 101.5 10t72.5 31l-39 96h185l45 -144q84 0 125 15q2 72 -37 170l215 20q8 -66 8 -106q0 -123 -63.5 -193.5t-188.5 -70.5h-186l-31 104q-39 -61 -86 -91t-135 -30q-85 0 -191 53zM109 934v72q223 76 432 75q197 0 309 -82 l92 88l184 37l39 -200l-213 -56q53 -100 54 -266q0 -178 -59.5 -312t-184.5 -290h-361l-129 356q-8 23 -20 31t-39 8h-70v185h127q80 0 113 -27t55 -90l107 -281h100q141 190 141 416q0 102 -24.5 161.5t-84 88.5t-165.5 29q-109 0 -201 -23v-106h-174q-29 86 -28 186z" />
<glyph unicode="&#xe11;" horiz-adv-x="1206" d="M92 954q0 49 12 107h166v-129q12 -4 19 -4q63 0 73 133h179q39 -88 45 -129h14q63 74 123.5 111.5t136.5 37.5q100 0 151.5 -57t51.5 -154v-870h-221v864q-37 12 -86 13q-76 0 -164 -64q-6 -66 -34 -108.5t-79 -96.5q-47 -49 -69.5 -85t-22.5 -87v-436h-223v469 q0 76 34.5 124t98.5 99q41 33 60.5 56.5t19.5 50.5t-8 49h-13q-27 -31 -57.5 -45.5t-75.5 -14.5q-63 0 -97 44.5t-34 121.5z" />
<glyph unicode="&#xe12;" horiz-adv-x="1808" d="M90 541q0 276 73 408t236 132q135 0 207 -118q41 57 97.5 87.5t136.5 30.5q129 0 209 -61v-739q59 -51 118.5 -74t128.5 -23q90 0 146 21v852h223v-824q0 -123 -73.5 -188t-211.5 -65q-100 0 -176 37.5t-153 119.5h-17l-10 -137h-197v868q-18 10 -63 11q-45 0 -75 -24 t-42 -62h-104q-14 43 -38 65.5t-63 22.5q-74 0 -101.5 -81t-27.5 -259q0 -193 41 -273t144 -80q35 0 61.5 4.5t63.5 16.5l47 -180q-82 -39 -189 -39q-201 0 -296 126t-95 425z" />
<glyph unicode="&#xe13;" horiz-adv-x="1785" d="M111 770v148q233 164 512 163q205 0 305 -83t100 -201v-596q63 -16 125 -17q76 0 137.5 26t128.5 81v766h223v-1057h-202l-10 145h-17q-78 -84 -150.5 -124.5t-181.5 -40.5q-135 0 -203.5 66.5t-68.5 193.5v598q-82 39 -209 39q-160 0 -285 -60v-8l107 -127 q29 -35 29 -84q0 -14 -5 -55l-51 -295q-2 -8 -2 -21q0 -55 66 -55h131v-158q-96 -35 -213 -34q-96 0 -150.5 49t-54.5 137q0 12 4 45l64 395z" />
<glyph unicode="&#xe14;" horiz-adv-x="1198" d="M102 518q0 268 129 415.5t398 147.5q225 0 426 -84v-997h-224v852q-92 27 -208 27q-164 0 -230.5 -88.5t-66.5 -272.5q0 -178 43 -253t147 -75q61 0 127 19l35 -184q-74 -35 -178 -35q-207 0 -302.5 128t-95.5 400z" />
<glyph unicode="&#xe15;" horiz-adv-x="1234" d="M102 541q0 279 81 409.5t249 130.5q137 0 209 -118q84 119 236 118q135 0 215 -61v-1020h-224v868q-18 10 -63 11q-86 0 -123 -86h-104q-20 45 -42 66.5t-65 21.5q-80 0 -112.5 -86t-32.5 -254q0 -193 41 -273t143 -80q68 0 137 23l45 -180q-86 -41 -198 -41 q-201 0 -296.5 126t-95.5 425z" />
<glyph unicode="&#xe16;" horiz-adv-x="1189" d="M111 770v148q106 76 237 119.5t283 43.5q141 0 235.5 -41t137.5 -106.5t43 -136.5v-797h-224v836q-86 41 -217 41q-166 0 -291 -60v-8l107 -127q29 -35 29 -84q0 -14 -5 -55l-51 -295q-2 -8 -2 -21q0 -55 66 -55h131v-158q-96 -35 -213 -34q-96 0 -150.5 49t-54.5 137 q0 12 4 45l64 395z" />
<glyph unicode="&#xe17;" horiz-adv-x="1193" d="M147 0v1061h201l10 -158h17q72 84 166 131t209 47q147 0 224 -64.5t77 -191.5v-825h-224v856q-57 20 -145 21q-88 0 -164 -31t-147 -88v-758h-224z" />
<glyph unicode="&#xe18;" horiz-adv-x="1110" d="M113 807q0 135 123.5 204.5t347.5 69.5q219 0 401 -59l-61 -184q-168 41 -340 41q-168 0 -238 -13q-14 -29 -14 -69q0 -33 19.5 -48.5t68.5 -21.5l360 -43q33 -4 84 -40t91 -80t40 -66v-281q0 -117 -119.5 -177t-314.5 -60q-213 0 -319.5 76.5t-106.5 242.5v152h221v-123 q0 -88 44 -122t161 -34q131 0 213 33v295l-387 45q-141 18 -207.5 80.5t-66.5 181.5z" />
<glyph unicode="&#xe19;" horiz-adv-x="1185" d="M143 233v828h224v-856q59 -20 143 -21q180 0 309 111v766h223v-1061h-200l-11 145h-16q-141 -166 -369 -165q-147 0 -225 63t-78 190z" />
<glyph unicode="&#xe1a;" horiz-adv-x="1191" d="M143 309v752h224v-703q0 -98 52 -136t177 -38q66 0 128 9.5t101 23.5v844h224v-834q0 -119 -131.5 -183t-321.5 -64q-453 -1 -453 329z" />
<glyph unicode="&#xe1b;" horiz-adv-x="1191" d="M143 309v752h224v-703q0 -98 52 -136t177 -38q66 0 128 9.5t101 23.5v1221h224v-1211q0 -119 -131.5 -183t-321.5 -64q-453 -1 -453 329z" />
<glyph unicode="&#xe1c;" horiz-adv-x="1290" d="M102 526q0 207 34 328t110 174t207 53q100 0 190 -43l-41 -178q-70 20 -121 21q-66 0 -98.5 -34t-45.5 -108.5t-13 -212.5q0 -129 10 -199.5t36.5 -103.5t78.5 -33q70 0 104 35v269h188v-269q20 -14 50 -23t59 -9q49 0 76 8v860h221v-987q-98 -84 -227 -84 q-86 0 -147.5 29.5t-108.5 86.5h-15q-43 -59 -96 -87.5t-141 -28.5q-162 0 -236 130t-74 406z" />
<glyph unicode="&#xe1d;" horiz-adv-x="1290" d="M102 526q0 207 34 328t110 174t207 53q100 0 190 -43l-41 -178q-70 20 -121 21q-66 0 -98.5 -34t-45.5 -108.5t-13 -212.5q0 -129 10 -199.5t36.5 -103.5t78.5 -33q70 0 104 35v269h188v-269q20 -14 50 -23t59 -9q49 0 76 8v1237h221v-1364q-98 -84 -227 -84 q-86 0 -147.5 29.5t-108.5 86.5h-15q-43 -59 -96 -87.5t-141 -28.5q-162 0 -236 130t-74 406z" />
<glyph unicode="&#xe1e;" horiz-adv-x="1343" d="M119 1061l221 20q29 -594 45 -862h12q100 301 195 647h160q80 -297 194 -647h12q20 326 43 862l224 -20q-39 -586 -109 -1061h-264q-86 256 -174 582h-12q-76 -281 -177 -582h-262q-67 436 -108 1061z" />
<glyph unicode="&#xe1f;" horiz-adv-x="1355" d="M119 1061l221 20q29 -594 45 -862h12q100 301 195 647h160q80 -297 194 -647h12q29 492 64 1221l221 -21q-25 -365 -58.5 -767t-68.5 -652h-264q-86 256 -174 582h-12q-76 -281 -177 -582h-262q-67 436 -108 1061z" />
<glyph unicode="&#xe20;" horiz-adv-x="1212" d="M74 14v156h94q39 0 56.5 11.5t21.5 37.5l53 387l-135 164v148q233 164 493 163q141 0 234.5 -41t135.5 -105.5t42 -137.5v-797h-223v838q-76 41 -211 41q-154 0 -268 -62v-8l112 -127q29 -35 29 -82q0 -12 -4 -57l-58 -402q-25 -162 -208 -161q-41 0 -87.5 10t-76.5 24z " />
<glyph unicode="&#xe21;" horiz-adv-x="1173" d="M147 0v1061h224v-774q66 -55 133 -79t158 -24q90 0 145 21v856h223v-828q0 -127 -78 -190t-223 -63q-108 0 -195.5 37.5t-158.5 119.5h-17l-10 -137h-201z" />
<glyph unicode="&#xe22;" horiz-adv-x="1155" d="M98 299q0 217 197 266v13q-90 29 -134 86t-44 149q0 123 86 195.5t233 72.5q82 0 172 -22l-26 -180q-72 10 -123 10q-53 0 -113 -8q-10 -55 -10 -93q0 -68 38 -101.5t118 -33.5h122v-184h-133q-164 0 -164 -145q0 -84 58.5 -120t183.5 -36q147 0 229 37v856h224v-723 q0 -197 -115 -284t-334 -87q-217 0 -341 79t-124 253z" />
<glyph unicode="&#xe23;" horiz-adv-x="993" d="M80 76l59 180q82 -43 158 -62.5t176 -19.5q115 0 184 23q23 43 23 96q0 63 -44 93t-165 44q-172 20 -277.5 96t-105.5 207q0 160 106.5 254t319.5 94q211 0 356 -71l-94 -179q-127 55 -291 56q-90 0 -147 -19q-25 -43 -25 -98q0 -49 19.5 -73.5t63.5 -38t136 -23.5 q178 -23 274.5 -93.5t96.5 -211.5q0 -156 -109.5 -253t-328.5 -97q-244 0 -385 96z" />
<glyph unicode="&#xe24;" horiz-adv-x="1185" d="M106 770v148q106 76 237.5 119.5t283.5 43.5q141 0 235 -41t137 -106.5t43 -136.5v-1200h-223v1239q-82 41 -217 41q-166 0 -291 -60v-8l107 -127q29 -35 28 -84q0 -14 -4 -55l-51 -295q-2 -8 -2 -21q0 -55 66 -55h131v-158q-96 -35 -213 -34q-96 0 -150.5 49t-54.5 137 q0 12 4 45l64 395z" />
<glyph unicode="&#xe25;" horiz-adv-x="1118" d="M74 276q0 178 104.5 261.5t333.5 83.5q66 0 119 -6.5t119 -22.5v104q0 106 -46.5 145.5t-168.5 39.5q-100 0 -193 -19v-123h-174q-29 88 -29 195v74q111 37 209 55t209 18q211 0 314.5 -91t103.5 -265v-725h-223v410q-106 25 -230 24q-117 0 -205 -20q-20 -55 -20 -117 q0 -70 32.5 -98.5t98.5 -28.5q86 0 141 23l47 -179q-104 -35 -206 -34q-160 0 -248 77.5t-88 218.5z" />
<glyph unicode="&#xe26;" horiz-adv-x="1214" d="M86 14v156h94q39 0 56.5 11.5t21.5 37.5l53 387l-135 164v148q109 78 228.5 120.5t261.5 42.5q141 0 232 -41t132 -105.5t41 -137.5v-1200h-223v1241q-82 41 -207 41q-147 0 -262 -62v-8l113 -127q29 -35 28 -82q0 -12 -4 -57l-57 -402q-25 -162 -209 -161q-41 0 -87 10 t-77 24z" />
<glyph unicode="&#xe27;" horiz-adv-x="1042" d="M104 102l99 166q117 -86 274 -86q145 0 198.5 84t53.5 246q0 131 -19.5 208t-71.5 115.5t-153 38.5q-92 0 -163 -26l-15 -141h-170q-27 92 -26 178v90q70 49 174 77.5t217 28.5q246 0 348 -142t102 -421q0 -244 -107.5 -391t-352.5 -147q-123 0 -216.5 29.5t-171.5 92.5z " />
<glyph unicode="&#xe28;" horiz-adv-x="1277" d="M84 655q0 207 138 316.5t396 109.5q203 0 330 -82l90 88l187 37l37 -200l-209 -56q20 -35 20 -86v-782h-223v844q-41 14 -106.5 23.5t-133.5 9.5q-160 0 -232.5 -53.5t-72.5 -184.5q0 -98 31 -184h16q104 115 242 157l145 -34l2 -52q2 -43 -3 -96t-17 -92h-152l-14 78 q-55 -6 -121 -54l-94 -362h-236l109 279q-63 92 -96 181t-33 195z" />
<glyph unicode="&#xe29;" horiz-adv-x="1286" d="M143 307v754h224v-701q0 -100 54 -138t183 -38q68 0 132.5 9.5t103.5 23.5v217q-86 4 -162 12q-102 18 -164 43v234h186v-102q55 -8 127 -9h13v449h223v-414q51 20 104 53l90 -161q-102 -55 -194 -78v-240q0 -117 -132 -179t-329 -62q-221 0 -340 79.5t-119 247.5z" />
<glyph unicode="&#xe2a;" horiz-adv-x="1206" d="M74 276q0 178 104.5 261.5t333.5 83.5q66 0 119 -6.5t119 -22.5v104q0 106 -46.5 145.5t-168.5 39.5q-100 0 -193 -19v-123h-174q-29 84 -29 195v74q111 37 209 55t209 18q186 0 289 -73l92 84l184 36l39 -200l-213 -56q27 -70 27 -147v-725h-223v410q-106 25 -230 24 q-117 0 -205 -20q-20 -55 -20 -117q0 -70 32.5 -98.5t98.5 -28.5q86 0 141 23l47 -179q-104 -35 -206 -34q-160 0 -248 77.5t-88 218.5z" />
<glyph unicode="&#xe2b;" horiz-adv-x="1155" d="M147 0v1061h224v-344l334 16q31 39 55 107q16 49 25.5 96t19.5 135l225 -18q-14 -190 -69 -295q-16 -33 -63.5 -62.5t-104.5 -48.5q80 -23 124 -75t58 -148l65 -424h-227l-55 377q-12 84 -49 115.5t-121 31.5h-217v-524h-224z" />
<glyph unicode="&#xe2c;" horiz-adv-x="1341" d="M119 1061l221 20q29 -594 45 -862h12l41 117q80 225 148 448h162q74 -248 165 -499q6 -14 11.5 -30.5t11.5 -35.5h12q33 305 56 635q-82 45 -168 57v176q25 -2 77 -2q100 0 217 14.5t181 35.5l51 -205q-39 -10 -100 -10q-88 0 -179 32v-12q66 -29 92.5 -74t26.5 -106 q0 -27 -2 -41q-33 -334 -94 -719h-264q-33 98 -51 147q-16 49 -54.5 162t-64.5 207h-13q-31 -106 -70.5 -222t-51.5 -153l-48 -141h-262q-67 436 -108 1061z" />
<glyph unicode="&#xe2d;" horiz-adv-x="1105" d="M90 332v168q0 23 58.5 67.5t87.5 44.5h335v-180h-262v-100q0 -88 46 -120t165 -32q113 0 167 26.5t75.5 95.5t21.5 208q0 147 -22.5 226t-70.5 110t-134 31q-68 0 -117 -4.5t-112 -16.5v-123h-174q-10 41 -17.5 95.5t-7.5 95.5v65q223 92 430 92q170 0 268.5 -63.5 t139.5 -187t41 -320.5q0 -266 -113 -398t-371 -132q-434 0 -434 352z" />
<glyph unicode="&#xe2e;" horiz-adv-x="1216" d="M90 332v168q0 23 58.5 67.5t87.5 44.5h335v-180h-262v-100q0 -88 46 -120t165 -32q113 0 167 26.5t75.5 95.5t21.5 208q0 147 -22.5 226t-70.5 110t-134 31q-68 0 -117 -4.5t-112 -16.5v-123h-174q-10 41 -17.5 95.5t-7.5 95.5v65q223 92 430 92q186 0 289 -77l86 83 l186 37l37 -200l-209 -56q59 -121 60 -358q0 -266 -113 -398t-371 -132q-434 0 -434 352z" />
<glyph unicode="&#xe2f;" horiz-adv-x="1050" d="M94 780q0 127 29 281h201v-295q0 -59 12 -96q49 -12 106 -13q127 0 242 50v354h223v-1061h-223v530q-135 -76 -264 -75q-164 0 -245 86t-81 239z" />
<glyph unicode="&#xe30;" horiz-adv-x="991" d="M119 193v233h213v-104q55 -14 137 -15q94 0 165 20.5t140 65.5l90 -162q-92 -55 -186 -78.5t-221 -23.5q-201 1 -338 64zM119 688v234h213v-105q55 -14 137 -14q94 0 165 20.5t140 65.5l90 -162q-92 -55 -186 -78.5t-221 -23.5q-201 0 -338 63z" />
<glyph unicode="&#xe31;" d="M-649 1253v230h211v-107q51 -16 143 -16q102 0 197.5 33.5t167.5 89.5l86 -166q-182 -127 -465 -127q-199 0 -340 63z" />
<glyph unicode="&#xe32;" horiz-adv-x="870" d="M45 1028q72 25 158 39t168 14q164 0 260 -63.5t96 -171.5v-846h-223v852q-68 27 -172 27q-72 0 -126 -7.5t-120 -25.5z" />
<glyph unicode="&#xe33;" horiz-adv-x="870" d="M-637 1391q0 92 71.5 154.5t205.5 62.5q111 0 173 -57.5t62 -153.5q0 -92 -73.5 -149.5t-200.5 -57.5q-115 0 -176.5 53t-61.5 148zM-477 1397q0 -35 23.5 -54.5t68.5 -19.5q65 0 96 10q8 25 8 56q0 39 -22.5 62.5t-67.5 23.5q-63 0 -98 -11q-8 -33 -8 -67zM45 1028 q72 25 158 39t168 14q164 0 260 -63.5t96 -171.5v-846h-223v852q-68 27 -172 27q-72 0 -126 -7.5t-120 -25.5z" />
<glyph unicode="&#xe34;" d="M-911 1210v148l221 28h547v-176h-768z" />
<glyph unicode="&#xe35;" d="M-911 1210v148l221 28h348v121h199v-297h-768z" />
<glyph unicode="&#xe36;" d="M-911 1210v148l221 28h162q-2 4 -2 13q0 66 56 110.5t146 44.5q98 0 152.5 -50t54.5 -122q0 -70 -49 -121t-139 -51h-602zM-401 1382q0 -70 73 -69q29 0 64 10q14 29 14 53q0 76 -74 76q-41 0 -69 -10q-8 -31 -8 -60z" />
<glyph unicode="&#xe37;" d="M-911 1210v148l221 28h92v123h168v-123h117v123h170v-299h-768z" />
<glyph unicode="&#xe38;" d="M-535 -186q37 20 90.5 32.5t104.5 12.5q98 0 144 -48.5t46 -154.5v-248h-192v205q0 37 -8 70q-25 4 -41 4l-33 -2q-35 -2 -78 -15z" />
<glyph unicode="&#xe39;" d="M-805 -180q76 43 168 43q74 0 108.5 -40t34.5 -138v-74q0 -31 15.5 -44t52.5 -13q55 0 88 8v295h188v-271q0 -80 -72.5 -130t-195.5 -50q-119 0 -186.5 44t-67.5 132v58q0 25 -6 61l-18 2q-29 0 -72 -14z" />
<glyph unicode="&#xe3a;" d="M-391 -143h241v-244h-241v244z" />
<glyph unicode="&#xe3f;" horiz-adv-x="1206" d="M145 0v1229q135 41 301 51v186h209v-192q350 -49 351 -356q0 -92 -40 -156t-132 -113v-12q233 -68 233 -279q0 -166 -92 -250.5t-320 -103.5v-229h-209v225h-301zM369 195h153q125 0 194.5 16t98.5 52t29 99q0 80 -58.5 125t-177.5 45h-239v-337zM369 725h217 q113 12 154.5 54t41.5 126q0 102 -62.5 142t-205.5 40q-74 0 -145 -16v-346z" />
<glyph unicode="&#xe40;" horiz-adv-x="638" d="M131 242v819h221v-801q0 -53 6 -74q35 -8 93 -8h92v-166q-70 -33 -146 -32q-61 0 -123.5 35.5t-102.5 95t-40 131.5z" />
<glyph unicode="&#xe41;" horiz-adv-x="1196" d="M131 242v819h221v-801q0 -53 6 -74q35 -8 93 -8h92v-166q-70 -33 -146 -32q-61 0 -123.5 35.5t-102.5 95t-40 131.5zM688 242v819h221v-801q0 -53 6 -74q35 -8 93 -8h92v-166q-70 -33 -146 -32q-61 0 -123.5 35.5t-102.5 95t-40 131.5z" />
<glyph unicode="&#xe42;" horiz-adv-x="774" d="M-18 1313v125l145 104q162 -8 315 -8q186 0 299 29l62 -179q-127 -49 -305 -49q-86 0 -159 10.5t-159 36.5v-12l234 -258q33 -35 41 -71.5t8 -110.5v-670q0 -43 6 -74q39 -8 94 -8h90v-166q-70 -33 -143 -32q-61 0 -123.5 35.5t-103.5 96t-41 130.5v667q0 53 -5.5 80 t-25.5 51z" />
<glyph unicode="&#xe43;" horiz-adv-x="815" d="M0 1405v72q72 45 176.5 71.5t233.5 26.5q172 0 267 -69.5t95 -188.5q0 -76 -20.5 -127t-73.5 -100l-129 -121q-23 -27 -32 -47.5t-9 -53.5v-608q0 -53 6 -74q35 -8 92 -8h90v-166q-66 -33 -143 -32q-61 0 -123.5 35.5t-102.5 95t-40 131.5v645q0 55 13 86t46 67l203 197 v127q-78 12 -162 12q-98 0 -182 -24v-152h-174q-27 88 -31 205z" />
<glyph unicode="&#xe44;" horiz-adv-x="886" d="M-39 1403l74 149q158 -53 244 -137q90 66 186 101.5t213 44.5l166 -136v-94q0 -49 -41 -104l-207 -287q-16 -27 -21.5 -52.5t-5.5 -74.5v-553q0 -53 6 -74q35 -8 93 -8h92v-166q-66 -31 -146 -30q-61 0 -123.5 34.5t-102.5 95t-40 132.5v592q0 70 10.5 108.5t42.5 77.5 l234 307v17q-135 -2 -279 -58v-102l-135 -25q-33 74 -105.5 143.5t-154.5 98.5z" />
<glyph unicode="&#xe45;" horiz-adv-x="870" d="M45 1028q72 25 158 39t168 14q164 0 260 -63.5t96 -171.5v-1270h-223v1276q-68 27 -172 27q-72 0 -126 -7.5t-120 -25.5z" />
<glyph unicode="&#xe46;" horiz-adv-x="1193" d="M90 680q0 141 63.5 222t200.5 81q141 0 215 -115h13q45 55 99 85t142 30q106 0 207 -57v-1438h-223v1288q-31 8 -66 8q-94 0 -114 -110h-111q-25 111 -110 110q-51 0 -72 -34.5t-21 -102.5q0 -76 29 -151l-213 -31q-39 104 -39 215z" />
<glyph unicode="&#xe47;" d="M-877 1419q0 127 76 189.5t213 62.5h420v-151h-430q-49 0 -84 -9q-12 -51 -12 -88q0 -45 13 -65.5t48 -20.5q70 0 76 80h121q8 -78 78 -78q29 0 39 4v99h155q6 -39 6 -72q0 -84 -41 -132t-123 -48q-61 0 -104 25.5t-66 66.5h-12q-29 -43 -68.5 -67.5t-105.5 -24.5 q-94 0 -146.5 58.5t-52.5 170.5z" />
<glyph unicode="&#xe48;" d="M-354 1210v375h211v-375h-211z" />
<glyph unicode="&#xe49;" d="M-721 1540q88 57 191 57q80 0 120.5 -33.5t40.5 -95.5q0 -35 -9 -59.5t-32 -46.5v-10l103 22l334 12v-176h-576l-61 78q53 43 53 90q0 23 -8 37q-55 -4 -97 -20z" />
<glyph unicode="&#xe4a;" d="M-950 1210v133q0 109 46 167.5t140 58.5q106 0 156 -92h12q29 45 69 68.5t103 23.5q82 0 125 -41t43 -107q0 -29 -10 -51l4 -8l76 16l237 8v-176h-446l-62 62q31 35 31 69q0 25 -14.5 42.5t-36.5 17.5q-70 0 -76 -88h-104q-4 41 -21.5 63.5t-48.5 22.5q-27 0 -39 -4v-185 h-184z" />
<glyph unicode="&#xe4b;" d="M-707 1327v160h138l69 -14v137h203v-137l66 14h143v-160h-143l-66 8v-125h-203v125l-69 -8h-138z" />
<glyph unicode="&#xe4c;" d="M-582 1210v248q72 23 167.5 36t187.5 13q98 0 168.5 -9t158.5 -32l-49 -172q-129 43 -278 43q-86 0 -146 -12v-115h-209z" />
<glyph unicode="&#xe4d;" d="M-569 1391q0 92 71.5 154.5t204.5 62.5q111 0 173.5 -57.5t62.5 -153.5q0 -92 -74 -149.5t-203 -57.5q-112 0 -173.5 53t-61.5 148zM-414 1397q0 -35 24.5 -54.5t67.5 -19.5q66 0 99 10q8 37 8 56q0 39 -22.5 62.5t-67.5 23.5q-66 0 -98 -11q-10 -31 -11 -67z" />
<glyph unicode="&#xe4e;" d="M-602 1360q0 66 44 99.5t124 45.5v8q-33 29 -46.5 55.5t-13.5 67.5q0 70 61.5 108t174.5 38q84 0 164 -29l-35 -127q-66 18 -121 19q-45 0 -63 -5q-8 -18 -9 -45q0 -45 56 -45h82v-129h-158q-27 0 -55 -6q-10 -20 -11 -43q0 -47 70 -47q68 0 119 12v-135 q-61 -12 -150 -12q-116 0 -174.5 44t-58.5 126z" />
<glyph unicode="&#xe4f;" horiz-adv-x="1126" d="M125 414q0 127 57.5 225t157.5 152.5t223 54.5t223.5 -54.5t157.5 -152.5t57 -225q0 -129 -57 -227.5t-157.5 -151.5t-223.5 -53t-223 53t-157.5 151.5t-57.5 227.5zM207 414q0 -158 99.5 -254.5t254.5 -96.5q156 0 254 95.5t98 255.5q0 158 -98 255t-254 97 q-100 0 -181 -44t-127 -124t-46 -184zM311 414q0 109 71 176t179 67q109 0 178.5 -67.5t69.5 -175.5q0 -111 -69.5 -177.5t-178.5 -66.5q-108 0 -179 66.5t-71 177.5zM401 414q0 -76 44 -119t118 -43q72 0 117 43t45 119q0 74 -45 116.5t-117 42.5q-74 0 -118 -43t-44 -116z " />
<glyph unicode="&#xe50;" horiz-adv-x="1155" d="M94 461q0 231 135.5 356t380.5 125q223 0 337 -126t114 -353q0 -231 -136.5 -356t-381.5 -125q-226 0 -337.5 123.5t-111.5 355.5zM311 487q0 -117 23.5 -184t84 -98t171.5 -31q125 0 203 33q27 45 39 97t12 126q0 119 -26.5 186.5t-87 98t-167.5 30.5q-55 0 -109.5 -9 t-91.5 -25q-27 -47 -39 -99.5t-12 -124.5z" />
<glyph unicode="&#xe51;" horiz-adv-x="1132" d="M94 580q0 170 123 266t352 96q233 0 346 -128t113 -363q0 -168 -83 -295t-237.5 -201t-367.5 -84l-4 186q477 47 477 383q0 160 -59 279q-86 27 -199 26q-127 0 -186.5 -38.5t-59.5 -128.5q0 -78 56.5 -112t191.5 -38l-31 -174q-432 10 -432 326z" />
<glyph unicode="&#xe52;" horiz-adv-x="1341" d="M125 358v742h217v-709q0 -121 79 -169t259 -48q115 0 188.5 9.5t137.5 27.5v522q-20 6 -54 6q-41 0 -58 -27.5t-24 -76.5h-94q-10 106 -86 106q-33 0 -45 -24.5t-12 -67.5q0 -53 16 -135l-180 -14q-29 96 -29 186q0 256 195 256q70 0 113 -32.5t73 -94.5h15 q57 127 202 127q88 0 183 -45v-584q0 -170 -129 -251.5t-412 -81.5q-274 0 -414.5 95t-140.5 283z" />
<glyph unicode="&#xe53;" horiz-adv-x="1294" d="M102 424q0 276 77 396t245 120q150 0 233 -113h15q90 113 262 113q66 0 122 -20.5t99 -53.5v-866h-215v735q-31 8 -82 8q-63 0 -117 -32v-246h-172v246q-45 35 -116 34q-53 0 -82 -30.5t-41.5 -99t-12.5 -191.5q0 -131 36 -193.5t122 -62.5q55 0 129 20l43 -172 q-82 -37 -190 -36q-183 0 -269 109.5t-86 334.5z" />
<glyph unicode="&#xe54;" horiz-adv-x="1185" d="M94 430q0 254 115 381t389 127h242q23 96 22 244h213q0 -152 -28.5 -245t-100.5 -141t-201 -48h-167q-154 0 -211.5 -77t-57.5 -237q0 -137 52.5 -196.5t168.5 -59.5q127 0 236 41l-45 199q20 43 61 82t88 57h195v-172h-137l51 -227l133 -29v-133q-55 -10 -119 -10 q-70 0 -105.5 25.5t-60.5 76.5h-16q-129 -102 -328 -102q-184 0 -286.5 114.5t-102.5 329.5z" />
<glyph unicode="&#xe55;" horiz-adv-x="1185" d="M94 430q0 137 37 232.5t127 162.5v9q-53 47 -53 127q0 86 70.5 143t199.5 57q104 0 168 -50t64 -122q0 -23 -9 -47l4 -6h150q23 96 22 246h216q0 -223 -77 -328.5t-268 -105.5h-167q-154 0 -211.5 -77t-57.5 -237q0 -137 52.5 -196.5t168.5 -59.5q127 0 236 41l-45 199 q20 43 61 82t88 57h195v-172h-137l51 -227l133 -29v-133q-55 -10 -119 -10q-70 0 -105.5 25.5t-60.5 76.5h-16q-129 -102 -328 -102q-184 0 -286.5 114.5t-102.5 329.5zM360 950q0 -35 24 -54t69 -19q65 0 96 10q10 31 10 55q0 39 -23.5 62.5t-68.5 23.5q-63 0 -96 -10 q-10 -31 -11 -68z" />
<glyph unicode="&#xe56;" horiz-adv-x="1116" d="M63 1159l218 33q51 -176 51 -352l14 -6q121 109 293 108q193 0 288 -126t95 -349q0 -236 -126 -361.5t-366 -125.5q-118 0 -211.5 24.5t-150.5 65.5v57q0 88 27 178h167l21 -115q59 -16 164 -16q125 0 211 27q53 104 53 262q0 143 -53 214t-168 71q-68 0 -115 -14.5 t-102 -49.5l6 -106l-195 -17q-10 135 -44 307t-77 291z" />
<glyph unicode="&#xe57;" horiz-adv-x="1617" d="M102 430q0 256 64.5 382t228.5 126q135 0 215 -121h6q82 121 238 121q129 0 209 -59v-684h70q76 0 129 20q10 63 10 160v684h211v-719q0 -160 -100.5 -250t-292.5 -90h-236v731q-23 8 -68 8q-92 0 -129 -90h-104q-16 45 -43 68.5t-76 23.5q-74 0 -97.5 -71.5 t-23.5 -233.5q0 -139 43 -195.5t142 -56.5q70 0 135 19l45 -178q-84 -35 -195 -35q-381 0 -381 440z" />
<glyph unicode="&#xe58;" horiz-adv-x="1239" d="M102 436q0 252 110 379t384 127h299q20 102 20 240h215q0 -227 -72.5 -329.5t-258.5 -102.5h-215q-106 0 -164 -33t-80.5 -99.5t-22.5 -177.5q0 -145 27 -209.5t98 -64.5q61 0 85 29.5t28 97.5h190q2 -66 28 -96.5t85 -30.5q45 0 90 6v240h-205v168h263q88 -51 147 -154 v-186q0 -125 -69.5 -192.5t-190.5 -67.5q-90 0 -147.5 34.5t-90.5 108.5h-14q-45 -78 -96 -110.5t-148 -32.5q-149 0 -222 119.5t-73 336.5z" />
<glyph unicode="&#xe59;" horiz-adv-x="1218" d="M102 428q0 270 95.5 391t285.5 121q123 0 200 -54.5t120 -158.5q82 8 119 25q23 80 22 231q0 70 -6 156l199 20q10 -102 10 -178q0 -190 -56.5 -305t-197.5 -115h-37l131 -448l-182 -41l-191 647q-35 14 -63.5 20t-69.5 6q-92 0 -128 -70.5t-36 -246.5q0 -131 35 -194.5 t123 -63.5q57 0 123 18l41 -174q-80 -35 -180 -34q-183 0 -270 109.5t-87 338.5z" />
<glyph unicode="&#xe5a;" horiz-adv-x="1560" d="M106 780q0 127 29 281h201v-295q0 -59 12 -96q49 -12 107 -13q127 0 241 50v354h224v-1061h-224v530q-135 -76 -264 -75q-164 0 -245 86t-81 239zM1194 0v1061h223v-1061h-223z" />
<glyph unicode="&#xe5b;" horiz-adv-x="1542" d="M109 588q0 111 45 225l231 -27q-47 -111 -47 -192q0 -127 100 -127q35 0 76 14v221h201v-131q0 -51 18.5 -68.5t67.5 -17.5t80 9v208h213v-108q35 -20 75.5 -26.5t100.5 -6.5q72 0 157 41l58 -178q-51 -35 -99.5 -49.5t-111.5 -14.5q-74 0 -125 26t-94 81h-13 q-25 -84 -78 -130t-153 -46q-113 0 -168 84h-10q-43 -51 -98.5 -77t-143.5 -26q-135 0 -208.5 88.5t-73.5 227.5z" />
<glyph unicode="&#x1e0c;" horiz-adv-x="1234" d="M145 0v1241q176 45 394 45q328 0 468 -161.5t140 -473.5q0 -215 -58.5 -356t-208 -218t-415.5 -77h-320zM369 207h114q229 0 379 43q29 70 44.5 170t15.5 209q0 162 -35 260t-118 144t-226 46q-82 0 -174 -12v-860zM471 -242q0 66 37 101t102 35q68 0 105 -35t37 -101 q0 -59 -38 -94t-104 -35q-65 0 -102 35t-37 94z" />
<glyph unicode="&#x1e0d;" horiz-adv-x="1122" d="M94 481q0 211 88 354.5t277 143.5q94 0 165.5 -34t131.5 -97h12l-10 156v370h221v-1374h-203l-8 131h-16q-51 -70 -118 -108.5t-167 -38.5q-195 0 -284 127t-89 370zM324 475q0 -160 44 -227.5t160 -67.5q80 0 137.5 37t92.5 96v369q-51 51 -106.5 75.5t-127.5 24.5 q-104 0 -152 -74.5t-48 -232.5zM444 -242q0 66 37 101t103 35q68 0 104.5 -35t36.5 -101q0 -59 -38 -94t-103 -35q-66 0 -103 35t-37 94z" />
<glyph unicode="&#x1e0e;" horiz-adv-x="1236" d="M145 -113h676v-184h-676v184zM147 0v1241q176 45 394 45q328 0 468 -161.5t140 -473.5q0 -215 -58.5 -356t-208 -218t-415.5 -77h-320zM371 207h114q229 0 379 43q29 70 44.5 170t15.5 209q0 162 -35 260t-118 144t-226 46q-82 0 -174 -12v-860z" />
<glyph unicode="&#x1e0f;" horiz-adv-x="1122" d="M94 481q0 211 88 354.5t277 143.5q94 0 165.5 -34t131.5 -97h12l-10 156v370h221v-1374h-203l-8 131h-16q-51 -70 -118 -108.5t-167 -38.5q-195 0 -284 127t-89 370zM156 -113h682v-184h-682v184zM324 475q0 -160 44 -227.5t160 -67.5q80 0 137.5 37t92.5 96v369 q-51 51 -106.5 75.5t-127.5 24.5q-104 0 -152 -74.5t-48 -232.5z" />
<glyph unicode="&#x1e20;" horiz-adv-x="1259" d="M102 594q0 322 149.5 507t446.5 185q133 0 247 -25.5t181 -64.5v-102q0 -109 -26 -189h-172l-21 154q-78 18 -233 18q-137 0 -252 -24q-45 -96 -69.5 -211t-24.5 -236q0 -221 90 -319.5t289 -98.5q125 0 219 21v297h-287v192h399l111 -90v-334q0 -86 -59.5 -152.5 t-166 -103t-243.5 -36.5q-285 0 -431.5 154.5t-146.5 457.5zM315 1401v196h678v-196h-678z" />
<glyph unicode="&#x1e21;" horiz-adv-x="1089" d="M94 455q0 252 85 390t290 138q100 0 164.5 -42t107.5 -118h15l12 146h186v-1067q0 -154 -117.5 -229.5t-318.5 -75.5q-106 0 -203.5 23.5t-158.5 60.5l47 176q63 -31 143 -49.5t156 -18.5q82 0 135 10.5t106 32.5v184l7 127h-17q-125 -135 -287 -135q-186 0 -269 125 t-83 322zM221 1106v197h678v-197h-678zM319 479q0 -141 44.5 -207.5t142.5 -66.5q131 0 229 117v344q-94 119 -227 118q-106 0 -147.5 -72.5t-41.5 -232.5z" />
<glyph unicode="&#x1e24;" horiz-adv-x="1259" d="M143 0v1266h226v-549h522v549h225v-1266h-225v508h-522v-508h-226zM492 -242q0 66 36.5 101t102.5 35q68 0 104.5 -35t36.5 -101q0 -59 -38 -94t-103 -35q-66 0 -102.5 35t-36.5 94z" />
<glyph unicode="&#x1e25;" horiz-adv-x="1122" d="M143 0v1374h219v-399l-6 -156h13q135 164 331 164q143 0 215 -66.5t72 -211.5v-705h-221v762q-55 18 -129 18q-92 0 -156.5 -26.5t-118.5 -79.5v-674h-219zM422 -242q0 66 37 101t102 35q68 0 104.5 -35t36.5 -101q0 -59 -37.5 -94t-103.5 -35q-65 0 -102 35t-37 94z" />
<glyph unicode="&#x1e2a;" horiz-adv-x="1259" d="M143 0v1266h226v-549h522v549h225v-1266h-225v508h-522v-508h-226zM332 -141l196 28q4 -57 25.5 -83.5t77.5 -26.5q55 0 76.5 26.5t25.5 83.5l197 -28q-12 -125 -85 -189.5t-214 -64.5q-142 0 -214.5 64.5t-84.5 189.5z" />
<glyph unicode="&#x1e2b;" horiz-adv-x="1122" d="M143 0v1374h219v-399l-6 -156h13q135 164 331 164q143 0 215 -66.5t72 -211.5v-705h-221v762q-55 18 -129 18q-92 0 -156.5 -26.5t-118.5 -79.5v-674h-219zM262 -141l197 28q4 -57 25.5 -83.5t76.5 -26.5t76.5 26.5t26.5 83.5l196 -28q-12 -125 -85 -189.5t-214 -64.5 t-214 64.5t-85 189.5z" />
<glyph unicode="&#x1e36;" horiz-adv-x="970" d="M145 0v1266h226v-1057h559v-209h-785zM418 -242q0 66 37 101t102 35q68 0 104.5 -35t36.5 -101q0 -59 -37.5 -94t-103.5 -35q-65 0 -102 35t-37 94z" />
<glyph unicode="&#x1e37;" horiz-adv-x="610" d="M131 184v1190h217v-1114q0 -51 10 -78h27l115 60l82 -109q-35 -57 -104.5 -101t-135.5 -46q-37 10 -87 43.5t-87 77t-37 77.5zM182 -242q0 66 37 101t103 35q68 0 104.5 -35t36.5 -101q0 -59 -38 -94t-103 -35q-66 0 -103 35t-37 94z" />
<glyph unicode="&#x1e38;" horiz-adv-x="970" d="M-78 1401v196h678v-196h-678zM145 0v1266h226v-1057h559v-209h-785zM418 -242q0 66 37 101t102 35q68 0 104.5 -35t36.5 -101q0 -59 -37.5 -94t-103.5 -35q-65 0 -102 35t-37 94z" />
<glyph unicode="&#x1e39;" horiz-adv-x="636" d="M-78 1419v197h678v-197h-678zM131 184v1190h217v-1114q0 -51 10 -78h27l115 60l82 -109q-35 -57 -104.5 -101t-135.5 -46q-37 10 -87 43.5t-87 77t-37 77.5zM203 -246q0 66 36.5 101.5t102.5 35.5t103.5 -35.5t37.5 -101.5q0 -59 -37.5 -94t-103.5 -35t-102.5 35 t-36.5 94z" />
<glyph unicode="&#x1e3a;" horiz-adv-x="970" d="M145 0v1266h226v-1057h559v-209h-785zM145 -113h682v-184h-682v184z" />
<glyph unicode="&#x1e3b;" horiz-adv-x="731" d="M131 -113h559v-184h-559v184zM131 184v1190h217v-1114q0 -51 10 -78h27l115 60l82 -109q-35 -57 -104.5 -101t-135.5 -46q-37 10 -87 43.5t-87 77t-37 77.5z" />
<glyph unicode="&#x1e42;" horiz-adv-x="1458" d="M131 0l49 1266h285l256 -693h14l258 693h283l49 -1266h-227l-23 637l2 319l-16 5l-246 -615h-174l-246 615l-16 -5l4 -319l-25 -637h-227zM590 -242q0 66 37 101t102 35q68 0 104.5 -35t36.5 -101q0 -59 -37.5 -94t-103.5 -35q-65 0 -102 35t-37 94z" />
<glyph unicode="&#x1e43;" horiz-adv-x="1699" d="M143 0v965h189l16 -142h17q127 156 313 156q109 0 173 -37t91 -125h16q59 74 142.5 118t183.5 44q143 0 211 -61.5t68 -212.5v-705h-220v762q-61 16 -129 16q-154 0 -251 -94v-684h-220v766q-51 16 -122 16q-154 0 -259 -92v-690h-219zM715 -246q0 66 36.5 101.5 t102.5 35.5t103.5 -35.5t37.5 -101.5q0 -59 -37.5 -94t-103.5 -35t-102.5 35t-36.5 94z" />
<glyph unicode="&#x1e44;" horiz-adv-x="1314" d="M145 0v1266h277l526 -979l17 4l-23 325v650h227v-1266h-276l-528 979l-17 -4l23 -328v-647h-226zM532 1526q0 63 37 99t103 36t103.5 -36t37.5 -99q0 -61 -38 -96t-103 -35q-66 0 -103 34.5t-37 96.5z" />
<glyph unicode="&#x1e45;" horiz-adv-x="1114" d="M152 0v965h196l12 -150h17q133 168 332 168q141 0 209.5 -67.5t68.5 -210.5v-705h-219v762q-53 18 -125 18q-178 0 -272 -104v-676h-219zM440 1229q0 66 37 100.5t103 34.5q68 0 104.5 -35t36.5 -100q0 -59 -38 -94t-103 -35q-66 0 -103 34.5t-37 94.5z" />
<glyph unicode="&#x1e46;" horiz-adv-x="1314" d="M145 0v1266h277l526 -979l17 4l-23 325v650h227v-1266h-276l-528 979l-17 -4l23 -328v-647h-226zM539 -246q0 66 36.5 101.5t102.5 35.5t103.5 -35.5t37.5 -101.5q0 -59 -38 -94t-103 -35q-66 0 -102.5 35t-36.5 94z" />
<glyph unicode="&#x1e47;" horiz-adv-x="1114" d="M152 0v965h196l12 -150h17q133 168 332 168q141 0 209.5 -67.5t68.5 -210.5v-705h-219v762q-53 18 -125 18q-178 0 -272 -104v-676h-219zM428 -246q0 66 37 101.5t102 35.5q66 0 104 -35.5t38 -101.5q0 -59 -38 -94t-104 -35q-65 0 -102 35t-37 94z" />
<glyph unicode="&#x1e48;" horiz-adv-x="1314" d="M145 0v1266h277l526 -979l17 4l-23 325v650h227v-1266h-276l-528 979l-17 -4l23 -328v-647h-226zM346 -117h682v-184h-682v184z" />
<glyph unicode="&#x1e49;" horiz-adv-x="1114" d="M152 0v965h196l12 -150h17q133 168 332 168q141 0 209.5 -67.5t68.5 -210.5v-705h-219v762q-53 18 -125 18q-178 0 -272 -104v-676h-219zM227 -117h682v-184h-682v184z" />
<glyph unicode="&#x1e5a;" horiz-adv-x="1226" d="M145 0v1229q190 57 385 57q244 0 369 -92t125 -287q0 -248 -227 -356v-19q51 -20 86 -50.5t63 -82.5l133 -249l95 -19v-127q-57 -18 -150 -18q-72 0 -113 24.5t-65 79.5l-115 244q-27 57 -47 86t-59 47t-105 18h-149v-485h-226zM371 678h319q55 33 83 83t28 128 q0 109 -64.5 152.5t-208.5 43.5q-94 0 -157 -14v-393zM487 -244q0 63 37 99t103 36t103.5 -35.5t37.5 -99.5q0 -61 -38 -96t-103 -35q-66 0 -103 35t-37 96z" />
<glyph unicode="&#x1e5b;" horiz-adv-x="804" d="M123 -246q0 66 37 101.5t102 35.5q66 0 103.5 -35.5t37.5 -101.5q0 -59 -37.5 -94t-103.5 -35q-65 0 -102 35t-37 94zM143 0v963h193l12 -193h21q47 94 130 148.5t175 54.5q16 0 40.5 -16.5t37.5 -32.5l-23 -187h-92q-94 0 -167 -35.5t-108 -111.5v-590h-219z" />
<glyph unicode="&#x1e5c;" horiz-adv-x="1226" d="M145 0v1229q190 57 385 57q244 0 369 -92t125 -287q0 -248 -227 -356v-19q51 -20 86 -50.5t63 -82.5l133 -249l95 -19v-127q-57 -18 -150 -18q-72 0 -113 24.5t-65 79.5l-115 244q-29 59 -52.5 90t-59 46t-99.5 15h-149v-485h-226zM240 1401v196h678v-196h-678zM371 678 h319q55 33 83 83t28 128q0 109 -64.5 152.5t-208.5 43.5q-94 0 -157 -14v-393zM463 -242q0 66 37 101t102 35q68 0 104.5 -35t36.5 -101q0 -59 -37.5 -94t-103.5 -35q-65 0 -102 35t-37 94z" />
<glyph unicode="&#x1e5d;" horiz-adv-x="851" d="M123 -246q0 66 37 101.5t102 35.5q66 0 103.5 -35.5t37.5 -101.5q0 -59 -37.5 -94t-103.5 -35q-65 0 -102 35t-37 94zM137 1106v197h678v-197h-678zM143 0v963h193l12 -193h21q47 94 130 148.5t175 54.5q16 0 40.5 -16.5t37.5 -32.5l-23 -187h-92q-94 0 -167 -35.5 t-108 -111.5v-590h-219z" />
<glyph unicode="&#x1e5e;" horiz-adv-x="1228" d="M145 -117h682v-184h-682v184zM147 0v1229q190 57 385 57q244 0 369 -92t125 -287q0 -248 -227 -356v-19q51 -20 86 -50.5t63 -82.5l133 -249l95 -19v-127q-57 -18 -150 -18q-72 0 -113 24.5t-65 79.5l-115 244q-29 59 -49 88t-60 46t-110 17h-141v-485h-226zM373 678h319 q55 33 83 83t28 128q0 109 -64.5 152.5t-208.5 43.5q-94 0 -157 -14v-393z" />
<glyph unicode="&#x1e5f;" horiz-adv-x="817" d="M143 0v963h193l12 -193h21q47 94 130 148.5t175 54.5q16 0 40.5 -16.5t37.5 -32.5l-23 -187h-92q-94 0 -167 -35.5t-108 -111.5v-590h-219zM143 -117h621v-184h-621v184z" />
<glyph unicode="&#x1e60;" horiz-adv-x="1112" d="M94 90l76 191q172 -92 389 -93q121 0 207 19q20 53 20 127q0 78 -49 118t-178 70q-137 33 -227 75t-143.5 116.5t-53.5 195.5q0 166 110.5 271.5t340.5 105.5q129 0 218 -23.5t165 -66.5v-74q0 -47 -10.5 -110.5t-24.5 -102.5h-174l-23 166q-82 12 -162 12 q-113 0 -164 -38.5t-51 -126.5q0 -76 54.5 -115t201.5 -72q207 -45 301.5 -126t94.5 -247q0 -172 -110.5 -275t-356.5 -103q-254 0 -451 106zM428 1526q0 63 37 99t102 36q66 0 104 -36t38 -99q0 -61 -38 -96t-104 -35q-65 0 -102 34.5t-37 96.5z" />
<glyph unicode="&#x1e61;" horiz-adv-x="921" d="M82 63l63 173q68 -33 146 -51.5t153 -18.5q96 0 160 12q16 33 17 82q0 39 -13.5 60.5t-50.5 37t-115 31.5q-121 27 -195.5 59.5t-116.5 90t-42 151.5q0 127 96.5 210t288.5 83q186 0 318 -68v-65q0 -37 -7.5 -87t-19.5 -79h-168l-16 119q-66 8 -119 8q-86 0 -122 -24.5 t-36 -81.5q0 -55 44 -86t159 -54q119 -25 186.5 -54.5t104.5 -85.5t37 -151q0 -131 -96.5 -210.5t-297.5 -79.5q-211 -1 -358 79zM317 1229q0 66 37 100.5t103 34.5q68 0 104.5 -35t36.5 -100q0 -59 -38 -94t-103 -35q-66 0 -103 34.5t-37 94.5z" />
<glyph unicode="&#x1e62;" horiz-adv-x="1112" d="M94 90l76 191q172 -92 389 -93q121 0 207 19q20 53 20 127q0 78 -49 118t-178 70q-137 33 -227 75t-143.5 116.5t-53.5 195.5q0 166 110.5 271.5t340.5 105.5q129 0 218 -23.5t165 -66.5v-74q0 -47 -10.5 -110.5t-24.5 -102.5h-174l-23 166q-82 12 -162 12 q-113 0 -164 -38.5t-51 -126.5q0 -76 54.5 -115t201.5 -72q207 -45 301.5 -126t94.5 -247q0 -172 -110.5 -275t-356.5 -103q-254 0 -451 106zM449 -246q0 63 36.5 99t102.5 36t103.5 -35.5t37.5 -99.5q0 -61 -38 -96t-103 -35q-66 0 -102.5 35t-36.5 96z" />
<glyph unicode="&#x1e63;" horiz-adv-x="921" d="M82 63l63 173q68 -33 146 -51.5t153 -18.5q96 0 160 12q16 33 17 82q0 39 -13.5 60.5t-50.5 37t-115 31.5q-121 27 -195.5 59.5t-116.5 90t-42 151.5q0 127 96.5 210t288.5 83q186 0 318 -68v-65q0 -37 -7.5 -87t-19.5 -79h-168l-16 119q-66 8 -119 8q-86 0 -122 -24.5 t-36 -81.5q0 -55 44 -86t159 -54q119 -25 186.5 -54.5t104.5 -85.5t37 -151q0 -131 -96.5 -210.5t-297.5 -79.5q-211 -1 -358 79zM346 -242q0 63 37 99.5t102 36.5q66 0 104 -36t38 -100q0 -61 -38 -96t-104 -35q-65 0 -102 35t-37 96z" />
<glyph unicode="&#x1e6c;" horiz-adv-x="1167" d="M66 1057v209h1036v-209h-406v-1057h-225v1057h-405zM444 -246q0 66 37 101.5t103 35.5t103.5 -35.5t37.5 -101.5q0 -59 -38 -94t-103 -35q-66 0 -103 35t-37 94z" />
<glyph unicode="&#x1e6d;" horiz-adv-x="825" d="M33 762l26 180h152v279h215v-279h322l-27 -180h-295v-473q0 -43 16 -88q49 -16 97 -17q41 0 92 12.5t94 32.5l45 -188q-45 -25 -103.5 -42t-119.5 -17q-94 -1 -174 22q-68 41 -115 95.5t-47 117.5v545h-178zM340 -246q0 66 37 101.5t102 35.5q66 0 104 -35.5t38 -101.5 q0 -59 -38 -94t-104 -35q-65 0 -102 35t-37 94z" />
<glyph unicode="&#x1e6e;" horiz-adv-x="1167" d="M66 1057v209h1036v-209h-406v-1057h-225v1057h-405zM242 -117h682v-184h-682v184z" />
<glyph unicode="&#x1e6f;" horiz-adv-x="854" d="M33 762l26 180h152v279h215v-279h322l-27 -180h-295v-473q0 -43 16 -88q49 -16 97 -17q41 0 92 12.5t94 32.5l45 -188q-45 -25 -103.5 -42t-119.5 -17q-94 -1 -174 22q-68 41 -115 95.5t-47 117.5v545h-178zM162 -117h682v-184h-682v184z" />
<glyph unicode="&#x1e80;" horiz-adv-x="1740" d="M66 1247l237 23q51 -301 100.5 -533.5t108.5 -480.5h16q72 203 254 764q-8 35 -10 47q-20 84 -37 170l226 20q59 -283 114 -490.5t144 -510.5h22q119 506 203 1014l229 -25q-125 -600 -321 -1245h-256q-139 403 -217 676h-27l-16 -51q-143 -438 -213 -625h-236 q-188 622 -321 1247zM559 1745l268 29l172 -304l-178 -28z" />
<glyph unicode="&#x1e81;" horiz-adv-x="1497" d="M68 961l215 14q55 -268 95 -441.5t87 -328.5h12q115 283 193 540q-18 68 -47 203l200 15q51 -246 94.5 -416t100.5 -346h12q98 276 215 774l211 -19q-78 -289 -149.5 -515t-155.5 -441h-246q-88 225 -153 453h-11q-49 -137 -127 -340l-43 -113h-225q-161 435 -278 961z M453 1397l268 28l172 -305l-178 -28z" />
<glyph unicode="&#x1e82;" horiz-adv-x="1740" d="M66 1247l237 23q51 -301 100.5 -533.5t108.5 -480.5h16q72 203 254 764q-8 35 -10 47q-20 84 -37 170l226 20q59 -283 114 -490.5t144 -510.5h22q119 506 203 1014l229 -25q-125 -600 -321 -1245h-256q-139 403 -217 676h-27l-16 -51q-143 -438 -213 -625h-236 q-188 622 -321 1247zM743 1417l170 312l256 -25l-264 -315z" />
<glyph unicode="&#x1e83;" horiz-adv-x="1497" d="M68 961l215 14q55 -268 95 -441.5t87 -328.5h12q115 283 193 540q-18 68 -47 203l200 15q51 -246 94.5 -416t100.5 -346h12q98 276 215 774l211 -19q-78 -289 -149.5 -515t-155.5 -441h-246q-88 225 -153 453h-11q-49 -137 -127 -340l-43 -113h-225q-161 435 -278 961z M657 1120l170 314l256 -27l-264 -313z" />
<glyph unicode="&#x1e84;" horiz-adv-x="1740" d="M66 1247l237 23q51 -301 100.5 -533.5t108.5 -480.5h16q72 203 254 764q-8 35 -10 47q-20 84 -37 170l226 20q59 -283 114 -490.5t144 -510.5h22q119 506 203 1014l229 -25q-125 -600 -321 -1245h-256q-139 403 -217 676h-27l-16 -51q-143 -438 -213 -625h-236 q-188 622 -321 1247zM584 1503q0 53 30.5 82t83.5 29q55 0 86 -29t31 -82q0 -51 -30.5 -79.5t-86.5 -28.5q-53 0 -83.5 28.5t-30.5 79.5zM922 1503q0 53 30.5 82t85.5 29t85 -29t30 -82q0 -51 -29.5 -79.5t-85.5 -28.5q-55 0 -85.5 28.5t-30.5 79.5z" />
<glyph unicode="&#x1e85;" horiz-adv-x="1497" d="M68 961l215 14q55 -268 95 -441.5t87 -328.5h12q115 283 193 540q-18 68 -47 203l200 15q51 -246 94.5 -416t100.5 -346h12q98 276 215 774l211 -19q-78 -289 -149.5 -515t-155.5 -441h-246q-88 225 -153 453h-11q-49 -137 -127 -340l-43 -113h-225q-161 435 -278 961z M463 1206q0 53 30.5 83t84.5 30q55 0 85.5 -29.5t30.5 -83.5q0 -51 -30.5 -78.5t-85.5 -27.5q-54 0 -84.5 27.5t-30.5 78.5zM801 1206q0 53 30.5 83t86.5 30q55 0 84.5 -29.5t29.5 -83.5q0 -51 -29.5 -78.5t-84.5 -27.5q-56 0 -86.5 27.5t-30.5 78.5z" />
<glyph unicode="&#x1e8e;" horiz-adv-x="1290" d="M49 1225l223 51q160 -412 344 -686h58q188 287 344 686l223 -51q-98 -242 -199.5 -432.5t-238.5 -380.5h-45v-412h-226v412h-45q-137 190 -238.5 380.5t-199.5 432.5zM508 1526q0 63 37 99t102 36q66 0 103.5 -36t37.5 -99q0 -61 -37.5 -96t-103.5 -35q-65 0 -102 34.5 t-37 96.5z" />
<glyph unicode="&#x1e8f;" horiz-adv-x="1081" d="M68 963l225 14q106 -424 229 -735h66q96 311 194 735l226 -14q-84 -344 -182.5 -655.5t-194.5 -536.5q-33 -76 -128 -125t-181 -49q-124 0 -216 43v63q0 90 21 168h160v-86q29 -6 65 -6q23 0 76 8q49 123 94 256h-127q-117 272 -193.5 483t-133.5 437zM410 1229 q0 66 36.5 100.5t102.5 34.5q68 0 104.5 -35t36.5 -100q0 -59 -38 -94t-103 -35q-66 0 -102.5 34.5t-36.5 94.5z" />
<glyph unicode="&#x1e92;" horiz-adv-x="1183" d="M94 0v219l713 819v25h-469v-139h-188q-35 111 -35 241v101h950v-232l-705 -807v-28h508v143h189q35 -111 35 -242v-100h-998zM463 -246q0 66 37 101.5t102 35.5q66 0 103.5 -35.5t37.5 -101.5q0 -59 -37.5 -94t-103.5 -35q-65 0 -102 35t-37 94z" />
<glyph unicode="&#x1e93;" horiz-adv-x="956" d="M86 0v199l535 569v18h-312l-16 -118h-162q-27 80 -27 186v111h746v-220l-516 -552v-21h338l16 115h160q27 -84 26 -181v-106h-788zM352 -246q0 66 37 101.5t103 35.5t103.5 -35.5t37.5 -101.5q0 -59 -38 -94t-103 -35q-66 0 -103 35t-37 94z" />
<glyph unicode="&#x1e97;" horiz-adv-x="827" d="M33 762l26 180h152v279h215v-279h322l-27 -180h-295v-473q0 -43 16 -88q49 -16 97 -17q41 0 92 12.5t94 32.5l45 -188q-45 -25 -103.5 -42t-119.5 -17q-94 -1 -174 22q-68 41 -115 95.5t-47 117.5v545h-178zM49 1475q0 53 31 82.5t84 29.5q55 0 86 -29.5t31 -82.5 q0 -51 -31 -79t-86 -28q-53 0 -84 27.5t-31 79.5zM387 1475q0 53 31 82.5t86 29.5t84.5 -29.5t29.5 -82.5q0 -51 -29.5 -79t-84.5 -28t-86 27.5t-31 79.5z" />
<glyph unicode="&#x1e9e;" horiz-adv-x="1249" d="M145 0v807q0 221 119 340t340 119q254 0 465 -152v-137l-264 -260v-15q186 -18 280.5 -105t94.5 -239q0 -379 -435 -378q-81 0 -155 13t-158 44l51 184q74 -23 132.5 -31t123.5 -8q68 0 108 5.5t85 19.5q25 63 24 160q0 100 -62.5 144t-201.5 44h-137v172l272 281v16 q-53 20 -99 28.5t-116 8.5q-133 0 -189 -58.5t-56 -195.5v-807h-222z" />
<glyph unicode="&#x1ea0;" horiz-adv-x="1277" d="M63 16q84 315 190.5 651.5t209.5 598.5h352q102 -262 208.5 -598t190.5 -652l-237 -16l-37 145q-41 160 -63 240h-478q-61 -223 -98 -385zM457 584h364q-98 328 -149 473h-64q-70 -195 -151 -473zM498 -246q0 66 36.5 101.5t102.5 35.5t103.5 -35.5t37.5 -101.5 q0 -59 -38 -94t-103 -35q-66 0 -102.5 35t-36.5 94z" />
<glyph unicode="&#x1ea1;" horiz-adv-x="1007" d="M74 242q0 160 121.5 235.5t334.5 75.5q57 0 125 -6v112q0 88 -36.5 120t-131.5 32q-55 0 -120 -8l-21 -133h-174q-27 76 -27 155v52q74 43 176.5 72.5t208.5 29.5q166 0 256.5 -78t90.5 -223v-678h-191l-12 135h-17q-111 -152 -297 -151q-143 0 -214.5 67.5t-71.5 190.5z M303 270q0 -59 28.5 -84.5t84.5 -25.5q76 0 138 30.5t105 90.5v120q-78 14 -170 15q-104 0 -161 -17q-14 -35 -19.5 -63.5t-5.5 -65.5zM367 -246q0 66 36.5 101.5t102.5 35.5t103.5 -35.5t37.5 -101.5q0 -59 -38 -94t-103 -35q-66 0 -102.5 35t-36.5 94z" />
<glyph unicode="&#x1ea2;" horiz-adv-x="1277" d="M63 16q84 315 190.5 651.5t209.5 598.5h352q102 -262 208.5 -598t190.5 -652l-237 -16l-37 145q-41 160 -63 240h-478q-61 -223 -98 -385zM457 584h364q-98 328 -149 473h-64q-70 -195 -151 -473zM475 1798q96 41 207 41q106 0 162.5 -48t56.5 -128q0 -82 -51 -123 t-141 -45v-92h-134l-32 108v86q106 0 145 9.5t39 44.5q0 29 -18.5 39t-65.5 10q-61 0 -123 -23z" />
<glyph unicode="&#x1ea3;" horiz-adv-x="1007" d="M74 242q0 160 121.5 235.5t334.5 75.5q57 0 125 -6v112q0 88 -36.5 120t-131.5 32q-55 0 -120 -8l-21 -133h-174q-27 76 -27 155v52q74 43 176.5 72.5t208.5 29.5q166 0 256.5 -78t90.5 -223v-678h-191l-12 135h-17q-111 -152 -297 -151q-143 0 -214.5 67.5t-71.5 190.5z M303 270q0 -59 28.5 -84.5t84.5 -25.5q76 0 138 30.5t105 90.5v120q-78 14 -170 15q-104 0 -161 -17q-14 -35 -19.5 -63.5t-5.5 -65.5zM346 1501q96 41 207 41q106 0 162.5 -48t56.5 -128q0 -82 -51 -123t-141 -45v-92h-134l-32 108v86q106 0 145 9.5t39 44.5q0 29 -18.5 39 t-65.5 10q-61 0 -123 -23z" />
<glyph unicode="&#x1ea4;" horiz-adv-x="1277" d="M63 16q84 315 190.5 651.5t209.5 598.5h352q102 -262 208.5 -598t190.5 -652l-237 -16l-37 145q-41 160 -63 240h-478q-61 -223 -98 -385zM338 1413l201 277h192l199 -277l-133 -27l-156 144h-12l-162 -144zM457 584h364q-98 328 -149 473h-64q-70 -195 -151 -473z M881 1599l125 230l202 -33l-188 -227z" />
<glyph unicode="&#x1ea5;" horiz-adv-x="1007" d="M74 242q0 160 121.5 235.5t334.5 75.5q57 0 125 -6v112q0 88 -36.5 120t-131.5 32q-55 0 -120 -8l-21 -133h-174q-27 76 -27 155v52q74 43 176.5 72.5t208.5 29.5q166 0 256.5 -78t90.5 -223v-678h-191l-12 135h-17q-111 -152 -297 -151q-143 0 -214.5 67.5t-71.5 190.5z M219 1116l201 279h192l199 -279l-133 -24l-156 141h-12l-162 -141zM303 270q0 -59 28.5 -84.5t84.5 -25.5q76 0 138 30.5t105 90.5v120q-78 14 -170 15q-104 0 -161 -17q-14 -35 -19.5 -63.5t-5.5 -65.5zM762 1303l125 229l203 -31l-189 -229z" />
<glyph unicode="&#x1ea6;" horiz-adv-x="1277" d="M63 16q84 315 190.5 651.5t209.5 598.5h352q102 -262 208.5 -598t190.5 -652l-237 -16l-37 145q-41 160 -63 240h-478q-61 -223 -98 -385zM63 1796l203 33l125 -230l-139 -30zM340 1413l199 277h192l201 -277l-129 -27l-162 144h-12l-156 -144zM457 584h364 q-98 328 -149 473h-64q-70 -195 -151 -473z" />
<glyph unicode="&#x1ea7;" horiz-adv-x="1007" d="M-39 1501l205 31l123 -229l-137 -31zM74 242q0 160 121.5 235.5t334.5 75.5q57 0 125 -6v112q0 88 -36.5 120t-131.5 32q-55 0 -120 -8l-21 -133h-174q-27 76 -27 155v52q74 43 176.5 72.5t208.5 29.5q166 0 256.5 -78t90.5 -223v-678h-191l-12 135h-17 q-111 -152 -297 -151q-143 0 -214.5 67.5t-71.5 190.5zM221 1116l201 281h192l199 -281l-131 -26l-158 143h-12l-162 -143zM303 270q0 -59 28.5 -84.5t84.5 -25.5q76 0 138 30.5t105 90.5v120q-78 14 -170 15q-104 0 -161 -17q-14 -35 -19.5 -63.5t-5.5 -65.5z" />
<glyph unicode="&#x1ea8;" horiz-adv-x="1277" d="M63 16q84 315 190.5 651.5t209.5 598.5h352q102 -262 208.5 -598t190.5 -652l-237 -16l-37 145q-41 160 -63 240h-478q-61 -223 -98 -385zM344 1413l201 277h192l199 -277l-131 -27l-158 144h-12l-160 -144zM457 584h364q-98 328 -149 473h-64q-70 -195 -151 -473z M829 1901q74 29 144 28q154 0 153 -129q0 -55 -30.5 -87t-91.5 -34v-73h-109l-21 77v74q68 0 91.5 6t23.5 27q0 29 -49 29q-39 0 -82 -17z" />
<glyph unicode="&#x1ea9;" horiz-adv-x="1007" d="M74 242q0 160 121.5 235.5t334.5 75.5q57 0 125 -6v112q0 88 -36.5 120t-131.5 32q-55 0 -120 -8l-21 -133h-174q-27 76 -27 155v52q74 43 176.5 72.5t208.5 29.5q166 0 256.5 -78t90.5 -223v-678h-191l-12 135h-17q-111 -152 -297 -151q-143 0 -214.5 67.5t-71.5 190.5z M225 1116l201 277h192l199 -277l-131 -26l-158 143h-12l-160 -143zM303 270q0 -59 28.5 -84.5t84.5 -25.5q76 0 138 30.5t105 90.5v120q-78 14 -170 15q-104 0 -161 -17q-14 -35 -19.5 -63.5t-5.5 -65.5zM711 1604q74 29 143 28q154 0 154 -129q0 -55 -31 -87t-92 -34v-73 h-109l-20 77v74q68 0 91 6.5t23 26.5q0 29 -49 29q-39 0 -82 -17z" />
<glyph unicode="&#x1eaa;" horiz-adv-x="1277" d="M63 16q84 315 190.5 651.5t209.5 598.5h352q102 -262 208.5 -598t190.5 -652l-237 -16l-37 145q-41 160 -63 240h-478q-61 -223 -98 -385zM342 1411l201 279h192l199 -279l-131 -25l-158 142h-12l-160 -142zM383 1802q6 178 149 178q29 0 52.5 -9t64.5 -27q47 -29 76 -29 q33 0 46 19.5t17 56.5l109 -35q-6 -176 -147 -176q-29 0 -54.5 9t-56.5 28q-20 10 -43 19t-41 9q-55 0 -63 -73zM457 584h364q-98 328 -149 473h-64q-70 -195 -151 -473z" />
<glyph unicode="&#x1eab;" horiz-adv-x="1007" d="M74 242q0 160 121.5 235.5t334.5 75.5q57 0 125 -6v112q0 88 -36.5 120t-131.5 32q-55 0 -120 -8l-21 -133h-174q-27 76 -27 155v52q74 43 176.5 72.5t208.5 29.5q166 0 256.5 -78t90.5 -223v-678h-191l-12 135h-17q-111 -152 -297 -151q-143 0 -214.5 67.5t-71.5 190.5z M223 1116l201 277h192l199 -277l-131 -26l-158 143h-12l-160 -143zM266 1507q4 88 40 132t110 44q47 0 116 -36q49 -27 76 -27q31 0 45.5 19.5t18.5 54.5l108 -33q-6 -176 -147 -176q-29 0 -52.5 8t-58.5 27q-20 10 -42.5 19t-41.5 9q-31 0 -45 -19.5t-18 -53.5zM303 270 q0 -59 28.5 -84.5t84.5 -25.5q76 0 138 30.5t105 90.5v120q-78 14 -170 15q-104 0 -161 -17q-14 -35 -19.5 -63.5t-5.5 -65.5z" />
<glyph unicode="&#x1eac;" horiz-adv-x="1277" d="M63 16q84 315 190.5 651.5t209.5 598.5h352q102 -262 208.5 -598t190.5 -652l-237 -16l-37 145q-41 160 -63 240h-478q-61 -223 -98 -385zM342 1411l201 281h192l199 -281l-131 -25l-158 142h-12l-162 -142zM457 584h364q-98 328 -149 473h-64q-70 -195 -151 -473z M498 -242q0 66 36.5 101t102.5 35q68 0 104.5 -35t36.5 -101q0 -59 -38 -94t-103 -35q-66 0 -102.5 35t-36.5 94z" />
<glyph unicode="&#x1ead;" horiz-adv-x="1007" d="M74 242q0 160 121.5 235.5t334.5 75.5q57 0 125 -6v112q0 88 -36.5 120t-131.5 32q-55 0 -120 -8l-21 -133h-174q-27 76 -27 155v52q74 43 176.5 72.5t208.5 29.5q166 0 256.5 -78t90.5 -223v-678h-191l-12 135h-17q-111 -152 -297 -151q-143 0 -214.5 67.5t-71.5 190.5z M221 1116l201 281h192l199 -281l-131 -26l-158 143h-12l-162 -143zM303 270q0 -59 28.5 -84.5t84.5 -25.5q76 0 138 30.5t105 90.5v120q-78 14 -170 15q-104 0 -161 -17q-14 -35 -19.5 -63.5t-5.5 -65.5zM377 -246q0 66 37 101.5t102 35.5q66 0 103.5 -35.5t37.5 -101.5 q0 -59 -37.5 -94t-103.5 -35q-65 0 -102 35t-37 94z" />
<glyph unicode="&#x1eae;" horiz-adv-x="1277" d="M63 16q84 315 190.5 651.5t209.5 598.5h352q102 -262 208.5 -598t190.5 -652l-237 -16l-37 145q-41 160 -63 240h-478q-61 -223 -98 -385zM352 1620l178 29q4 -55 26 -81t81 -26t80.5 25.5t25.5 81.5l179 -29q-27 -231 -285 -231q-131 0 -203 59t-82 172zM457 584h364 q-98 328 -149 473h-64q-70 -195 -151 -473zM563 1731l125 227l197 -33l-191 -225z" />
<glyph unicode="&#x1eaf;" horiz-adv-x="1007" d="M74 242q0 160 121.5 235.5t334.5 75.5q57 0 125 -6v112q0 88 -36.5 120t-131.5 32q-55 0 -120 -8l-21 -133h-174q-27 76 -27 155v52q74 43 176.5 72.5t208.5 29.5q166 0 256.5 -78t90.5 -223v-678h-191l-12 135h-17q-111 -152 -297 -151q-143 0 -214.5 67.5t-71.5 190.5z M248 1325l178 27q4 -55 25.5 -81t80.5 -26t81 25.5t26 81.5l178 -27q-25 -231 -285 -231q-261 0 -284 231zM303 270q0 -59 28.5 -84.5t84.5 -25.5q76 0 138 30.5t105 90.5v120q-78 14 -170 15q-104 0 -161 -17q-14 -35 -19.5 -63.5t-5.5 -65.5zM459 1436l125 227l196 -33 l-190 -225z" />
<glyph unicode="&#x1eb0;" horiz-adv-x="1277" d="M63 16q84 315 190.5 651.5t209.5 598.5h352q102 -262 208.5 -598t190.5 -652l-237 -16l-37 145q-41 160 -63 240h-478q-61 -223 -98 -385zM352 1620l178 29q4 -55 26 -81t81 -26t80.5 25.5t25.5 81.5l179 -29q-23 -231 -285 -231q-258 0 -285 231zM395 1925l197 33 l125 -227l-133 -31zM457 584h364q-98 328 -149 473h-64q-70 -195 -151 -473z" />
<glyph unicode="&#x1eb1;" horiz-adv-x="1007" d="M74 242q0 160 121.5 235.5t334.5 75.5q57 0 125 -6v112q0 88 -36.5 120t-131.5 32q-55 0 -120 -8l-21 -133h-174q-27 76 -27 155v52q74 43 176.5 72.5t208.5 29.5q166 0 256.5 -78t90.5 -223v-678h-191l-12 135h-17q-111 -152 -297 -151q-143 0 -214.5 67.5t-71.5 190.5z M240 1325l178 27q4 -55 25.5 -81t80.5 -26t81 25.5t26 81.5l178 -27q-23 -231 -285 -231q-259 0 -284 231zM283 1630l196 33l125 -227l-133 -31zM303 270q0 -59 28.5 -84.5t84.5 -25.5q76 0 138 30.5t105 90.5v120q-78 14 -170 15q-104 0 -161 -17q-14 -35 -19.5 -63.5 t-5.5 -65.5z" />
<glyph unicode="&#x1eb2;" horiz-adv-x="1277" d="M63 16q84 315 190.5 651.5t209.5 598.5h352q102 -262 208.5 -598t190.5 -652l-237 -16l-37 145q-41 160 -63 240h-478q-61 -223 -98 -385zM352 1620l178 29q4 -55 26 -81t81 -26t80.5 25.5t25.5 81.5l179 -29q-23 -231 -285 -231q-258 0 -285 231zM457 584h364 q-98 328 -149 473h-64q-70 -195 -151 -473zM518 1968q66 29 144 29q152 0 151 -125q0 -115 -121 -121v-70h-108l-21 74v72q66 0 90.5 7t24.5 26q0 31 -49 30q-39 0 -82 -16z" />
<glyph unicode="&#x1eb3;" horiz-adv-x="1007" d="M74 242q0 160 121.5 235.5t334.5 75.5q57 0 125 -6v112q0 88 -36.5 120t-131.5 32q-55 0 -120 -8l-21 -133h-174q-27 76 -27 155v52q74 43 176.5 72.5t208.5 29.5q166 0 256.5 -78t90.5 -223v-678h-191l-12 135h-17q-111 -152 -297 -151q-143 0 -214.5 67.5t-71.5 190.5z M231 1325l179 27q4 -55 25.5 -81t80.5 -26t80.5 25.5t26.5 81.5l178 -27q-23 -231 -285 -231q-260 0 -285 231zM303 270q0 -59 28.5 -84.5t84.5 -25.5q76 0 138 30.5t105 90.5v120q-78 14 -170 15q-104 0 -161 -17q-14 -35 -19.5 -63.5t-5.5 -65.5zM397 1673q74 29 144 29 q152 0 151 -127q0 -115 -121 -121v-68h-108l-21 74v72q68 0 91.5 6t23.5 27q0 29 -49 28q-47 0 -82 -16z" />
<glyph unicode="&#x1eb4;" horiz-adv-x="1277" d="M63 16q84 315 190.5 651.5t209.5 598.5h352q102 -262 208.5 -598t190.5 -652l-237 -16l-37 145q-41 160 -63 240h-478q-61 -223 -98 -385zM352 1620l178 29q4 -55 26 -81t81 -26t80.5 25.5t25.5 81.5l179 -29q-23 -231 -285 -231q-258 0 -285 231zM383 1761 q6 178 149 178q29 0 52.5 -9t64.5 -27q47 -29 76 -29q33 0 46 19.5t17 56.5l109 -35q-6 -176 -147 -176q-29 0 -54.5 9t-56.5 28q-20 10 -43 19t-41 9q-55 0 -63 -73zM457 584h364q-98 328 -149 473h-64q-70 -195 -151 -473z" />
<glyph unicode="&#x1eb5;" horiz-adv-x="1007" d="M74 242q0 160 121.5 235.5t334.5 75.5q57 0 125 -6v112q0 88 -36.5 120t-131.5 32q-55 0 -120 -8l-21 -133h-174q-27 76 -27 155v52q74 43 176.5 72.5t208.5 29.5q166 0 256.5 -78t90.5 -223v-678h-191l-12 135h-17q-111 -152 -297 -151q-143 0 -214.5 67.5t-71.5 190.5z M236 1325l178 27q4 -55 25.5 -81t80.5 -26t81 25.5t26 81.5l178 -27q-23 -231 -285 -231q-259 0 -284 231zM266 1466q4 88 40 132t110 44q47 0 116 -36q49 -27 76 -27q31 0 45.5 19.5t18.5 54.5l108 -33q-6 -176 -147 -176q-29 0 -52.5 8t-58.5 27q-20 10 -42.5 19t-41.5 9 q-31 0 -45 -19.5t-18 -53.5zM303 270q0 -59 28.5 -84.5t84.5 -25.5q76 0 138 30.5t105 90.5v120q-78 14 -170 15q-104 0 -161 -17q-14 -35 -19.5 -63.5t-5.5 -65.5z" />
<glyph unicode="&#x1eb6;" horiz-adv-x="1277" d="M63 16q84 315 190.5 651.5t209.5 598.5h352q102 -262 208.5 -598t190.5 -652l-237 -16l-37 145q-41 160 -63 240h-478q-61 -223 -98 -385zM338 1642l197 31q4 -57 25.5 -84.5t76.5 -27.5t76.5 27.5t25.5 84.5l197 -31q-12 -125 -85 -189t-214 -64t-214 64.5t-85 188.5z M457 584h364q-98 328 -149 473h-64q-70 -195 -151 -473zM500 -242q0 66 36.5 101t102.5 35q68 0 104.5 -35t36.5 -101q0 -59 -37.5 -94t-103.5 -35t-102.5 35t-36.5 94z" />
<glyph unicode="&#x1eb7;" horiz-adv-x="1007" d="M74 242q0 160 121.5 235.5t334.5 75.5q57 0 125 -6v112q0 88 -36.5 120t-131.5 32q-55 0 -120 -8l-21 -133h-174q-27 76 -27 155v52q74 43 176.5 72.5t208.5 29.5q166 0 256.5 -78t90.5 -223v-678h-191l-12 135h-17q-111 -152 -297 -151q-143 0 -214.5 67.5t-71.5 190.5z M244 1348l196 28q4 -57 25.5 -83.5t77.5 -26.5q55 0 76.5 26.5t25.5 83.5l197 -28q-12 -125 -85 -189.5t-214 -64.5q-142 0 -214.5 64.5t-84.5 189.5zM303 270q0 -59 28.5 -84.5t84.5 -25.5q76 0 138 30.5t105 90.5v120q-78 14 -170 15q-104 0 -161 -17q-14 -35 -19.5 -63.5 t-5.5 -65.5zM385 -246q0 66 37 101.5t102 35.5q66 0 104 -35.5t38 -101.5q0 -59 -38 -94t-104 -35q-65 0 -102 35t-37 94z" />
<glyph unicode="&#x1eb8;" horiz-adv-x="1136" d="M145 213v1053h863v-207h-639v-332h561v-197h-561v-323q123 -20 258 -21q203 0 358 39l39 -198q-154 -45 -403 -45q-228 0 -352 51t-124 180zM467 -246q0 63 37 99t102 36q66 0 104 -35.5t38 -99.5q0 -61 -38 -96t-104 -35q-65 0 -102 35t-37 96z" />
<glyph unicode="&#x1eb9;" horiz-adv-x="1030" d="M94 473q0 242 119 376t338 134q190 0 288.5 -106.5t98.5 -290.5q0 -37 -2 -56l-133 -131l-496 7q4 -236 256 -236q96 0 167 22.5t142 67.5l62 -168q-80 -51 -168 -78.5t-213 -27.5q-234 0 -346.5 126t-112.5 361zM305 553l420 8q10 33 10 76q0 74 -50 117t-142 43 q-129 0 -181.5 -58.5t-56.5 -185.5zM403 -246q0 63 37 99t103 36t103.5 -35.5t37.5 -99.5q0 -61 -38 -96t-103 -35q-66 0 -103 35t-37 96z" />
<glyph unicode="&#x1eba;" horiz-adv-x="1136" d="M145 213v1053h863v-207h-639v-332h561v-197h-561v-323q123 -20 258 -21q203 0 358 39l39 -198q-154 -45 -403 -45q-228 0 -352 51t-124 180zM418 1796q100 43 207 43q106 0 162.5 -48t56.5 -130q0 -158 -193 -168v-92h-133l-33 108v88q106 0 145.5 8.5t39.5 43.5 q0 29 -18.5 39t-65.5 10q-57 0 -123 -21z" />
<glyph unicode="&#x1ebb;" horiz-adv-x="1030" d="M94 473q0 242 119 376t338 134q190 0 288.5 -106.5t98.5 -290.5q0 -37 -2 -56l-133 -131l-496 7q4 -236 256 -236q96 0 167 22.5t142 67.5l62 -168q-80 -51 -168 -78.5t-213 -27.5q-234 0 -346.5 126t-112.5 361zM305 553l420 8q10 33 10 76q0 74 -50 117t-142 43 q-129 0 -181.5 -58.5t-56.5 -185.5zM360 1501q96 41 207 41q106 0 162.5 -48t56.5 -128q0 -82 -51 -123t-141 -45v-92h-133l-33 108v86q106 0 145 9.5t39 44.5q0 29 -18.5 39t-65.5 10q-61 0 -122 -23z" />
<glyph unicode="&#x1ebc;" horiz-adv-x="1136" d="M145 213v1053h863v-207h-639v-332h561v-197h-561v-323q123 -20 258 -21q203 0 358 39l39 -198q-154 -45 -403 -45q-228 0 -352 51t-124 180zM266 1419q4 115 48 172.5t139 57.5q33 0 62.5 -12.5t74.5 -37.5q23 -14 46 -24t42 -10q39 0 54.5 24.5t21.5 71.5l141 -43 q-4 -115 -47 -172t-135 -57q-35 0 -65 12t-68 35q-33 18 -54.5 27.5t-44.5 9.5q-37 0 -53 -26t-20 -71z" />
<glyph unicode="&#x1ebd;" horiz-adv-x="1030" d="M94 473q0 242 119 376t338 134q190 0 288.5 -106.5t98.5 -290.5q0 -37 -2 -56l-133 -131l-496 7q4 -236 256 -236q96 0 167 22.5t142 67.5l62 -168q-80 -51 -168 -78.5t-213 -27.5q-234 0 -346.5 126t-112.5 361zM213 1124q4 115 48 172.5t138 57.5q33 0 63 -12.5 t75 -36.5q23 -14 46 -24.5t42 -10.5q39 0 54 24.5t21 69.5l142 -41q-4 -115 -47 -172t-136 -57q-35 0 -64.5 12t-68.5 35q-33 18 -54 27.5t-44 9.5q-37 0 -53.5 -26t-20.5 -71zM305 553l420 8q10 33 10 76q0 74 -50 117t-142 43q-129 0 -181.5 -58.5t-56.5 -185.5z" />
<glyph unicode="&#x1ebe;" horiz-adv-x="1134" d="M145 213v1053h863v-207h-639v-332h561v-197h-561v-323q123 -20 258 -21q203 0 358 39l39 -198q-154 -45 -403 -45q-228 0 -352 51t-124 180zM281 1413l200 277h193l198 -277l-133 -27l-155 144h-13l-161 -144zM823 1599l125 230l203 -33l-188 -227z" />
<glyph unicode="&#x1ebf;" horiz-adv-x="1030" d="M94 473q0 242 119 376t338 134q190 0 288.5 -106.5t98.5 -290.5q0 -37 -2 -56l-133 -131l-496 7q4 -236 256 -236q96 0 167 22.5t142 67.5l62 -168q-80 -51 -168 -78.5t-213 -27.5q-234 0 -346.5 126t-112.5 361zM244 1116l200 279h193l199 -279l-134 -24l-155 141h-12 l-162 -141zM305 553l420 8q10 33 10 76q0 74 -50 117t-142 43q-129 0 -181.5 -58.5t-56.5 -185.5zM786 1303l125 229l203 -31l-188 -229z" />
<glyph unicode="&#x1ec0;" horiz-adv-x="1136" d="M20 1796l203 33l125 -230l-139 -30zM145 213v1053h863v-207h-639v-332h561v-197h-561v-323q123 -20 258 -21q203 0 358 39l39 -198q-154 -45 -403 -45q-228 0 -352 51t-124 180zM299 1413l199 277h192l201 -277l-129 -27l-162 144h-12l-156 -144z" />
<glyph unicode="&#x1ec1;" horiz-adv-x="1030" d="M-18 1499l202 33l125 -229l-139 -31zM94 473q0 242 119 376t338 134q190 0 288.5 -106.5t98.5 -290.5q0 -37 -2 -56l-133 -131l-496 7q4 -236 256 -236q96 0 167 22.5t142 67.5l62 -168q-80 -51 -168 -78.5t-213 -27.5q-234 0 -346.5 126t-112.5 361zM246 1116l198 277 h193l201 -277l-129 -26l-162 143h-12l-156 -143zM305 553l420 8q10 33 10 76q0 74 -50 117t-142 43q-129 0 -181.5 -58.5t-56.5 -185.5z" />
<glyph unicode="&#x1ec2;" horiz-adv-x="1138" d="M145 213v1053h863v-207h-639v-332h561v-197h-561v-323q123 -20 258 -21q203 0 358 39l39 -198q-154 -45 -403 -45q-228 0 -352 51t-124 180zM285 1411l200 277h193l199 -277l-132 -27l-157 144h-13l-159 -144zM772 1898q74 29 143 29q154 0 154 -129q0 -55 -30.5 -87 t-92.5 -34v-73h-108l-21 77v74q68 0 91.5 6t23.5 27q0 29 -49 29q-39 0 -82 -17z" />
<glyph unicode="&#x1ec3;" horiz-adv-x="1030" d="M94 473q0 242 119 376t338 134q190 0 288.5 -106.5t98.5 -290.5q0 -37 -2 -56l-133 -131l-496 7q4 -236 256 -236q96 0 167 22.5t142 67.5l62 -168q-80 -51 -168 -78.5t-213 -27.5q-234 0 -346.5 126t-112.5 361zM244 1116l200 277h193l199 -277l-131 -26l-158 143h-12 l-160 -143zM305 553l420 8q10 33 10 76q0 74 -50 117t-142 43q-129 0 -181.5 -58.5t-56.5 -185.5zM731 1604q74 29 143 28q154 0 154 -129q0 -55 -30.5 -87t-92.5 -34v-73h-108l-21 77v74q68 0 91.5 6.5t23.5 26.5q0 29 -49 29q-39 0 -82 -17z" />
<glyph unicode="&#x1ec4;" horiz-adv-x="1136" d="M145 213v1053h863v-207h-639v-332h561v-197h-561v-323q123 -20 258 -21q203 0 358 39l39 -198q-154 -45 -403 -45q-228 0 -352 51t-124 180zM281 1411l200 279h193l198 -279l-131 -25l-157 142h-13l-159 -142zM324 1802q6 178 149 178q29 0 52.5 -9t64.5 -27 q47 -29 76 -29q33 0 46 19.5t17 56.5l109 -35q-6 -176 -148 -176q-29 0 -54.5 9t-55.5 28q-20 10 -43 19t-41 9q-55 0 -64 -73z" />
<glyph unicode="&#x1ec5;" horiz-adv-x="1030" d="M94 473q0 242 119 376t338 134q190 0 288.5 -106.5t98.5 -290.5q0 -37 -2 -56l-133 -131l-496 7q4 -236 256 -236q96 0 167 22.5t142 67.5l62 -168q-80 -51 -168 -78.5t-213 -27.5q-234 0 -346.5 126t-112.5 361zM244 1114l200 279h193l199 -279l-131 -24l-158 141h-12 l-160 -141zM285 1507q6 176 149 176q29 0 52.5 -9t64.5 -27q47 -29 76 -29q55 0 63 76l109 -35q-6 -176 -148 -176q-29 0 -54.5 9t-55.5 28q-20 10 -43 19t-41 9q-31 0 -45.5 -19.5t-18.5 -53.5zM305 553l420 8q10 33 10 76q0 74 -50 117t-142 43q-129 0 -181.5 -58.5 t-56.5 -185.5z" />
<glyph unicode="&#x1ec6;" horiz-adv-x="1136" d="M145 213v1053h863v-207h-639v-332h561v-197h-561v-323q123 -20 258 -21q203 0 358 39l39 -198q-154 -45 -403 -45q-228 0 -352 51t-124 180zM305 1413l201 281h192l199 -281l-131 -27l-158 144h-12l-162 -144zM465 -246q0 66 37 101.5t102 35.5q66 0 103.5 -35.5 t37.5 -101.5q0 -59 -37.5 -94t-103.5 -35q-65 0 -102 35t-37 94z" />
<glyph unicode="&#x1ec7;" horiz-adv-x="1030" d="M94 473q0 242 119 376t338 134q190 0 288.5 -106.5t98.5 -290.5q0 -37 -2 -56l-133 -131l-496 7q4 -236 256 -236q96 0 167 22.5t142 67.5l62 -168q-80 -51 -168 -78.5t-213 -27.5q-234 0 -346.5 126t-112.5 361zM244 1118l200 281h193l199 -281l-131 -24l-158 141h-12 l-162 -141zM305 553l420 8q10 33 10 76q0 74 -50 117t-142 43q-129 0 -181.5 -58.5t-56.5 -185.5zM399 -246q0 66 37 101.5t103 35.5t103.5 -35.5t37.5 -101.5q0 -59 -38 -94t-103 -35q-66 0 -103 35t-37 94z" />
<glyph unicode="&#x1ec8;" horiz-adv-x="593" d="M129 1788q96 41 207 41q106 0 162.5 -48t56.5 -128q0 -82 -51 -123t-142 -45v-92h-133l-32 108v86q104 0 144 9.5t40 43.5q0 29 -18.5 39.5t-65.5 10.5q-61 0 -123 -23zM184 0v1266h226v-1266h-226z" />
<glyph unicode="&#x1ec9;" horiz-adv-x="499" d="M86 1501q96 41 207 41q106 0 162.5 -48t56.5 -128q0 -82 -51 -123t-142 -45v-92h-133l-32 108v86q106 0 145 9.5t39 44.5q0 29 -18.5 39t-65.5 10q-61 0 -123 -23zM141 0v963h217v-963h-217z" />
<glyph unicode="&#x1eca;" horiz-adv-x="573" d="M147 -246q0 66 37 101.5t103 35.5t103.5 -35.5t37.5 -101.5q0 -59 -38 -94t-103 -35q-66 0 -103 35t-37 94zM174 0v1266h225v-1266h-225z" />
<glyph unicode="&#x1ecb;" horiz-adv-x="509" d="M115 -246q0 66 36.5 101.5t102.5 35.5t103.5 -35.5t37.5 -101.5q0 -59 -38 -94t-103 -35q-66 0 -102.5 35t-36.5 94zM141 1110v233h228v-233h-228zM145 0v958h217v-958h-217z" />
<glyph unicode="&#x1ecc;" horiz-adv-x="1306" d="M98 610q0 342 139.5 509t436.5 167q535 0 534 -629q0 -340 -140 -506.5t-437 -166.5q-264 0 -398.5 158.5t-134.5 467.5zM322 645q0 -160 31.5 -259t106.5 -147.5t206 -48.5q145 0 235 37q82 186 82 396q0 160 -30.5 258t-105.5 147t-208 49q-152 0 -242 -37 q-76 -172 -75 -395zM516 -246q0 66 37 101.5t102 35.5q66 0 104 -35.5t38 -101.5q0 -59 -38 -94t-104 -35q-65 0 -102 35t-37 94z" />
<glyph unicode="&#x1ecd;" horiz-adv-x="1089" d="M94 469q0 240 120 378t357 138q424 0 424 -502q0 -500 -477 -499q-225 0 -324.5 126t-99.5 359zM311 492q0 -123 20.5 -191t74 -99.5t155.5 -31.5t176 29q41 92 41 258q0 125 -19.5 196.5t-73.5 105.5t-157 34q-102 0 -176 -29q-41 -94 -41 -272zM406 -246 q0 66 36.5 101.5t102.5 35.5t103.5 -35.5t37.5 -101.5q0 -59 -38 -94t-103 -35q-66 0 -102.5 35t-36.5 94z" />
<glyph unicode="&#x1ece;" horiz-adv-x="1306" d="M98 610q0 342 139.5 509t436.5 167q535 0 534 -629q0 -340 -140 -506.5t-437 -166.5q-264 0 -398.5 158.5t-134.5 467.5zM322 645q0 -160 31.5 -259t106.5 -147.5t206 -48.5q145 0 235 37q82 186 82 396q0 160 -30.5 258t-105.5 147t-208 49q-152 0 -242 -37 q-76 -172 -75 -395zM502 1790q102 41 207 41q106 0 162.5 -48t56.5 -130q0 -158 -193 -168v-92h-133l-33 108v88q106 0 145.5 8.5t39.5 42.5q0 29 -18.5 39.5t-65.5 10.5q-57 0 -123 -21z" />
<glyph unicode="&#x1ecf;" horiz-adv-x="1089" d="M94 469q0 240 120 378t357 138q424 0 424 -502q0 -500 -477 -499q-225 0 -324.5 126t-99.5 359zM311 492q0 -123 20.5 -191t74 -99.5t155.5 -31.5t176 29q41 92 41 258q0 125 -19.5 196.5t-73.5 105.5t-157 34q-102 0 -176 -29q-41 -94 -41 -272zM393 1501q96 41 207 41 q106 0 162.5 -48t56.5 -130q0 -158 -192 -168v-92h-133l-33 108v88q106 0 145 8.5t39 43.5q0 29 -18.5 39t-65.5 10q-57 0 -123 -21z" />
<glyph unicode="&#x1ed0;" horiz-adv-x="1310" d="M98 610q0 342 139.5 509t436.5 167q535 0 534 -629q0 -340 -140 -506.5t-437 -166.5q-264 0 -398.5 158.5t-134.5 467.5zM322 645q0 -160 31.5 -259t106.5 -147.5t206 -48.5q145 0 235 37q82 186 82 396q0 160 -30.5 258t-105.5 147t-208 49q-152 0 -242 -37 q-76 -172 -75 -395zM375 1413l200 277h193l199 -277l-133 -27l-156 144h-12l-162 -144zM918 1599l124 230l203 -33l-188 -227z" />
<glyph unicode="&#x1ed1;" horiz-adv-x="1089" d="M94 469q0 240 120 378t357 138q424 0 424 -502q0 -500 -477 -499q-225 0 -324.5 126t-99.5 359zM258 1116l201 277h192l199 -277l-133 -26l-156 143h-12l-162 -143zM311 492q0 -123 20.5 -191t74 -99.5t155.5 -31.5t176 29q41 92 41 258q0 125 -19.5 196.5t-73.5 105.5 t-157 34q-102 0 -176 -29q-41 -94 -41 -272zM801 1303l125 229l202 -33l-188 -227z" />
<glyph unicode="&#x1ed2;" horiz-adv-x="1310" d="M78 1794l203 33l125 -230l-140 -30zM102 610q0 342 139.5 509t436.5 167q535 0 534 -629q0 -340 -140 -506.5t-437 -166.5q-264 0 -398.5 158.5t-134.5 467.5zM326 645q0 -160 31.5 -259t106.5 -147.5t206 -48.5q145 0 235 37q82 186 82 396q0 160 -30.5 258t-105.5 147 t-208 49q-152 0 -242 -37q-76 -172 -75 -395zM356 1411l199 279h193l200 -279l-129 -25l-162 142h-12l-156 -142z" />
<glyph unicode="&#x1ed3;" horiz-adv-x="1091" d="M14 1501l203 31l125 -229l-139 -31zM94 469q0 240 120 378t357 138q424 0 424 -502q0 -500 -477 -499q-225 0 -324.5 126t-99.5 359zM252 1116l199 279h192l201 -279l-129 -24l-162 141h-12l-156 -141zM311 492q0 -123 20.5 -191t74 -99.5t155.5 -31.5t176 29 q41 92 41 258q0 125 -19.5 196.5t-73.5 105.5t-157 34q-102 0 -176 -29q-41 -94 -41 -272z" />
<glyph unicode="&#x1ed4;" horiz-adv-x="1306" d="M98 610q0 342 139.5 509t436.5 167q535 0 534 -629q0 -340 -140 -506.5t-437 -166.5q-264 0 -398.5 158.5t-134.5 467.5zM322 645q0 -160 31.5 -259t106.5 -147.5t206 -48.5q145 0 235 37q82 186 82 396q0 160 -30.5 258t-105.5 147t-208 49q-152 0 -242 -37 q-76 -172 -75 -395zM360 1413l201 277h193l198 -277l-131 -27l-157 144h-13l-159 -144zM848 1901q74 29 143 28q154 0 154 -129q0 -55 -31 -87t-92 -34v-73h-109l-20 77v74q68 0 91.5 6t23.5 27q0 29 -50 29q-39 0 -81 -17z" />
<glyph unicode="&#x1ed5;" horiz-adv-x="1089" d="M94 469q0 240 120 378t357 138q424 0 424 -502q0 -500 -477 -499q-225 0 -324.5 126t-99.5 359zM244 1116l200 277h193l199 -277l-131 -26l-158 143h-12l-160 -143zM311 492q0 -123 20.5 -191t74 -99.5t155.5 -31.5t176 29q41 92 41 258q0 125 -19.5 196.5t-73.5 105.5 t-157 34q-102 0 -176 -29q-41 -94 -41 -272zM729 1604q74 29 143 28q154 0 154 -129q0 -55 -30.5 -87t-92.5 -34v-73h-108l-21 77v74q68 0 91.5 6.5t23.5 26.5q0 29 -49 29q-39 0 -82 -17z" />
<glyph unicode="&#x1ed6;" horiz-adv-x="1306" d="M98 610q0 342 139.5 509t436.5 167q535 0 534 -629q0 -340 -140 -506.5t-437 -166.5q-264 0 -398.5 158.5t-134.5 467.5zM322 645q0 -160 31.5 -259t106.5 -147.5t206 -48.5q145 0 235 37q82 186 82 396q0 160 -30.5 258t-105.5 147t-208 49q-152 0 -242 -37 q-76 -172 -75 -395zM358 1413l201 277h193l198 -277l-131 -27l-157 144h-13l-160 -144zM401 1804q4 88 40 132t110 44q47 0 117 -36q49 -27 75 -27q31 0 45.5 19.5t18.5 54.5l108 -33q-6 -176 -147 -176q-29 0 -52.5 8t-58.5 27q-20 10 -42.5 19t-41.5 9q-31 0 -45 -19.5 t-18 -53.5z" />
<glyph unicode="&#x1ed7;" horiz-adv-x="1089" d="M94 469q0 240 120 378t357 138q424 0 424 -502q0 -500 -477 -499q-225 0 -324.5 126t-99.5 359zM252 1116l201 277h192l199 -277l-131 -26l-158 143h-12l-160 -143zM293 1507q4 88 40 132t109 44q47 0 117 -36q49 -27 76 -27q31 0 45 19.5t18 54.5l109 -33 q-6 -176 -148 -176q-29 0 -52 8t-58 27q-20 10 -43 19t-41 9q-31 0 -45 -19.5t-19 -53.5zM311 492q0 -123 20.5 -191t74 -99.5t155.5 -31.5t176 29q41 92 41 258q0 125 -19.5 196.5t-73.5 105.5t-157 34q-102 0 -176 -29q-41 -94 -41 -272z" />
<glyph unicode="&#x1ed8;" horiz-adv-x="1306" d="M98 610q0 342 139.5 509t436.5 167q535 0 534 -629q0 -340 -140 -506.5t-437 -166.5q-264 0 -398.5 158.5t-134.5 467.5zM322 645q0 -160 31.5 -259t106.5 -147.5t206 -48.5q145 0 235 37q82 186 82 396q0 160 -30.5 258t-105.5 147t-208 49q-152 0 -242 -37 q-76 -172 -75 -395zM371 1413l200 281h193l199 -281l-132 -27l-157 144h-12l-162 -144zM526 -248q0 63 37 99t103 36t103.5 -35.5t37.5 -99.5q0 -61 -38 -96t-103 -35q-66 0 -103 35t-37 96z" />
<glyph unicode="&#x1ed9;" horiz-adv-x="1089" d="M94 469q0 240 120 378t357 138q424 0 424 -502q0 -500 -477 -499q-225 0 -324.5 126t-99.5 359zM248 1116l201 281h192l199 -281l-131 -26l-158 143h-12l-162 -143zM311 492q0 -123 20.5 -191t74 -99.5t155.5 -31.5t176 29q41 92 41 258q0 125 -19.5 196.5t-73.5 105.5 t-157 34q-102 0 -176 -29q-41 -94 -41 -272zM406 -248q0 63 36.5 99t102.5 36t103.5 -35.5t37.5 -99.5q0 -61 -38 -96t-103 -35q-66 0 -102.5 35t-36.5 96z" />
<glyph unicode="&#x1eda;" horiz-adv-x="1353" d="M98 610q0 342 139.5 509t436.5 167q242 0 368 -133h25q37 68 53.5 142.5t16.5 170.5h213q0 -174 -48.5 -281.5t-158.5 -180.5q66 -141 65 -347q0 -342 -140 -508.5t-437 -166.5q-264 0 -398.5 159.5t-134.5 468.5zM322 645q0 -162 31.5 -260t106.5 -147.5t206 -49.5 q145 0 235 37q82 190 82 398q0 160 -30.5 258t-105.5 147t-208 49q-152 0 -242 -37q-76 -172 -75 -395zM547 1417l170 312l256 -25l-264 -315z" />
<glyph unicode="&#x1edb;" horiz-adv-x="1185" d="M94 469q0 240 120 378t357 138q231 0 336 -160h19q31 53 43 120t14 169h213q0 -160 -50 -266.5t-169 -177.5q18 -80 18 -187q0 -502 -477 -501q-225 0 -324.5 127t-99.5 360zM311 492q0 -123 20.5 -192t74 -100.5t155.5 -31.5q94 0 176 29q41 94 41 260 q0 125 -19.5 196.5t-73.5 105.5t-157 34q-102 0 -176 -29q-41 -94 -41 -272zM459 1120l170 312l256 -25l-264 -315z" />
<glyph unicode="&#x1edc;" horiz-adv-x="1353" d="M98 610q0 342 139.5 509t436.5 167q242 0 368 -133h25q37 68 53.5 142.5t16.5 170.5h213q0 -174 -48.5 -281.5t-158.5 -180.5q66 -141 65 -347q0 -342 -140 -508.5t-437 -166.5q-264 0 -398.5 159.5t-134.5 468.5zM322 645q0 -162 31.5 -260t106.5 -147.5t206 -49.5 q145 0 235 37q82 190 82 398q0 160 -30.5 258t-105.5 147t-208 49q-152 0 -242 -37q-76 -172 -75 -395zM348 1694l268 28l172 -305l-178 -28z" />
<glyph unicode="&#x1edd;" horiz-adv-x="1185" d="M94 469q0 240 120 378t357 138q231 0 336 -160h19q31 53 43 120t14 169h213q0 -160 -50 -266.5t-169 -177.5q18 -80 18 -187q0 -502 -477 -501q-225 0 -324.5 127t-99.5 360zM252 1397l268 28l172 -305l-178 -26zM311 492q0 -123 20.5 -192t74 -100.5t155.5 -31.5 q94 0 176 29q41 94 41 260q0 125 -19.5 196.5t-73.5 105.5t-157 34q-102 0 -176 -29q-41 -94 -41 -272z" />
<glyph unicode="&#x1ede;" horiz-adv-x="1353" d="M98 610q0 342 139.5 509t436.5 167q242 0 368 -133h25q37 68 53.5 142.5t16.5 170.5h213q0 -174 -48.5 -281.5t-158.5 -180.5q66 -141 65 -347q0 -342 -140 -508.5t-437 -166.5q-264 0 -398.5 159.5t-134.5 468.5zM322 645q0 -162 31.5 -260t106.5 -147.5t206 -49.5 q145 0 235 37q82 190 82 398q0 160 -30.5 258t-105.5 147t-208 49q-152 0 -242 -37q-76 -172 -75 -395zM498 1796q100 43 207 43q106 0 162.5 -48t56.5 -130q0 -158 -193 -168v-92h-133l-33 108v88q106 0 145.5 8.5t39.5 43.5q0 29 -18.5 39t-65.5 10q-57 0 -123 -21z" />
<glyph unicode="&#x1edf;" horiz-adv-x="1185" d="M94 469q0 240 120 378t357 138q231 0 336 -160h19q31 53 43 120t14 169h213q0 -160 -50 -266.5t-169 -177.5q18 -80 18 -187q0 -502 -477 -501q-225 0 -324.5 127t-99.5 360zM311 492q0 -123 20.5 -192t74 -100.5t155.5 -31.5q94 0 176 29q41 94 41 260 q0 125 -19.5 196.5t-73.5 105.5t-157 34q-102 0 -176 -29q-41 -94 -41 -272zM387 1501q96 41 207 41q106 0 162.5 -48t56.5 -128q0 -82 -51 -123t-141 -45v-92h-134l-32 108v86q106 0 145 9.5t39 44.5q0 29 -18.5 39t-65.5 10q-61 0 -123 -23z" />
<glyph unicode="&#x1ee0;" horiz-adv-x="1353" d="M98 610q0 342 139.5 509t436.5 167q242 0 368 -133h25q37 68 53.5 142.5t16.5 170.5h213q0 -174 -48.5 -281.5t-158.5 -180.5q66 -141 65 -347q0 -342 -140 -508.5t-437 -166.5q-264 0 -398.5 159.5t-134.5 468.5zM322 645q0 -162 31.5 -260t106.5 -147.5t206 -49.5 q145 0 235 37q82 190 82 398q0 160 -30.5 258t-105.5 147t-208 49q-152 0 -242 -37q-76 -172 -75 -395zM354 1419q4 115 48 172.5t139 57.5q33 0 62.5 -12.5t74.5 -37.5q23 -14 46.5 -24t41.5 -10q39 0 54.5 24.5t21.5 71.5l141 -43q-4 -115 -47 -172t-135 -57 q-35 0 -64.5 12t-68.5 35q-33 18 -54.5 27.5t-44.5 9.5q-37 0 -53 -26t-20 -71z" />
<glyph unicode="&#x1ee1;" horiz-adv-x="1185" d="M94 469q0 240 120 378t357 138q231 0 336 -160h19q31 53 43 120t14 169h213q0 -160 -50 -266.5t-169 -177.5q18 -80 18 -187q0 -502 -477 -501q-225 0 -324.5 127t-99.5 360zM236 1124q4 115 48 172.5t138 57.5q33 0 62.5 -12.5t74.5 -36.5q23 -14 46.5 -24.5t41.5 -10.5 q39 0 54.5 24.5t21.5 69.5l141 -41q-4 -115 -47 -172t-135 -57q-35 0 -64.5 12t-68.5 35q-33 18 -54.5 27.5t-43.5 9.5q-37 0 -53.5 -26t-20.5 -71zM311 492q0 -123 20.5 -192t74 -100.5t155.5 -31.5q94 0 176 29q41 94 41 260q0 125 -19.5 196.5t-73.5 105.5t-157 34 q-102 0 -176 -29q-41 -94 -41 -272z" />
<glyph unicode="&#x1ee2;" horiz-adv-x="1353" d="M98 610q0 342 139.5 509t436.5 167q242 0 368 -133h25q37 68 53.5 142.5t16.5 170.5h213q0 -174 -48.5 -281.5t-158.5 -180.5q66 -141 65 -347q0 -342 -140 -508.5t-437 -166.5q-264 0 -398.5 159.5t-134.5 468.5zM322 645q0 -162 31.5 -260t106.5 -147.5t206 -49.5 q145 0 235 37q82 190 82 398q0 160 -30.5 258t-105.5 147t-208 49q-152 0 -242 -37q-76 -172 -75 -395zM532 -246q0 66 37 101.5t103 35.5t103.5 -35.5t37.5 -101.5q0 -59 -38 -94t-103 -35q-66 0 -103 35t-37 94z" />
<glyph unicode="&#x1ee3;" horiz-adv-x="1185" d="M94 469q0 240 120 378t357 138q231 0 336 -160h19q31 53 43 120t14 169h213q0 -160 -50 -266.5t-169 -177.5q18 -80 18 -187q0 -502 -477 -501q-225 0 -324.5 127t-99.5 360zM311 492q0 -123 20.5 -192t74 -100.5t155.5 -31.5q94 0 176 29q41 94 41 260 q0 125 -19.5 196.5t-73.5 105.5t-157 34q-102 0 -176 -29q-41 -94 -41 -272zM416 -246q0 66 36.5 101.5t102.5 35.5t103.5 -35.5t37.5 -101.5q0 -59 -37.5 -94t-103.5 -35t-102.5 35t-36.5 94z" />
<glyph unicode="&#x1ee4;" horiz-adv-x="1282" d="M141 393v873h226v-828q0 -141 60 -195.5t208 -54.5q174 0 280 41v1037h226v-998q0 -152 -140.5 -219t-379.5 -67q-242 0 -361 105.5t-119 305.5zM520 -246q0 63 37 99t102 36q66 0 104 -35.5t38 -99.5q0 -61 -38 -96t-104 -35q-65 0 -102 35t-37 96z" />
<glyph unicode="&#x1ee5;" horiz-adv-x="1101" d="M131 270v695h221v-766q57 -16 123 -17q168 0 262 107v676h221v-965h-194l-12 147h-17q-68 -80 -143.5 -121.5t-179.5 -41.5q-144 0 -212.5 67.5t-68.5 218.5zM418 -246q0 63 37 99t102 36q66 0 103.5 -35.5t37.5 -99.5q0 -61 -37.5 -96t-103.5 -35q-65 0 -102 35t-37 96z " />
<glyph unicode="&#x1ee6;" horiz-adv-x="1282" d="M141 393v873h226v-828q0 -141 60 -195.5t208 -54.5q174 0 280 41v1037h226v-998q0 -152 -140.5 -219t-379.5 -67q-242 0 -361 105.5t-119 305.5zM479 1790q102 41 207 41q106 0 162.5 -48t56.5 -130q0 -158 -192 -168v-92h-133l-33 108v88q106 0 145 8.5t39 42.5 q0 29 -18.5 39.5t-65.5 10.5q-57 0 -123 -21z" />
<glyph unicode="&#x1ee7;" horiz-adv-x="1101" d="M131 270v695h221v-766q57 -16 123 -17q168 0 262 107v676h221v-965h-194l-12 147h-17q-68 -80 -143.5 -121.5t-179.5 -41.5q-144 0 -212.5 67.5t-68.5 218.5zM381 1501q96 41 207 41q106 0 162.5 -48t56.5 -128q0 -82 -51 -123t-142 -45v-92h-133l-32 108v86 q106 0 145 9.5t39 44.5q0 29 -18.5 39t-65.5 10q-61 0 -123 -23z" />
<glyph unicode="&#x1ee8;" horiz-adv-x="1497" d="M123 389v877h225v-832q0 -141 60.5 -194.5t207.5 -53.5q174 0 281 41v1039h221v-197h19q182 98 182 361h217q0 -225 -106.5 -364.5t-307.5 -197.5v-604q0 -152 -140 -218t-380 -66q-479 -1 -479 409zM516 1415l170 314l256 -27l-264 -316z" />
<glyph unicode="&#x1ee9;" horiz-adv-x="1286" d="M131 270v695h221v-766q57 -16 123 -17q168 0 262 107v676h221v-146h17q66 43 93.5 112.5t27.5 182.5h204q0 -178 -82.5 -295t-259.5 -186v-633h-194l-12 147h-17q-68 -80 -143.5 -121.5t-179.5 -41.5q-144 0 -212.5 67.5t-68.5 218.5zM436 1120l170 314l256 -27 l-264 -313z" />
<glyph unicode="&#x1eea;" horiz-adv-x="1497" d="M123 389v877h225v-832q0 -141 60.5 -194.5t207.5 -53.5q174 0 281 41v1039h221v-197h19q182 98 182 361h217q0 -225 -106.5 -364.5t-307.5 -197.5v-604q0 -152 -140 -218t-380 -66q-479 -1 -479 409zM322 1694l268 28l172 -305l-178 -28z" />
<glyph unicode="&#x1eeb;" horiz-adv-x="1286" d="M131 270v695h221v-766q57 -16 123 -17q168 0 262 107v676h221v-146h17q66 43 93.5 112.5t27.5 182.5h204q0 -178 -82.5 -295t-259.5 -186v-633h-194l-12 147h-17q-68 -80 -143.5 -121.5t-179.5 -41.5q-144 0 -212.5 67.5t-68.5 218.5zM236 1397l268 28l172 -305l-178 -26 z" />
<glyph unicode="&#x1eec;" horiz-adv-x="1497" d="M123 389v877h225v-832q0 -141 60.5 -194.5t207.5 -53.5q174 0 281 41v1039h221v-197h19q182 98 182 361h217q0 -225 -106.5 -364.5t-307.5 -197.5v-604q0 -152 -140 -218t-380 -66q-479 -1 -479 409zM461 1804q96 41 207 41q106 0 162.5 -48t56.5 -130q0 -80 -51.5 -122 t-141.5 -46v-90h-133l-33 107v88q106 0 145.5 9t39.5 44q0 27 -18.5 38t-65.5 11q-61 0 -123 -23z" />
<glyph unicode="&#x1eed;" horiz-adv-x="1286" d="M131 270v695h221v-766q57 -16 123 -17q168 0 262 107v676h221v-146h17q66 43 93.5 112.5t27.5 182.5h204q0 -178 -82.5 -295t-259.5 -186v-633h-194l-12 147h-17q-68 -80 -143.5 -121.5t-179.5 -41.5q-144 0 -212.5 67.5t-68.5 218.5zM381 1501q96 41 207 41 q106 0 162.5 -48t56.5 -128q0 -82 -51 -123t-142 -45v-92h-133l-32 108v86q106 0 145 9.5t39 44.5q0 29 -18.5 39t-65.5 10q-61 0 -123 -23z" />
<glyph unicode="&#x1eee;" horiz-adv-x="1497" d="M123 389v877h225v-832q0 -141 60.5 -194.5t207.5 -53.5q174 0 281 41v1039h221v-197h19q182 98 182 361h217q0 -225 -106.5 -364.5t-307.5 -197.5v-604q0 -152 -140 -218t-380 -66q-479 -1 -479 409zM319 1419q4 115 48.5 172.5t138.5 57.5q33 0 62.5 -12.5t74.5 -37.5 q23 -14 46.5 -24t41.5 -10q39 0 54.5 24.5t21.5 71.5l141 -43q-4 -115 -47 -172t-135 -57q-35 0 -64.5 12t-68.5 35q-33 18 -54.5 27.5t-43.5 9.5q-37 0 -53.5 -26t-20.5 -71z" />
<glyph unicode="&#x1eef;" horiz-adv-x="1286" d="M131 270v695h221v-766q57 -16 123 -17q168 0 262 107v676h221v-146h17q66 43 93.5 112.5t27.5 182.5h204q0 -178 -82.5 -295t-259.5 -186v-633h-194l-12 147h-17q-68 -80 -143.5 -121.5t-179.5 -41.5q-144 0 -212.5 67.5t-68.5 218.5zM233 1124q4 115 48.5 172.5 t138.5 57.5q33 0 62.5 -12.5t74.5 -36.5q23 -14 46.5 -24.5t41.5 -10.5q39 0 54.5 24.5t21.5 69.5l141 -41q-4 -115 -47 -172t-135 -57q-35 0 -64.5 12t-68.5 35q-33 18 -54.5 27.5t-43.5 9.5q-37 0 -53.5 -26t-20.5 -71z" />
<glyph unicode="&#x1ef0;" horiz-adv-x="1497" d="M123 389v877h225v-832q0 -141 60.5 -194.5t207.5 -53.5q174 0 281 41v1039h221v-197h19q182 98 182 361h217q0 -225 -106.5 -364.5t-307.5 -197.5v-604q0 -152 -140 -218t-380 -66q-479 -1 -479 409zM500 -246q0 66 36.5 101.5t102.5 35.5t103.5 -35.5t37.5 -101.5 q0 -59 -37.5 -94t-103.5 -35t-102.5 35t-36.5 94z" />
<glyph unicode="&#x1ef1;" horiz-adv-x="1286" d="M131 270v695h221v-766q57 -16 123 -17q168 0 262 107v676h221v-146h17q66 43 93.5 112.5t27.5 182.5h204q0 -178 -82.5 -295t-259.5 -186v-633h-194l-12 147h-17q-68 -80 -143.5 -121.5t-179.5 -41.5q-144 0 -212.5 67.5t-68.5 218.5zM412 -246q0 66 36.5 101.5 t102.5 35.5t103.5 -35.5t37.5 -101.5q0 -59 -38 -94t-103 -35q-66 0 -102.5 35t-36.5 94z" />
<glyph unicode="&#x1ef2;" horiz-adv-x="1290" d="M49 1225l223 51q160 -412 344 -686h58q188 287 344 686l223 -51q-98 -242 -199.5 -432.5t-238.5 -380.5h-45v-412h-226v412h-45q-137 190 -238.5 380.5t-199.5 432.5zM334 1694l268 28l172 -305l-178 -28z" />
<glyph unicode="&#x1ef3;" horiz-adv-x="1081" d="M68 963l225 14q106 -424 229 -735h66q96 311 194 735l226 -14q-84 -344 -182.5 -655.5t-194.5 -536.5q-33 -76 -128 -125t-181 -49q-124 0 -216 43v63q0 90 21 168h160v-86q29 -6 65 -6q23 0 76 8q49 123 94 256h-127q-117 272 -193.5 483t-133.5 437zM242 1397l268 28 l172 -305l-178 -28z" />
<glyph unicode="&#x1ef4;" horiz-adv-x="1290" d="M49 1225l223 51q160 -412 344 -686h58q188 287 344 686l223 -51q-98 -242 -199.5 -432.5t-238.5 -380.5h-45v-412h-226v412h-45q-137 190 -238.5 380.5t-199.5 432.5zM506 -246q0 66 37 101.5t102 35.5q66 0 103.5 -35.5t37.5 -101.5q0 -59 -37.5 -94t-103.5 -35 q-65 0 -102 35t-37 94z" />
<glyph unicode="&#x1ef5;" horiz-adv-x="1081" d="M68 963l225 14q106 -424 229 -735h66q96 311 194 735l226 -14q-84 -344 -182.5 -655.5t-194.5 -536.5q-33 -76 -128 -125t-181 -49q-124 0 -216 43v63q0 90 21 168h160v-86q29 -6 65 -6q23 0 76 8q49 123 94 256h-127q-117 272 -193.5 483t-133.5 437zM383 -596 q0 66 37 100.5t102 34.5q68 0 105 -34.5t37 -100.5q0 -59 -38 -94t-104 -35q-65 0 -102 35t-37 94z" />
<glyph unicode="&#x1ef6;" horiz-adv-x="1290" d="M49 1225l223 51q160 -412 344 -686h58q188 287 344 686l223 -51q-98 -242 -199.5 -432.5t-238.5 -380.5h-45v-412h-226v412h-45q-137 190 -238.5 380.5t-199.5 432.5zM473 1796q100 43 207 43q106 0 162.5 -48t56.5 -130q0 -158 -192 -168v-92h-134l-32 108v88 q106 0 145 8.5t39 43.5q0 29 -18.5 39t-65.5 10q-57 0 -123 -21z" />
<glyph unicode="&#x1ef7;" horiz-adv-x="1081" d="M68 963l225 14q106 -424 229 -735h66q96 311 194 735l226 -14q-84 -344 -182.5 -655.5t-194.5 -536.5q-33 -76 -128 -125t-181 -49q-124 0 -216 43v63q0 90 21 168h160v-86q29 -6 65 -6q23 0 76 8q49 123 94 256h-127q-117 272 -193.5 483t-133.5 437zM371 1501 q96 41 207 41q106 0 162.5 -48t56.5 -128q0 -82 -51.5 -123t-141.5 -45v-92h-133l-33 108v86q106 0 145.5 9.5t39.5 44.5q0 29 -18.5 39t-65.5 10q-61 0 -123 -23z" />
<glyph unicode="&#x1ef8;" horiz-adv-x="1290" d="M49 1225l223 51q160 -412 344 -686h58q188 287 344 686l223 -51q-98 -242 -199.5 -432.5t-238.5 -380.5h-45v-412h-226v412h-45q-137 190 -238.5 380.5t-199.5 432.5zM330 1419q4 115 48 172.5t138 57.5q33 0 62.5 -12.5t74.5 -37.5q23 -14 46.5 -24t41.5 -10 q39 0 54.5 24.5t21.5 71.5l141 -43q-4 -115 -47 -172t-135 -57q-35 0 -64.5 12t-68.5 35q-33 18 -54.5 27.5t-43.5 9.5q-37 0 -53.5 -26t-20.5 -71z" />
<glyph unicode="&#x1ef9;" horiz-adv-x="1081" d="M68 963l225 14q106 -424 229 -735h66q96 311 194 735l226 -14q-84 -344 -182.5 -655.5t-194.5 -536.5q-33 -76 -128 -125t-181 -49q-124 0 -216 43v63q0 90 21 168h160v-86q29 -6 65 -6q23 0 76 8q49 123 94 256h-127q-117 272 -193.5 483t-133.5 437zM233 1124 q4 115 48.5 172.5t138.5 57.5q33 0 62.5 -12.5t74.5 -36.5q23 -14 46.5 -24.5t41.5 -10.5q39 0 54.5 24.5t21.5 69.5l141 -41q-4 -115 -47 -172t-135 -57q-35 0 -64.5 12t-68.5 35q-33 18 -54.5 27.5t-43.5 9.5q-37 0 -53.5 -26t-20.5 -71z" />
<glyph unicode="&#x2000;" horiz-adv-x="1114" />
<glyph unicode="&#x2001;" horiz-adv-x="2228" />
<glyph unicode="&#x2002;" horiz-adv-x="1114" />
<glyph unicode="&#x2003;" horiz-adv-x="2228" />
<glyph unicode="&#x2004;" horiz-adv-x="742" />
<glyph unicode="&#x2005;" horiz-adv-x="557" />
<glyph unicode="&#x2006;" horiz-adv-x="371" />
<glyph unicode="&#x2007;" horiz-adv-x="614" />
<glyph unicode="&#x2008;" horiz-adv-x="278" />
<glyph unicode="&#x2009;" horiz-adv-x="445" />
<glyph unicode="&#x200a;" horiz-adv-x="123" />
<glyph unicode="&#x2010;" horiz-adv-x="1003" d="M94 430v199h813v-199h-813z" />
<glyph unicode="&#x2011;" horiz-adv-x="915" d="M145 449v198h625v-198h-625z" />
<glyph unicode="&#x2012;" horiz-adv-x="1142" d="M94 430v199h955v-199h-955z" />
<glyph unicode="&#x2013;" horiz-adv-x="1087" d="M127 430v199h836v-199h-836z" />
<glyph unicode="&#x2014;" horiz-adv-x="1447" d="M127 430v199h1196v-199h-1196z" />
<glyph unicode="&#x2015;" horiz-adv-x="1867" d="M94 430v199h1680v-199h-1680z" />
<glyph unicode="&#x2018;" horiz-adv-x="575" d="M145 1024q0 66 29 133.5t78 120.5l135 -31q-63 -111 -65 -209h108v-149q-61 -23 -129 -23q-80 0 -118 39t-38 119z" />
</font>
</defs>
</svg>
