<?xml version="1.0" standalone="no"?>
<!DOCTYPE svg PUBLIC "-//W3C//DTD SVG 1.1//EN" "http://www.w3.org/Graphics/SVG/1.1/DTD/svg11.dtd" >
<svg xmlns="http://www.w3.org/2000/svg">
<metadata></metadata>
<defs>
<font id="athitimedium" horiz-adv-x="0" >
<font-face units-per-em="2048" ascent="1536" descent="-512" />
<missing-glyph horiz-adv-x="614" />
<glyph unicode="fi" horiz-adv-x="1128" d="M61 815l21 135h111v117q0 150 190 248q45 10 107.5 16t109.5 6q80 0 139.5 -9t120.5 -30l-43 -137q-94 27 -223 27q-104 0 -203 -19q-35 -61 -35 -133v-86h623v-950h-164v815h-459v-815h-163v815h-132z" />
<glyph unicode="fl" horiz-adv-x="1249" d="M61 827l21 136h111v106q0 82 54 148.5t136 109.5q100 23 242 23q201 0 364 -68v-1083q0 -49 8 -70h27l117 59l71 -92q-31 -43 -87 -74.5t-115 -33.5q-29 8 -74 41.5t-78 75.5t-33 73v649h-469v-827h-163v827h-132zM356 963h469v215q-61 14 -106 18t-121 4 q-117 0 -207 -16q-35 -61 -35 -146v-75z" />
<glyph unicode="&#xe24;&#xe45;" horiz-adv-x="1716" d="M115 799v112q225 166 495 166q178 0 281 -73q162 74 330 73q160 0 252 -69.5t92 -188.5v-1222h-172v1306q-80 23 -191 23q-106 0 -223 -31q20 -47 20 -98v-1200h-172v1280q-39 20 -99 32.5t-132 12.5q-193 0 -334 -76v-6l119 -142q25 -31 25 -75q0 -27 -3 -43l-65 -387 q-8 -68 63 -68h146v-115q-37 -12 -89 -21t-104 -9q-82 0 -129 46t-47 130q0 20 2 32l68 447z" />
<glyph unicode="&#xe26;&#xe45;" horiz-adv-x="1716" d="M94 10v113h99q39 0 54 11t19 38l58 463l-144 164v112q106 78 216 122t245 44q168 0 268 -65q158 66 312 65q160 0 252 -69.5t92 -188.5v-1222h-172v1306q-80 23 -191 23q-92 0 -201 -25q23 -47 23 -104v-1200h-172v1280q-90 49 -225 49q-94 0 -166 -19.5t-133 -60.5v-6 l129 -142q27 -29 26 -73q0 -8 -4 -45l-57 -439q-8 -74 -54 -117.5t-135 -43.5q-37 0 -74.5 8t-64.5 22z" />
<glyph unicode=" "  horiz-adv-x="614" />
<glyph unicode="&#x09;" horiz-adv-x="614" />
<glyph unicode="&#xa0;" horiz-adv-x="614" />
<glyph unicode="!" horiz-adv-x="495" d="M156 0v190h184v-190h-184zM156 872v390h184v-390l-16 -530h-152z" />
<glyph unicode="&#x22;" horiz-adv-x="649" d="M125 1114q-4 84 6 148h131q10 -63 6 -148l-16 -248h-111zM381 1114q-4 84 6 148h131q10 -63 6 -148l-16 -248h-111z" />
<glyph unicode="#" horiz-adv-x="1400" d="M123 356v152h242l36 266h-229v152h250l49 356l160 -6l-47 -350h290l50 356l159 -6l-47 -350h221v-152h-241l-35 -266h229v-152h-249l-50 -364l-163 8l49 356h-289l-49 -364l-164 8l49 356h-221zM528 508h289l37 266h-291z" />
<glyph unicode="$" horiz-adv-x="1056" d="M102 84l60 152q166 -86 373 -86q125 0 221 22q25 66 24 154q0 92 -55 140t-199 83q-190 45 -293.5 123t-103.5 237q0 139 77 240.5t249 126.5v190h157v-186q98 -4 166 -25.5t133 -58.5v-53q0 -88 -34 -185h-125l-27 154q-100 14 -182 14q-131 0 -185.5 -48t-54.5 -154 q0 -59 23.5 -97.5t81 -64t163.5 -49.5q201 -45 292 -123t91 -228q0 -147 -79.5 -249.5t-262.5 -122.5v-215h-157v211q-193 12 -353 98z" />
<glyph unicode="%" horiz-adv-x="1544" d="M143 924q0 317 263 317q246 0 245 -293q0 -317 -262 -317q-246 0 -246 293zM272 942q0 -82 9.5 -123t37 -58.5t84.5 -17.5q64 1 103 17q16 72 16 170q0 82 -9 123t-36.5 58t-85.5 17q-63 0 -102 -16q-16 -72 -17 -170zM342 27l750 1226l120 -43l-757 -1237zM893 276 q0 317 262 318q246 0 246 -293q0 -317 -262 -317q-246 -1 -246 292zM1022 295q0 -82 9 -123t37 -58.5t85 -17.5q63 1 102 17q16 72 17 170q0 82 -9.5 122.5t-37 58t-84.5 17.5q-63 0 -103 -16q-16 -72 -16 -170z" />
<glyph unicode="&#x26;" horiz-adv-x="1378" d="M139 324q0 143 67.5 227t203.5 137v17q-55 55 -82 109t-27 120q0 143 94 225t269 82q129 0 210.5 -39t126.5 -100v-76q0 -70 -26 -137h-125l-19 176q-66 29 -167 29q-102 0 -146.5 -37t-44.5 -121q0 -72 20.5 -112t73.5 -93l338 -319q25 80 49 237l156 -35 q-23 -115 -38 -178t-36 -127l240 -241l-125 -86l-143 159h-17q-23 -72 -51 -116q-121 -57 -350 -58q-205 0 -328 92.5t-123 264.5zM311 324q0 -205 283 -205q141 -1 225 26q27 41 37 109l-346 330q-102 -31 -150.5 -89.5t-48.5 -170.5z" />
<glyph unicode="'" horiz-adv-x="475" d="M166 1114q-4 84 6 148h131q10 -63 6 -148l-16 -248h-111z" />
<glyph unicode="(" horiz-adv-x="632" d="M154 -8v1278q6 57 59 114.5t121 75.5q90 0 151 -12v-148h-159v-1339h159v-147q-61 -12 -151 -13q-68 19 -121 76t-59 115z" />
<glyph unicode=")" horiz-adv-x="632" d="M147 -39h160v1339h-160v148q61 12 152 12q68 -18 121 -75.5t59 -114.5v-1278q-6 -57 -59 -114.5t-121 -76.5q-91 1 -152 13v147z" />
<glyph unicode="*" horiz-adv-x="929" d="M123 1012l45 137l231 -100l11 8l-15 264h140l-15 -264l10 -8l232 100l45 -137l-242 -62l-4 -12l172 -217l-117 -84l-143 231h-16l-144 -231l-116 84l172 217l-4 12z" />
<glyph unicode="+" horiz-adv-x="1105" d="M102 557v135h377v357h148v-357h377v-135h-377v-389h-148v389h-377z" />
<glyph unicode="," horiz-adv-x="487" d="M127 59v115q49 18 102 19q70 0 103 -37t33 -111q0 -61 -27 -128t-72 -120l-100 23q70 129 70 239h-109z" />
<glyph unicode="-" horiz-adv-x="880" d="M154 500v143h573v-143h-573z" />
<glyph unicode="." horiz-adv-x="503" d="M154 0v205h196v-205h-196z" />
<glyph unicode="/" horiz-adv-x="915" d="M119 -158l534 1516l144 -35l-535 -1518z" />
<glyph unicode="0" horiz-adv-x="1247" d="M113 586q0 223 49 365.5t164.5 216t312.5 73.5q262 0 379 -146.5t117 -457.5q0 -227 -49.5 -369.5t-165 -214t-312.5 -71.5q-252 0 -373.5 147t-121.5 457zM289 625q0 -180 30.5 -283.5t106.5 -152t211 -48.5q72 0 141.5 10.5t108.5 26.5q72 190 71 420 q0 180 -30.5 283.5t-105 151.5t-212.5 48q-72 0 -142.5 -10t-109.5 -27q-70 -178 -69 -419z" />
<glyph unicode="1" horiz-adv-x="743" d="M82 1085l311 156q45 0 107.5 -37t62.5 -67v-1137h-176v1040l-18 13l-240 -86z" />
<glyph unicode="2" horiz-adv-x="1124" d="M109 0v207l38 26q219 150 344 246t207 199.5t82 208.5q0 113 -53 155.5t-174 42.5q-123 0 -229 -34v-193h-140q-35 94 -34 186v107q190 90 413 90q207 0 300 -85t93 -259q0 -145 -84 -266t-206.5 -217.5t-343.5 -241.5v-18h507v131h144q33 -82 33 -174v-111h-897z" />
<glyph unicode="3" horiz-adv-x="1050" d="M94 31l29 153q156 -49 356 -49q127 0 230 21q43 68 43 168q0 109 -59.5 157.5t-213.5 48.5h-192v152h192q127 0 192.5 51t65.5 148q0 207 -235 206q-113 0 -230 -24v-172h-139q-35 96 -35 186v84q203 80 416 80q199 0 295 -89t96 -251q0 -111 -46 -176.5t-142 -108.5v-12 q113 -41 158 -104.5t45 -175.5q0 -168 -103.5 -256t-339.5 -88q-201 0 -383 51z" />
<glyph unicode="4" horiz-adv-x="1140" d="M74 383l579 858h226v-862h176v-154h-176v-225h-166v225h-594zM264 395l4 -16h445v391l14 291h-16z" />
<glyph unicode="5" horiz-adv-x="1054" d="M111 35l22 158q197 -55 371 -56q135 0 237 29q20 51 29.5 98t9.5 115q0 127 -56 178t-179 51q-78 0 -134.5 -12t-136.5 -43l-133 104l43 584h686v-156h-524l-27 -360q131 41 240 41q195 0 296 -89t101 -284q0 -205 -110.5 -309t-353.5 -104q-101 0 -191 13t-190 42z" />
<glyph unicode="6" horiz-adv-x="1044" d="M111 475q0 244 113.5 426t348.5 340l152 -80q-190 -121 -290.5 -237.5t-133.5 -259.5q143 88 301 88q188 0 280.5 -95.5t92.5 -277.5q0 -162 -102.5 -270.5t-317.5 -108.5q-225 0 -334.5 126t-109.5 349zM283 475q0 -170 65.5 -244.5t216.5 -74.5q111 -1 197 24 q39 90 39 199q0 82 -17.5 128t-66.5 68.5t-142 22.5q-150 0 -292 -76v-47z" />
<glyph unicode="7" horiz-adv-x="1083" d="M98 1102v139h893v-182q-178 -279 -288.5 -527.5t-170.5 -531.5l-182 20q70 319 183.5 570.5t273.5 480.5v14h-535v-170h-139q-35 88 -35 187z" />
<glyph unicode="8" horiz-adv-x="1136" d="M123 340q0 82 20.5 133t51 82t90.5 78v16q-68 49 -99.5 100.5t-31.5 135.5q0 164 115.5 260t332.5 96q197 0 293 -93t96 -263q0 -94 -34.5 -155.5t-106.5 -106.5v-17q90 -55 127 -115.5t37 -160.5q0 -348 -457 -348q-209 0 -321.5 94t-112.5 264zM293 344 q0 -88 31.5 -133t97 -61.5t182.5 -16.5q135 0 217 35q23 61 23 131q0 106 -24.5 159.5t-85 75t-177.5 21.5q-145 0 -231 -27q-18 -49 -25.5 -89t-7.5 -95zM322 897q0 -123 64.5 -165t215.5 -42q129 0 197 23q25 68 24 145q0 100 -21.5 148.5t-76.5 66t-168 17.5 q-127 0 -207 -29q-16 -45 -22 -81t-6 -83z" />
<glyph unicode="9" horiz-adv-x="1052" d="M70 803q0 119 47 218t146 159.5t247 60.5q217 0 324.5 -136t107.5 -370q0 -172 -48 -299t-147.5 -229.5t-267.5 -206.5l-151 80q170 111 266 210t137 210q-135 -82 -276 -82q-176 0 -280.5 103.5t-104.5 281.5zM244 803q0 -117 56 -174.5t181 -57.5q166 0 285 74 q4 57 4 90q0 350 -283 350q-123 0 -198 -24q-23 -70 -34 -129.5t-11 -128.5z" />
<glyph unicode=":" horiz-adv-x="503" d="M154 0v205h196v-205h-196zM154 686v205h196v-205h-196z" />
<glyph unicode=";" horiz-adv-x="544" d="M154 160v114q49 18 102 19q70 0 102.5 -37t32.5 -111q0 -61 -26.5 -127.5t-71.5 -119.5l-100 22q70 129 69 240h-108zM160 686v205h196v-205h-196z" />
<glyph unicode="&#x3c;" horiz-adv-x="1146" d="M113 430v160l837 375l43 -146l-723 -303v-12l723 -303l-43 -146z" />
<glyph unicode="=" horiz-adv-x="1146" d="M143 225v146h861v-146h-861zM143 635v143h861v-143h-861z" />
<glyph unicode="&#x3e;" horiz-adv-x="1146" d="M154 201l723 303v12l-723 303l43 146l837 -375v-160l-837 -375z" />
<glyph unicode="?" horiz-adv-x="1071" d="M123 1112v76q53 37 172 66.5t240 29.5q406 0 405 -336q0 -98 -26.5 -161.5t-100.5 -116.5l-221 -160q-18 -14 -24.5 -31.5t-6.5 -52.5v-111h-172v136q0 45 10.5 72.5t36.5 47.5l332 250v133q0 94 -57.5 134t-180.5 40q-152 0 -243 -28v-154h-135q-29 82 -29 166zM387 0 v184h176v-184h-176z" />
<glyph unicode="@" horiz-adv-x="1597" d="M133 555q0 186 78 343t234.5 251t381.5 94q201 0 346.5 -76.5t221 -210t75.5 -299.5q0 -180 -79.5 -306t-249.5 -126q-66 0 -113 23.5t-88 75.5h-12q-43 -47 -92.5 -71t-114.5 -24q-106 0 -166.5 71t-60.5 185q0 96 31.5 187.5t98 151t164.5 59.5q59 0 96.5 -21.5 t67.5 -60.5h9l28 57l125 -18l-86 -459q53 -33 137 -33q74 0 113 10q51 113 51 293q0 213 -128 340t-374 127q-178 0 -303 -74.5t-187.5 -202.5t-62.5 -286q0 -551 578 -551q141 0 242.5 28.5t195.5 82.5l51 -109q-80 -57 -218 -92t-277 -35q-352 0 -532.5 176t-180.5 500z M649 489q0 -68 24.5 -102.5t80.5 -34.5q41 0 69.5 9.5t53.5 31.5l51 303q-23 33 -47.5 48.5t-57.5 15.5q-80 0 -127 -78t-47 -193z" />
<glyph unicode="A" horiz-adv-x="1243" d="M72 14q84 315 191.5 651t207.5 597h301q100 -260 207.5 -596t191.5 -652l-186 -14q-57 227 -108 410h-512q-61 -213 -107 -410zM410 563h421q-106 360 -167 533h-84q-74 -209 -170 -533z" />
<glyph unicode="B" horiz-adv-x="1116" d="M154 0v1233q170 49 340 49q238 0 353.5 -86t115.5 -272q0 -92 -40 -160t-124 -115v-12q225 -70 225 -281q0 -121 -47 -198.5t-162 -117.5t-313 -40h-348zM326 156h151q147 0 227 18.5t114 60t34 115.5q0 203 -252 203h-274v-397zM326 707h370q94 84 95 215 q0 115 -71 159.5t-228 44.5q-84 0 -166 -16v-403z" />
<glyph unicode="C" horiz-adv-x="1161" d="M111 592q0 315 133 502.5t395 187.5q111 0 225.5 -24.5t165.5 -59.5v-115q0 -78 -26 -141h-121l-21 162q-92 18 -225 18q-119 0 -244 -26q-51 -94 -79.5 -223.5t-28.5 -268.5q0 -246 86 -353.5t288 -107.5q96 0 189.5 23.5t146.5 63.5l80 -130q-66 -55 -177.5 -85.5 t-242.5 -30.5q-278 0 -411 153.5t-133 454.5z" />
<glyph unicode="D" horiz-adv-x="1198" d="M154 0v1241q168 41 362 41q317 0 452.5 -164t135.5 -473q0 -219 -52.5 -357t-195.5 -213t-410 -75h-292zM328 160h121q252 0 409 45q33 72 52.5 184.5t19.5 237.5q0 174 -37 281.5t-128 161.5t-257 54q-86 0 -180 -12v-952z" />
<glyph unicode="E" horiz-adv-x="1103" d="M154 190v1072h804v-158h-632v-397h573v-154h-573v-391q123 -20 268 -21q195 0 348 37l39 -151q-145 -43 -393 -43q-205 0 -319.5 46t-114.5 160z" />
<glyph unicode="F" horiz-adv-x="1056" d="M154 0v1262h821v-158h-647v-397h542v-154h-542v-553h-174z" />
<glyph unicode="G" horiz-adv-x="1224" d="M111 592q0 328 141 509t426 181q125 0 238.5 -24.5t166.5 -59.5v-115q0 -78 -26 -141h-121l-21 162q-35 8 -103.5 13t-135.5 5q-154 0 -268 -24q-55 -98 -89 -229.5t-34 -264.5q0 -240 99 -350.5t306 -110.5q145 0 244 25v358h-295v154h383l84 -70v-336 q0 -84 -57.5 -150.5t-159 -103t-225.5 -36.5q-267 0 -410 155.5t-143 452.5z" />
<glyph unicode="H" horiz-adv-x="1228" d="M154 0v1262h174v-570h573v570h174v-1262h-174v532h-573v-532h-174z" />
<glyph unicode="I" horiz-adv-x="493" d="M160 0v1262h174v-1262h-174z" />
<glyph unicode="J" horiz-adv-x="866" d="M61 37l39 149q125 -47 252 -47q113 0 178 37q14 43 15 113v973h172v-981q0 -141 -100.5 -219t-266.5 -78q-76 0 -153.5 14t-135.5 39z" />
<glyph unicode="K" horiz-adv-x="1228" d="M154 0v1262h174v-527h153q100 0 153.5 37t82.5 105l170 397l168 -66l-170 -379q-29 -66 -67 -105.5t-107 -61.5v-13q72 -20 108.5 -55t67.5 -105l172 -370l102 -19v-98q-57 -18 -135 -18q-55 0 -90 20.5t-55 67.5l-152 346q-37 84 -87 122t-150 38h-164v-578h-174z" />
<glyph unicode="L" horiz-adv-x="935" d="M154 0v1262h174v-1102h559v-160h-733z" />
<glyph unicode="M" horiz-adv-x="1421" d="M139 0l49 1262h195l319 -713h17l319 713h195l49 -1262h-176l-25 651v305l-16 5l-285 -590h-139l-285 590l-16 -5v-305l-25 -651h-176z" />
<glyph unicode="N" horiz-adv-x="1280" d="M154 0v1262h196l604 -998l17 4l-21 322v672h176v-1262h-196l-604 997l-17 -4l21 -321v-672h-176z" />
<glyph unicode="O" horiz-adv-x="1271" d="M106 606q0 346 126 511t419 165q262 0 388 -156.5t126 -468.5q0 -346 -126 -509.5t-418 -163.5q-252 0 -383.5 157.5t-131.5 464.5zM281 645q0 -264 84 -383t284 -119q70 0 137.5 10.5t106.5 26.5q98 217 98 438q0 266 -83 385t-285 119q-72 0 -143.5 -10t-110.5 -27 q-88 -190 -88 -440z" />
<glyph unicode="P" horiz-adv-x="1079" d="M154 0v1229q184 53 354 53q244 0 375 -106.5t131 -319.5q0 -231 -130 -342t-409 -111h-147v-403h-174zM328 559h127q215 0 315 27q68 92 68 264q0 147 -87 210.5t-245 63.5q-113 0 -178 -16v-549z" />
<glyph unicode="Q" horiz-adv-x="1275" d="M106 616q0 346 126 506t419 160q262 0 388 -151.5t126 -462.5q0 -340 -120.5 -501t-403.5 -165h-18v-135q59 -12 155 -12q178 0 297 26l31 -129q-113 -33 -326 -33q-82 0 -184 14.5t-143 35.5v104l41 139q-190 35 -289 186.5t-99 417.5zM281 655q0 -176 35.5 -283.5 t115.5 -158.5t217 -51q70 0 137.5 10t106.5 27q98 217 98 430q0 176 -35.5 283.5t-115.5 158.5t-217 51q-72 0 -143.5 -10t-110.5 -27q-41 -88 -64.5 -198.5t-23.5 -231.5z" />
<glyph unicode="R" horiz-adv-x="1200" d="M154 0v1229q184 53 354 53q238 0 355.5 -90t117.5 -285q0 -242 -203 -340v-18q43 -20 71 -51t50 -78l139 -301l103 -19v-98q-57 -18 -135 -18q-56 0 -90.5 20.5t-55.5 67.5l-119 276q-27 61 -48 92t-60 48.5t-109 17.5h-196v-506h-174zM328 662h346q68 39 99.5 93 t31.5 146q0 125 -70.5 174t-228.5 49q-113 0 -178 -16v-446z" />
<glyph unicode="S" horiz-adv-x="1060" d="M102 84l60 152q166 -86 373 -86q125 0 221 22q24 63 24 147v7q0 92 -55 140t-199 83q-190 45 -293.5 123t-103.5 237q0 160 99.5 266.5t324.5 106.5q125 0 206 -21.5t152 -64.5v-74q0 -88 -34 -184h-125l-27 174q-100 14 -182 14q-131 0 -185.5 -48t-54.5 -154 q0 -59 23.5 -97.5t81 -64t163.5 -49.5q201 -45 292 -123t91 -228q0 -166 -101 -272t-335 -106q-230 0 -416 100z" />
<glyph unicode="T" horiz-adv-x="1132" d="M74 1102v160h985v-160h-406v-1102h-174v1102h-405z" />
<glyph unicode="U" horiz-adv-x="1247" d="M150 356v906h174v-875q0 -139 67.5 -191.5t226.5 -52.5q98 0 179.5 12.5t126.5 32.5v1074h174v-1000q0 -152 -131 -215t-363 -63q-223 0 -338.5 93t-115.5 279z" />
<glyph unicode="V" horiz-adv-x="1210" d="M70 1264l186 14q68 -291 164 -609.5t174 -502.5h22q78 184 174.5 502.5t163.5 609.5l187 -14q-80 -324 -191.5 -668t-224.5 -596h-240q-112 252 -223.5 596t-191.5 668z" />
<glyph unicode="W" horiz-adv-x="1705" d="M74 1247l188 19q51 -291 105.5 -529.5t124.5 -519.5h16l139 418l133 405q-23 90 -43 193l174 18q51 -240 104.5 -430t131.5 -452l45 -152h22q70 281 124.5 519.5t105.5 529.5l188 -19q-70 -313 -146.5 -606t-176.5 -641h-213l-41 123q-123 367 -193 610h-28 q-20 -61 -37 -112.5t-31 -94.5q-129 -387 -180 -526h-191q-200 696 -321 1247z" />
<glyph unicode="X" horiz-adv-x="1265" d="M86 25q135 246 385 596q-236 350 -377 614l191 37q127 -250 327 -565h35q115 162 198 289.5t159 275.5l176 -35q-123 -229 -389 -598q238 -362 364 -614l-184 -41q-68 139 -141.5 266t-182.5 303h-35l-30 -45q-113 -168 -183.5 -280.5t-136.5 -243.5z" />
<glyph unicode="Y" horiz-adv-x="1259" d="M57 1229l174 43q80 -199 176.5 -382t190.5 -321h64q94 137 190 320.5t176 382.5l174 -43q-102 -242 -201.5 -424t-240.5 -373h-43v-432h-174v432h-43q-141 190 -240.5 372.5t-202.5 424.5z" />
<glyph unicode="Z" horiz-adv-x="1153" d="M102 0v168l709 911v27h-502v-131h-151q-35 96 -35 186v101h903v-168l-711 -908v-32h553v133h152q35 -96 35 -187v-100h-953z" />
<glyph unicode="[" horiz-adv-x="595" d="M154 -174v1622h295v-148h-127v-1327h127v-147h-295z" />
<glyph unicode="\" horiz-adv-x="878" d="M119 1268l143 35l498 -1307l-144 -37z" />
<glyph unicode="]" horiz-adv-x="595" d="M147 -27h127v1327h-127v148h295v-1622h-295v147z" />
<glyph unicode="^" horiz-adv-x="1177" d="M139 612l375 650h152l372 -650l-135 -59l-307 551h-12l-308 -551z" />
<glyph unicode="_" horiz-adv-x="1167" d="M123 0h921v-113h-921v113z" />
<glyph unicode="`" horiz-adv-x="661" d="M51 1827l217 22l170 -297l-131 -20z" />
<glyph unicode="a" horiz-adv-x="970" d="M82 231q0 156 118.5 232t327.5 76q68 0 136 -7v127q0 111 -45.5 151t-159.5 40q-70 0 -135 -8l-21 -154h-125q-27 72 -26 137v52q61 39 166.5 70.5t193.5 31.5q154 0 236.5 -79t82.5 -222v-678h-149l-8 135h-17q-51 -72 -127.5 -111.5t-162.5 -39.5q-140 0 -212.5 66.5 t-72.5 180.5zM258 250q0 -74 34 -104.5t97 -30.5q84 0 158 39t121 110v152q-72 16 -189 16q-129 0 -188 -16q-18 -45 -25.5 -81t-7.5 -85z" />
<glyph unicode="b" horiz-adv-x="1085" d="M152 37v1337h167v-416l-6 -133h13q63 66 142 110t161 44q188 0 271 -132t83 -341q0 -254 -124 -388t-359 -134q-164 0 -348 53zM319 147q33 -8 86.5 -14t98.5 -6q108 0 173.5 35t97.5 115.5t32 222.5q0 176 -52.5 256t-176.5 80q-72 0 -139.5 -36t-119.5 -104v-549z" />
<glyph unicode="c" horiz-adv-x="923" d="M96 455q0 244 106.5 384t315.5 140q88 0 169 -23.5t132 -60.5v-74q0 -90 -26 -162h-121l-17 152q-66 18 -147 18q-55 0 -110.5 -7t-88.5 -19q-20 -53 -34.5 -154.5t-14.5 -193.5q0 -164 62.5 -243t218.5 -79q152 0 254 88l75 -117q-70 -59 -148.5 -89.5t-184.5 -30.5 q-244 0 -342.5 123.5t-98.5 347.5z" />
<glyph unicode="d" horiz-adv-x="1085" d="M102 481q0 213 84 355.5t271 142.5q86 0 165.5 -36t137.5 -95h12l-6 133v393h168v-1374h-150l-8 131h-16q-53 -68 -122 -107.5t-167 -39.5q-197 0 -283 127t-86 370zM279 475q0 -127 20 -201.5t72.5 -110.5t148.5 -36q88 0 150.5 46t95.5 112v434q-104 117 -258 117 q-123 0 -176 -90.5t-53 -270.5z" />
<glyph unicode="e" horiz-adv-x="999" d="M102 473q0 238 114 372t325 134q180 0 269 -103.5t89 -283.5q0 -41 -2 -62l-123 -120l-510 8q4 -143 74 -218t205 -75q92 0 158.5 23.5t136.5 70.5l53 -129q-82 -51 -162 -78.5t-197 -27.5q-430 0 -430 489zM262 537l471 8q12 55 12 100q0 90 -53 141.5t-162 51.5 q-147 0 -205.5 -71t-62.5 -230z" />
<glyph unicode="f" horiz-adv-x="702" d="M61 827l21 136h111v167q0 74 53 138.5t116 97.5q63 14 136 14q104 0 198 -49l-45 -139q-47 20 -81.5 29.5t-77.5 9.5q-72 0 -121 -19q-14 -41 -15 -112v-137h238l-21 -136h-217v-827h-163v827h-132z" />
<glyph unicode="g" horiz-adv-x="1052" d="M102 455q0 252 80 388t287 136q188 0 270 -166h15l12 150h143v-1061q0 -150 -107.5 -227.5t-289.5 -77.5q-100 0 -194.5 23.5t-153.5 60.5l47 129q59 -31 136 -49.5t149 -18.5q82 0 140 11t112 36v236l6 135h-17q-59 -68 -134 -110t-159 -42q-184 0 -263 128t-79 319z M274 475q0 -170 51.5 -247.5t161.5 -77.5q72 0 137.5 35.5t116.5 103.5v411q-106 139 -252 140q-127 0 -171 -88t-44 -277z" />
<glyph unicode="h" horiz-adv-x="1077" d="M152 0v1374h167v-416l-6 -143h13q66 78 145.5 121t185.5 43q143 0 210 -62.5t67 -211.5v-705h-168v813q-63 18 -137 18q-106 0 -180 -32.5t-130 -98.5v-700h-167z" />
<glyph unicode="i" horiz-adv-x="475" d="M150 1135v204h176v-204h-176zM156 0v963h163v-963h-163z" />
<glyph unicode="j" horiz-adv-x="561" d="M-70 -373l39 144q49 -16 84 -21.5t80 -5.5q55 0 100 14q14 41 15 117v1088h164v-1096q0 -129 -76 -201t-205 -72q-109 0 -201 33zM242 1135v204h176v-204h-176z" />
<glyph unicode="k" horiz-adv-x="1038" d="M143 0v1374h164v-807h84q96 0 145.5 41t81.5 115l109 256l162 -59l-105 -244q-27 -63 -66.5 -104.5t-111.5 -63.5v-12q72 -20 110 -55t68 -105l103 -234l80 -18v-84q-59 -16 -113 -16q-49 0 -79 17t-48 58l-88 205q-39 88 -89 131t-149 43h-94v-438h-164z" />
<glyph unicode="l" horiz-adv-x="579" d="M156 174v1200h163v-1179q0 -49 9 -70h26l117 59l72 -92q-31 -43 -87.5 -74.5t-115.5 -33.5q-29 8 -74 41.5t-77.5 75.5t-32.5 73z" />
<glyph unicode="m" horiz-adv-x="1662" d="M152 0v963h141l16 -140h17q63 72 144 114t171 42q115 0 178.5 -33t85.5 -123h17q61 72 145 114t174 42q96 0 155.5 -21.5t91.5 -82t32 -170.5v-705h-168v813q-63 18 -140 18q-184 0 -292 -118v-713h-168v813q-63 18 -140 18q-182 0 -293 -122v-709h-167z" />
<glyph unicode="n" horiz-adv-x="1077" d="M152 0v963h145l12 -148h17q66 78 145.5 121t185.5 43q143 0 210 -62.5t67 -211.5v-705h-168v813q-63 18 -137 18q-106 0 -180 -32.5t-130 -98.5v-700h-167z" />
<glyph unicode="o" horiz-adv-x="1058" d="M102 473q0 510 451 510q403 0 403 -510q0 -244 -106.5 -366.5t-343.5 -122.5q-217 0 -310.5 127t-93.5 362zM268 502q0 -143 20.5 -221t82 -116t182.5 -38q112 0 192 35q45 94 46 278q0 145 -21.5 228.5t-82 124.5t-181.5 41q-117 0 -193 -33q-45 -96 -45 -299z" />
<glyph unicode="p" horiz-adv-x="1085" d="M152 -383v1346h149l8 -132h17q127 147 299 148q190 0 274 -127t84 -371q0 -213 -84 -355t-270 -142q-86 0 -166 35.5t-137 95.5h-13l6 -133v-365h-167zM319 244q104 -117 259 -117q122 0 175.5 90t53.5 270q0 127 -20.5 202t-72.5 111t-149 36q-88 0 -150.5 -46.5 t-95.5 -111.5v-434z" />
<glyph unicode="q" horiz-adv-x="1085" d="M102 459q0 254 124 388t360 134q154 0 338 -53v-1311h-168v389l6 125h-12q-63 -72 -131 -109.5t-162 -37.5q-188 0 -271.5 133t-83.5 342zM279 465q0 -176 53 -257t176 -81q139 0 248 141v549q-82 20 -174 21q-109 0 -174.5 -35t-97 -116t-31.5 -222z" />
<glyph unicode="r" horiz-adv-x="765" d="M152 0v958h141l12 -188h21q43 92 131 146.5t174 54.5q16 0 40.5 -17.5t33.5 -31.5l-19 -138h-94q-102 0 -176 -45t-97 -135v-604h-167z" />
<glyph unicode="s" horiz-adv-x="880" d="M90 63l49 134q133 -76 299 -76q94 0 170 16q18 49 19 109q0 53 -12.5 79.5t-53.5 46t-129 38.5q-168 35 -253 96t-85 186q0 76 39 141.5t120 105.5t200 40q174 0 290 -66v-63q0 -74 -26 -141h-121l-16 133q-66 8 -136 8q-104 0 -147 -28.5t-43 -102.5q0 -66 44 -103.5 t169 -64.5q117 -25 183.5 -54.5t101 -82t34.5 -140.5q0 -123 -89 -206.5t-271 -83.5h-5q-194 0 -331 79z" />
<glyph unicode="t" horiz-adv-x="780" d="M41 827l20 136h152v258h160v-258h323l-20 -136h-303v-589q0 -43 18 -86q49 -18 101 -19q33 0 85 12.5t97 30.5l45 -137q-41 -20 -98.5 -37.5t-102.5 -17.5q-75 0 -143 18q-68 35 -115 86t-47 119v620h-172z" />
<glyph unicode="u" horiz-adv-x="1064" d="M139 258v705h168v-813q63 -18 135 -19q190 0 303 131v701h168v-963h-145l-12 147h-17q-70 -78 -147.5 -120.5t-177.5 -42.5q-144 0 -209.5 62.5t-65.5 211.5z" />
<glyph unicode="v" horiz-adv-x="958" d="M53 956l166 15q135 -518 254 -813h14q125 322 258 813l160 -15q-139 -494 -336 -956h-188q-102 229 -179 458.5t-149 497.5z" />
<glyph unicode="w" horiz-adv-x="1460" d="M76 956l164 15q72 -311 114.5 -485.5t91.5 -319.5h13q133 330 209 600q-14 59 -39 178l151 14q100 -477 219 -804h13q102 276 241 821l158 -19q-82 -297 -152.5 -521t-152.5 -435h-197q-92 227 -176 526h-8q-39 -117 -90 -257t-70 -189l-30 -80h-179q-165 454 -280 956z " />
<glyph unicode="x" horiz-adv-x="995" d="M57 14q98 182 295 459q-186 281 -289 471l175 29q104 -207 243 -424h29q88 125 148.5 219t115.5 205l164 -27q-98 -180 -299 -459q188 -293 281 -473l-170 -30q-51 104 -105.5 199.5t-136.5 228.5h-27q-94 -139 -150.5 -230.5t-109.5 -197.5z" />
<glyph unicode="y" horiz-adv-x="1015" d="M61 958l166 15q106 -430 250 -787h80q113 348 215 787l170 -15q-84 -346 -181 -654t-194 -533q-33 -78 -115.5 -126t-162.5 -48h-5q-99 0 -175 38v64q0 66 20 129h121v-90q29 -6 72 -6q20 0 73 8q51 121 115 303h-131q-113 270 -186.5 479t-131.5 436z" />
<glyph unicode="z" horiz-adv-x="919" d="M94 0v147l522 664v20h-340l-16 -124h-121q-27 72 -26 141v115h692v-148l-524 -659v-25h385l16 125h121q27 -72 26 -141v-115h-735z" />
<glyph unicode="{" horiz-adv-x="854" d="M123 584v127q254 0 242 245l-9 142q-2 20 -2 57q0 201 92.5 285t305.5 84v-150q-162 0 -222 -24q-14 -51 -14 -160q0 -61 2 -96l8 -164q12 -221 -188 -279v-8q201 -57 188 -278l-8 -185q-2 -35 -2 -96q0 -109 14 -160q59 -25 222 -24v-150q-213 0 -305.5 84t-92.5 285 q0 37 2 57l9 162q12 246 -242 246z" />
<glyph unicode="|" horiz-adv-x="489" d="M168 -287v1569h154v-1569h-154z" />
<glyph unicode="}" horiz-adv-x="854" d="M102 -100q162 0 222 24q14 51 14 160q0 61 -2 96l-8 185q-12 221 188 278v8q-201 57 -188 279l8 164q2 35 2 96q0 109 -14 160q-59 25 -222 24v150q213 0 305.5 -84t92.5 -285q0 -37 -2 -57l-9 -142q-12 -246 242 -245v-127q-254 0 -242 -246l9 -162q2 -20 2 -57 q0 -201 -92.5 -285t-305.5 -84v150z" />
<glyph unicode="~" horiz-adv-x="925" d="M102 473q16 236 209 236q51 0 90 -14.5t86 -41.5q39 -20 61.5 -29.5t49.5 -9.5q39 0 63.5 28t28.5 81l133 -21q-16 -236 -209 -235q-55 0 -98 15.5t-98 43.5q-25 14 -48.5 24.5t-41.5 10.5q-39 0 -63.5 -27.5t-28.5 -80.5z" />
<glyph unicode="&#xa1;" horiz-adv-x="495" d="M156 0v389l16 531h152l16 -531v-389h-184zM156 1071v191h184v-191h-184z" />
<glyph unicode="&#xa2;" horiz-adv-x="923" d="M102 455q0 221 87 350t266 149v308h137v-308q139 -18 227 -80v-63q0 -70 -26 -141h-121l-21 121q-66 18 -143 18q-55 0 -110.5 -7t-88.5 -20q-20 -51 -31.5 -142t-11.5 -185q0 -166 59.5 -246t215.5 -80q152 0 254 88l75 -117q-59 -51 -124.5 -79.5t-149.5 -36.5v-279 h-145v281q-193 23 -271 144.5t-78 324.5z" />
<glyph unicode="&#xa3;" horiz-adv-x="1132" d="M102 8v111l134 26v363h-132v125h132v252q0 180 101 278.5t312 98.5q106 0 179 -12.5t153 -41.5l-39 -141q-76 20 -138.5 28.5t-148.5 8.5q-72 0 -122 -3t-107 -16q-18 -72 -18 -208v-244h419v-125h-419v-361q129 -10 233 -10q178 0 399 21v-150q-225 -23 -450 -22 q-244 -1 -488 22z" />
<glyph unicode="&#xa4;" horiz-adv-x="1171" d="M129 956l100 97l133 -129q104 70 228 69q123 0 227 -69l133 129l101 -97l-133 -137q35 -55 52 -108.5t17 -114.5t-17.5 -115.5t-51.5 -109.5l131 -133l-99 -97l-133 129q-100 -70 -227 -69q-127 0 -228 69l-133 -129l-98 97l131 133q-35 55 -52 109.5t-17 115.5t17 114.5 t52 108.5zM336 596q0 -117 70.5 -185.5t183.5 -68.5q112 0 183 68.5t71 185.5q0 115 -68.5 186.5t-185.5 71.5t-185.5 -71.5t-68.5 -186.5z" />
<glyph unicode="&#xa5;" horiz-adv-x="1284" d="M74 1229l170 43q143 -324 366 -690h64q223 367 366 690l170 -43q-92 -203 -175 -353.5t-210 -345.5h138v-120h-234v-119h234v-121h-234v-170h-174v170h-233v121h233v119h-233v120h137q-125 188 -209 340t-176 359z" />
<glyph unicode="&#xa6;" horiz-adv-x="489" d="M168 -225v659h154v-659h-154zM168 623v659h154v-659h-154z" />
<glyph unicode="&#xa7;" horiz-adv-x="1136" d="M127 504q0 160 160 252v12q-47 41 -70.5 88t-23.5 109q0 82 41.5 152.5t130 114.5t217.5 44q109 0 183.5 -18.5t133.5 -53.5v-55q0 -78 -29 -154h-129l-24 131q-74 8 -142 9q-115 0 -162.5 -31t-47.5 -111q0 -57 24.5 -91t78.5 -55.5t157 -43.5q133 -31 213 -61.5 t126 -88t46 -151.5q0 -176 -172 -260v-13q63 -63 63 -174q0 -133 -97 -224t-294 -91q-86 0 -154.5 12t-160.5 45l49 133q74 -25 133 -34t143 -9q100 0 189 21q20 70 20 117q0 53 -18.5 80.5t-64.5 46t-148 43.5q-186 43 -278.5 109.5t-92.5 199.5zM301 532q0 -72 48 -111.5 t186 -70.5q152 -35 229 -43q33 37 52.5 76t19.5 88q0 53 -22.5 84t-74 51.5t-151.5 40.5q-133 27 -209 49q-78 -51 -78 -164z" />
<glyph unicode="&#xa8;" horiz-adv-x="757" d="M123 1049q0 43 25.5 66.5t68.5 23.5q45 0 69.5 -23.5t24.5 -66.5q0 -41 -24.5 -64.5t-69.5 -23.5q-43 0 -68.5 23.5t-25.5 64.5zM444 1049q0 43 26 66.5t71 23.5t69.5 -23.5t24.5 -66.5q0 -41 -24.5 -64.5t-69.5 -23.5t-71 23.5t-26 64.5z" />
<glyph unicode="&#xa9;" horiz-adv-x="1507" d="M123 631q0 180 79 323.5t222 225.5t330 82q186 0 329.5 -82t222 -225.5t78.5 -323.5t-78.5 -323.5t-222 -225.5t-329.5 -82q-187 0 -330 82t-222 225.5t-79 323.5zM215 631q0 -162 65.5 -285t187.5 -190.5t286 -67.5t285.5 67.5t187 190.5t65.5 285t-65.5 284.5 t-187 190.5t-285.5 68t-286 -68t-187.5 -190.5t-65.5 -284.5zM432 612q0 178 85 283.5t233 105.5q66 0 134 -14t97 -35v-43q0 -25 -5 -57.5t-11 -48.5h-88l-13 71q-78 10 -121 11q-70 0 -127 -11q-61 -102 -61 -264q0 -133 44 -188t157 -55q59 0 116.5 14t88.5 39l47 -103 q-41 -33 -109 -50t-143 -17q-162 0 -243 93t-81 269z" />
<glyph unicode="&#xaa;" horiz-adv-x="731" d="M88 721q0 115 88 172t240 57q53 0 82 -4v84q0 63 -27 89t-92 26q-66 0 -117 -10l-16 -91h-88q-20 57 -21 103v49q51 29 125 47.5t139 18.5q113 0 175.5 -57.5t62.5 -160.5v-491h-125l-6 90h-12q-74 -100 -199 -100q-98 0 -153.5 48t-55.5 130zM231 743q0 -82 91 -81 q55 0 98 20t84 63v84q-49 8 -125 9q-76 0 -131 -13q-16 -43 -17 -82z" />
<glyph unicode="&#xab;" horiz-adv-x="929" d="M98 514l267 365l124 -60l-221 -299v-12l221 -299l-124 -59zM426 514l266 365l125 -60l-221 -299v-12l221 -299l-125 -59z" />
<glyph unicode="&#xac;" horiz-adv-x="942" d="M102 567v146h738v-420h-154v274h-584z" />
<glyph unicode="&#xad;" horiz-adv-x="782" d="M154 457v151h475v-151h-475z" />
<glyph unicode="&#xae;" horiz-adv-x="1507" d="M123 631q0 180 79 323.5t222 225.5t330 82q186 0 329.5 -82t222 -225.5t78.5 -323.5t-78.5 -323.5t-222 -225.5t-329.5 -82q-187 0 -330 82t-222 225.5t-79 323.5zM215 631q0 -162 65.5 -285t187.5 -190.5t286 -67.5t285.5 67.5t187 190.5t65.5 285t-65.5 284.5 t-187 190.5t-285.5 68t-286 -68t-187.5 -190.5t-65.5 -284.5zM508 279v716q113 33 209 33q276 0 276 -221q0 -141 -121 -203v-8q43 -20 74 -78l78 -166l43 -10v-59q-37 -10 -63 -11q-37 0 -61.5 14.5t-39.5 47.5l-63 145q-23 49 -50.5 69.5t-84.5 20.5h-87v-290h-110z M618 676h62q117 0 159 25.5t42 103.5q0 66 -38 92.5t-128 26.5q-55 0 -97 -9v-239z" />
<glyph unicode="&#xaf;" horiz-adv-x="831" d="M102 1057v143h627v-143h-627z" />
<glyph unicode="&#xb0;" horiz-adv-x="821" d="M92 913q0 168 96.5 258.5t276.5 90.5q322 0 321 -338q0 -168 -96 -258.5t-276 -90.5q-322 0 -322 338zM244 930q0 -92 20.5 -139.5t62.5 -62.5t117 -15q90 0 166 20q25 80 25 174q0 92 -20.5 139.5t-62.5 62.5t-118 15q-90 0 -166 -20q-25 -80 -24 -174z" />
<glyph unicode="&#xb1;" horiz-adv-x="1208" d="M154 627v135h372v358h156v-358h373v-135h-373v-387h-156v387h-372zM174 0v125h881v-125h-881z" />
<glyph unicode="&#xb2;" horiz-adv-x="669" d="M72 684v182q139 86 208.5 134.5t111.5 98.5t42 103q0 51 -22.5 70.5t-79.5 19.5q-51 0 -101 -12v-78h-114q-8 25 -14.5 60.5t-6.5 64.5v45q117 53 248 53q236 0 236 -217q0 -80 -50.5 -146.5t-120 -117.5t-194.5 -129v-10h246v65h121q16 -55 16 -125v-61h-526z" />
<glyph unicode="&#xb3;" horiz-adv-x="626" d="M53 707l17 122q100 -27 213 -26q63 0 114 8q12 35 13 76q0 51 -35 72.5t-107 21.5h-100v123h100q68 0 99.5 26.5t31.5 79.5q0 47 -25.5 68.5t-78.5 21.5q-51 0 -102 -8v-71h-115q-20 51 -21 112v47q113 47 246 47q119 0 180.5 -54t61.5 -148q0 -63 -29 -104.5t-88 -69.5 v-7q68 -27 97.5 -66.5t29.5 -103.5q0 -96 -64.5 -147t-209.5 -51q-124 0 -228 31z" />
<glyph unicode="&#xb4;" horiz-adv-x="661" d="M113 1552l170 297l217 -22l-256 -295z" />
<glyph unicode="&#xb5;" horiz-adv-x="1069" d="M152 -436v1399h167v-809q68 -23 150 -23q98 0 164.5 33t124.5 98v701h168v-963h-146l-12 147h-16q-51 -59 -87 -91.5t-85.5 -52t-116.5 -19.5q-78 0 -127 43h-17v-463h-167z" />
<glyph unicode="&#xb6;" horiz-adv-x="1341" d="M133 877q0 188 105.5 286.5t298.5 98.5h485v-1508h-152v1391h-155v-1391h-150v752h-28q-197 0 -300.5 95t-103.5 276z" />
<glyph unicode="&#xb7;" horiz-adv-x="718" d="M240 551q0 49 35.5 84t84.5 35t85 -35t36 -84q0 -51 -34.5 -85t-86.5 -34q-51 0 -85.5 34t-34.5 85z" />
<glyph unicode="&#xb8;" horiz-adv-x="657" d="M174 -408l35 101q27 -10 65.5 -16.5t67.5 -6.5q55 0 96 8q8 25 8 54q0 61 -92 61q-49 0 -82 -16l-88 88l131 158l115 -23l-86 -121q31 14 80 15q162 0 162 -156q0 -90 -55.5 -135t-174.5 -45q-108 -1 -182 34z" />
<glyph unicode="&#xb9;" horiz-adv-x="466" d="M47 1323l182 102q39 -2 89.5 -24.5t50.5 -46.5v-674h-146v586l-12 8l-127 -45z" />
<glyph unicode="&#xba;" horiz-adv-x="768" d="M86 897q0 176 76 265t246 89q139 0 206.5 -95t67.5 -259q0 -176 -76 -265t-246 -89q-139 0 -206.5 95t-67.5 259zM229 918q0 -96 13.5 -150.5t47.5 -78t99 -23.5q68 0 123 18q27 66 27 193q0 96 -13.5 150t-47.5 77.5t-99 23.5q-68 0 -123 -18q-27 -66 -27 -192z" />
<glyph unicode="&#xbb;" horiz-adv-x="929" d="M113 209l221 299v12l-221 299l125 60l266 -365l-266 -364zM440 209l222 299v12l-222 299l125 60l266 -365l-266 -364z" />
<glyph unicode="&#xbc;" horiz-adv-x="1617" d="M113 1167l182 103q39 -2 89 -24.5t50 -47.5v-674h-155v576l-11 8l-118 -45zM317 27l781 1249l131 -35l-780 -1251zM907 242l342 489h156v-487h96v-121h-96v-123h-148v123h-301zM1073 254l4 -10h185v71q0 115 18 256h-10z" />
<glyph unicode="&#xbd;" horiz-adv-x="1617" d="M113 1167l182 103q39 -2 89 -24.5t50 -47.5v-674h-155v576l-11 8l-118 -45zM317 27l781 1249l131 -35l-780 -1251zM1055 0v182q139 86 208.5 134.5t111.5 98.5t42 103q0 51 -22.5 70.5t-79.5 19.5q-51 0 -101 -12v-78h-114q-8 25 -14.5 60.5t-6.5 64.5v45q117 53 248 53 q236 0 236 -217q0 -80 -50.5 -146.5t-120 -117.5t-194.5 -129v-10h246v65h121q16 -55 16 -125v-61h-526z" />
<glyph unicode="&#xbe;" horiz-adv-x="1669" d="M119 541l16 123q100 -27 213 -27q63 0 115 8q12 35 12 76q0 51 -34.5 72.5t-106.5 21.5h-101v123h101q68 0 99.5 26.5t31.5 79.5q0 47 -25.5 69t-79.5 22q-51 0 -102 -9v-71h-115q-20 51 -20 112v47q113 47 246 48q119 0 180 -54.5t61 -148.5q0 -63 -28.5 -104.5 t-87.5 -69.5v-6q68 -27 97.5 -67t29.5 -103q0 -96 -64.5 -147.5t-210.5 -51.5q-123 0 -227 31zM426 27l780 1249l131 -35l-780 -1251zM958 242l342 489h156v-487h96v-121h-96v-123h-147v123h-301zM1124 254l4 -10h185v71q0 115 18 256h-10z" />
<glyph unicode="&#xbf;" horiz-adv-x="1071" d="M123 111q0 98 26.5 161.5t100.5 116.5l221 160q18 14 24.5 31.5t6.5 52.5v110h172v-135q0 -45 -10.5 -72.5t-36.5 -48.5l-332 -249v-134q0 -94 57.5 -134t179.5 -40q152 0 244 29v154h135q23 -74 29 -166v-76q-53 -37 -172 -66.5t-240 -29.5q-405 0 -405 336zM500 874 v185h176v-185h-176z" />
<glyph unicode="&#xc0;" horiz-adv-x="1243" d="M72 14q84 315 191.5 651t207.5 597h301q100 -260 207.5 -596t191.5 -652l-186 -14q-57 227 -108 410h-512q-61 -213 -107 -410zM313 1698l217 22l170 -297l-131 -20zM410 563h421q-106 360 -167 533h-84q-74 -209 -170 -533z" />
<glyph unicode="&#xc1;" horiz-adv-x="1243" d="M72 14q84 315 191.5 651t207.5 597h301q100 -260 207.5 -596t191.5 -652l-186 -14q-57 227 -108 410h-512q-61 -213 -107 -410zM410 563h421q-106 360 -167 533h-84q-74 -209 -170 -533zM551 1425l170 297l217 -22l-256 -295z" />
<glyph unicode="&#xc2;" horiz-adv-x="1243" d="M72 14q84 315 191.5 651t207.5 597h301q100 -260 207.5 -596t191.5 -652l-186 -14q-57 227 -108 410h-512q-61 -213 -107 -410zM340 1425l205 273h153l203 -273l-108 -22l-166 153h-11l-172 -153zM410 563h421q-106 360 -167 533h-84q-74 -209 -170 -533z" />
<glyph unicode="&#xc3;" horiz-adv-x="1243" d="M72 14q84 315 191.5 651t207.5 597h301q100 -260 207.5 -596t191.5 -652l-186 -14q-57 227 -108 410h-512q-61 -213 -107 -410zM311 1444q6 100 47 148t125 48q31 0 61.5 -12t69.5 -35q63 -37 93 -37q72 0 81 93l113 -37q-6 -100 -47 -148.5t-125 -48.5q-35 0 -63.5 12.5 t-65.5 34.5q-31 18 -51.5 27.5t-42.5 9.5q-72 0 -82 -92zM410 563h421q-106 360 -167 533h-84q-74 -209 -170 -533z" />
<glyph unicode="&#xc4;" horiz-adv-x="1243" d="M72 14q84 315 191.5 651t207.5 597h301q100 -260 207.5 -596t191.5 -652l-186 -14q-57 227 -108 410h-512q-61 -213 -107 -410zM365 1503q0 43 25.5 66.5t68.5 23.5q45 0 69.5 -23.5t24.5 -66.5q0 -41 -24.5 -64.5t-69.5 -23.5q-43 0 -68.5 23.5t-25.5 64.5zM410 563h421 q-106 360 -167 533h-84q-74 -209 -170 -533zM686 1503q0 43 25.5 66.5t70.5 23.5t70 -23.5t25 -66.5q0 -41 -25 -64.5t-70 -23.5t-70.5 23.5t-25.5 64.5z" />
<glyph unicode="&#xc5;" horiz-adv-x="1243" d="M72 14q84 315 191.5 651t207.5 597h301q100 -260 207.5 -596t191.5 -652l-186 -14q-57 227 -108 410h-512q-61 -213 -107 -410zM385 1599q0 84 65.5 140.5t182.5 56.5q102 0 162.5 -53t60.5 -146q0 -80 -67.5 -133t-180.5 -53q-104 0 -163.5 49t-59.5 139zM410 563h421 q-106 360 -167 533h-84q-74 -209 -170 -533zM502 1602q0 -41 29.5 -66t78.5 -25q86 1 119 11q10 37 10 73q0 41 -29.5 71t-78.5 30q-80 0 -119 -10q-10 -35 -10 -84z" />
<glyph unicode="&#xc6;" horiz-adv-x="1888" d="M41 53q272 563 641 1209h1061v-158h-633v-397h573v-154h-573v-395q123 -20 268 -21q195 0 348 37l39 -151q-145 -43 -393 -43q-205 0 -319.5 46t-114.5 160v224h-526q-90 -172 -207 -410zM492 563h446v533h-156q-111 -188 -290 -533z" />
<glyph unicode="&#xc7;" horiz-adv-x="1161" d="M111 592q0 315 133 502.5t395 187.5q111 0 225.5 -24.5t165.5 -59.5v-115q0 -78 -26 -141h-121l-21 162q-92 18 -225 18q-119 0 -244 -26q-51 -94 -79.5 -223.5t-28.5 -268.5q0 -246 86 -353.5t288 -107.5q96 0 189.5 23.5t146.5 64.5l80 -131q-55 -45 -140 -73.5 t-187 -38.5q-41 -4 -62 -4l-74 -105q31 14 80 15q162 0 162 -156q0 -90 -55.5 -135t-173.5 -45q-109 -1 -183 34l35 101q27 -10 66 -16.5t67 -6.5q55 0 97 8q8 25 8 54q0 61 -92 61q-49 0 -82 -16l-88 88l102 125q-225 27 -334.5 177t-109.5 425z" />
<glyph unicode="&#xc8;" horiz-adv-x="1103" d="M154 190v1072h804v-158h-632v-397h573v-154h-573v-391q123 -20 268 -21q195 0 348 37l39 -151q-145 -43 -393 -43q-205 0 -319.5 46t-114.5 160zM311 1700l217 22l170 -297l-131 -20z" />
<glyph unicode="&#xc9;" horiz-adv-x="1103" d="M154 190v1072h804v-158h-632v-397h573v-154h-573v-391q123 -20 268 -21q195 0 348 37l39 -151q-145 -43 -393 -43q-205 0 -319.5 46t-114.5 160zM459 1423l170 297l217 -22l-256 -295z" />
<glyph unicode="&#xca;" horiz-adv-x="1103" d="M154 190v1072h804v-158h-632v-397h573v-154h-573v-391q123 -20 268 -21q195 0 348 37l39 -151q-145 -43 -393 -43q-205 0 -319.5 46t-114.5 160zM281 1423l204 273h154l203 -273l-109 -22l-166 153h-10l-172 -153z" />
<glyph unicode="&#xcb;" horiz-adv-x="1103" d="M154 190v1072h804v-158h-632v-397h573v-154h-573v-391q123 -20 268 -21q195 0 348 37l39 -151q-145 -43 -393 -43q-205 0 -319.5 46t-114.5 160zM326 1503q0 43 25.5 66.5t68.5 23.5q45 0 69.5 -23.5t24.5 -66.5q0 -41 -24.5 -64.5t-69.5 -23.5q-43 0 -68.5 23.5 t-25.5 64.5zM647 1503q0 43 25.5 66.5t70.5 23.5t70 -23.5t25 -66.5q0 -41 -25 -64.5t-70 -23.5t-70.5 23.5t-25.5 64.5z" />
<glyph unicode="&#xcc;" horiz-adv-x="495" d="M-51 1700l217 22l170 -297l-131 -20zM160 0v1262h174v-1262h-174z" />
<glyph unicode="&#xcd;" horiz-adv-x="495" d="M160 0v1262h174v-1262h-174zM166 1425l170 297l217 -22l-256 -295z" />
<glyph unicode="&#xce;" horiz-adv-x="495" d="M-33 1425l205 273h154l202 -273l-108 -22l-166 153h-10l-172 -153zM160 0v1262h174v-1262h-174z" />
<glyph unicode="&#xcf;" horiz-adv-x="495" d="M-8 1503q0 43 25.5 66.5t68.5 23.5q45 0 69.5 -23.5t24.5 -66.5q0 -41 -24.5 -64.5t-69.5 -23.5q-43 0 -68.5 23.5t-25.5 64.5zM160 0v1262h174v-1262h-174zM313 1503q0 43 26 66.5t71 23.5t69.5 -23.5t24.5 -66.5q0 -41 -24.5 -64.5t-69.5 -23.5t-71 23.5t-26 64.5z" />
<glyph unicode="&#xd0;" horiz-adv-x="1323" d="M92 594v131h187v516q168 41 362 41q317 0 452.5 -164t135.5 -473q0 -219 -52.5 -357t-195.5 -213t-410 -75h-292v594h-187zM453 160h120q252 0 410 45q33 72 52.5 184.5t19.5 237.5q0 174 -37 281.5t-128 161.5t-257 54q-86 0 -180 -12v-387h213v-131h-213v-434z" />
<glyph unicode="&#xd1;" horiz-adv-x="1280" d="M154 0v1262h196l604 -998l17 4l-21 322v672h176v-1262h-196l-604 997l-17 -4l21 -321v-672h-176zM344 1425q6 100 47 148.5t125 48.5q31 0 61.5 -12.5t69.5 -34.5q63 -37 92 -37q72 0 82 92l113 -37q-6 -100 -47 -148t-125 -48q-35 0 -63.5 12t-65.5 35 q-31 18 -51.5 27.5t-42.5 9.5q-72 0 -82 -92z" />
<glyph unicode="&#xd2;" horiz-adv-x="1271" d="M106 606q0 346 126 511t419 165q262 0 388 -156.5t126 -468.5q0 -346 -126 -509.5t-418 -163.5q-252 0 -383.5 157.5t-131.5 464.5zM281 645q0 -264 84 -383t284 -119q70 0 137.5 10.5t106.5 26.5q98 217 98 438q0 266 -83 385t-285 119q-72 0 -143.5 -10t-110.5 -27 q-88 -190 -88 -440zM365 1700l217 22l170 -297l-131 -20z" />
<glyph unicode="&#xd3;" horiz-adv-x="1271" d="M106 606q0 346 126 511t419 165q262 0 388 -156.5t126 -468.5q0 -346 -126 -509.5t-418 -163.5q-252 0 -383.5 157.5t-131.5 464.5zM281 645q0 -264 84 -383t284 -119q70 0 137.5 10.5t106.5 26.5q98 217 98 438q0 266 -83 385t-285 119q-72 0 -143.5 -10t-110.5 -27 q-88 -190 -88 -440zM557 1423l170 297l217 -22l-256 -295z" />
<glyph unicode="&#xd4;" horiz-adv-x="1271" d="M106 606q0 346 126 511t419 165q262 0 388 -156.5t126 -468.5q0 -346 -126 -509.5t-418 -163.5q-252 0 -383.5 157.5t-131.5 464.5zM281 645q0 -264 84 -383t284 -119q70 0 137.5 10.5t106.5 26.5q98 217 98 438q0 266 -83 385t-285 119q-72 0 -143.5 -10t-110.5 -27 q-88 -190 -88 -440zM365 1423l204 273h154l203 -273l-109 -22l-166 153h-10l-172 -153z" />
<glyph unicode="&#xd5;" horiz-adv-x="1271" d="M106 606q0 346 126 511t419 165q262 0 388 -156.5t126 -468.5q0 -346 -126 -509.5t-418 -163.5q-252 0 -383.5 157.5t-131.5 464.5zM281 645q0 -264 84 -383t284 -119q70 0 137.5 10.5t106.5 26.5q98 217 98 438q0 266 -83 385t-285 119q-72 0 -143.5 -10t-110.5 -27 q-88 -190 -88 -440zM350 1425q6 100 47 148.5t125 48.5q31 0 61.5 -12.5t69.5 -34.5q63 -37 92 -37q72 0 82 92l113 -37q-6 -100 -47 -148t-125 -48q-35 0 -63.5 12t-65.5 35q-31 18 -51.5 27.5t-42.5 9.5q-72 0 -82 -92z" />
<glyph unicode="&#xd6;" horiz-adv-x="1271" d="M106 606q0 346 126 511t419 165q262 0 388 -156.5t126 -468.5q0 -346 -126 -509.5t-418 -163.5q-252 0 -383.5 157.5t-131.5 464.5zM281 645q0 -264 84 -383t284 -119q70 0 137.5 10.5t106.5 26.5q98 217 98 438q0 266 -83 385t-285 119q-72 0 -143.5 -10t-110.5 -27 q-88 -190 -88 -440zM391 1503q0 43 25.5 66.5t68.5 23.5q45 0 70 -23.5t25 -66.5q0 -41 -25 -64.5t-70 -23.5q-43 0 -68.5 23.5t-25.5 64.5zM713 1503q0 43 25.5 66.5t70.5 23.5t69.5 -23.5t24.5 -66.5q0 -41 -24.5 -64.5t-69.5 -23.5t-70.5 23.5t-25.5 64.5z" />
<glyph unicode="&#xd7;" horiz-adv-x="974" d="M102 356l287 275l-287 274l99 92l286 -280l287 280l98 -92l-286 -274l286 -275l-98 -92l-287 281l-286 -281z" />
<glyph unicode="&#xd8;" horiz-adv-x="1271" d="M106 606q0 346 126 511t419 165q104 0 185 -25l65 142l143 -35l-77 -170q199 -145 198 -537q0 -346 -126 -510.5t-418 -164.5q-113 0 -199 30l-76 -166l-143 37l92 199q-188 152 -189 524zM281 645q0 -279 90 -395l393 852q-68 20 -141 20q-72 0 -143.5 -10t-110.5 -27 q-88 -190 -88 -440zM492 166q68 -25 157 -25q70 0 137.5 10.5t106.5 26.5q98 217 98 440q0 150 -24.5 249.5t-77.5 158.5z" />
<glyph unicode="&#xd9;" horiz-adv-x="1247" d="M150 356v906h174v-875q0 -139 67.5 -191.5t226.5 -52.5q98 0 179.5 12.5t126.5 32.5v1074h174v-1000q0 -152 -131 -215t-363 -63q-223 0 -338.5 93t-115.5 279zM340 1700l217 22l170 -297l-131 -20z" />
<glyph unicode="&#xda;" horiz-adv-x="1247" d="M150 356v906h174v-875q0 -139 67.5 -191.5t226.5 -52.5q98 0 179.5 12.5t126.5 32.5v1074h174v-1000q0 -152 -131 -215t-363 -63q-223 0 -338.5 93t-115.5 279zM504 1423l170 297l217 -22l-256 -295z" />
<glyph unicode="&#xdb;" horiz-adv-x="1247" d="M150 356v906h174v-875q0 -139 67.5 -191.5t226.5 -52.5q98 0 179.5 12.5t126.5 32.5v1074h174v-1000q0 -152 -131 -215t-363 -63q-223 0 -338.5 93t-115.5 279zM342 1423l205 273h153l203 -273l-108 -22l-166 153h-11l-172 -153z" />
<glyph unicode="&#xdc;" horiz-adv-x="1247" d="M150 356v906h174v-875q0 -139 67.5 -191.5t226.5 -52.5q98 0 179.5 12.5t126.5 32.5v1074h174v-1000q0 -152 -131 -215t-363 -63q-223 0 -338.5 93t-115.5 279zM373 1503q0 43 25.5 66.5t68.5 23.5q45 0 69.5 -23.5t24.5 -66.5q0 -41 -24.5 -64.5t-69.5 -23.5 q-43 0 -68.5 23.5t-25.5 64.5zM694 1503q0 43 25.5 66.5t71.5 23.5q45 0 69.5 -23.5t24.5 -66.5q0 -41 -24.5 -64.5t-69.5 -23.5q-46 0 -71.5 23.5t-25.5 64.5z" />
<glyph unicode="&#xdd;" horiz-adv-x="1259" d="M57 1229l174 43q80 -199 176.5 -382t190.5 -321h64q94 137 190 320.5t176 382.5l174 -43q-102 -242 -201.5 -424t-240.5 -373h-43v-432h-174v432h-43q-141 190 -240.5 372.5t-202.5 424.5zM535 1423l170 297l217 -22l-256 -295z" />
<glyph unicode="&#xde;" horiz-adv-x="1001" d="M154 0v1262h174v-234h184q188 0 298 -92t110 -270q0 -186 -110 -279.5t-298 -93.5h-184v-293h-174zM328 444h176q131 0 186 53.5t55 168.5q0 117 -56 164t-185 47h-176v-433z" />
<glyph unicode="&#xdf;" horiz-adv-x="1126" d="M147 0v1001q0 180 103.5 269.5t286.5 89.5q174 0 276 -89t102 -243q0 -113 -56 -184.5t-175 -110.5v-12q307 -68 307 -356q0 -190 -100 -286.5t-289 -96.5q-90 -1 -180 28l22 148q33 -10 79 -17.5t85 -7.5q70 0 107 3t71 18q37 74 37 208q0 274 -340 275v151 q262 0 262 232q0 98 -57 142t-170 44t-201 -20v-1186h-170z" />
<glyph unicode="&#xe0;" horiz-adv-x="970" d="M82 231q0 156 118.5 232t327.5 76q68 0 136 -7v127q0 111 -45.5 151t-159.5 40q-70 0 -135 -8l-21 -154h-125q-27 72 -26 137v52q61 39 166.5 70.5t193.5 31.5q154 0 236.5 -79t82.5 -222v-678h-149l-8 135h-17q-51 -72 -127.5 -111.5t-162.5 -39.5q-140 0 -212.5 66.5 t-72.5 180.5zM256 1405l217 22l170 -297l-131 -20zM258 250q0 -74 34 -104.5t97 -30.5q84 0 158 39t121 110v152q-72 16 -189 16q-129 0 -188 -16q-18 -45 -25.5 -81t-7.5 -85z" />
<glyph unicode="&#xe1;" horiz-adv-x="970" d="M82 231q0 156 118.5 232t327.5 76q68 0 136 -7v127q0 111 -45.5 151t-159.5 40q-70 0 -135 -8l-21 -154h-125q-27 72 -26 137v52q61 39 166.5 70.5t193.5 31.5q154 0 236.5 -79t82.5 -222v-678h-149l-8 135h-17q-51 -72 -127.5 -111.5t-162.5 -39.5q-140 0 -212.5 66.5 t-72.5 180.5zM258 250q0 -74 34 -104.5t97 -30.5q84 0 158 39t121 110v152q-72 16 -189 16q-129 0 -188 -16q-18 -45 -25.5 -81t-7.5 -85zM418 1130l170 297l217 -22l-256 -295z" />
<glyph unicode="&#xe2;" horiz-adv-x="970" d="M82 231q0 156 118.5 232t327.5 76q68 0 136 -7v127q0 111 -45.5 151t-159.5 40q-70 0 -135 -8l-21 -154h-125q-27 72 -26 137v52q61 39 166.5 70.5t193.5 31.5q154 0 236.5 -79t82.5 -222v-678h-149l-8 135h-17q-51 -72 -127.5 -111.5t-162.5 -39.5q-140 0 -212.5 66.5 t-72.5 180.5zM205 1128l205 273h153l203 -273l-109 -22l-165 154h-11l-172 -154zM258 250q0 -74 34 -104.5t97 -30.5q84 0 158 39t121 110v152q-72 16 -189 16q-129 0 -188 -16q-18 -45 -25.5 -81t-7.5 -85z" />
<glyph unicode="&#xe3;" horiz-adv-x="970" d="M82 231q0 156 118.5 232t327.5 76q68 0 136 -7v127q0 111 -45.5 151t-159.5 40q-70 0 -135 -8l-21 -154h-125q-27 72 -26 137v52q61 39 166.5 70.5t193.5 31.5q154 0 236.5 -79t82.5 -222v-678h-149l-8 135h-17q-51 -72 -127.5 -111.5t-162.5 -39.5q-140 0 -212.5 66.5 t-72.5 180.5zM199 1149q6 100 47 148.5t125 48.5q31 0 61.5 -12.5t69.5 -35.5q63 -37 92 -36q72 0 82 92l112 -37q-6 -100 -47 -148.5t-125 -48.5q-35 0 -63.5 12.5t-65.5 34.5q-31 18 -51 27.5t-43 9.5q-72 0 -82 -92zM258 250q0 -74 34 -104.5t97 -30.5q84 0 158 39 t121 110v152q-72 16 -189 16q-129 0 -188 -16q-18 -45 -25.5 -81t-7.5 -85z" />
<glyph unicode="&#xe4;" horiz-adv-x="970" d="M82 231q0 156 118.5 232t327.5 76q68 0 136 -7v127q0 111 -45.5 151t-159.5 40q-70 0 -135 -8l-21 -154h-125q-27 72 -26 137v52q61 39 166.5 70.5t193.5 31.5q154 0 236.5 -79t82.5 -222v-678h-149l-8 135h-17q-51 -72 -127.5 -111.5t-162.5 -39.5q-140 0 -212.5 66.5 t-72.5 180.5zM244 1208q0 43 25.5 66.5t68.5 23.5q45 0 69.5 -23.5t24.5 -66.5q0 -41 -24.5 -64.5t-69.5 -23.5q-43 0 -68.5 23.5t-25.5 64.5zM258 250q0 -74 34 -104.5t97 -30.5q84 0 158 39t121 110v152q-72 16 -189 16q-129 0 -188 -16q-18 -45 -25.5 -81t-7.5 -85z M565 1208q0 43 25.5 66.5t71.5 23.5q45 0 69.5 -23.5t24.5 -66.5q0 -41 -24.5 -64.5t-69.5 -23.5q-46 0 -71.5 23.5t-25.5 64.5z" />
<glyph unicode="&#xe5;" horiz-adv-x="970" d="M82 231q0 156 118.5 232t327.5 76q68 0 136 -7v127q0 111 -45.5 151t-159.5 40q-70 0 -135 -8l-21 -154h-125q-27 72 -26 137v52q61 39 166.5 70.5t193.5 31.5q154 0 236.5 -79t82.5 -222v-678h-149l-8 135h-17q-51 -72 -127.5 -111.5t-162.5 -39.5q-140 0 -212.5 66.5 t-72.5 180.5zM258 250q0 -74 34 -104.5t97 -30.5q84 0 158 39t121 110v152q-72 16 -189 16q-129 0 -188 -16q-18 -45 -25.5 -81t-7.5 -85zM281 1309q0 84 65.5 140t181.5 56q102 0 163 -53t61 -145q0 -80 -68 -133.5t-180 -53.5q-105 0 -164 49.5t-59 139.5zM397 1311 q0 -41 30 -65.5t79 -24.5q86 0 119 10q10 37 10 74q0 41 -30 70.5t-79 29.5q-80 0 -118 -10q-10 -35 -11 -84z" />
<glyph unicode="&#xe6;" horiz-adv-x="1572" d="M82 231q0 156 118.5 232t327.5 76q94 0 162 -7v127q0 109 -56 150t-175 41q-70 0 -135 -8l-21 -154h-125q-27 72 -26 137v52q61 39 166.5 70.5t193.5 31.5q100 0 176 -35t115 -100q104 135 311 135q180 0 269.5 -103.5t89.5 -283.5q0 -41 -3 -62l-122 -120l-494 8 q4 -145 65.5 -217t196.5 -72q92 0 158.5 23.5t136.5 70.5l53 -129q-82 -51 -161.5 -78.5t-196.5 -27.5q-246 0 -338 159q-80 -82 -164 -122.5t-221 -40.5q-139 0 -220 67.5t-81 179.5zM258 250q0 -76 37 -105.5t111 -29.5q169 -1 288 114v187q-33 8 -95 12t-120 4 q-129 0 -188 -16q-18 -45 -25.5 -81t-7.5 -85zM852 537l455 8q12 55 12 100q0 90 -53.5 141.5t-161.5 51.5q-98 0 -152.5 -32t-75 -96.5t-24.5 -172.5z" />
<glyph unicode="&#xe7;" horiz-adv-x="923" d="M96 455q0 244 106.5 384t315.5 140q88 0 169 -23.5t132 -60.5v-74q0 -90 -26 -162h-121l-17 152q-66 18 -147 18q-55 0 -110.5 -7t-88.5 -19q-20 -53 -34.5 -154.5t-14.5 -193.5q0 -164 62.5 -243t218.5 -79q152 0 254 88l75 -117q-63 -55 -137 -85.5t-170 -34.5 l-74 -105q31 14 80 15q162 0 162 -156q0 -90 -55 -135t-174 -45q-109 -1 -183 34l35 101q27 -10 66 -16.5t67 -6.5q55 0 97 8q8 25 8 54q0 61 -92 61q-49 0 -82 -16l-88 88l104 127q-186 25 -262 144.5t-76 318.5z" />
<glyph unicode="&#xe8;" horiz-adv-x="999" d="M102 473q0 238 114 372t325 134q180 0 269 -103.5t89 -283.5q0 -41 -2 -62l-123 -120l-510 8q4 -143 74 -218t205 -75q92 0 158.5 23.5t136.5 70.5l53 -129q-82 -51 -162 -78.5t-197 -27.5q-430 0 -430 489zM254 1403l217 22l170 -297l-131 -20zM262 537l471 8 q12 55 12 100q0 90 -53 141.5t-162 51.5q-147 0 -205.5 -71t-62.5 -230z" />
<glyph unicode="&#xe9;" horiz-adv-x="999" d="M102 473q0 238 114 372t325 134q180 0 269 -103.5t89 -283.5q0 -41 -2 -62l-123 -120l-510 8q4 -143 74 -218t205 -75q92 0 158.5 23.5t136.5 70.5l53 -129q-82 -51 -162 -78.5t-197 -27.5q-430 0 -430 489zM262 537l471 8q12 55 12 100q0 90 -53 141.5t-162 51.5 q-147 0 -205.5 -71t-62.5 -230zM430 1128l170 297l217 -22l-256 -295z" />
<glyph unicode="&#xea;" horiz-adv-x="999" d="M102 473q0 238 114 372t325 134q180 0 269 -103.5t89 -283.5q0 -41 -2 -62l-123 -120l-510 8q4 -143 74 -218t205 -75q92 0 158.5 23.5t136.5 70.5l53 -129q-82 -51 -162 -78.5t-197 -27.5q-430 0 -430 489zM254 1128l205 273h153l203 -273l-108 -22l-166 154h-11 l-172 -154zM262 537l471 8q12 55 12 100q0 90 -53 141.5t-162 51.5q-147 0 -205.5 -71t-62.5 -230z" />
<glyph unicode="&#xeb;" horiz-adv-x="999" d="M102 473q0 238 114 372t325 134q180 0 269 -103.5t89 -283.5q0 -41 -2 -62l-123 -120l-510 8q4 -143 74 -218t205 -75q92 0 158.5 23.5t136.5 70.5l53 -129q-82 -51 -162 -78.5t-197 -27.5q-430 0 -430 489zM262 537l471 8q12 55 12 100q0 90 -53 141.5t-162 51.5 q-147 0 -205.5 -71t-62.5 -230zM270 1208q0 43 26 66.5t69 23.5q45 0 69.5 -23.5t24.5 -66.5q0 -41 -24.5 -64.5t-69.5 -23.5q-43 0 -69 23.5t-26 64.5zM592 1208q0 43 25.5 66.5t70.5 23.5t69.5 -23.5t24.5 -66.5q0 -41 -24.5 -64.5t-69.5 -23.5t-70.5 23.5t-25.5 64.5z " />
<glyph unicode="&#xec;" horiz-adv-x="475" d="M-74 1405l217 22l170 -297l-131 -20zM156 0v961h163v-961h-163z" />
<glyph unicode="&#xed;" horiz-adv-x="475" d="M156 0v961h163v-961h-163zM160 1130l170 297l217 -22l-256 -295z" />
<glyph unicode="&#xee;" horiz-adv-x="475" d="M-43 1128l205 273h153l203 -273l-108 -22l-166 154h-11l-172 -154zM156 0v961h163v-961h-163z" />
<glyph unicode="&#xef;" horiz-adv-x="475" d="M-18 1208q0 43 25.5 66.5t68.5 23.5q45 0 69.5 -23.5t24.5 -66.5q0 -41 -24.5 -64.5t-69.5 -23.5q-43 0 -68.5 23.5t-25.5 64.5zM156 0v961h163v-961h-163zM303 1208q0 43 25.5 66.5t70.5 23.5t70 -23.5t25 -66.5q0 -41 -25 -64.5t-70 -23.5t-70.5 23.5t-25.5 64.5z" />
<glyph unicode="&#xf0;" horiz-adv-x="1161" d="M154 371q0 115 51 198.5t139 127.5t197 44q74 0 137 -22.5t110 -67.5h13q-8 186 -101 301l-249 -88l-43 99l208 75q-74 59 -198 111l86 115q158 -70 264 -170l209 77l51 -102l-180 -63q72 -98 102.5 -221t30.5 -277q0 -242 -103.5 -391.5t-340.5 -149.5 q-175 0 -279 107.5t-104 296.5zM319 375q0 -137 59.5 -198.5t186.5 -61.5q115 -1 205 32q18 51 29.5 126t11.5 147q0 63 -4 92q-115 84 -246 84q-242 0 -242 -221z" />
<glyph unicode="&#xf1;" horiz-adv-x="1077" d="M152 0v963h145l12 -148h17q66 78 145.5 121t185.5 43q143 0 210 -62.5t67 -211.5v-705h-168v813q-63 18 -137 18q-106 0 -180 -32.5t-130 -98.5v-700h-167zM254 1149q6 100 47 148.5t125 48.5q31 0 61.5 -12.5t69.5 -35.5q63 -37 92 -36q72 0 82 92l113 -37 q-6 -100 -47 -148.5t-125 -48.5q-35 0 -63.5 12.5t-65.5 34.5q-31 18 -51.5 27.5t-42.5 9.5q-72 0 -82 -92z" />
<glyph unicode="&#xf2;" horiz-adv-x="1058" d="M102 473q0 510 451 510q403 0 403 -510q0 -244 -106.5 -366.5t-343.5 -122.5q-217 0 -310.5 127t-93.5 362zM262 1405l217 22l170 -297l-131 -20zM268 502q0 -143 20.5 -221t82 -116t182.5 -38q112 0 192 35q45 94 46 278q0 145 -21.5 228.5t-82 124.5t-181.5 41 q-117 0 -193 -33q-45 -96 -45 -299z" />
<glyph unicode="&#xf3;" horiz-adv-x="1058" d="M102 473q0 510 451 510q403 0 403 -510q0 -244 -106.5 -366.5t-343.5 -122.5q-217 0 -310.5 127t-93.5 362zM268 502q0 -143 20.5 -221t82 -116t182.5 -38q112 0 192 35q45 94 46 278q0 145 -21.5 228.5t-82 124.5t-181.5 41q-117 0 -193 -33q-45 -96 -45 -299zM449 1128 l169 297l218 -22l-256 -295z" />
<glyph unicode="&#xf4;" horiz-adv-x="1058" d="M102 473q0 510 451 510q403 0 403 -510q0 -244 -106.5 -366.5t-343.5 -122.5q-217 0 -310.5 127t-93.5 362zM248 1128l205 273h153l203 -273l-109 -22l-165 154h-11l-172 -154zM268 502q0 -143 20.5 -221t82 -116t182.5 -38q112 0 192 35q45 94 46 278q0 145 -21.5 228.5 t-82 124.5t-181.5 41q-117 0 -193 -33q-45 -96 -45 -299z" />
<glyph unicode="&#xf5;" horiz-adv-x="1058" d="M102 473q0 510 451 510q403 0 403 -510q0 -244 -106.5 -366.5t-343.5 -122.5q-217 0 -310.5 127t-93.5 362zM233 1149q6 100 47.5 148.5t125.5 48.5q31 0 61.5 -12.5t69.5 -35.5q63 -37 92 -36q72 0 82 92l112 -37q-6 -100 -47 -148.5t-125 -48.5q-35 0 -63.5 12.5 t-65.5 34.5q-31 18 -51 27.5t-43 9.5q-72 0 -82 -92zM268 502q0 -143 20.5 -221t82 -116t182.5 -38q112 0 192 35q45 94 46 278q0 145 -21.5 228.5t-82 124.5t-181.5 41q-117 0 -193 -33q-45 -96 -45 -299z" />
<glyph unicode="&#xf6;" horiz-adv-x="1058" d="M102 473q0 510 451 510q403 0 403 -510q0 -244 -106.5 -366.5t-343.5 -122.5q-217 0 -310.5 127t-93.5 362zM268 502q0 -143 20.5 -221t82 -116t182.5 -38q112 0 192 35q45 94 46 278q0 145 -21.5 228.5t-82 124.5t-181.5 41q-117 0 -193 -33q-45 -96 -45 -299zM272 1208 q0 43 26 66.5t69 23.5q45 0 69.5 -23.5t24.5 -66.5q0 -41 -24.5 -64.5t-69.5 -23.5q-43 0 -69 23.5t-26 64.5zM594 1208q0 43 25.5 66.5t70.5 23.5t69.5 -23.5t24.5 -66.5q0 -41 -24.5 -64.5t-69.5 -23.5t-70.5 23.5t-25.5 64.5z" />
<glyph unicode="&#xf7;" horiz-adv-x="1105" d="M102 559v135h902v-135h-902zM440 303q0 47 33 80t80 33t80 -33t33 -80t-33 -81t-80 -34t-80 34t-33 81zM440 952q0 47 33 80t80 33t80 -33t33 -80t-33 -80.5t-80 -33.5t-80 33.5t-33 80.5z" />
<glyph unicode="&#xf8;" horiz-adv-x="1058" d="M102 473q0 510 451 510q72 0 123 -14l74 161l143 -34l-86 -191q149 -119 149 -432q0 -244 -106.5 -366.5t-343.5 -122.5q-63 0 -119 12l-98 -217l-144 37l109 237q-152 113 -152 420zM268 502q0 -115 12.5 -184.5t45.5 -110.5l282 616q-47 10 -102 11q-117 0 -193 -33 q-45 -96 -45 -299zM453 135q39 -8 100 -8q113 0 192 35q46 94 46 278q0 117 -12.5 189.5t-45.5 118.5z" />
<glyph unicode="&#xf9;" horiz-adv-x="1064" d="M139 258v705h168v-813q63 -18 135 -19q190 0 303 131v701h168v-963h-145l-12 147h-17q-70 -78 -147.5 -120.5t-177.5 -42.5q-144 0 -209.5 62.5t-65.5 211.5zM250 1403l217 22l170 -297l-131 -20z" />
<glyph unicode="&#xfa;" horiz-adv-x="1064" d="M139 258v705h168v-813q63 -18 135 -19q190 0 303 131v701h168v-963h-145l-12 147h-17q-70 -78 -147.5 -120.5t-177.5 -42.5q-144 0 -209.5 62.5t-65.5 211.5zM420 1128l170 297l217 -22l-256 -295z" />
<glyph unicode="&#xfb;" horiz-adv-x="1064" d="M139 258v705h168v-813q63 -18 135 -19q190 0 303 131v701h168v-963h-145l-12 147h-17q-70 -78 -147.5 -120.5t-177.5 -42.5q-144 0 -209.5 62.5t-65.5 211.5zM238 1130l204 273h154l203 -273l-109 -22l-166 154h-10l-172 -154z" />
<glyph unicode="&#xfc;" horiz-adv-x="1064" d="M139 258v705h168v-813q63 -18 135 -19q190 0 303 131v701h168v-963h-145l-12 147h-17q-70 -78 -147.5 -120.5t-177.5 -42.5q-144 0 -209.5 62.5t-65.5 211.5zM276 1208q0 43 26 66.5t69 23.5q45 0 69.5 -23.5t24.5 -66.5q0 -41 -24.5 -64.5t-69.5 -23.5q-43 0 -69 23.5 t-26 64.5zM598 1208q0 43 25.5 66.5t70.5 23.5t69.5 -23.5t24.5 -66.5q0 -41 -24.5 -64.5t-69.5 -23.5t-70.5 23.5t-25.5 64.5z" />
<glyph unicode="&#xfd;" horiz-adv-x="1015" d="M61 958l166 15q106 -430 250 -787h80q113 348 215 787l170 -15q-84 -346 -181 -654t-194 -533q-33 -78 -115.5 -126t-162.5 -48q-102 -1 -180 38v64q0 66 20 129h121v-90q29 -6 72 -6q20 0 73 8q51 121 115 303h-131q-113 270 -186.5 479t-131.5 436zM422 1128l170 297 l217 -22l-256 -295z" />
<glyph unicode="&#xfe;" horiz-adv-x="1013" d="M154 -369v1753h174v-485h14q119 74 252 74q172 0 255 -118t83 -312q0 -195 -83 -312.5t-255 -117.5q-133 0 -252 73h-14v-555h-174zM328 311q104 -41 211 -41q118 0 168.5 71t50.5 202t-50.5 201.5t-168.5 70.5q-106 0 -211 -41v-463z" />
<glyph unicode="&#xff;" horiz-adv-x="1015" d="M61 958l166 15q106 -430 250 -787h80q113 348 215 787l170 -15q-84 -346 -181 -654t-194 -533q-33 -78 -115.5 -126t-162.5 -48q-102 -1 -180 38v64q0 66 20 129h121v-90q29 -6 72 -6q20 0 73 8q51 121 115 303h-131q-113 270 -186.5 479t-131.5 436zM258 1208 q0 43 25.5 66.5t68.5 23.5q45 0 69.5 -23.5t24.5 -66.5q0 -41 -24.5 -64.5t-69.5 -23.5q-43 0 -68.5 23.5t-25.5 64.5zM580 1208q0 43 25.5 66.5t70.5 23.5t69.5 -23.5t24.5 -66.5q0 -41 -24.5 -64.5t-69.5 -23.5t-70.5 23.5t-25.5 64.5z" />
<glyph unicode="&#x100;" horiz-adv-x="1243" d="M72 14q84 315 191.5 651t207.5 597h301q100 -260 207.5 -596t191.5 -652l-186 -14q-57 227 -108 410h-512q-61 -213 -107 -410zM307 1425v144h627v-144h-627zM410 563h421q-106 360 -167 533h-84q-74 -209 -170 -533z" />
<glyph unicode="&#x101;" horiz-adv-x="970" d="M82 231q0 156 118.5 232t327.5 76q68 0 136 -7v127q0 111 -45.5 151t-159.5 40q-70 0 -135 -8l-21 -154h-125q-27 72 -26 137v52q61 39 166.5 70.5t193.5 31.5q154 0 236.5 -79t82.5 -222v-678h-149l-8 135h-17q-51 -72 -127.5 -111.5t-162.5 -39.5q-140 0 -212.5 66.5 t-72.5 180.5zM184 1133v143h627v-143h-627zM258 250q0 -74 34 -104.5t97 -30.5q84 0 158 39t121 110v152q-72 16 -189 16q-129 0 -188 -16q-18 -45 -25.5 -81t-7.5 -85z" />
<glyph unicode="&#x102;" horiz-adv-x="1243" d="M72 14q84 315 191.5 651t207.5 597h301q100 -260 207.5 -596t191.5 -652l-186 -14q-57 227 -108 410h-512q-61 -213 -107 -410zM344 1636l158 25q4 -66 28.5 -95.5t90.5 -29.5t90 29.5t28 95.5l158 -25q-12 -111 -80.5 -171t-195.5 -60t-196 60.5t-81 170.5zM410 563h421 q-106 360 -167 533h-84q-74 -209 -170 -533z" />
<glyph unicode="&#x103;" horiz-adv-x="970" d="M82 231q0 156 118.5 232t327.5 76q68 0 136 -7v127q0 111 -45.5 151t-159.5 40q-70 0 -135 -8l-21 -154h-125q-27 72 -26 137v52q61 39 166.5 70.5t193.5 31.5q154 0 236.5 -79t82.5 -222v-678h-149l-8 135h-17q-51 -72 -127.5 -111.5t-162.5 -39.5q-140 0 -212.5 66.5 t-72.5 180.5zM240 1341l157 25q4 -66 29 -95.5t90 -29.5q66 0 90.5 29.5t28.5 95.5l158 -25q-12 -111 -81 -171t-196 -60t-195.5 60.5t-80.5 170.5zM258 250q0 -74 34 -104.5t97 -30.5q84 0 158 39t121 110v152q-72 16 -189 16q-129 0 -188 -16q-18 -45 -25.5 -81t-7.5 -85z " />
<glyph unicode="&#x104;" horiz-adv-x="1243" d="M72 14q84 315 191.5 651t207.5 597h301q100 -260 207.5 -596t191.5 -652l-71 -6q-72 -39 -98.5 -74.5t-26.5 -87.5q0 -27 6 -45q27 -8 78 -8q49 0 84 10l28 -110q-55 -23 -133 -23q-98 0 -155.5 42t-57.5 122q0 68 40 112t114 79q-51 186 -102 385h-512 q-61 -213 -107 -410zM410 563h421q-106 360 -167 533h-84q-74 -209 -170 -533z" />
<glyph unicode="&#x105;" horiz-adv-x="970" d="M82 231q0 156 118.5 232t327.5 76q68 0 136 -7v127q0 111 -45.5 151t-159.5 40q-70 0 -135 -8l-21 -154h-125q-27 72 -26 137v52q61 39 166.5 70.5t193.5 31.5q154 0 236.5 -79t82.5 -222v-678h-47q-74 -43 -101.5 -80t-27.5 -86q0 -27 7 -45q27 -8 77 -8q47 0 84 10 l29 -110q-55 -23 -133 -23q-98 0 -155.5 42t-57.5 122q0 74 46 120t130 81l-8 112h-17q-51 -72 -127.5 -111.5t-162.5 -39.5q-139 0 -212 66.5t-73 180.5zM258 250q0 -74 34 -104.5t97 -30.5q84 0 158 39t121 110v152q-72 16 -189 16q-129 0 -188 -16q-18 -45 -25.5 -81 t-7.5 -85z" />
<glyph unicode="&#x106;" horiz-adv-x="1161" d="M111 592q0 315 133 502.5t395 187.5q111 0 225.5 -24.5t165.5 -59.5v-115q0 -78 -26 -141h-121l-21 162q-92 18 -225 18q-119 0 -244 -26q-51 -94 -79.5 -223.5t-28.5 -268.5q0 -246 86 -353.5t288 -107.5q96 0 189.5 23.5t146.5 64.5l80 -131q-66 -55 -177.5 -85.5 t-242.5 -30.5q-278 0 -411 153.5t-133 454.5zM578 1425l170 297l217 -22l-256 -295z" />
<glyph unicode="&#x107;" horiz-adv-x="923" d="M96 455q0 244 106.5 384t315.5 140q88 0 169 -23.5t132 -60.5v-74q0 -90 -26 -162h-121l-17 152q-66 18 -147 18q-55 0 -110.5 -7t-88.5 -19q-20 -53 -34.5 -154.5t-14.5 -193.5q0 -164 62.5 -243t218.5 -79q152 0 254 88l75 -117q-70 -59 -148.5 -89.5t-184.5 -30.5 q-244 0 -342.5 123.5t-98.5 347.5zM420 1128l170 297l217 -22l-256 -295z" />
<glyph unicode="&#x108;" horiz-adv-x="1161" d="M111 592q0 315 133 502.5t395 187.5q111 0 225.5 -24.5t165.5 -59.5v-115q0 -78 -26 -141h-121l-21 162q-92 18 -225 18q-119 0 -244 -26q-51 -94 -79.5 -223.5t-28.5 -268.5q0 -246 86 -353.5t288 -107.5q96 0 189.5 23.5t146.5 64.5l80 -131q-66 -55 -177.5 -85.5 t-242.5 -30.5q-278 0 -411 153.5t-133 454.5zM387 1423l205 273h153l203 -273l-108 -22l-166 153h-10l-172 -153z" />
<glyph unicode="&#x109;" horiz-adv-x="923" d="M96 455q0 244 106.5 384t315.5 140q88 0 169 -23.5t132 -60.5v-74q0 -90 -26 -162h-121l-17 152q-66 18 -147 18q-55 0 -110.5 -7t-88.5 -19q-20 -53 -34.5 -154.5t-14.5 -193.5q0 -164 62.5 -243t218.5 -79q152 0 254 88l75 -117q-70 -59 -148.5 -89.5t-184.5 -30.5 q-244 0 -342.5 123.5t-98.5 347.5zM225 1128l205 273h154l202 -273l-108 -22l-166 154h-10l-172 -154z" />
<glyph unicode="&#x10a;" horiz-adv-x="1161" d="M111 592q0 315 133 502.5t395 187.5q111 0 225.5 -24.5t165.5 -59.5v-115q0 -78 -26 -141h-121l-21 162q-92 18 -225 18q-119 0 -244 -26q-51 -94 -79.5 -223.5t-28.5 -268.5q0 -246 86 -353.5t288 -107.5q96 0 189.5 23.5t146.5 64.5l80 -131q-66 -55 -177.5 -85.5 t-242.5 -30.5q-278 0 -411 153.5t-133 454.5zM524 1530q0 57 32 88t91 31t91 -31t32 -88q0 -53 -32.5 -84t-90.5 -31q-57 0 -90 31t-33 84z" />
<glyph unicode="&#x10b;" horiz-adv-x="923" d="M96 455q0 244 106.5 384t315.5 140q88 0 169 -23.5t132 -60.5v-74q0 -90 -26 -162h-121l-17 152q-66 18 -147 18q-55 0 -110.5 -7t-88.5 -19q-20 -53 -34.5 -154.5t-14.5 -193.5q0 -164 62.5 -243t218.5 -79q152 0 254 88l75 -117q-70 -59 -148.5 -89.5t-184.5 -30.5 q-244 0 -342.5 123.5t-98.5 347.5zM399 1235q0 57 32 88t91 31t91 -31t32 -88q0 -53 -32.5 -84t-90.5 -31q-57 0 -90 31t-33 84z" />
<glyph unicode="&#x10c;" horiz-adv-x="1161" d="M111 592q0 315 133 502.5t395 187.5q111 0 225.5 -24.5t165.5 -59.5v-115q0 -78 -26 -141h-121l-21 162q-92 18 -225 18q-119 0 -244 -26q-51 -94 -79.5 -223.5t-28.5 -268.5q0 -246 86 -353.5t288 -107.5q96 0 189.5 23.5t146.5 64.5l80 -131q-66 -55 -177.5 -85.5 t-242.5 -30.5q-278 0 -411 153.5t-133 454.5zM354 1698l105 22l172 -153h10l166 153l108 -22l-202 -273h-154z" />
<glyph unicode="&#x10d;" horiz-adv-x="923" d="M96 455q0 244 106.5 384t315.5 140q88 0 169 -23.5t132 -60.5v-74q0 -90 -26 -162h-121l-17 152q-66 18 -147 18q-55 0 -110.5 -7t-88.5 -19q-20 -53 -34.5 -154.5t-14.5 -193.5q0 -164 62.5 -243t218.5 -79q152 0 254 88l75 -117q-70 -59 -148.5 -89.5t-184.5 -30.5 q-244 0 -342.5 123.5t-98.5 347.5zM236 1403l104 22l172 -153h10l166 153l109 -22l-203 -273h-154z" />
<glyph unicode="&#x10e;" horiz-adv-x="1198" d="M154 0v1241q168 41 362 41q317 0 452.5 -164t135.5 -473q0 -219 -52.5 -357t-195.5 -213t-410 -75h-292zM305 1698l105 22l172 -153h10l166 153l108 -22l-202 -273h-154zM328 160h121q252 0 409 45q33 72 52.5 184.5t19.5 237.5q0 174 -37 281.5t-128 161.5t-257 54 q-86 0 -180 -12v-952z" />
<glyph unicode="&#x10f;" horiz-adv-x="1316" d="M102 481q0 213 84 355.5t271 142.5q86 0 165.5 -36t137.5 -95h12l-6 133v393h168v-1374h-150l-8 131h-16q-53 -68 -122 -107.5t-167 -39.5q-197 0 -283 127t-86 370zM279 475q0 -127 20 -201.5t72.5 -110.5t148.5 -36q88 0 150.5 46t95.5 112v434q-104 117 -258 117 q-123 0 -176 -90.5t-53 -270.5zM1059 1251v115q49 18 102 18q70 0 102.5 -36.5t32.5 -110.5q0 -61 -26.5 -128t-71.5 -120l-100 23q70 129 69 239h-108z" />
<glyph unicode="&#x110;" horiz-adv-x="1302" d="M92 549v151h166v541q168 41 363 41q317 0 452 -164t135 -473q0 -219 -52 -357t-195.5 -213t-409.5 -75h-293v549h-166zM432 160h121q252 0 410 45q33 72 52 184.5t19 237.5q0 174 -36.5 281.5t-128 161.5t-257.5 54q-84 0 -180 -12v-412h197v-151h-197v-389z" />
<glyph unicode="&#x111;" horiz-adv-x="1144" d="M102 481q0 213 84 355.5t271 142.5q86 0 165.5 -36t137.5 -95h12l-6 133v119h-285v123h285v151h168v-151h119v-123h-119v-1100h-150l-8 131h-16q-53 -68 -122 -107.5t-167 -39.5q-197 0 -283 127t-86 370zM279 475q0 -127 20 -201.5t72.5 -110.5t148.5 -36q88 0 150.5 46 t95.5 112v434q-104 117 -258 117q-123 0 -176 -90.5t-53 -270.5z" />
<glyph unicode="&#x112;" horiz-adv-x="1103" d="M154 190v1072h804v-158h-632v-397h573v-154h-573v-391q123 -20 268 -21q195 0 348 37l39 -151q-145 -43 -393 -43q-205 0 -319.5 46t-114.5 160zM248 1427v144h626v-144h-626z" />
<glyph unicode="&#x113;" horiz-adv-x="999" d="M102 473q0 238 114 372t325 134q180 0 269 -103.5t89 -283.5q0 -41 -2 -62l-123 -120l-510 8q4 -143 74 -218t205 -75q92 0 158.5 23.5t136.5 70.5l53 -129q-82 -51 -162 -78.5t-197 -27.5q-430 0 -430 489zM213 1133v143h627v-143h-627zM262 537l471 8q12 55 12 100 q0 90 -53 141.5t-162 51.5q-147 0 -205.5 -71t-62.5 -230z" />
<glyph unicode="&#x114;" horiz-adv-x="1103" d="M154 190v1072h804v-158h-632v-397h573v-154h-573v-391q123 -20 268 -21q195 0 348 37l39 -151q-145 -43 -393 -43q-205 0 -319.5 46t-114.5 160zM315 1647l158 24q4 -66 28.5 -95.5t90.5 -29.5t90.5 30t28.5 95l157 -24q-12 -111 -80.5 -171.5t-195.5 -60.5t-195.5 60.5 t-81.5 171.5z" />
<glyph unicode="&#x115;" horiz-adv-x="999" d="M102 473q0 238 114 372t325 134q180 0 269 -103.5t89 -283.5q0 -41 -2 -62l-123 -120l-510 8q4 -143 74 -218t205 -75q92 0 158.5 23.5t136.5 70.5l53 -129q-82 -51 -162 -78.5t-197 -27.5q-430 0 -430 489zM244 1352l157 24q4 -66 29 -95.5t90 -29.5q66 0 90.5 30 t28.5 95l158 -24q-12 -111 -81 -171.5t-196 -60.5t-195.5 60.5t-80.5 171.5zM262 537l471 8q12 55 12 100q0 90 -53 141.5t-162 51.5q-147 0 -205.5 -71t-62.5 -230z" />
<glyph unicode="&#x116;" horiz-adv-x="1103" d="M154 190v1072h804v-158h-632v-397h573v-154h-573v-391q123 -20 268 -21q195 0 348 37l39 -151q-145 -43 -393 -43q-205 0 -319.5 46t-114.5 160zM459 1530q0 57 31.5 88t91.5 31q59 0 91 -31t32 -88q0 -53 -33 -84t-90 -31q-58 0 -90.5 31t-32.5 84z" />
<glyph unicode="&#x117;" horiz-adv-x="999" d="M102 473q0 238 114 372t325 134q180 0 269 -103.5t89 -283.5q0 -41 -2 -62l-123 -120l-510 8q4 -143 74 -218t205 -75q92 0 158.5 23.5t136.5 70.5l53 -129q-82 -51 -162 -78.5t-197 -27.5q-430 0 -430 489zM262 537l471 8q12 55 12 100q0 90 -53 141.5t-162 51.5 q-147 0 -205.5 -71t-62.5 -230zM397 1214q0 57 32 88t91 31t91 -30.5t32 -88.5q0 -53 -32.5 -83.5t-90.5 -30.5q-57 0 -90 30.5t-33 83.5z" />
<glyph unicode="&#x118;" horiz-adv-x="1103" d="M154 190v1072h804v-158h-632v-397h573v-154h-573v-391q123 -20 268 -21q195 0 348 37l41 -155l-49 -23q-47 -33 -64.5 -65.5t-17.5 -77.5q0 -27 6 -45q27 -8 78 -9q49 0 84 11l29 -111q-55 -23 -134 -22q-98 0 -155.5 41.5t-57.5 121.5q0 90 78 148q-119 -8 -192 -8 q-205 0 -319.5 46t-114.5 160z" />
<glyph unicode="&#x119;" horiz-adv-x="999" d="M102 473q0 238 114 372t325 134q180 0 269 -103.5t89 -283.5q0 -41 -2 -62l-123 -120l-510 8q4 -143 74 -218t205 -75q92 0 158.5 23.5t136.5 70.5l53 -129q-55 -33 -64 -37q-37 -29 -52 -58.5t-15 -66.5q0 -27 6 -45q27 -8 78 -8q49 0 84 10l28 -110q-55 -23 -133 -23 q-98 0 -155.5 42t-57.5 122q0 43 15 74q-43 -6 -93 -6q-430 0 -430 489zM262 537l471 8q12 55 12 100q0 90 -53 141.5t-162 51.5q-147 0 -205.5 -71t-62.5 -230z" />
<glyph unicode="&#x11a;" horiz-adv-x="1103" d="M154 190v1072h804v-158h-632v-397h573v-154h-573v-391q123 -20 268 -21q195 0 348 37l39 -151q-145 -43 -393 -43q-205 0 -319.5 46t-114.5 160zM303 1698l105 22l172 -153h10l166 153l108 -22l-202 -273h-154z" />
<glyph unicode="&#x11b;" horiz-adv-x="999" d="M102 473q0 238 114 372t325 134q180 0 269 -103.5t89 -283.5q0 -41 -2 -62l-123 -120l-510 8q4 -143 74 -218t205 -75q92 0 158.5 23.5t136.5 70.5l53 -129q-82 -51 -162 -78.5t-197 -27.5q-430 0 -430 489zM240 1403l104 22l172 -153h10l166 153l109 -22l-203 -273h-154 zM262 537l471 8q12 55 12 100q0 90 -53 141.5t-162 51.5q-147 0 -205.5 -71t-62.5 -230z" />
<glyph unicode="&#x11c;" horiz-adv-x="1224" d="M111 592q0 328 141 509t426 181q125 0 238.5 -24.5t166.5 -59.5v-115q0 -78 -26 -141h-121l-21 162q-35 8 -103.5 13t-135.5 5q-154 0 -268 -24q-55 -98 -89 -229.5t-34 -264.5q0 -240 99 -350.5t306 -110.5q145 0 244 25v358h-295v154h383l84 -70v-336 q0 -84 -57.5 -150.5t-159 -103t-225.5 -36.5q-267 0 -410 155.5t-143 452.5zM358 1423l205 273h154l203 -273l-109 -22l-166 153h-10l-172 -153z" />
<glyph unicode="&#x11d;" horiz-adv-x="1052" d="M102 455q0 252 80 388t287 136q188 0 270 -166h15l12 150h143v-1061q0 -150 -107.5 -227.5t-289.5 -77.5q-100 0 -194.5 23.5t-153.5 60.5l47 129q59 -31 136 -49.5t149 -18.5q82 0 140 11t112 36v236l6 135h-17q-59 -68 -134 -110t-159 -42q-184 0 -263 128t-79 319z M254 1128l205 273h153l203 -273l-108 -22l-166 154h-11l-172 -154zM274 475q0 -170 51.5 -247.5t161.5 -77.5q72 0 137.5 35.5t116.5 103.5v411q-106 139 -252 140q-127 0 -171 -88t-44 -277z" />
<glyph unicode="&#x11e;" horiz-adv-x="1224" d="M111 592q0 328 141 509t426 181q125 0 238.5 -24.5t166.5 -59.5v-115q0 -78 -26 -141h-121l-21 162q-35 8 -103.5 13t-135.5 5q-154 0 -268 -24q-55 -98 -89 -229.5t-34 -264.5q0 -240 99 -350.5t306 -110.5q145 0 244 25v358h-295v154h383l84 -70v-336 q0 -84 -57.5 -150.5t-159 -103t-225.5 -36.5q-267 0 -410 155.5t-143 452.5zM377 1647l158 24q4 -66 28.5 -95.5t89.5 -29.5q66 0 90.5 30t28.5 95l158 -24q-12 -111 -81 -171.5t-196 -60.5t-195.5 60.5t-80.5 171.5z" />
<glyph unicode="&#x11f;" horiz-adv-x="1052" d="M102 455q0 252 80 388t287 136q188 0 270 -166h15l12 150h143v-1061q0 -150 -107.5 -227.5t-289.5 -77.5q-100 0 -194.5 23.5t-153.5 60.5l47 129q59 -31 136 -49.5t149 -18.5q82 0 140 11t112 36v236l6 135h-17q-59 -68 -134 -110t-159 -42q-184 0 -263 128t-79 319z M270 1352l158 24q4 -66 28.5 -95.5t90.5 -29.5t90.5 30t28.5 95l157 -24q-12 -111 -80.5 -171.5t-195.5 -60.5t-195.5 60.5t-81.5 171.5zM274 475q0 -170 51.5 -247.5t161.5 -77.5q72 0 137.5 35.5t116.5 103.5v411q-106 139 -252 140q-127 0 -171 -88t-44 -277z" />
<glyph unicode="&#x120;" horiz-adv-x="1224" d="M111 592q0 328 141 509t426 181q125 0 238.5 -24.5t166.5 -59.5v-115q0 -78 -26 -141h-121l-21 162q-35 8 -103.5 13t-135.5 5q-154 0 -268 -24q-55 -98 -89 -229.5t-34 -264.5q0 -240 99 -350.5t306 -110.5q145 0 244 25v358h-295v154h383l84 -70v-336 q0 -84 -57.5 -150.5t-159 -103t-225.5 -36.5q-267 0 -410 155.5t-143 452.5zM537 1530q0 57 31.5 88t90.5 31t91 -31t32 -88q0 -53 -32.5 -84t-90.5 -31q-57 0 -89.5 31t-32.5 84z" />
<glyph unicode="&#x121;" horiz-adv-x="1052" d="M102 455q0 252 80 388t287 136q188 0 270 -166h15l12 150h143v-1061q0 -150 -107.5 -227.5t-289.5 -77.5q-100 0 -194.5 23.5t-153.5 60.5l47 129q59 -31 136 -49.5t149 -18.5q82 0 140 11t112 36v236l6 135h-17q-59 -68 -134 -110t-159 -42q-184 0 -263 128t-79 319z M274 475q0 -170 51.5 -247.5t161.5 -77.5q72 0 137.5 35.5t116.5 103.5v411q-106 139 -252 140q-127 0 -171 -88t-44 -277zM424 1235q0 57 31.5 88t91.5 31q59 0 91 -31t32 -88q0 -53 -33 -84t-90 -31q-58 0 -90.5 31t-32.5 84z" />
<glyph unicode="&#x122;" horiz-adv-x="1224" d="M111 592q0 328 141 509t426 181q125 0 238.5 -24.5t166.5 -59.5v-115q0 -78 -26 -141h-121l-21 162q-35 8 -103.5 13t-135.5 5q-154 0 -268 -24q-55 -98 -89 -229.5t-34 -264.5q0 -240 99 -350.5t306 -110.5q145 0 244 25v358h-295v154h383l84 -70v-336 q0 -84 -57.5 -150.5t-159 -103t-225.5 -36.5q-267 0 -410 155.5t-143 452.5zM559 -162q49 18 103 19q70 0 102.5 -37t32.5 -111q0 -61 -27 -127.5t-72 -120.5l-100 23q70 129 70 240h-109v114z" />
<glyph unicode="&#x123;" horiz-adv-x="1052" d="M102 455q0 252 80 388t287 136q188 0 270 -166h15l12 150h143v-1061q0 -150 -107.5 -227.5t-289.5 -77.5q-100 0 -194.5 23.5t-153.5 60.5l47 129q59 -31 136 -49.5t149 -18.5q82 0 140 11t112 36v236l6 135h-17q-59 -68 -134 -110t-159 -42q-184 0 -263 128t-79 319z M274 475q0 -170 51.5 -247.5t161.5 -77.5q72 0 137.5 35.5t116.5 103.5v411q-106 139 -252 140q-127 0 -171 -88t-44 -277zM457 1370v115q49 18 102 18q70 0 102.5 -36.5t32.5 -110.5q0 -61 -26.5 -128t-71.5 -120l-100 22q70 129 69 240h-108z" />
<glyph unicode="&#x124;" horiz-adv-x="1228" d="M154 0v1262h174v-570h573v570h174v-1262h-174v532h-573v-532h-174zM334 1423l205 273h153l203 -273l-109 -22l-165 153h-11l-172 -153z" />
<glyph unicode="&#x125;" horiz-adv-x="1077" d="M152 0v1374h167v-416l-6 -143h13q66 78 145.5 121t185.5 43q143 0 210 -62.5t67 -211.5v-705h-168v813q-63 18 -137 18q-106 0 -180 -32.5t-130 -98.5v-700h-167zM307 1448l205 272h154l202 -272l-108 -23l-166 154h-10l-172 -154z" />
<glyph unicode="&#x126;" horiz-adv-x="1390" d="M102 893v135h131v234h175v-234h573v234h174v-234h133v-135h-133v-893h-174v532h-573v-532h-175v893h-131zM408 692h573v201h-573v-201z" />
<glyph unicode="&#x127;" horiz-adv-x="1077" d="M20 1100v123h132v151h167v-151h273v-123h-273v-142l-6 -143h13q66 78 145.5 121t185.5 43q143 0 210 -62.5t67 -211.5v-705h-168v813q-63 18 -137 18q-106 0 -180 -32.5t-130 -98.5v-700h-167v1100h-132z" />
<glyph unicode="&#x128;" horiz-adv-x="495" d="M-47 1436q6 100 47 148t125 48q31 0 61.5 -12t69.5 -35q63 -37 92 -37q72 0 82 92l113 -36q-6 -100 -47 -148.5t-125 -48.5q-35 0 -63.5 12.5t-65.5 34.5q-31 18 -51.5 27.5t-43.5 9.5q-72 0 -81 -92zM160 0v1262h174v-1262h-174z" />
<glyph unicode="&#x129;" horiz-adv-x="528" d="M-31 1071q6 100 47 148.5t125 48.5q31 0 61.5 -12.5t69.5 -34.5q63 -37 93 -37q72 0 81 92l113 -37q-6 -100 -47 -148.5t-125 -48.5q-35 0 -63.5 12.5t-65.5 35.5q-31 18 -51.5 27t-42.5 9q-72 0 -82 -92zM182 0v961h164v-961h-164z" />
<glyph unicode="&#x12a;" horiz-adv-x="495" d="M-66 1425v144h627v-144h-627zM160 0v1262h174v-1262h-174z" />
<glyph unicode="&#x12b;" horiz-adv-x="528" d="M-49 1130v144h627v-144h-627zM182 0v961h164v-961h-164z" />
<glyph unicode="&#x12c;" horiz-adv-x="495" d="M-29 1647l158 24q4 -66 28.5 -95.5t90.5 -29.5t90 30t29 95l157 -24q-12 -111 -80.5 -171.5t-195.5 -60.5t-195.5 60.5t-81.5 171.5zM160 0v1262h174v-1262h-174z" />
<glyph unicode="&#x12d;" horiz-adv-x="475" d="M-39 1352l158 24q4 -66 28.5 -95.5t90.5 -29.5t90 30t28 95l158 -24q-12 -111 -80.5 -171.5t-195.5 -60.5t-196 60.5t-81 171.5zM156 0v961h163v-961h-163z" />
<glyph unicode="&#x12e;" horiz-adv-x="495" d="M53 -178q0 59 28 101t79 87v1252h174v-1252q-70 -43 -100.5 -82t-30.5 -94q0 -27 6 -45q27 -8 78 -8q49 0 84 10l28 -110q-55 -23 -133 -23q-98 0 -155.5 42t-57.5 122z" />
<glyph unicode="&#x12f;" horiz-adv-x="475" d="M31 -178q0 117 125 180v956h163v-958q-84 -39 -111.5 -74t-27.5 -92q0 -27 6 -45q27 -8 78 -8q47 0 84 10l29 -110q-55 -23 -133 -23q-98 0 -155.5 42t-57.5 122zM150 1135v204h176v-204h-176z" />
<glyph unicode="&#x130;" horiz-adv-x="495" d="M125 1487q0 57 31.5 88t91.5 31q59 0 91 -31t32 -88q0 -53 -33 -84t-90 -31q-58 0 -90.5 31t-32.5 84zM160 0v1262h174v-1262h-174z" />
<glyph unicode="&#x131;" horiz-adv-x="475" d="M156 0v961h163v-961h-163z" />
<glyph unicode="&#x132;" horiz-adv-x="1378" d="M160 0v1262h174v-1262h-174zM573 37l39 149q125 -47 252 -47q113 0 178 37q14 43 15 113v973h172v-981q0 -141 -100.5 -219t-266.5 -78q-76 0 -153.5 14t-135.5 39z" />
<glyph unicode="&#x133;" horiz-adv-x="1054" d="M150 1135v204h176v-204h-176zM156 0v958h163v-958h-163zM418 -373l39 144q49 -16 83.5 -21.5t80.5 -5.5q55 0 100 14q14 41 14 117v1083h164v-1091q0 -129 -75.5 -201t-205.5 -72q-108 0 -200 33zM729 1135v204h176v-204h-176z" />
<glyph unicode="&#x134;" horiz-adv-x="866" d="M61 37l39 149q125 -47 252 -47q113 0 178 37q14 43 15 113v973h172v-981q0 -141 -100.5 -219t-266.5 -78q-76 0 -153.5 14t-135.5 39zM315 1423l205 273h154l203 -273l-109 -22l-166 153h-10l-172 -153z" />
<glyph unicode="&#x135;" horiz-adv-x="581" d="M-70 -373l39 144q49 -16 84 -21.5t80 -5.5q55 0 100 14q14 41 15 117v1088h164v-1096q0 -129 -76 -201t-205 -72q-109 0 -201 33zM31 1130l205 273h153l203 -273l-109 -22l-166 154h-10l-172 -154z" />
<glyph unicode="&#x136;" horiz-adv-x="1228" d="M154 0v1262h174v-527h153q100 0 153.5 37t82.5 105l170 397l168 -66l-170 -379q-29 -66 -67 -105.5t-107 -61.5v-13q72 -20 108.5 -55t67.5 -105l172 -370l102 -19v-98q-57 -18 -135 -18q-55 0 -90 20.5t-55 67.5l-152 346q-37 84 -87 122t-150 38h-164v-578h-174z M522 -162q49 18 103 19q70 0 102.5 -37t32.5 -111q0 -61 -26.5 -127.5t-71.5 -120.5l-101 23q70 129 70 240h-109v114z" />
<glyph unicode="&#x137;" horiz-adv-x="1038" d="M143 0v1374h164v-807h84q96 0 145.5 41t81.5 115l109 256l162 -59l-105 -244q-27 -63 -66.5 -104.5t-111.5 -63.5v-12q72 -20 110 -55t68 -105l103 -234l80 -18v-84q-59 -16 -113 -16q-49 0 -79 17t-48 58l-88 205q-39 88 -89 131t-149 43h-94v-438h-164zM416 -162 q49 18 102 19q70 0 102.5 -37t32.5 -111q0 -61 -26.5 -127.5t-71.5 -120.5l-100 23q70 129 69 240h-108v114z" />
<glyph unicode="&#x138;" horiz-adv-x="1017" d="M143 0v977h164v-410h84q96 0 145.5 41t81.5 115l109 256l170 -39l-113 -264q-27 -63 -66.5 -104.5t-111.5 -63.5v-12q72 -20 110 -55t68 -105l103 -227l59 -19v-84q-59 -16 -98 -16q-90 -1 -119 69l-90 205q-39 88 -89 131t-149 43h-94v-438h-164z" />
<glyph unicode="&#x139;" horiz-adv-x="935" d="M154 0v1262h174v-1102h559v-160h-733zM158 1421l170 297l217 -22l-256 -295z" />
<glyph unicode="&#x13a;" horiz-adv-x="595" d="M156 1423l170 297l217 -22l-256 -295zM158 174v1200h164v-1179q0 -49 8 -70h26l117 59l72 -92q-31 -43 -87.5 -74.5t-115.5 -33.5q-29 8 -74 41.5t-77.5 75.5t-32.5 73z" />
<glyph unicode="&#x13b;" horiz-adv-x="935" d="M154 0v1262h174v-1102h559v-160h-733zM444 -162q49 18 103 19q70 0 102.5 -37t32.5 -111q0 -61 -26.5 -127.5t-71.5 -120.5l-101 23q70 129 70 240h-109v114z" />
<glyph unicode="&#x13c;" horiz-adv-x="579" d="M156 174v1200h163v-1179q0 -49 9 -70h26l117 59l72 -92q-31 -43 -87.5 -74.5t-115.5 -33.5q-29 8 -74 41.5t-77.5 75.5t-32.5 73zM225 -162q49 18 103 19q70 0 102.5 -37t32.5 -111q0 -61 -26.5 -127.5t-71.5 -120.5l-101 23q70 129 70 240h-109v114z" />
<glyph unicode="&#x13d;" horiz-adv-x="935" d="M154 0v1262h174v-1102h559v-160h-733zM520 1139v114q49 18 103 19q70 0 102.5 -37t32.5 -111q0 -61 -26.5 -127.5t-72.5 -119.5l-100 22q70 129 70 240h-109z" />
<glyph unicode="&#x13e;" horiz-adv-x="733" d="M156 174v1200h163v-1179q0 -49 9 -70h26l117 59l72 -92q-31 -43 -87.5 -74.5t-115.5 -33.5q-29 8 -74 41.5t-77.5 75.5t-32.5 73zM475 1200v115q49 18 103 18q70 0 102.5 -36.5t32.5 -110.5q0 -61 -27 -128t-72 -120l-100 23q70 129 70 239h-109z" />
<glyph unicode="&#x13f;" horiz-adv-x="935" d="M154 0v1262h174v-1102h559v-160h-733zM504 565q0 49 35.5 84t85.5 35q49 0 84.5 -35t35.5 -84q0 -51 -34.5 -85t-85.5 -34q-52 0 -86.5 34t-34.5 85z" />
<glyph unicode="&#x140;" horiz-adv-x="784" d="M156 174v1200h163v-1179q0 -49 9 -70h26l117 59l72 -92q-31 -43 -87.5 -74.5t-115.5 -33.5q-29 8 -74 41.5t-77.5 75.5t-32.5 73zM492 565q0 49 35.5 84t84.5 35t85 -35t36 -84q0 -51 -34.5 -85t-86.5 -34q-51 0 -85.5 34t-34.5 85z" />
<glyph unicode="&#x141;" horiz-adv-x="1001" d="M0 582l219 69v611h174v-555l230 71l39 -125l-269 -84v-409h559v-160h-733v514l-180 -57z" />
<glyph unicode="&#x142;" horiz-adv-x="577" d="M-47 651l203 70v606h163v-555l213 68l39 -125l-252 -80v-436q0 -49 9 -70h26l117 59l72 -92q-31 -43 -87.5 -74.5t-115.5 -33.5q-29 8 -74 41.5t-77.5 75.5t-32.5 73v406l-164 -58z" />
<glyph unicode="&#x143;" horiz-adv-x="1280" d="M154 0v1262h196l604 -998l17 4l-21 322v672h176v-1262h-196l-604 997l-17 -4l21 -321v-672h-176zM543 1421l170 297l217 -22l-256 -295z" />
<glyph unicode="&#x144;" horiz-adv-x="1077" d="M152 0v963h145l12 -148h17q66 78 145.5 121t185.5 43q143 0 210 -62.5t67 -211.5v-705h-168v813q-63 18 -137 18q-106 0 -180 -32.5t-130 -98.5v-700h-167zM471 1128l170 297l217 -22l-256 -295z" />
<glyph unicode="&#x145;" horiz-adv-x="1280" d="M154 0v1262h196l604 -998l17 4l-21 322v672h176v-1262h-196l-604 997l-17 -4l21 -321v-672h-176zM559 -162q49 18 103 19q70 0 102.5 -37t32.5 -111q0 -61 -27 -127.5t-72 -120.5l-100 23q70 129 70 240h-109v114z" />
<glyph unicode="&#x146;" horiz-adv-x="1077" d="M152 0v963h145l12 -148h17q66 78 145.5 121t185.5 43q143 0 210 -62.5t67 -211.5v-705h-168v813q-63 18 -137 18q-106 0 -180 -32.5t-130 -98.5v-700h-167zM457 -162q49 18 102 19q70 0 102.5 -37t32.5 -111q0 -61 -26.5 -127.5t-71.5 -120.5l-100 23q70 129 69 240h-108 v114z" />
<glyph unicode="&#x147;" horiz-adv-x="1280" d="M154 0v1262h196l604 -998l17 4l-21 322v672h176v-1262h-196l-604 997l-17 -4l21 -321v-672h-176zM377 1698l104 22l172 -153h11l165 153l109 -22l-203 -273h-153z" />
<glyph unicode="&#x148;" horiz-adv-x="1077" d="M152 0v963h145l12 -148h17q66 78 145.5 121t185.5 43q143 0 210 -62.5t67 -211.5v-705h-168v813q-63 18 -137 18q-106 0 -180 -32.5t-130 -98.5v-700h-167zM285 1403l104 22l172 -153h10l166 153l109 -22l-203 -273h-154z" />
<glyph unicode="&#x149;" horiz-adv-x="1296" d="M20 995v115q49 18 103 18q70 0 102.5 -36.5t32.5 -110.5q0 -61 -26.5 -128t-71.5 -120l-101 23q70 129 70 239h-109zM371 0v963h145l12 -148h17q66 78 145.5 121t186.5 43q143 0 209.5 -62.5t66.5 -211.5v-705h-168v813q-63 18 -137 18q-106 0 -180 -32.5t-129 -98.5 v-700h-168z" />
<glyph unicode="&#x14a;" horiz-adv-x="1280" d="M154 0v1262h196l604 -998l17 4l-21 322v672h176v-1315q0 -170 -78.5 -266.5t-275.5 -165.5l-78 170q158 43 232 86q12 63 12 159v70l-612 997l-17 -4l21 -321v-672h-176z" />
<glyph unicode="&#x14b;" horiz-adv-x="1077" d="M152 0v963h145l12 -148h17q66 78 145.5 121t185.5 43q143 0 210 -62.5t67 -211.5v-766q0 -156 -78 -253.5t-256 -168.5l-78 161q150 39 226 93q18 59 18 200v842q-63 18 -137 18q-106 0 -180 -32.5t-130 -98.5v-700h-167z" />
<glyph unicode="&#x14c;" horiz-adv-x="1271" d="M106 606q0 346 126 511t419 165q262 0 388 -156.5t126 -468.5q0 -346 -126 -509.5t-418 -163.5q-252 0 -383.5 157.5t-131.5 464.5zM281 645q0 -264 84 -383t284 -119q70 0 137.5 10.5t106.5 26.5q98 217 98 438q0 266 -83 385t-285 119q-72 0 -143.5 -10t-110.5 -27 q-88 -190 -88 -440zM322 1425v144h626v-144h-626z" />
<glyph unicode="&#x14d;" horiz-adv-x="1058" d="M102 473q0 510 451 510q403 0 403 -510q0 -244 -106.5 -366.5t-343.5 -122.5q-217 0 -310.5 127t-93.5 362zM215 1130v144h627v-144h-627zM268 502q0 -143 20.5 -221t82 -116t182.5 -38q112 0 192 35q45 94 46 278q0 145 -21.5 228.5t-82 124.5t-181.5 41 q-117 0 -193 -33q-45 -96 -45 -299z" />
<glyph unicode="&#x14e;" horiz-adv-x="1271" d="M106 606q0 346 126 511t419 165q262 0 388 -156.5t126 -468.5q0 -346 -126 -509.5t-418 -163.5q-252 0 -383.5 157.5t-131.5 464.5zM281 645q0 -264 84 -383t284 -119q70 0 137.5 10.5t106.5 26.5q98 217 98 438q0 266 -83 385t-285 119q-72 0 -143.5 -10t-110.5 -27 q-88 -190 -88 -440zM358 1647l158 24q4 -66 28.5 -95.5t90.5 -29.5t90.5 30t28.5 95l157 -24q-12 -111 -80.5 -171.5t-195.5 -60.5t-195.5 60.5t-81.5 171.5z" />
<glyph unicode="&#x14f;" horiz-adv-x="1058" d="M102 473q0 510 451 510q403 0 403 -510q0 -244 -106.5 -366.5t-343.5 -122.5q-217 0 -310.5 127t-93.5 362zM252 1352l158 24q4 -66 28.5 -95.5t89.5 -29.5q66 0 90.5 30t28.5 95l158 -24q-12 -111 -81 -171.5t-196 -60.5t-195.5 60.5t-80.5 171.5zM268 502 q0 -143 20.5 -221t82 -116t182.5 -38q112 0 192 35q45 94 46 278q0 145 -21.5 228.5t-82 124.5t-181.5 41q-117 0 -193 -33q-45 -96 -45 -299z" />
<glyph unicode="&#x150;" horiz-adv-x="1271" d="M106 606q0 346 126 511t419 165q262 0 388 -156.5t126 -468.5q0 -346 -126 -509.5t-418 -163.5q-252 0 -383.5 157.5t-131.5 464.5zM281 645q0 -264 84 -383t284 -119q70 0 137.5 10.5t106.5 26.5q98 217 98 438q0 266 -83 385t-285 119q-72 0 -143.5 -10t-110.5 -27 q-88 -190 -88 -440zM350 1665v115q49 18 99 18q70 0 102.5 -37t32.5 -110q0 -61 -27 -128t-72 -120l-96 22q70 129 70 240h-109zM688 1665v115q49 18 103 18q70 0 100.5 -36t30.5 -111q0 -61 -27 -128t-72 -120l-96 22q70 129 70 240h-109z" />
<glyph unicode="&#x151;" horiz-adv-x="1058" d="M102 473q0 510 451 510q403 0 403 -510q0 -244 -106.5 -366.5t-343.5 -122.5q-217 0 -310.5 127t-93.5 362zM244 1372v115q49 18 98 18q70 0 102.5 -36.5t32.5 -110.5q0 -61 -26.5 -128t-71.5 -120l-96 23q70 129 69 239h-108zM268 502q0 -143 20.5 -221t82 -116 t182.5 -38q112 0 192 35q45 94 46 278q0 145 -21.5 228.5t-82 124.5t-181.5 41q-117 0 -193 -33q-45 -96 -45 -299zM582 1372v115q49 18 102 18q70 0 100.5 -35.5t30.5 -111.5q0 -61 -26.5 -128t-71.5 -120l-96 23q70 129 69 239h-108z" />
<glyph unicode="&#x152;" horiz-adv-x="1843" d="M106 606q0 346 126 511t419 165q125 0 242 -20h805v-158h-633v-397h573v-154h-573v-377q125 -39 276 -39q186 0 340 37l39 -151q-145 -43 -393 -43q-233 -1 -358 81h-13q-135 -80 -335 -79q-252 0 -383.5 158.5t-131.5 465.5zM281 645q0 -264 84 -384t284 -120 q70 0 137.5 10.5t106.5 26.5v926q-74 12 -126 15t-144 3q-72 0 -143.5 -10t-110.5 -27q-88 -190 -88 -440z" />
<glyph unicode="&#x153;" horiz-adv-x="1689" d="M102 473q0 510 451 510q227 0 326 -162h10q117 158 342 158q180 0 269 -103.5t89 -283.5q0 -41 -2 -62l-123 -120l-510 8q6 -147 73 -218t206 -71q92 0 158.5 23.5t136.5 70.5l53 -129q-82 -51 -162 -78.5t-196 -27.5q-233 0 -338 137h-21q-106 -143 -358 -143 q-217 0 -310.5 128t-93.5 363zM268 502q0 -143 20.5 -222t82 -117t182.5 -38q112 0 192 35q45 94 46 280q0 145 -21.5 228.5t-82 124.5t-181.5 41q-117 0 -193 -33q-45 -96 -45 -299zM954 537l469 8q12 55 13 100q0 90 -53.5 141.5t-161.5 51.5q-145 0 -206 -72t-61 -229z " />
<glyph unicode="&#x154;" horiz-adv-x="1200" d="M154 0v1229q184 53 354 53q238 0 355.5 -90t117.5 -285q0 -242 -203 -340v-18q43 -20 71 -51t50 -78l139 -301l103 -19v-98q-57 -18 -135 -18q-56 0 -90.5 20.5t-55.5 67.5l-119 276q-27 61 -48 92t-60 48.5t-109 17.5h-196v-506h-174zM328 662h346q68 39 99.5 93 t31.5 146q0 125 -70.5 174t-228.5 49q-113 0 -178 -16v-446zM444 1425l170 297l217 -22l-256 -295z" />
<glyph unicode="&#x155;" horiz-adv-x="765" d="M152 0v958h141l12 -188h21q43 92 131 146.5t174 54.5q16 0 40.5 -17.5t33.5 -31.5l-19 -138h-94q-102 0 -176 -45t-97 -135v-604h-167zM307 1130l170 297l217 -22l-256 -295z" />
<glyph unicode="&#x156;" horiz-adv-x="1200" d="M154 0v1229q184 53 354 53q238 0 355.5 -90t117.5 -285q0 -242 -203 -340v-18q43 -20 71 -51t50 -78l139 -301l103 -19v-98q-57 -18 -135 -18q-56 0 -90.5 20.5t-55.5 67.5l-119 276q-27 57 -46 88t-55 49.5t-95 20.5h-217v-506h-174zM328 662h346q68 39 99.5 93 t31.5 146q0 125 -70.5 174t-228.5 49q-113 0 -178 -16v-446zM467 -162q49 18 102 19q70 0 103 -37t33 -111q0 -61 -27 -127.5t-72 -120.5l-100 23q70 129 69 240h-108v114z" />
<glyph unicode="&#x157;" horiz-adv-x="765" d="M127 -162q49 18 102 19q70 0 103 -37t33 -111q0 -61 -27 -127.5t-72 -120.5l-100 23q70 129 70 240h-109v114zM152 0v958h141l12 -188h21q43 92 131 146.5t174 54.5q16 0 40.5 -17.5t33.5 -31.5l-19 -138h-94q-102 0 -176 -45t-97 -135v-604h-167z" />
<glyph unicode="&#x158;" horiz-adv-x="1200" d="M154 0v1229q184 53 354 53q238 0 355.5 -90t117.5 -285q0 -242 -203 -340v-18q43 -20 71 -51t50 -78l139 -301l103 -19v-98q-57 -18 -135 -18q-56 0 -90.5 20.5t-55.5 67.5l-119 276q-27 61 -48 92t-60 48.5t-109 17.5h-196v-506h-174zM270 1698l105 22l172 -153h10 l166 153l108 -22l-202 -273h-154zM328 662h346q68 39 99.5 93t31.5 146q0 125 -70.5 174t-228.5 49q-113 0 -178 -16v-446z" />
<glyph unicode="&#x159;" horiz-adv-x="765" d="M152 0v958h141l12 -188h21q43 92 131 146.5t174 54.5q16 0 40.5 -17.5t33.5 -31.5l-19 -138h-94q-102 0 -176 -45t-97 -135v-604h-167zM160 1403l104 22l172 -153h10l166 153l109 -22l-203 -273h-153z" />
<glyph unicode="&#x15a;" horiz-adv-x="1060" d="M102 84l60 152q166 -86 373 -86q125 0 221 22q25 66 24 154q0 92 -55 140t-199 83q-190 45 -293.5 123t-103.5 237q0 160 99.5 266.5t324.5 106.5q125 0 206 -21.5t152 -64.5v-74q0 -88 -34 -184h-125l-27 174q-100 14 -182 14q-131 0 -185.5 -48t-54.5 -154 q0 -59 23.5 -97.5t81 -64t163.5 -49.5q201 -45 292 -123t91 -228q0 -166 -101 -272t-335 -106q-230 0 -416 100zM436 1425l170 297l217 -22l-256 -295z" />
<glyph unicode="&#x15b;" horiz-adv-x="880" d="M90 63l49 134q133 -76 299 -76q94 0 170 16q18 49 19 109q0 53 -12.5 79.5t-53.5 46t-129 38.5q-168 35 -253 96t-85 186q0 76 39 141.5t120 105.5t200 40q174 0 290 -66v-63q0 -74 -26 -141h-121l-16 133q-66 8 -136 8q-104 0 -147 -28.5t-43 -102.5q0 -66 44 -103.5 t169 -64.5q117 -25 183.5 -54.5t101 -82t34.5 -140.5q0 -123 -89 -206.5t-271 -83.5q-197 -1 -336 79zM322 1128l170 297l217 -22l-256 -295z" />
<glyph unicode="&#x15c;" horiz-adv-x="1060" d="M102 84l60 152q166 -86 373 -86q125 0 221 22q25 66 24 154q0 92 -55 140t-199 83q-190 45 -293.5 123t-103.5 237q0 160 99.5 266.5t324.5 106.5q125 0 206 -21.5t152 -64.5v-74q0 -88 -34 -184h-125l-27 174q-100 14 -182 14q-131 0 -185.5 -48t-54.5 -154 q0 -59 23.5 -97.5t81 -64t163.5 -49.5q201 -45 292 -123t91 -228q0 -166 -101 -272t-335 -106q-230 0 -416 100zM268 1423l205 273h154l202 -273l-108 -22l-166 153h-10l-172 -153z" />
<glyph unicode="&#x15d;" horiz-adv-x="880" d="M90 63l49 134q133 -76 299 -76q94 0 170 16q18 49 19 109q0 53 -12.5 79.5t-53.5 46t-129 38.5q-168 35 -253 96t-85 186q0 76 39 141.5t120 105.5t200 40q174 0 290 -66v-63q0 -74 -26 -141h-121l-16 133q-66 8 -136 8q-104 0 -147 -28.5t-43 -102.5q0 -66 44 -103.5 t169 -64.5q117 -25 183.5 -54.5t101 -82t34.5 -140.5q0 -123 -89 -206.5t-271 -83.5q-197 -1 -336 79zM162 1128l205 273h153l203 -273l-109 -22l-165 154h-11l-172 -154z" />
<glyph unicode="&#x15e;" horiz-adv-x="1060" d="M102 84l60 152q166 -86 373 -86q125 0 221 22q25 66 24 154q0 92 -55 140t-199 83q-190 45 -293.5 123t-103.5 237q0 160 99.5 266.5t324.5 106.5q125 0 206 -21.5t152 -64.5v-74q0 -88 -34 -184h-125l-27 174q-100 14 -182 14q-131 0 -185.5 -48t-54.5 -154 q0 -59 23.5 -97.5t81 -64t163.5 -49.5q201 -45 292 -123t91 -228q0 -147 -79.5 -249.5t-262.5 -122.5l-77 -111q31 14 79 15q162 0 162 -156q0 -90 -55 -135t-174 -45q-108 -1 -182 34l34 101q27 -10 66 -16.5t67 -6.5q55 0 97 8q8 25 8 54q0 61 -92 61q-49 0 -82 -16 l-88 88l98 121q-205 6 -371 98z" />
<glyph unicode="&#x15f;" horiz-adv-x="880" d="M90 63l49 134q133 -76 299 -76q94 0 170 16q18 49 19 109q0 53 -12.5 79.5t-53.5 46t-129 38.5q-168 35 -253 96t-85 186q0 76 39 141.5t120 105.5t200 40q174 0 290 -66v-63q0 -74 -26 -141h-121l-16 133q-66 8 -136 8q-104 0 -147 -28.5t-43 -102.5q0 -66 44 -103.5 t169 -64.5q117 -25 183.5 -54.5t101 -82t34.5 -140.5q0 -106 -66.5 -185t-203.5 -99l-78 -111q31 14 80 15q162 0 162 -156q0 -90 -55.5 -135t-173.5 -45q-109 -1 -183 34l35 101q27 -10 66 -16.5t67 -6.5q55 0 96 8q8 25 9 54q0 61 -92 61q-49 0 -82 -16l-88 88l98 121 q-170 10 -287 77z" />
<glyph unicode="&#x160;" horiz-adv-x="1060" d="M102 84l60 152q166 -86 373 -86q125 0 221 22q25 66 24 154q0 92 -55 140t-199 83q-190 45 -293.5 123t-103.5 237q0 160 99.5 266.5t324.5 106.5q125 0 206 -21.5t152 -64.5v-74q0 -88 -34 -184h-125l-27 174q-100 14 -182 14q-131 0 -185.5 -48t-54.5 -154 q0 -59 23.5 -97.5t81 -64t163.5 -49.5q201 -45 292 -123t91 -228q0 -166 -101 -272t-335 -106q-230 0 -416 100zM268 1698l105 22l172 -153h10l166 153l108 -22l-202 -273h-154z" />
<glyph unicode="&#x161;" horiz-adv-x="880" d="M90 63l49 134q133 -76 299 -76q94 0 170 16q18 49 19 109q0 53 -12.5 79.5t-53.5 46t-129 38.5q-168 35 -253 96t-85 186q0 76 39 141.5t120 105.5t200 40q174 0 290 -66v-63q0 -74 -26 -141h-121l-16 133q-66 8 -136 8q-104 0 -147 -28.5t-43 -102.5q0 -66 44 -103.5 t169 -64.5q117 -25 183.5 -54.5t101 -82t34.5 -140.5q0 -123 -89 -206.5t-271 -83.5q-197 -1 -336 79zM147 1403l105 22l172 -153h10l166 153l109 -22l-203 -273h-154z" />
<glyph unicode="&#x162;" horiz-adv-x="1132" d="M74 1102v160h985v-160h-406v-1102h-41l-86 -121q31 14 80 15q162 0 162 -156q0 -90 -55.5 -135t-173.5 -45q-109 -1 -183 34l35 101q27 -10 66 -16.5t67 -6.5q55 0 97 8q8 25 8 54q0 61 -92 61q-49 0 -82 -16l-88 88l112 135v1102h-405z" />
<glyph unicode="&#x163;" horiz-adv-x="780" d="M41 827l20 136h152v258h160v-258h323l-20 -136h-303v-589q0 -43 18 -86q49 -18 101 -19q33 0 85 12.5t97 30.5l45 -137q-41 -20 -98.5 -37.5t-102.5 -17.5q-27 0 -39 2l-73 -107q31 14 79 15q162 0 162 -156q0 -90 -55 -135t-174 -45q-108 -1 -182 34l34 101 q27 -10 66 -16.5t67 -6.5q55 0 97 8q8 25 8 54q0 61 -92 61q-49 0 -82 -16l-88 88l119 143q-14 10 -61.5 40t-69 68t-21.5 91v620h-172z" />
<glyph unicode="&#x164;" horiz-adv-x="1132" d="M74 1102v160h985v-160h-406v-1102h-174v1102h-405zM285 1698l104 22l172 -153h10l166 153l109 -22l-203 -273h-154z" />
<glyph unicode="&#x165;" horiz-adv-x="780" d="M41 827l20 136h152v258h160v-258h323l-20 -136h-303v-589q0 -43 18 -86q49 -18 101 -19q33 0 85 12.5t97 30.5l45 -137q-41 -20 -98.5 -37.5t-102.5 -17.5q-75 0 -143 18q-68 35 -115 86t-47 119v620h-172zM61 1698l105 22l172 -153h10l166 153l109 -22l-203 -273h-154z " />
<glyph unicode="&#x166;" horiz-adv-x="1132" d="M74 1102v160h985v-160h-406v-404h238v-135h-238v-563h-174v563h-237v135h237v404h-405z" />
<glyph unicode="&#x167;" horiz-adv-x="780" d="M41 827l20 136h152v258h160v-258h323l-20 -136h-303v-198h231v-135h-231v-258q0 -43 18 -86q49 -18 101 -19q33 0 85 12.5t97 30.5l45 -137q-41 -20 -98.5 -37.5t-102.5 -17.5q-75 0 -143 18q-68 35 -115 86t-47 119v289h-156v135h156v198h-172z" />
<glyph unicode="&#x168;" horiz-adv-x="1247" d="M150 356v906h174v-875q0 -139 67.5 -191.5t226.5 -52.5q98 0 179.5 12.5t126.5 32.5v1074h174v-1000q0 -152 -131 -215t-363 -63q-223 0 -338.5 93t-115.5 279zM340 1444q6 100 47 148t125 48q31 0 61.5 -12t69.5 -35q63 -37 92 -37q72 0 82 93l113 -37 q-6 -100 -47 -148.5t-125 -48.5q-35 0 -63.5 12.5t-65.5 34.5q-31 18 -51.5 27.5t-42.5 9.5q-72 0 -82 -92z" />
<glyph unicode="&#x169;" horiz-adv-x="1064" d="M139 258v705h168v-813q63 -18 135 -19q190 0 303 131v701h168v-963h-145l-12 147h-17q-70 -78 -147.5 -120.5t-177.5 -42.5q-144 0 -209.5 62.5t-65.5 211.5zM238 1149q6 100 47 148.5t125 48.5q31 0 61.5 -12.5t69.5 -35.5q63 -37 92 -36q72 0 82 92l112 -37 q-6 -100 -47 -148.5t-125 -48.5q-35 0 -63.5 12.5t-65.5 34.5q-31 18 -51 27.5t-43 9.5q-72 0 -82 -92z" />
<glyph unicode="&#x16a;" horiz-adv-x="1247" d="M150 356v906h174v-875q0 -139 67.5 -191.5t226.5 -52.5q98 0 179.5 12.5t126.5 32.5v1074h174v-1000q0 -152 -131 -215t-363 -63q-223 0 -338.5 93t-115.5 279zM309 1425v144h627v-144h-627z" />
<glyph unicode="&#x16b;" horiz-adv-x="1064" d="M139 258v705h168v-813q63 -18 135 -19q190 0 303 131v701h168v-963h-145l-12 147h-17q-70 -78 -147.5 -120.5t-177.5 -42.5q-144 0 -209.5 62.5t-65.5 211.5zM219 1130v144h627v-144h-627z" />
<glyph unicode="&#x16c;" horiz-adv-x="1247" d="M150 356v906h174v-875q0 -139 67.5 -191.5t226.5 -52.5q98 0 179.5 12.5t126.5 32.5v1074h174v-1000q0 -152 -131 -215t-363 -63q-223 0 -338.5 93t-115.5 279zM346 1647l158 24q4 -66 28.5 -95.5t90.5 -29.5t90 30t28 95l158 -24q-12 -111 -80.5 -171.5t-195.5 -60.5 t-196 60.5t-81 171.5z" />
<glyph unicode="&#x16d;" horiz-adv-x="1064" d="M139 258v705h168v-813q63 -18 135 -19q190 0 303 131v701h168v-963h-145l-12 147h-17q-70 -78 -147.5 -120.5t-177.5 -42.5q-144 0 -209.5 62.5t-65.5 211.5zM256 1352l158 24q4 -66 28.5 -95.5t89.5 -29.5q66 0 90.5 30t28.5 95l158 -24q-12 -111 -81 -171.5t-196 -60.5 q-126 0 -195 60.5t-81 171.5z" />
<glyph unicode="&#x16e;" horiz-adv-x="1247" d="M150 356v906h174v-875q0 -139 67.5 -191.5t226.5 -52.5q98 0 179.5 12.5t126.5 32.5v1074h174v-1000q0 -152 -131 -215t-363 -63q-223 0 -338.5 93t-115.5 279zM387 1593q0 84 65.5 140.5t182.5 56.5q102 0 162.5 -53.5t60.5 -145.5q0 -80 -67.5 -133t-180.5 -53 q-104 0 -163.5 49t-59.5 139zM504 1595q0 -41 29.5 -65.5t78.5 -24.5q86 1 119 11q10 37 10 73q0 41 -29.5 71t-78.5 30q-80 0 -119 -11q-10 -35 -10 -84z" />
<glyph unicode="&#x16f;" horiz-adv-x="1064" d="M139 258v705h168v-813q63 -18 135 -19q190 0 303 131v701h168v-963h-145l-12 147h-17q-70 -78 -147.5 -120.5t-177.5 -42.5q-144 0 -209.5 62.5t-65.5 211.5zM297 1298q0 84 65.5 140.5t182.5 56.5q102 0 162.5 -53t60.5 -146q0 -80 -67.5 -133t-180.5 -53 q-104 0 -163.5 49t-59.5 139zM414 1300q0 -41 29.5 -65.5t78.5 -24.5q86 1 119 11q10 37 10 73q0 41 -29.5 71t-78.5 30q-80 0 -119 -11q-10 -35 -10 -84z" />
<glyph unicode="&#x170;" horiz-adv-x="1247" d="M150 356v906h174v-875q0 -139 67.5 -191.5t226.5 -52.5q98 0 179.5 12.5t126.5 32.5v1074h174v-1000q0 -152 -131 -215t-363 -63q-223 0 -338.5 93t-115.5 279zM338 1665v115q49 18 98 18q70 0 102.5 -37t32.5 -110q0 -61 -26.5 -128t-71.5 -120l-96 22q70 129 69 240 h-108zM676 1665v115q49 18 102 18q70 0 100.5 -36t30.5 -111q0 -61 -26.5 -128t-71.5 -120l-96 22q70 129 69 240h-108z" />
<glyph unicode="&#x171;" horiz-adv-x="1064" d="M139 258v705h168v-813q63 -18 135 -19q190 0 303 131v701h168v-963h-145l-12 147h-17q-70 -78 -147.5 -120.5t-177.5 -42.5q-144 0 -209.5 62.5t-65.5 211.5zM248 1370v115q49 18 98 18q70 0 102.5 -36.5t32.5 -110.5q0 -61 -26.5 -128t-71.5 -120l-96 22q70 129 69 240 h-108zM586 1370v115q49 18 102 18q70 0 100.5 -35.5t30.5 -111.5q0 -61 -26.5 -128t-71.5 -120l-96 22q70 129 69 240h-108z" />
<glyph unicode="&#x172;" horiz-adv-x="1247" d="M150 356v906h174v-875q0 -139 67.5 -191.5t226.5 -52.5q98 0 179.5 12.5t126.5 32.5v1074h174v-1000q0 -129 -95.5 -193.5t-269.5 -78.5q-61 -39 -85.5 -74t-24.5 -82q0 -27 6 -45q27 -8 78 -8q49 0 84 10l28 -110q-55 -23 -133 -23q-98 0 -155.5 42t-57.5 122 q0 55 25.5 93t74.5 69q-209 6 -316 99t-107 273z" />
<glyph unicode="&#x173;" horiz-adv-x="1064" d="M139 258v705h168v-813q63 -18 135 -19q190 0 303 131v701h168v-963h-53q-74 -43 -102.5 -79t-28.5 -87q0 -27 6 -45q27 -8 78 -8q49 0 84 10l29 -110q-55 -23 -133 -23q-98 0 -155.5 42t-57.5 122q0 74 48 121t138 84l-10 120h-17q-70 -78 -147.5 -120.5t-177.5 -42.5 q-143 0 -209 62.5t-66 211.5z" />
<glyph unicode="&#x174;" horiz-adv-x="1705" d="M74 1247l188 19q51 -291 105.5 -529.5t124.5 -519.5h16l139 418l133 405q-23 90 -43 193l174 18q51 -240 104.5 -430t131.5 -452l45 -152h22q70 281 124.5 519.5t105.5 529.5l188 -19q-70 -313 -146.5 -606t-176.5 -641h-213l-41 123q-123 367 -193 610h-28 q-20 -61 -37 -112.5t-31 -94.5q-129 -387 -180 -526h-191q-200 696 -321 1247zM571 1423l205 273h154l203 -273l-109 -22l-166 153h-10l-172 -153z" />
<glyph unicode="&#x175;" horiz-adv-x="1460" d="M76 956l164 15q72 -311 114.5 -485.5t91.5 -319.5h13q133 330 209 600q-14 59 -39 178l151 14q100 -477 219 -804h13q102 276 241 821l158 -19q-82 -297 -152.5 -521t-152.5 -435h-197q-92 227 -176 526h-8q-39 -117 -90 -257t-70 -189l-30 -80h-179q-165 454 -280 956z M449 1128l204 273h154l203 -273l-109 -22l-166 154h-10l-172 -154z" />
<glyph unicode="&#x176;" horiz-adv-x="1259" d="M57 1229l174 43q80 -199 176.5 -382t190.5 -321h64q94 137 190 320.5t176 382.5l174 -43q-102 -242 -201.5 -424t-240.5 -373h-43v-432h-174v432h-43q-141 190 -240.5 372.5t-202.5 424.5zM348 1423l205 273h154l202 -273l-108 -22l-166 153h-10l-172 -153z" />
<glyph unicode="&#x177;" horiz-adv-x="1015" d="M61 958l166 15q106 -430 250 -787h80q113 348 215 787l170 -15q-84 -346 -181 -654t-194 -533q-33 -78 -115.5 -126t-162.5 -48q-102 -1 -180 38v64q0 66 20 129h121v-90q29 -6 72 -6q20 0 73 8q51 121 115 303h-131q-113 270 -186.5 479t-131.5 436zM233 1128l205 273 h154l203 -273l-109 -22l-166 154h-10l-172 -154z" />
<glyph unicode="&#x178;" horiz-adv-x="1259" d="M57 1229l174 43q80 -199 176.5 -382t190.5 -321h64q94 137 190 320.5t176 382.5l174 -43q-102 -242 -201.5 -424t-240.5 -373h-43v-432h-174v432h-43q-141 190 -240.5 372.5t-202.5 424.5zM373 1503q0 43 25.5 66.5t68.5 23.5q45 0 69.5 -23.5t24.5 -66.5 q0 -41 -24.5 -64.5t-69.5 -23.5q-43 0 -68.5 23.5t-25.5 64.5zM694 1503q0 43 25.5 66.5t71.5 23.5q45 0 69.5 -23.5t24.5 -66.5q0 -41 -24.5 -64.5t-69.5 -23.5q-46 0 -71.5 23.5t-25.5 64.5z" />
<glyph unicode="&#x179;" horiz-adv-x="1148" d="M98 0v168l709 911v27h-502v-131h-151q-35 96 -35 186v101h903v-168l-711 -908v-32h553v133h152q35 -96 35 -187v-100h-953zM461 1423l170 297l217 -22l-256 -295z" />
<glyph unicode="&#x17a;" horiz-adv-x="919" d="M94 0v147l522 664v20h-340l-16 -124h-121q-27 72 -26 141v115h692v-148l-524 -659v-25h385l16 125h121q27 -72 26 -141v-115h-735zM362 1130l170 297l218 -22l-256 -295z" />
<glyph unicode="&#x17b;" horiz-adv-x="1148" d="M98 0v168l709 911v27h-502v-131h-151q-35 96 -35 186v101h903v-168l-711 -908v-32h553v133h152q35 -96 35 -187v-100h-953zM463 1530q0 57 31.5 88t91.5 31q59 0 91 -31t32 -88q0 -53 -33 -84t-90 -31q-58 0 -90.5 31t-32.5 84z" />
<glyph unicode="&#x17c;" horiz-adv-x="919" d="M94 0v147l522 664v20h-340l-16 -124h-121q-27 72 -26 141v115h692v-148l-524 -659v-25h385l16 125h121q27 -72 26 -141v-115h-735zM338 1235q0 57 31.5 88t91.5 31q59 0 91 -31t32 -88q0 -53 -33 -84t-90 -31q-58 0 -90.5 31t-32.5 84z" />
<glyph unicode="&#x17d;" horiz-adv-x="1148" d="M98 0v168l709 911v27h-502v-131h-151q-35 96 -35 186v101h903v-168l-711 -908v-32h553v133h152q35 -96 35 -187v-100h-953zM293 1698l104 22l172 -153h11l165 153l109 -22l-203 -273h-153z" />
<glyph unicode="&#x17e;" horiz-adv-x="927" d="M102 0v147l523 664v20h-340l-17 -124h-121q-27 72 -26 141v115h692v-148l-524 -659v-25h385l16 125h121q27 -72 27 -141v-115h-736zM201 1403l104 22l172 -153h10l166 153l109 -22l-203 -273h-153z" />
<glyph unicode="&#x18f;" horiz-adv-x="1284" d="M104 489q0 51 2 78l160 148l709 -10q0 219 -101.5 318t-302.5 99q-137 0 -217 -27.5t-174 -88.5l-67 135q109 68 214 104.5t259 36.5q283 0 424 -170t141 -469q0 -322 -141.5 -492.5t-417.5 -170.5q-246 0 -367 136t-121 373zM276 436q0 -137 81 -217t237 -80 q197 0 290 105.5t93 314.5l-692 -10q-8 -57 -9 -113z" />
<glyph unicode="&#x192;" horiz-adv-x="944" d="M-41 -279l33 142q33 -6 82 -6q74 0 133 16q31 47 43 127l115 815h-132l39 135h111l20 150q10 74 69.5 136t127.5 99q61 10 135 11q104 0 199 -52l-57 -135q-45 20 -77 28.5t-75 8.5q-76 0 -127 -25q-25 -41 -35 -110l-16 -111h237l-39 -135h-217l-110 -786 q-25 -170 -98.5 -253t-221.5 -83q-76 -1 -139 28z" />
<glyph unicode="&#x1a0;" horiz-adv-x="1343" d="M106 606q0 346 126 511t419 165q137 0 229.5 -37t153.5 -117h21q41 78 61.5 156t22.5 182h164q0 -174 -46.5 -280.5t-154.5 -179.5q33 -72 48 -153t15 -196q0 -346 -126 -510.5t-418 -164.5q-252 0 -383.5 158.5t-131.5 465.5zM281 645q0 -264 84 -384t284 -120 q70 0 137.5 10.5t106.5 26.5q98 217 98 440q0 266 -83 385t-285 119q-72 0 -143.5 -10t-110.5 -27q-88 -190 -88 -440z" />
<glyph unicode="&#x1a1;" horiz-adv-x="1169" d="M102 473q0 510 451 510q244 0 340 -186h18q41 61 56.5 132.5t17.5 184.5h164q0 -162 -47 -266.5t-164 -175.5q18 -82 18 -199q0 -244 -106.5 -367.5t-343.5 -123.5q-217 0 -310.5 128t-93.5 363zM268 502q0 -143 20.5 -222t82 -117t182.5 -38q112 0 192 35q45 94 46 280 q0 145 -21.5 228.5t-82 124.5t-181.5 41q-117 0 -193 -33q-45 -96 -45 -299z" />
<glyph unicode="&#x1af;" horiz-adv-x="1488" d="M150 356v906h174v-875q0 -139 67.5 -191.5t226.5 -52.5q98 0 179.5 12.5t126.5 32.5v1074h170v-203h16q227 94 227 366h172q0 -211 -110.5 -343t-300.5 -179v-641q0 -152 -131 -215t-363 -63q-223 0 -338.5 93t-115.5 279z" />
<glyph unicode="&#x1b0;" horiz-adv-x="1271" d="M139 258v705h168v-813q63 -18 135 -19q190 0 303 131v701h168v-166h19q86 47 120.5 117.5t34.5 199.5h164q0 -166 -83 -278.5t-255 -180.5v-655h-145l-12 147h-17q-70 -78 -147.5 -120.5t-177.5 -42.5q-144 0 -209.5 62.5t-65.5 211.5z" />
<glyph unicode="&#x1cd;" horiz-adv-x="1243" d="M72 14q84 315 191.5 651t207.5 597h301q100 -260 207.5 -596t191.5 -652l-186 -14q-57 227 -108 410h-512q-61 -213 -107 -410zM340 1698l104 22l172 -153h11l166 153l108 -22l-203 -273h-153zM410 563h421q-106 360 -167 533h-84q-74 -209 -170 -533z" />
<glyph unicode="&#x1ce;" horiz-adv-x="970" d="M82 231q0 156 118.5 232t327.5 76q68 0 136 -7v127q0 111 -45.5 151t-159.5 40q-70 0 -135 -8l-21 -154h-125q-27 72 -26 137v52q61 39 166.5 70.5t193.5 31.5q154 0 236.5 -79t82.5 -222v-678h-149l-8 135h-17q-51 -72 -127.5 -111.5t-162.5 -39.5q-140 0 -212.5 66.5 t-72.5 180.5zM225 1403l105 22l172 -153h10l166 153l108 -22l-202 -273h-154zM258 250q0 -74 34 -104.5t97 -30.5q84 0 158 39t121 110v152q-72 16 -189 16q-129 0 -188 -16q-18 -45 -25.5 -81t-7.5 -85z" />
<glyph unicode="&#x1cf;" horiz-adv-x="495" d="M-33 1698l105 22l172 -153h10l166 153l108 -22l-202 -273h-154zM160 0v1262h174v-1262h-174z" />
<glyph unicode="&#x1d0;" horiz-adv-x="475" d="M-43 1403l104 22l172 -153h11l166 153l108 -22l-203 -273h-153zM156 0v961h163v-961h-163z" />
<glyph unicode="&#x1d1;" horiz-adv-x="1271" d="M106 606q0 346 126 511t419 165q262 0 388 -156.5t126 -468.5q0 -346 -126 -509.5t-418 -163.5q-252 0 -383.5 157.5t-131.5 464.5zM281 645q0 -264 84 -383t284 -119q70 0 137.5 10.5t106.5 26.5q98 217 98 438q0 266 -83 385t-285 119q-72 0 -143.5 -10t-110.5 -27 q-88 -190 -88 -440zM354 1698l105 22l172 -153h10l166 153l108 -22l-202 -273h-154z" />
<glyph unicode="&#x1d2;" horiz-adv-x="1058" d="M102 473q0 510 451 510q403 0 403 -510q0 -244 -106.5 -366.5t-343.5 -122.5q-217 0 -310.5 127t-93.5 362zM248 1403l104 22l172 -153h11l165 153l109 -22l-203 -273h-153zM268 502q0 -143 20.5 -221t82 -116t182.5 -38q112 0 192 35q45 94 46 278q0 145 -21.5 228.5 t-82 124.5t-181.5 41q-117 0 -193 -33q-45 -96 -45 -299z" />
<glyph unicode="&#x1d3;" horiz-adv-x="1247" d="M150 356v906h174v-875q0 -139 67.5 -191.5t226.5 -52.5q98 0 179.5 12.5t126.5 32.5v1074h174v-1000q0 -152 -131 -215t-363 -63q-223 0 -338.5 93t-115.5 279zM342 1698l104 22l172 -153h11l166 153l108 -22l-203 -273h-153z" />
<glyph unicode="&#x1d4;" horiz-adv-x="1064" d="M139 258v705h168v-813q63 -18 135 -19q190 0 303 131v701h168v-963h-145l-12 147h-17q-70 -78 -147.5 -120.5t-177.5 -42.5q-144 0 -209.5 62.5t-65.5 211.5zM252 1403l104 22l172 -153h11l166 153l108 -22l-203 -273h-153z" />
<glyph unicode="&#x1d5;" horiz-adv-x="1247" d="M150 356v906h174v-875q0 -139 67.5 -191.5t226.5 -52.5q98 0 179.5 12.5t126.5 32.5v1074h174v-1000q0 -152 -131 -215t-363 -63q-223 0 -338.5 93t-115.5 279zM309 1718v144h627v-144h-627zM367 1503q0 43 25.5 66.5t68.5 23.5q45 0 69.5 -23.5t24.5 -66.5 q0 -41 -24.5 -64.5t-69.5 -23.5q-43 0 -68.5 23.5t-25.5 64.5zM688 1503q0 43 25.5 66.5t70.5 23.5t70 -23.5t25 -66.5q0 -41 -25 -64.5t-70 -23.5t-70.5 23.5t-25.5 64.5z" />
<glyph unicode="&#x1d6;" horiz-adv-x="1064" d="M139 258v705h168v-813q63 -18 135 -19q190 0 303 131v701h168v-963h-145l-12 147h-17q-70 -78 -147.5 -120.5t-177.5 -42.5q-144 0 -209.5 62.5t-65.5 211.5zM219 1423v144h627v-144h-627zM276 1208q0 43 26 66.5t69 23.5q45 0 69.5 -23.5t24.5 -66.5q0 -41 -24.5 -64.5 t-69.5 -23.5q-43 0 -69 23.5t-26 64.5zM598 1208q0 43 25.5 66.5t70.5 23.5t69.5 -23.5t24.5 -66.5q0 -41 -24.5 -64.5t-69.5 -23.5t-70.5 23.5t-25.5 64.5z" />
<glyph unicode="&#x1d7;" horiz-adv-x="1247" d="M150 356v906h174v-875q0 -139 67.5 -191.5t226.5 -52.5q98 0 179.5 12.5t126.5 32.5v1074h174v-1000q0 -152 -131 -215t-363 -63q-223 0 -338.5 93t-115.5 279zM367 1503q0 43 25.5 66.5t68.5 23.5q45 0 69.5 -23.5t24.5 -66.5q0 -41 -24.5 -64.5t-69.5 -23.5 q-43 0 -68.5 23.5t-25.5 64.5zM537 1769l170 297l217 -22l-256 -295zM688 1503q0 43 25.5 66.5t70.5 23.5t70 -23.5t25 -66.5q0 -41 -25 -64.5t-70 -23.5t-70.5 23.5t-25.5 64.5z" />
<glyph unicode="&#x1d8;" horiz-adv-x="1064" d="M139 258v705h168v-813q63 -18 135 -19q190 0 303 131v701h168v-963h-145l-12 147h-17q-70 -78 -147.5 -120.5t-177.5 -42.5q-144 0 -209.5 62.5t-65.5 211.5zM276 1208q0 43 26 66.5t69 23.5q45 0 69.5 -23.5t24.5 -66.5q0 -41 -24.5 -64.5t-69.5 -23.5q-43 0 -69 23.5 t-26 64.5zM463 1475l170 297l217 -23l-256 -295zM598 1208q0 43 25.5 66.5t70.5 23.5t69.5 -23.5t24.5 -66.5q0 -41 -24.5 -64.5t-69.5 -23.5t-70.5 23.5t-25.5 64.5z" />
<glyph unicode="&#x1d9;" horiz-adv-x="1247" d="M150 356v906h174v-875q0 -139 67.5 -191.5t226.5 -52.5q98 0 179.5 12.5t126.5 32.5v1074h174v-1000q0 -152 -131 -215t-363 -63q-223 0 -338.5 93t-115.5 279zM330 1993l104 22l172 -153h10l166 153l109 -22l-203 -273h-153zM367 1503q0 43 25.5 66.5t68.5 23.5 q45 0 69.5 -23.5t24.5 -66.5q0 -41 -24.5 -64.5t-69.5 -23.5q-43 0 -68.5 23.5t-25.5 64.5zM688 1503q0 43 25.5 66.5t70.5 23.5t70 -23.5t25 -66.5q0 -41 -25 -64.5t-70 -23.5t-70.5 23.5t-25.5 64.5z" />
<glyph unicode="&#x1da;" horiz-adv-x="1064" d="M139 258v705h168v-813q63 -18 135 -19q190 0 303 131v701h168v-963h-145l-12 147h-17q-70 -78 -147.5 -120.5t-177.5 -42.5q-144 0 -209.5 62.5t-65.5 211.5zM252 1698l104 22l172 -153h11l166 153l108 -22l-203 -273h-153zM276 1208q0 43 26 66.5t69 23.5 q45 0 69.5 -23.5t24.5 -66.5q0 -41 -24.5 -64.5t-69.5 -23.5q-43 0 -69 23.5t-26 64.5zM598 1208q0 43 25.5 66.5t70.5 23.5t69.5 -23.5t24.5 -66.5q0 -41 -24.5 -64.5t-69.5 -23.5t-70.5 23.5t-25.5 64.5z" />
<glyph unicode="&#x1db;" horiz-adv-x="1247" d="M150 356v906h174v-875q0 -139 67.5 -191.5t226.5 -52.5q98 0 179.5 12.5t126.5 32.5v1074h174v-1000q0 -152 -131 -215t-363 -63q-223 0 -338.5 93t-115.5 279zM324 2044l217 22l170 -297l-131 -20zM367 1503q0 43 25.5 66.5t68.5 23.5q45 0 69.5 -23.5t24.5 -66.5 q0 -41 -24.5 -64.5t-69.5 -23.5q-43 0 -68.5 23.5t-25.5 64.5zM688 1503q0 43 25.5 66.5t70.5 23.5t70 -23.5t25 -66.5q0 -41 -25 -64.5t-70 -23.5t-70.5 23.5t-25.5 64.5z" />
<glyph unicode="&#x1dc;" horiz-adv-x="1064" d="M139 258v705h168v-813q63 -18 135 -19q190 0 303 131v701h168v-963h-145l-12 147h-17q-70 -78 -147.5 -120.5t-177.5 -42.5q-144 0 -209.5 62.5t-65.5 211.5zM223 1747l217 22l170 -296l-131 -21zM274 1208q0 43 26 66.5t69 23.5q45 0 69.5 -23.5t24.5 -66.5 q0 -41 -24.5 -64.5t-69.5 -23.5q-43 0 -69 23.5t-26 64.5zM596 1208q0 43 25.5 66.5t70.5 23.5t69.5 -23.5t24.5 -66.5q0 -41 -24.5 -64.5t-69.5 -23.5t-70.5 23.5t-25.5 64.5z" />
<glyph unicode="&#x1e6;" horiz-adv-x="1224" d="M111 592q0 328 141 509t426 181q125 0 238.5 -24.5t166.5 -59.5v-115q0 -78 -26 -141h-121l-21 162q-35 8 -103.5 13t-135.5 5q-154 0 -268 -24q-55 -98 -89 -229.5t-34 -264.5q0 -240 99 -350.5t306 -110.5q145 0 244 25v358h-295v154h383l84 -70v-336 q0 -84 -57.5 -150.5t-159 -103t-225.5 -36.5q-267 0 -410 155.5t-143 452.5zM338 1698l104 22l172 -153h11l166 153l108 -22l-203 -273h-153z" />
<glyph unicode="&#x1e7;" horiz-adv-x="1052" d="M102 455q0 252 80 388t287 136q188 0 270 -166h15l12 150h143v-1061q0 -150 -107.5 -227.5t-289.5 -77.5q-100 0 -194.5 23.5t-153.5 60.5l47 129q59 -31 136 -49.5t149 -18.5q82 0 140 11t112 36v236l6 135h-17q-59 -68 -134 -110t-159 -42q-184 0 -263 128t-79 319z M266 1403l105 22l172 -153h10l166 153l108 -22l-202 -273h-154zM274 475q0 -170 51.5 -247.5t161.5 -77.5q72 0 137.5 35.5t116.5 103.5v411q-106 139 -252 140q-127 0 -171 -88t-44 -277z" />
<glyph unicode="&#x1fa;" horiz-adv-x="1243" d="M72 14q84 315 191.5 651t207.5 597h301q100 -260 207.5 -596t191.5 -652l-186 -14q-57 227 -108 410h-512q-61 -213 -107 -410zM379 1575q0 84 65.5 140.5t182.5 56.5q102 0 162.5 -53.5t60.5 -145.5q0 -80 -67.5 -133.5t-180.5 -53.5q-104 0 -163.5 49.5t-59.5 139.5z M410 563h421q-106 360 -167 533h-84q-74 -209 -170 -533zM496 1577q0 -41 29.5 -65.5t78.5 -24.5q86 0 119 10q10 37 10 74q0 41 -29.5 70.5t-78.5 29.5q-80 0 -119 -10q-10 -35 -10 -84zM500 1905l170 297l217 -23l-256 -295z" />
<glyph unicode="&#x1fb;" horiz-adv-x="970" d="M82 231q0 156 118.5 232t327.5 76q68 0 136 -7v127q0 111 -45.5 151t-159.5 40q-70 0 -135 -8l-21 -154h-125q-27 72 -26 137v52q61 39 166.5 70.5t193.5 31.5q154 0 236.5 -79t82.5 -222v-678h-149l-8 135h-17q-51 -72 -127.5 -111.5t-162.5 -39.5q-140 0 -212.5 66.5 t-72.5 180.5zM250 1278q0 84 65.5 140.5t182.5 56.5q102 0 162.5 -53.5t60.5 -145.5q0 -80 -67.5 -133t-180.5 -53q-104 0 -163.5 49t-59.5 139zM258 250q0 -74 34 -104.5t97 -30.5q84 0 158 39t121 110v152q-72 16 -189 16q-129 0 -188 -16q-18 -45 -25.5 -81t-7.5 -85z M367 1280q0 -41 29.5 -65.5t78.5 -24.5q86 0 119 10q10 37 10 74q0 41 -29.5 70.5t-78.5 29.5q-80 0 -119 -10q-10 -35 -10 -84zM393 1591l170 297l217 -22l-256 -295z" />
<glyph unicode="&#x1fc;" horiz-adv-x="1888" d="M41 53q272 563 641 1209h1061v-158h-633v-397h573v-154h-573v-395q123 -20 268 -21q195 0 348 37l39 -151q-145 -43 -393 -43q-205 0 -319.5 46t-114.5 160v224h-526q-90 -172 -207 -410zM492 563h446v533h-156q-111 -188 -290 -533zM995 1423l170 297l217 -22l-256 -295 z" />
<glyph unicode="&#x1fd;" horiz-adv-x="1572" d="M82 231q0 156 118.5 232t327.5 76q94 0 162 -7v127q0 109 -56 150t-175 41q-70 0 -135 -8l-21 -154h-125q-27 72 -26 137v52q61 39 166.5 70.5t193.5 31.5q100 0 176 -35t115 -100q104 135 311 135q180 0 269.5 -103.5t89.5 -283.5q0 -41 -3 -62l-122 -120l-494 8 q4 -145 65.5 -217t196.5 -72q92 0 158.5 23.5t136.5 70.5l53 -129q-82 -51 -161.5 -78.5t-196.5 -27.5q-246 0 -338 159q-80 -82 -164 -122.5t-221 -40.5q-139 0 -220 67.5t-81 179.5zM258 250q0 -76 37 -105.5t111 -29.5q169 -1 288 114v187q-33 8 -95 12t-120 4 q-129 0 -188 -16q-18 -45 -25.5 -81t-7.5 -85zM702 1128l170 297l218 -22l-256 -295zM852 537l455 8q12 55 12 100q0 90 -53.5 141.5t-161.5 51.5q-98 0 -152.5 -32t-75 -96.5t-24.5 -172.5z" />
<glyph unicode="&#x1fe;" horiz-adv-x="1271" d="M106 606q0 346 126 511t419 165q104 0 185 -25l65 142l143 -35l-77 -170q199 -145 198 -537q0 -346 -126 -510.5t-418 -164.5q-113 0 -199 30l-76 -166l-143 37l92 199q-188 152 -189 524zM281 645q0 -279 90 -395l393 852q-68 20 -141 20q-72 0 -143.5 -10t-110.5 -27 q-88 -190 -88 -440zM492 166q68 -25 157 -25q70 0 137.5 10.5t106.5 26.5q98 217 98 440q0 150 -24.5 249.5t-77.5 158.5zM551 1425l170 297l217 -22l-256 -295z" />
<glyph unicode="&#x1ff;" horiz-adv-x="1058" d="M102 473q0 510 451 510q72 0 123 -14l74 161l143 -34l-86 -191q149 -119 149 -432q0 -244 -106.5 -366.5t-343.5 -122.5q-63 0 -119 12l-98 -217l-144 37l109 237q-152 113 -152 420zM268 502q0 -115 12.5 -184.5t45.5 -110.5l282 616q-47 10 -102 11q-117 0 -193 -33 q-45 -96 -45 -299zM420 1130l170 297l217 -22l-256 -295zM453 135q39 -8 100 -8q113 0 192 35q46 94 46 278q0 117 -12.5 189.5t-45.5 118.5z" />
<glyph unicode="&#x218;" horiz-adv-x="1060" d="M102 84l60 152q166 -86 373 -86q125 0 221 22q25 66 24 154q0 92 -55 140t-199 83q-190 45 -293.5 123t-103.5 237q0 160 99.5 266.5t324.5 106.5q125 0 206 -21.5t152 -64.5v-74q0 -88 -34 -184h-125l-27 174q-100 14 -182 14q-131 0 -185.5 -48t-54.5 -154 q0 -59 23.5 -97.5t81 -64t163.5 -49.5q201 -45 292 -123t91 -228q0 -166 -101 -272t-335 -106q-230 0 -416 100zM442 -162q49 18 103 19q70 0 102.5 -37t32.5 -111q0 -61 -26.5 -127.5t-71.5 -120.5l-101 23q70 129 70 240h-109v114z" />
<glyph unicode="&#x219;" horiz-adv-x="880" d="M90 63l49 134q133 -76 299 -76q94 0 170 16q18 49 19 109q0 53 -12.5 79.5t-53.5 46t-129 38.5q-168 35 -253 96t-85 186q0 76 39 141.5t120 105.5t200 40q174 0 290 -66v-63q0 -74 -26 -141h-121l-16 133q-66 8 -136 8q-104 0 -147 -28.5t-43 -102.5q0 -66 44 -103.5 t169 -64.5q117 -25 183.5 -54.5t101 -82t34.5 -140.5q0 -123 -89 -206.5t-271 -83.5q-197 -1 -336 79zM344 -162q49 18 102 19q70 0 103 -37t33 -111q0 -61 -27 -127.5t-72 -120.5l-100 23q70 129 70 240h-109v114z" />
<glyph unicode="&#x21a;" horiz-adv-x="1132" d="M74 1102v160h985v-160h-406v-1102h-174v1102h-405zM444 -152q49 18 103 19q70 0 102.5 -37t32.5 -111q0 -61 -26.5 -127.5t-71.5 -119.5l-101 22q70 129 70 240h-109v114z" />
<glyph unicode="&#x21b;" horiz-adv-x="780" d="M41 827l20 136h152v258h160v-258h323l-20 -136h-303v-589q0 -43 18 -86q49 -18 101 -19q33 0 85 12.5t97 30.5l45 -137q-41 -20 -98.5 -37.5t-102.5 -17.5q-75 0 -143 18q-68 35 -115 86t-47 119v620h-172zM328 -162q49 18 102 19q70 0 102.5 -37t32.5 -111 q0 -61 -26.5 -127.5t-71.5 -120.5l-100 23q70 129 69 240h-108v114z" />
<glyph unicode="&#x237;" horiz-adv-x="561" d="M-70 -373l39 144q49 -16 84 -21.5t80 -5.5q55 0 100 14q14 41 15 117v1088h164v-1096q0 -129 -76 -201t-205 -72q-109 0 -201 33z" />
<glyph unicode="&#x251;" horiz-adv-x="1052" d="M102 455q0 252 80 388t287 136q188 0 270 -166h15l12 158h143v-971l-143 -2l-12 133h-17q-59 -68 -134 -109.5t-159 -41.5q-182 0 -262 140t-80 335zM274 475q0 -354 213 -354q72 0 137.5 36t116.5 103v440q-106 139 -252 140q-127 0 -171 -88t-44 -277z" />
<glyph unicode="&#x259;" horiz-adv-x="999" d="M100 375q0 41 2 61l123 121l510 -8q-6 289 -278 289q-92 0 -159 -23.5t-136 -71.5l-53 129q82 51 161.5 79t196.5 28q227 0 328.5 -126t101.5 -359q0 -238 -113.5 -372t-324.5 -134q-180 0 -269.5 103.5t-89.5 283.5zM254 322q0 -90 53 -141.5t162 -51.5 q147 0 205.5 70.5t62.5 230.5l-471 -8q-12 -55 -12 -100z" />
<glyph unicode="&#x261;" horiz-adv-x="1052" d="M143 426q0 252 80 388t287 136q188 0 270 -166h15l12 158h143v-1069q0 -150 -107.5 -227.5t-289.5 -77.5q-100 0 -194.5 23.5t-153.5 60.5l47 129q59 -31 136 -49.5t149 -18.5q82 0 140 11.5t111 35.5v236l7 135h-17q-59 -68 -134 -109.5t-159 -41.5q-184 0 -263 128 t-79 318zM315 446q0 -170 51.5 -247.5t161.5 -77.5q72 0 137.5 36t116.5 103v412q-106 139 -252 139q-127 0 -171 -88t-44 -277z" />
<glyph unicode="&#x2bb;" horiz-adv-x="540" d="M154 1026q0 61 26.5 128t71.5 120l96 -23q-70 -129 -69 -239h108v-115q-49 -18 -98 -18q-70 0 -102.5 36.5t-32.5 110.5z" />
<glyph unicode="&#x2bc;" horiz-adv-x="540" d="M154 1141v114q49 18 98 19q70 0 102.5 -37t32.5 -111q0 -61 -26.5 -127.5t-71.5 -119.5l-96 22q70 129 69 240h-108z" />
<glyph unicode="&#x2be;" horiz-adv-x="360" d="M82 942v105q51 0 70 4q6 18 6 47q0 33 -19.5 52t-56.5 19v105q197 0 197 -166q0 -76 -50.5 -121t-146.5 -45z" />
<glyph unicode="&#x2bf;" horiz-adv-x="401" d="M102 1108q0 166 197 166v-105q-37 0 -56.5 -19.5t-19.5 -51.5q0 -29 6 -47q18 -4 70 -4v-105q-96 0 -146.5 45t-50.5 121z" />
<glyph unicode="&#x2c6;" horiz-adv-x="684" d="M61 989l205 273h154l203 -273l-109 -22l-166 153h-10l-172 -153z" />
<glyph unicode="&#x2c7;" horiz-adv-x="684" d="M61 1239l105 23l172 -154h10l166 154l109 -23l-203 -272h-154z" />
<glyph unicode="&#x2c8;" horiz-adv-x="358" d="M102 967v424h154v-424h-154z" />
<glyph unicode="&#x2c9;" horiz-adv-x="628" d="M102 967v145h424v-145h-424z" />
<glyph unicode="&#x2ca;" horiz-adv-x="538" d="M115 985l127 256l217 -22l-213 -254z" />
<glyph unicode="&#x2cb;" horiz-adv-x="538" d="M94 1219l217 22l127 -256l-131 -20z" />
<glyph unicode="&#x2cc;" horiz-adv-x="440" d="M143 0h154v-424h-154v424z" />
<glyph unicode="&#x2d8;" horiz-adv-x="757" d="M102 1237l158 25q4 -66 28.5 -95.5t90.5 -29.5t90.5 29.5t28.5 95.5l157 -25q-12 -111 -80.5 -171t-195.5 -60t-195.5 60t-81.5 171z" />
<glyph unicode="&#x2d9;" horiz-adv-x="651" d="M203 1122q0 57 31.5 88t91.5 31q59 0 91 -30.5t32 -88.5q0 -53 -33 -83.5t-90 -30.5q-58 0 -90.5 30.5t-32.5 83.5z" />
<glyph unicode="&#x2da;" horiz-adv-x="675" d="M102 1096q0 84 65.5 140t182.5 56q102 0 162.5 -53t60.5 -145q0 -80 -67.5 -133.5t-179.5 -53.5q-105 0 -164.5 49.5t-59.5 139.5zM219 1098q0 -41 30 -65.5t79 -24.5q85 0 118 10q10 37 11 74q0 41 -30 70.5t-79 29.5q-80 0 -119 -10q-10 -35 -10 -84z" />
<glyph unicode="&#x2db;" horiz-adv-x="612" d="M133 -178q0 76 48 121t138 84l95 -27q-74 -43 -102.5 -80t-28.5 -86q0 -27 6 -45q27 -8 78 -8q49 0 84 10l28 -110q-55 -23 -133 -23q-98 0 -155.5 42t-57.5 122z" />
<glyph unicode="&#x2dc;" horiz-adv-x="856" d="M133 1071q6 100 47 148.5t125 48.5q31 0 61.5 -12.5t69.5 -34.5q63 -37 92 -37q72 0 82 92l113 -37q-6 -100 -47 -148.5t-125 -48.5q-35 0 -63.5 12.5t-65.5 35.5q-31 18 -51.5 27t-42.5 9q-72 0 -82 -92z" />
<glyph unicode="&#x2dd;" horiz-adv-x="878" d="M154 1128v115q49 18 98 19q70 0 102.5 -37t32.5 -111q0 -61 -26.5 -127.5t-71.5 -120.5l-96 23q70 129 69 239h-108zM492 1128v115q49 18 102 19q70 0 100.5 -36t30.5 -112q0 -61 -26.5 -127.5t-71.5 -120.5l-97 23q70 129 70 239h-108z" />
<glyph unicode="&#x300;" d="M-569 1001l170 297l217 -22l-256 -295z" />
<glyph unicode="&#x301;" d="M-569 1001l170 297l217 -22l-256 -295z" />
<glyph unicode="&#x302;" d="M-741 989l204 273h154l203 -273l-109 -22l-166 153h-10l-172 -153z" />
<glyph unicode="&#x303;" d="M-774 1071q6 100 47 148.5t125 48.5q31 0 61.5 -12.5t69.5 -34.5q63 -37 92 -37q72 0 82 92l113 -37q-6 -100 -47 -148.5t-125 -48.5q-35 0 -64 12.5t-65 35.5q-31 18 -51.5 27t-43.5 9q-72 0 -82 -92z" />
<glyph unicode="&#x304;" d="M-608 967v145h424v-145h-424z" />
<glyph unicode="&#x306;" d="M-727 1237l158 25q4 -66 28.5 -95.5t89.5 -29.5q66 0 90.5 29.5t28.5 95.5l158 -25q-12 -111 -81 -171t-196 -60t-195.5 60t-80.5 171z" />
<glyph unicode="&#x307;" d="M-457 1122q0 57 32 88t91 31t91 -30.5t32 -88.5q0 -53 -32.5 -83.5t-90.5 -30.5q-57 0 -90 30.5t-33 83.5z" />
<glyph unicode="&#x308;" d="M-903 1049q0 43 25.5 66.5t68.5 23.5q45 0 69.5 -23.5t24.5 -66.5q0 -41 -24.5 -64.5t-69.5 -23.5q-43 0 -68.5 23.5t-25.5 64.5zM-582 1049q0 43 26 66.5t71 23.5t69.5 -23.5t24.5 -66.5q0 -41 -24.5 -64.5t-69.5 -23.5t-71 23.5t-26 64.5z" />
<glyph unicode="&#x309;" d="M-537 1389q80 37 177 36q98 0 145 -44t47 -117q0 -152 -192 -152v-84h-93l-26 100v72q109 0 146.5 9.5t37.5 50.5q0 35 -20.5 47t-67.5 12q-63 0 -121 -23z" />
<glyph unicode="&#x30a;" d="M-633 1096q0 84 65.5 140t182.5 56q102 0 162.5 -53t60.5 -145q0 -80 -67.5 -133.5t-180.5 -53.5q-104 0 -163.5 49.5t-59.5 139.5zM-516 1098q0 -41 29.5 -65.5t78.5 -24.5q86 0 119 10q10 37 10 74q0 41 -29.5 70.5t-78.5 29.5q-80 0 -119 -10q-10 -35 -10 -84z" />
<glyph unicode="&#x30b;" d="M-735 1128v115q49 18 98 19q70 0 102.5 -37t32.5 -111q0 -61 -26.5 -127.5t-71.5 -120.5l-96 23q70 129 69 239h-108zM-397 1128v115q49 18 102 19q70 0 100.5 -36t30.5 -112q0 -61 -26.5 -127.5t-71.5 -120.5l-96 23q70 129 69 239h-108z" />
<glyph unicode="&#x30c;" d="M-741 1239l104 23l172 -154h10l166 154l109 -23l-203 -272h-154z" />
<glyph unicode="&#x31b;" d="M133 713v131q111 0 154 29.5t43 99.5h-113v131q49 14 98 14q84 0 124 -47t40 -121q0 -109 -81 -174t-220 -65q-29 0 -45 2z" />
<glyph unicode="&#x323;" d="M203 -225q0 57 31.5 88t91.5 31q59 0 91 -31t32 -88q0 -53 -33 -84t-90 -31q-58 0 -90.5 30.5t-32.5 84.5z" />
<glyph unicode="&#x324;" d="M-903 -262q0 43 25.5 66.5t68.5 23.5q45 0 69.5 -23.5t24.5 -66.5q0 -41 -24.5 -64.5t-69.5 -23.5q-43 0 -68.5 23.5t-25.5 64.5zM-582 -262q0 43 26 66.5t71 23.5t69.5 -23.5t24.5 -66.5q0 -41 -24.5 -64.5t-69.5 -23.5t-71 23.5t-26 64.5z" />
<glyph unicode="&#x326;" d="M133 -281l111 220h235l-182 -220h-164z" />
<glyph unicode="&#x327;" d="M-522 -408l35 101q27 -10 65.5 -16.5t67.5 -6.5q55 0 96 8q8 25 8 54q0 61 -92 61q-49 0 -82 -16l-88 88l131 158l115 -23l-86 -121q31 14 80 15q162 0 161 -156q0 -90 -55 -135t-174 -45q-108 -1 -182 34z" />
<glyph unicode="&#x328;" d="M133 -178q0 76 48 121t138 84l95 -27q-74 -43 -102.5 -80t-28.5 -86q0 -27 6 -45q27 -8 78 -8q49 0 84 10l28 -110q-55 -23 -133 -23q-98 0 -155.5 42t-57.5 122z" />
<glyph unicode="&#x32e;" d="M102 -293q12 111 81 171.5t196 60.5t195.5 -60.5t80.5 -171.5l-157 -24q-4 66 -29 95t-90 29q-66 0 -90.5 -29.5t-28.5 -94.5z" />
<glyph unicode="&#x331;" d="M-819 -61h635v-154h-635v154z" />
<glyph unicode="&#x3c0;" horiz-adv-x="1243" d="M72 809v149h1058v-149h-182v-592q0 -51 8 -82q35 -6 74 -6q41 0 86 4v-143q-37 -12 -100 -13q-119 0 -178.5 61.5t-59.5 190.5v580h-358v-809h-172v809h-176z" />
<glyph unicode="&#xe01;" horiz-adv-x="1138" d="M111 799v112q106 78 223 122t264 44q141 0 228 -43t124 -106.5t37 -130.5v-797h-172v877q-39 20 -100.5 34.5t-130.5 14.5q-221 0 -326 -80v-6l119 -142q27 -33 26 -77q0 -12 -4 -41l-82 -580h-167l88 635z" />
<glyph unicode="&#xe02;" horiz-adv-x="1026" d="M102 909v148h117q117 0 166 -56.5t49 -144.5q0 -59 -19.5 -103t-60.5 -102q-39 -61 -58.5 -103t-19.5 -99v-130q0 -94 47.5 -139t176.5 -45q113 0 202 21v901h172v-727q0 -145 -92 -247.5t-282 -102.5q-224 0 -310 96t-86 254v151q0 70 24 117t67 100q35 45 51 75t16 69 q0 68 -67 67h-93z" />
<glyph unicode="&#xe03;" horiz-adv-x="1073" d="M94 969q0 47 10 88h123v-121q6 -2 19 -2q70 0 84 123h155q27 -55 39.5 -105.5t12.5 -113.5q0 -66 -29 -108t-88 -97q-55 -51 -82 -90t-27 -94v-130q0 -94 50.5 -139t179.5 -45q119 0 209 21v901h172v-727q0 -92 -40 -171t-126 -129t-215 -50q-402 0 -402 350v151 q0 72 37 120t105 104q49 41 70.5 66.5t21.5 55.5q0 33 -8 60h-13q-25 -33 -55.5 -49.5t-79.5 -16.5q-59 0 -91 39t-32 109z" />
<glyph unicode="&#xe04;" horiz-adv-x="1181" d="M92 655q0 203 131 312.5t377 109.5q197 0 313.5 -81t116.5 -212v-784h-172v885q-39 14 -117.5 25.5t-146.5 11.5q-172 0 -252 -61.5t-80 -211.5q0 -117 43 -225h14q113 127 256 172l136 -31l2 -39q2 -39 -2 -87t-13 -85h-133l-16 86q-63 -10 -141 -65l-107 -375h-176 l100 268q-63 96 -98 189.5t-35 197.5z" />
<glyph unicode="&#xe05;" horiz-adv-x="1214" d="M92 655q0 199 68.5 310.5t240.5 111.5q72 0 128.5 -32.5t91.5 -90.5q37 55 96 89t133 34q127 0 213 -43v-1034h-172v915q-29 8 -82 9q-51 0 -88 -25t-55 -63h-105q-25 43 -54.5 66.5t-78.5 23.5q-102 0 -134 -66.5t-32 -210.5q0 -123 41 -225h16q113 127 256 172l136 -31 l2 -39q2 -39 -2 -87t-13 -85h-133l-16 86q-63 -10 -141 -65l-107 -375h-176l100 268q-133 193 -133 387z" />
<glyph unicode="&#xe06;" horiz-adv-x="1167" d="M100 969q0 47 11 88h122v-121q6 -2 19 -2q70 0 84 123h156q27 -55 39 -105.5t12 -113.5q0 -66 -27 -109t-80 -96q-49 -51 -73.5 -90t-24.5 -94v-191q141 -123 338 -123q104 0 168 23v899h172v-838q0 -121 -79 -180t-224 -59q-224 -1 -363 153h-16l-10 -133h-158v481 q0 72 33.5 120t95.5 104q43 39 63.5 65.5t20.5 56.5q0 35 -10 60h-11q-25 -33 -55.5 -49.5t-79.5 -16.5q-59 0 -91 39t-32 109z" />
<glyph unicode="&#xe07;" horiz-adv-x="1013" d="M45 823l168 45l246 -716h80q94 125 145 274t51 315q0 102 -33 168q-39 12 -100 13q-47 0 -121 -15l-24 152q51 10 88 14t78 4q131 0 207.5 -84t76.5 -250q0 -207 -69.5 -389t-206.5 -354h-293z" />
<glyph unicode="&#xe08;" horiz-adv-x="1071" d="M119 915v95q203 68 401 67q246 0 345.5 -115.5t99.5 -349.5q0 -180 -61.5 -316t-188.5 -296h-307l-150 397q-6 20 -19.5 29.5t-39.5 9.5h-56v139h109q51 0 77.5 -13t39 -31.5t28.5 -61.5l131 -334h93q78 90 127 211t49 262q0 121 -27 187.5t-90.5 96.5t-181.5 30 q-47 0 -110.5 -7.5t-115.5 -19.5v-135h-129q-25 78 -24 155z" />
<glyph unicode="&#xe09;" horiz-adv-x="1142" d="M127 924v75q229 78 438 78t317.5 -91t108.5 -257v-729h-157l-11 145h-16q-66 -82 -140.5 -123.5t-181.5 -41.5q-129 0 -199.5 59t-70.5 180v195h-76v141h146q98 0 98 -100v-303q59 -16 131 -17q170 0 305 135v428q0 129 -65.5 177.5t-210.5 48.5q-61 0 -134 -9.5 t-124 -21.5v-135h-129q-29 86 -29 166z" />
<glyph unicode="&#xe0a;" horiz-adv-x="1046" d="M102 909v148h117q117 0 166 -56.5t49 -144.5q0 -59 -19.5 -103t-60.5 -102q-39 -61 -58.5 -103t-19.5 -99v-130q0 -92 52.5 -138t181.5 -46q123 0 213 21v354q0 78 -35 113.5t-117 56.5v123q63 0 98.5 30.5t43.5 73.5q2 10 12 60.5t12 109.5l178 -33q-6 -88 -43 -174 q-37 -84 -151 -108v-8q88 -31 131 -78t43 -139v-207q0 -90 -41 -170t-128 -130t-216 -50q-406 0 -406 350v151q0 70 24 117t67 100q35 45 51 75t16 69q0 68 -67 67h-93z" />
<glyph unicode="&#xe0b;" horiz-adv-x="1103" d="M94 969q0 47 10 88h123v-121q6 -2 19 -2q70 0 84 123h155q27 -55 39.5 -105.5t12.5 -113.5q0 -66 -29 -109t-86 -96q-53 -51 -79 -90t-26 -94v-130q0 -92 54.5 -138t183.5 -46q61 0 124.5 6t100.5 15v354q0 78 -34.5 113.5t-116.5 56.5v123q63 0 98 30.5t43 73.5 q2 10 12.5 60.5t12.5 109.5l178 -33q-6 -88 -43 -174q-37 -84 -152 -108v-8q88 -31 131 -78t43 -139v-207q0 -90 -44 -170t-134 -130t-219 -50q-223 0 -316.5 97t-93.5 253v151q0 72 36 120t102 104q49 41 69.5 66.5t20.5 55.5q0 33 -8 60h-13q-25 -33 -55.5 -49.5 t-79.5 -16.5q-59 0 -91 39t-32 109z" />
<glyph unicode="&#xe0c;" horiz-adv-x="1757" d="M119 799v112q106 78 222 122t263 44q201 0 293 -83t92 -197v-539q74 -63 144.5 -93t158.5 -30q45 0 75 4t67 19v899h172v-838q0 -240 -277 -239q-98 0 -175 35.5t-153 117.5h-16l-10 -133h-154v877q-37 20 -101.5 32.5t-129.5 12.5q-182 0 -324 -76v-6l119 -142 q27 -33 27 -75q0 -27 -4 -43l-66 -387q-8 -68 64 -68h145v-115q-37 -12 -89 -21t-104 -9q-82 0 -129 46t-47 130q0 20 2 32l68 447z" />
<glyph unicode="&#xe0d;" horiz-adv-x="1738" d="M119 799v112q106 78 222 122t263 44q205 0 292 -84t87 -196v-471q0 -111 45 -151t164 -40q125 0 223 29v893h172v-838q0 -102 -96 -166v-6l43 -49q4 -37 4 -53q0 -145 -94 -221t-254 -76q-82 0 -158 10t-174 35l41 151q176 -47 289 -47q51 0 110.5 4t85.5 13 q4 92 -22 186q-88 -20 -174 -20q-180 0 -278.5 78.5t-98.5 240.5v578q-84 45 -221 45q-182 0 -324 -76v-6l119 -142q27 -33 27 -75q0 -27 -4 -43l-66 -387l-2 -17q0 -51 66 -51h145v-115q-37 -12 -89 -21t-104 -9q-80 0 -129 44t-49 123q0 12 4 41l68 447z" />
<glyph unicode="&#xe0e;" horiz-adv-x="1179" d="M82 10v113h98q39 0 55.5 11t18.5 38l57 463l-143 164v112q104 78 219 122t250 44q141 0 228 -43t125 -106.5t38 -130.5v-879q0 -70 -31.5 -136.5t-84 -107.5t-113.5 -41q-109 35 -199 35q-80 0 -146.5 -10t-164.5 -37l-39 135q106 31 182 44.5t150 13.5q137 0 262 -54h12 v1117q-78 49 -233 49q-182 0 -308 -80v-6l129 -142q27 -29 27 -73q0 -8 -4 -45l-57 -439q-8 -74 -54.5 -117.5t-134.5 -43.5q-37 0 -74.5 8t-64.5 22z" />
<glyph unicode="&#xe0f;" horiz-adv-x="1179" d="M82 10v113h98q39 0 55.5 11t18.5 38l57 463l-143 164v112q104 78 219 122t250 44q141 0 228 -43t125 -106.5t38 -130.5v-846q0 -336 -278 -336h-142l-28 106q-47 -63 -91.5 -92.5t-134.5 -29.5q-76 0 -180 49l45 141q37 -16 82 -26.5t72 -10.5q68 0 106.5 10.5t71.5 30.5 l-41 105h156l49 -162q70 0 125 16q16 45 16 129v996q-78 49 -233 49q-182 0 -308 -80v-6l129 -142q27 -29 27 -73q0 -8 -4 -45l-57 -439q-8 -74 -54.5 -117.5t-134.5 -43.5q-37 0 -74.5 8t-64.5 22z" />
<glyph unicode="&#xe10;" horiz-adv-x="1171" d="M70 -403l45 141q37 -16 82 -26.5t71 -10.5q68 0 107 10t71 31l-40 104h151l49 -161q102 0 154 16q6 80 -37 195l168 20q8 -66 8 -96q0 -117 -51 -186.5t-160 -69.5h-184l-29 106q-47 -63 -91 -93t-134 -30q-76 1 -180 50zM119 928v82q203 68 401 67q195 0 301 -82l94 88 l177 37l30 -151l-225 -62q68 -111 68 -295q0 -180 -61.5 -316t-188.5 -296h-307l-150 397q-6 20 -19.5 29.5t-39.5 9.5h-56v139h109q51 0 77.5 -13t39 -31.5t28.5 -61.5l131 -334h93q78 90 127 211t49 262q0 121 -27 187.5t-90.5 96.5t-181.5 30q-47 0 -110.5 -7.5 t-115.5 -19.5v-123h-129q-25 78 -24 156z" />
<glyph unicode="&#xe11;" horiz-adv-x="1167" d="M100 969q0 47 11 88h122v-121q6 -2 19 -2q70 0 84 123h156q35 -78 43 -115h16q66 68 125 101.5t133 33.5q98 0 152.5 -56t54.5 -151v-870h-172v909q-37 12 -86 13q-92 0 -215 -93q-4 -57 -30 -97t-77 -95q-49 -53 -73.5 -93t-24.5 -95v-449h-172v481q0 72 33.5 120 t95.5 104q43 39 63.5 65.5t20.5 56.5q0 33 -8 60h-13q-25 -33 -55.5 -49.5t-79.5 -16.5q-59 0 -91 39t-32 109z" />
<glyph unicode="&#xe12;" horiz-adv-x="1773" d="M98 541q0 272 71 404t232 132q127 0 197 -119q39 57 90 88t125 31q127 0 193 -47v-772q68 -63 137 -93t149 -30q94 0 158 23v899h172v-838q0 -121 -73.5 -180t-207.5 -59q-92 0 -168.5 37.5t-154.5 115.5h-17l-10 -133h-153v915q-18 8 -66 9q-96 0 -129 -84h-104 q-37 86 -113 86q-88 0 -122 -93.5t-34 -291.5q0 -152 21.5 -239t65.5 -124t118 -37q53 0 119 19l35 -135q-39 -16 -76 -25.5t-88 -9.5q-131 0 -211 53t-118 173t-38 325z" />
<glyph unicode="&#xe13;" horiz-adv-x="1751" d="M119 799v112q106 78 222 122t263 44q201 0 291 -82t90 -198v-645q68 -16 133 -17q84 0 159 34t150 101v787h172v-1057h-157l-10 145h-17q-76 -84 -150.5 -124.5t-181.5 -40.5q-135 0 -200.5 58t-65.5 181v658q-37 20 -99.5 32.5t-127.5 12.5q-182 0 -324 -76v-6l119 -142 q25 -31 25 -75q0 -27 -2 -43l-66 -387q-8 -68 64 -68h145v-115q-37 -12 -89 -21t-104 -9q-82 0 -129 46t-47 130q0 20 2 32l68 447z" />
<glyph unicode="&#xe14;" horiz-adv-x="1161" d="M111 514q0 266 118.5 414.5t374.5 148.5q217 0 406 -76v-1001h-172v895q-106 31 -234 31q-180 0 -250.5 -104.5t-70.5 -307.5q0 -143 18 -223t62.5 -115t123.5 -35q53 0 119 19l35 -135q-70 -35 -164 -35q-194 0 -280 125t-86 399z" />
<glyph unicode="&#xe15;" horiz-adv-x="1200" d="M111 541q0 279 78.5 407.5t244.5 128.5q127 0 197 -119q80 119 225 119q127 0 193 -47v-1030h-172v915q-18 8 -62 9q-96 0 -139 -84h-105q-27 47 -48 66.5t-64 19.5q-176 0 -176 -385q0 -152 21.5 -239t65.5 -124t117 -37q53 0 119 19l35 -135q-39 -16 -76 -25.5 t-88 -9.5q-131 0 -211 53t-117.5 173t-37.5 325z" />
<glyph unicode="&#xe16;" horiz-adv-x="1155" d="M119 799v112q225 166 495 166q141 0 228.5 -43t124.5 -106.5t37 -130.5v-797h-173v877q-39 20 -99 32.5t-132 12.5q-193 0 -334 -76v-6l119 -142q25 -31 25 -75q0 -27 -2 -43l-66 -387q-8 -68 64 -68h145v-115q-37 -12 -89 -21t-104 -9q-82 0 -129 46t-47 130q0 20 2 32 l68 447z" />
<glyph unicode="&#xe17;" horiz-adv-x="1157" d="M156 0v1057h157l11 -160h16q68 82 166 131t207 49q293 0 293 -239v-838h-172v899q-63 23 -158 23q-176 0 -348 -150v-772h-172z" />
<glyph unicode="&#xe18;" horiz-adv-x="1075" d="M121 817q0 121 119.5 190.5t324.5 69.5q219 0 377 -55l-49 -139q-154 41 -326 41q-180 0 -258 -15q-18 -45 -18 -98q0 -45 25.5 -65.5t86.5 -28.5l340 -45q29 -4 79 -40t90 -79t40 -64v-272q0 -117 -113.5 -177t-293.5 -60q-199 0 -300.5 72.5t-101.5 230.5v174h170v-148 q0 -102 50.5 -139t181.5 -37q66 0 132 10.5t105 26.5v352l-411 51q-127 18 -188.5 75t-61.5 169z" />
<glyph unicode="&#xe19;" horiz-adv-x="1153" d="M152 219v838h172v-899q63 -23 157 -23q193 0 348 135v787h172v-1057h-157l-10 145h-17q-66 -80 -161 -122.5t-207 -42.5q-144 0 -220.5 59t-76.5 180z" />
<glyph unicode="&#xe1a;" horiz-adv-x="1159" d="M152 283v774h172v-748q0 -100 60 -137t196 -37q68 0 142.5 11.5t113.5 25.5v885h172v-840q0 -115 -123 -176t-305 -61q-203 0 -315.5 73.5t-112.5 229.5z" />
<glyph unicode="&#xe1b;" horiz-adv-x="1159" d="M152 283v774h172v-748q0 -100 60 -137t196 -37q68 0 142.5 11.5t113.5 25.5v1262h172v-1217q0 -115 -123 -176t-305 -61q-203 0 -315.5 73.5t-112.5 229.5z" />
<glyph unicode="&#xe1c;" horiz-adv-x="1255" d="M111 526q0 211 27.5 329t98 170t199.5 52q51 0 88 -9t76 -26l-35 -135q-66 18 -119 19q-72 0 -106.5 -36t-46.5 -119t-12 -245q0 -147 12 -228t44 -119t91 -38q43 0 77 13.5t50 35.5v299h158v-299q23 -23 60.5 -35t74.5 -12q55 0 86 9v905h170v-998q-88 -70 -207 -69 q-84 0 -143.5 27.5t-104.5 80.5h-14q-41 -55 -92 -81.5t-133 -26.5q-162 0 -230.5 126t-68.5 410z" />
<glyph unicode="&#xe1d;" horiz-adv-x="1255" d="M111 526q0 211 27.5 329t98 170t199.5 52q51 0 88 -9t76 -26l-35 -135q-66 18 -119 19q-72 0 -106.5 -36t-46.5 -119t-12 -245q0 -147 12 -228t44 -119t91 -38q43 0 77 13.5t50 35.5v299h158v-299q23 -23 60.5 -35t74.5 -12q55 0 86 9v1282h170v-1375q-88 -70 -207 -69 q-84 0 -143.5 27.5t-104.5 80.5h-14q-41 -55 -92 -81.5t-133 -26.5q-162 0 -230.5 126t-68.5 410z" />
<glyph unicode="&#xe1e;" horiz-adv-x="1304" d="M127 1063l164 14q33 -637 53 -911h12q88 227 230 696h133q141 -469 229 -696h13q20 274 53 911l164 -14q-43 -641 -105 -1063h-201q-104 272 -217 645h-6q-113 -373 -217 -645h-201q-61 422 -104 1063z" />
<glyph unicode="&#xe1f;" horiz-adv-x="1304" d="M127 1063l164 14q33 -637 53 -911h12q88 227 230 696h133q141 -469 229 -696h13q16 231 57 1036l12 232l164 -15q-74 -1094 -121 -1419h-201q-104 272 -217 645h-6q-113 -373 -217 -645h-201q-61 422 -104 1063z" />
<glyph unicode="&#xe20;" horiz-adv-x="1179" d="M82 10v113h98q39 0 55.5 11t18.5 38l57 463l-143 164v112q104 78 219 122t250 44q141 0 228 -43t125 -106.5t38 -130.5v-797h-172v877q-78 49 -233 49q-182 0 -308 -80v-6l129 -142q27 -29 27 -73q0 -8 -4 -45l-57 -439q-8 -74 -54.5 -117.5t-134.5 -43.5q-37 0 -74.5 8 t-64.5 22z" />
<glyph unicode="&#xe21;" horiz-adv-x="1136" d="M156 0v1057h172v-799q74 -63 151.5 -93t175.5 -30q94 0 158 23v899h172v-838q0 -240 -293 -239q-213 -1 -352 153h-16l-11 -133h-157z" />
<glyph unicode="&#xe22;" horiz-adv-x="1120" d="M106 299q0 111 50.5 179.5t144.5 90.5v13q-176 59 -176 227q0 117 79 192.5t218 75.5q68 0 143 -18l-20 -148q-53 10 -125 11q-57 0 -117 -9q-10 -55 -10 -104q0 -172 182 -172h98v-148h-108q-92 0 -141.5 -48t-49.5 -134q0 -100 67 -142t202 -42q86 0 149.5 12t98.5 31 v891h178v-719q0 -199 -107.5 -285t-318.5 -86q-199 0 -318 82t-119 250z" />
<glyph unicode="&#xe23;" horiz-adv-x="956" d="M88 68l49 145q84 -43 148.5 -61.5t169.5 -18.5q121 0 202 29q29 49 29 125q0 80 -52 118.5t-181 49.5q-160 12 -258.5 86.5t-98.5 191.5q0 147 98.5 245.5t292.5 98.5q106 0 185.5 -13t152.5 -50l-82 -144q-121 53 -292 54q-96 0 -148 -19q-35 -53 -35 -127 q0 -66 19.5 -97.5t69 -45.5t151.5 -25q156 -14 253 -83.5t97 -196.5q0 -150 -100.5 -250t-308.5 -100q-119 0 -207 20t-154 68z" />
<glyph unicode="&#xe24;" horiz-adv-x="1150" d="M115 799v112q225 166 495 166q141 0 228.5 -43t124 -106.5t36.5 -130.5v-1200h-172v1280q-39 20 -99 32.5t-132 12.5q-193 0 -334 -76v-6l119 -142q25 -31 25 -75q0 -27 -3 -43l-65 -387q-8 -68 63 -68h146v-115q-37 -12 -89 -21t-104 -9q-82 0 -129 46t-47 130 q0 20 2 32l68 447z" />
<glyph unicode="&#xe25;" horiz-adv-x="1081" d="M82 272q0 176 100.5 255t313.5 79q76 0 132 -6t132 -25v123q0 90 -22.5 138.5t-74 68t-145.5 19.5q-106 0 -213 -21v-147h-129q-29 82 -29 166v88q106 33 197.5 50t196.5 17q205 0 297 -89t92 -259v-729h-168v442q-119 25 -254 25q-133 0 -229 -21q-25 -80 -25 -149 q0 -92 36 -129t109 -37q88 0 142 23l41 -142q-109 -33 -189 -32q-145 0 -228 76.5t-83 215.5z" />
<glyph unicode="&#xe26;" horiz-adv-x="1175" d="M94 10v113h99q39 0 54 11t19 38l58 463l-144 164v112q106 78 216 122t245 44q205 0 294 -85t89 -195v-1200h-172v1280q-90 49 -225 49q-94 0 -166 -19.5t-133 -60.5v-6l129 -142q27 -29 26 -73q0 -8 -4 -45l-57 -439q-8 -74 -54 -117.5t-135 -43.5q-37 0 -74.5 8 t-64.5 22z" />
<glyph unicode="&#xe27;" horiz-adv-x="997" d="M113 92l80 131q102 -88 262 -88t216 94.5t56 282.5q0 152 -20.5 238t-80 129t-171.5 43q-43 0 -92.5 -9.5t-88.5 -23.5l-14 -152h-121q-27 72 -26 142v100q55 41 153.5 69.5t202.5 28.5q240 0 335 -143t95 -422q0 -532 -434 -532q-215 -1 -352 112z" />
<glyph unicode="&#xe28;" horiz-adv-x="1236" d="M92 655q0 203 131 312.5t377 109.5q190 0 311 -80l95 86l176 37l30 -151l-217 -60q35 -57 35 -125v-784h-172v885q-39 14 -117.5 25.5t-146.5 11.5q-172 0 -252 -61.5t-80 -211.5q0 -117 43 -225h14q113 127 256 172l136 -31l2 -39q2 -39 -2 -87t-13 -85h-133l-16 86 q-63 -10 -141 -65l-107 -375h-176l100 268q-63 96 -98 189.5t-35 197.5z" />
<glyph unicode="&#xe29;" horiz-adv-x="1239" d="M152 283v774h172v-748q0 -100 62.5 -137t197.5 -37q68 0 144.5 11.5t115.5 25.5v287q-90 0 -158 8q-104 14 -170 41v213h152v-117q72 -8 166 -8h10v461h172v-432q51 18 117 59l75 -129q-104 -59 -192 -78v-260q0 -115 -125 -176t-307 -61q-203 0 -317.5 73.5 t-114.5 229.5z" />
<glyph unicode="&#xe2a;" horiz-adv-x="1163" d="M82 272q0 176 100.5 255t313.5 79q76 0 132 -6t132 -25v123q0 90 -22.5 138.5t-74 68t-145.5 19.5q-106 0 -213 -21v-147h-129q-29 70 -29 166v88q106 33 197.5 50t196.5 17q180 0 276 -73l86 79l176 37l31 -151l-217 -60q37 -74 37 -180v-729h-168v442q-119 25 -254 25 q-133 0 -229 -21q-25 -80 -25 -149q0 -92 36 -129t109 -37q88 0 142 23l41 -142q-109 -33 -189 -32q-145 0 -228 76.5t-83 215.5z" />
<glyph unicode="&#xe2b;" horiz-adv-x="1112" d="M156 0v1057h163v-357l383 17q33 43 54 106q23 68 39 185l10 59l174 -18q-14 -193 -74 -297q-14 -25 -60 -53.5t-93 -41.5q141 -33 172 -227l65 -430h-176l-57 408q-14 88 -51 121.5t-121 33.5h-265v-563h-163z" />
<glyph unicode="&#xe2c;" horiz-adv-x="1341" d="M127 1063l164 14q33 -637 53 -911h12q152 393 222 614h133q70 -221 221 -614h12q39 356 66 702q-29 23 -73 42.5t-91 27.5v145q23 -2 69 -2q88 0 186.5 14.5t164.5 34.5l43 -157q-39 -10 -101 -10q-78 0 -174 20v-10q68 -29 96.5 -72t28.5 -104q0 -25 -2 -39 q-37 -346 -100 -758h-201q-150 383 -207 563h-10q-66 -195 -164 -452l-43 -111h-201q-61 422 -104 1063z" />
<glyph unicode="&#xe2d;" horiz-adv-x="1071" d="M98 332v162q0 20 54.5 64t80.5 44h312v-145h-279v-131q0 -80 22.5 -121t73 -56.5t142.5 -15.5q121 0 180 28.5t84 108.5t25 240q0 174 -26 262t-78 119t-146 31q-125 0 -252 -19v-145h-129q-25 94 -25 166v71q111 41 208 61.5t198 20.5q162 0 254 -62.5t130 -185 t38 -319.5q0 -268 -104.5 -399t-352.5 -131q-410 0 -410 352z" />
<glyph unicode="&#xe2e;" horiz-adv-x="1175" d="M98 332v162q0 20 54.5 64t80.5 44h312v-145h-279v-131q0 -80 22.5 -121t73 -56.5t142.5 -15.5q121 0 180 28.5t84 108.5t25 240q0 174 -26 262t-78 119t-146 31q-125 0 -252 -19v-145h-129q-25 94 -25 166v71q111 41 208 61.5t198 20.5q174 0 272 -76l88 82l176 37 l31 -151l-217 -60q39 -68 55.5 -166t16.5 -233q0 -268 -104.5 -399t-352.5 -131q-410 0 -410 352z" />
<glyph unicode="&#xe2f;" horiz-adv-x="1019" d="M102 776q0 137 25 281h158v-340q0 -59 12 -96q49 -12 109 -13q147 0 290 62v387h172v-1057h-172v545q-66 -41 -135 -65.5t-155 -24.5q-152 0 -228 87t-76 234z" />
<glyph unicode="&#xe30;" horiz-adv-x="964" d="M127 203v209h162v-111q59 -18 155 -18q94 0 166 21.5t146 64.5l73 -131q-92 -51 -181 -72t-206 -21q-188 1 -315 58zM127 698v209h162v-110q59 -18 155 -19q94 0 166 21.5t146 64.5l73 -131q-92 -51 -181 -71.5t-206 -20.5q-188 0 -315 57z" />
<glyph unicode="&#xe31;" d="M-610 1247v209h161v-110q59 -18 156 -19q98 0 194.5 36t166.5 91l77 -141q-88 -59 -203.5 -91t-236.5 -32q-188 0 -315 57z" />
<glyph unicode="&#xe32;" horiz-adv-x="835" d="M53 1024q70 25 151 39t156 14q150 0 237 -62.5t87 -170.5v-844h-172v899q-66 27 -170 27q-78 0 -134 -7.5t-122 -25.5z" />
<glyph unicode="&#xe33;" horiz-adv-x="835" d="M-610 1380q0 84 65.5 140.5t182.5 56.5q102 0 162.5 -53.5t60.5 -145.5q0 -80 -67.5 -133t-180.5 -53q-105 0 -164 49t-59 139zM-489 1382q0 -39 26.5 -60.5t77.5 -21.5q82 1 115 11q10 37 10 65q0 41 -27.5 66.5t-77.5 25.5q-76 0 -114 -10q-10 -35 -10 -76zM53 1024 q70 25 151 39t156 14q150 0 237 -62.5t87 -170.5v-844h-172v899q-66 27 -170 27q-78 0 -134 -7.5t-122 -25.5z" />
<glyph unicode="&#xe34;" d="M-870 1210v109l221 29h497v-138h-718z" />
<glyph unicode="&#xe35;" d="M-870 1210v109l221 29h348v120h149v-258h-718z" />
<glyph unicode="&#xe36;" d="M-870 1210v109l221 29h160q-2 4 -3 14q0 63 47.5 108.5t133.5 45.5q88 0 135 -45.5t47 -108.5q0 -66 -41 -109t-127 -43h-573zM-387 1362q0 -74 76 -74q30 0 61 10q16 29 17 64q0 76 -76 76q-35 0 -70 -13q-8 -31 -8 -63z" />
<glyph unicode="&#xe37;" d="M-870 1210v109l221 29h114v120h129v-120h125v120h129v-258h-718z" />
<glyph unicode="&#xe38;" d="M-487 -180q31 18 80 28.5t98 10.5q82 0 120.5 -43t38.5 -144v-247h-145v227q0 37 -8 69q-29 4 -51 5q-49 0 -101 -15z" />
<glyph unicode="&#xe39;" d="M-760 -176q74 39 148 39q70 0 99.5 -42t29.5 -145v-75q0 -33 15 -47.5t56 -14.5q72 0 115 8v310h145v-258q0 -80 -67.5 -130.5t-181.5 -50.5q-228 1 -228 185v53q0 37 -8 70q-8 2 -22 2q-35 0 -68 -13z" />
<glyph unicode="&#xe3a;" d="M-348 -143h196v-205h-196v205z" />
<glyph unicode="&#xe3f;" horiz-adv-x="1171" d="M154 0v1235q145 41 301 47v184h157v-190q176 -23 263.5 -111t87.5 -247q0 -88 -39 -154t-127 -115v-12q115 -37 171 -108.5t56 -170.5q0 -111 -37 -183.5t-127 -115.5t-248 -55v-229h-157v225h-301zM326 156h131q158 0 241.5 18.5t118.5 59t35 116.5q0 92 -68.5 147.5 t-199.5 55.5h-258v-397zM326 707h170q168 0 231.5 51t63.5 164q0 115 -71 159.5t-228 44.5q-84 0 -166 -16v-403z" />
<glyph unicode="&#xe40;" horiz-adv-x="604" d="M139 231v826h168v-864q0 -37 6 -62q31 -6 76 -6h111v-115q-57 -31 -123 -30q-96 0 -167 71.5t-71 179.5z" />
<glyph unicode="&#xe41;" horiz-adv-x="1136" d="M139 231v826h168v-864q0 -37 6 -62q31 -6 76 -6h111v-115q-57 -31 -123 -30q-96 0 -167 71.5t-71 179.5zM672 231v826h168v-864q0 -37 6 -62q31 -6 76 -6h110v-115q-57 -31 -123 -30q-96 0 -166.5 71.5t-70.5 179.5z" />
<glyph unicode="&#xe42;" horiz-adv-x="731" d="M-10 1339v107l127 96q164 -6 315 -6q178 0 277 23l43 -127q-135 -43 -308 -43q-88 0 -164.5 7t-164.5 27v-12l256 -295q31 -37 39 -77t8 -113v-733q0 -37 6 -62q31 -6 76 -6h110v-115q-57 -31 -123 -30q-96 0 -166.5 71.5t-70.5 179.5v697q0 55 -4 82.5t-23 48.5z" />
<glyph unicode="&#xe43;" horiz-adv-x="763" d="M8 1405v76q55 37 154.5 63.5t220.5 26.5q152 0 241 -65.5t89 -164.5q0 -66 -16.5 -109.5t-61.5 -82.5l-139 -121q-23 -27 -32 -47t-9 -53v-735q0 -37 6 -62q31 -6 76 -6h110v-115q-57 -31 -123 -30q-96 0 -166.5 71.5t-70.5 179.5v717q0 45 9 69.5t36 53.5l209 201v141 q-76 12 -176 12q-113 0 -199 -28v-158h-129q-23 74 -29 166z" />
<glyph unicode="&#xe44;" horiz-adv-x="825" d="M-31 1427l43 121q152 -57 234 -137q90 68 184 102.5t207 42.5l137 -114v-80q0 -25 -9 -46.5t-30 -47.5l-205 -299q-16 -27 -21 -53.5t-5 -77.5v-643q0 -37 6 -62q31 -6 76 -6h110v-115q-57 -31 -123 -30q-96 0 -166.5 71.5t-70.5 179.5v627q0 72 9 111t38 76l242 327v17 q-133 -2 -314 -68v-102l-80 -25q-41 70 -111.5 134.5t-150.5 96.5z" />
<glyph unicode="&#xe45;" horiz-adv-x="835" d="M53 1024q70 25 151 39t156 14q150 0 237 -62.5t87 -170.5v-1280h-172v1335q-66 27 -170 27q-78 0 -134 -7.5t-122 -25.5z" />
<glyph unicode="&#xe46;" horiz-adv-x="1138" d="M98 676q0 143 59.5 223t196.5 80q129 0 201 -111h12q47 55 99.5 83t136.5 28q94 0 184 -47v-1444h-172v1337q-33 8 -67 9q-59 0 -89 -31t-47 -80h-110q-39 111 -129 111q-57 0 -80 -38t-23 -118q0 -84 29 -168l-166 -25q-35 92 -35 191z" />
<glyph unicode="&#xe47;" d="M-848 1407q0 233 264 233h404v-120h-436q-51 0 -86 -9q-10 -45 -11 -94q0 -59 14.5 -82.5t55.5 -23.5q39 0 62.5 23.5t27.5 64.5h121q8 -43 31.5 -64.5t58.5 -21.5q31 0 43 4v113h123q6 -39 6 -74q0 -80 -37 -123t-110 -43q-57 0 -102.5 26.5t-67.5 65.5h-13 q-31 -43 -68.5 -67.5t-101.5 -24.5q-82 0 -130 54t-48 163z" />
<glyph unicode="&#xe48;" d="M-313 1210v336h161v-336h-161z" />
<glyph unicode="&#xe49;" d="M-664 1520q76 47 158 47q68 0 102.5 -32t34.5 -89q0 -37 -10 -60.5t-33 -48.5v-10l82 12l357 13v-142h-529l-61 62q20 27 32.5 58.5t12.5 55.5q0 23 -8 37q-49 0 -95 -18z" />
<glyph unicode="&#xe4a;" d="M-795 1210v129q0 92 40 145.5t124 53.5q104 0 152 -92h12q27 45 63.5 68.5t96.5 23.5q74 0 111.5 -40t37.5 -99q0 -27 -10 -53l4 -9l74 11l242 4v-142h-424l-54 50q37 43 37 86q0 31 -15 51t-40 20q-37 0 -55.5 -22.5t-22.5 -65.5h-108q-12 86 -80 86q-27 0 -39 -4v-201 h-146z" />
<glyph unicode="&#xe4b;" d="M-666 1329v125h144l61 -10v135h160v-135l57 10h150v-125h-150l-57 6v-125h-160v125l-61 -6h-144z" />
<glyph unicode="&#xe4c;" d="M-559 1210v217q154 49 321 50q94 0 159 -7.5t151 -27.5l-39 -142q-131 39 -275 39q-88 0 -155 -14v-115h-162z" />
<glyph unicode="&#xe4d;" d="M-528 1380q0 84 65.5 140.5t181.5 56.5q102 0 163 -53.5t61 -145.5q0 -80 -68 -133t-180 -53q-105 0 -164 49t-59 139zM-408 1382q0 -39 27 -60.5t78 -21.5q82 1 115 11q10 37 10 65q0 41 -27.5 66.5t-77.5 25.5q-76 0 -114 -10q-10 -35 -11 -76z" />
<glyph unicode="&#xe4e;" d="M-547 1362q0 61 41 93t117 44v8q-29 29 -39 51.5t-10 61.5q0 63 52 101t153 38q45 0 75.5 -5t71.5 -19l-35 -101q-57 14 -106 15q-41 0 -60 -4q-8 -18 -8 -54q0 -55 57 -55h62v-109h-162q-27 0 -55 -6q-8 -23 -8 -51q0 -27 19.5 -43t55.5 -16q57 0 115 10v-111 q-68 -10 -137 -10q-101 0 -150 44t-49 118z" />
<glyph unicode="&#xe4f;" horiz-adv-x="1136" d="M133 414q0 125 57.5 222t155.5 151.5t221 54.5t222.5 -54.5t157 -151.5t57.5 -222q0 -127 -57.5 -225.5t-157 -151.5t-222.5 -53t-222 53t-155.5 151.5t-56.5 225.5zM201 414q0 -109 47 -191t131 -127t188 -45q160 0 262.5 99.5t102.5 263.5q0 109 -47 191.5t-130 127.5 t-188 45q-104 0 -188 -46t-131 -128t-47 -190zM328 414q0 104 67.5 168.5t171.5 64.5t170 -64.5t66 -168.5q0 -106 -65.5 -170t-170.5 -64q-104 0 -171.5 63.5t-67.5 170.5zM397 414q0 -80 46 -125t124 -45q76 0 123 45t47 125q0 78 -47 123t-123 45q-78 0 -124 -45 t-46 -123z" />
<glyph unicode="&#xe50;" horiz-adv-x="1120" d="M102 467q0 471 492 471q219 0 321.5 -127t102.5 -358q0 -471 -492 -471q-424 0 -424 485zM268 494q0 -141 25.5 -220t91.5 -115t188 -36q58 0 118.5 10t94.5 25q66 94 66 262q0 139 -25.5 218t-91 116t-188.5 37q-57 0 -117.5 -10.5t-95.5 -24.5q-66 -94 -66 -262z" />
<glyph unicode="&#xe51;" horiz-adv-x="1095" d="M102 578q0 170 113 265t336 95q225 0 329.5 -125t104.5 -367q0 -158 -79 -284.5t-223 -203.5t-337 -87l-4 143q219 23 349 132.5t130 289.5q0 96 -21.5 180t-56.5 144q-86 29 -202 28q-139 0 -207 -49t-68 -161q0 -92 57.5 -131t190.5 -48l-25 -141q-180 8 -283.5 90 t-103.5 230z" />
<glyph unicode="&#xe52;" horiz-adv-x="1294" d="M133 348v748h166v-740q0 -131 79 -182t269 -51q227 0 354 41v614q-25 6 -65 6q-43 0 -67.5 -29.5t-30.5 -74.5h-93q-8 45 -35.5 75.5t-72.5 30.5q-63 0 -64 -108q0 -68 17 -150l-150 -12q-23 90 -22 172q0 250 184 250q70 0 113 -33t73 -94h15q57 127 188 127q49 0 89 -8 t85 -27v-590q0 -172 -118.5 -252.5t-399.5 -80.5q-256 0 -385 94t-129 274z" />
<glyph unicode="&#xe53;" horiz-adv-x="1263" d="M111 424q0 190 29.5 302t94 163t175.5 51q80 0 136 -26.5t95 -82.5h14q90 109 254 109q119 0 207 -70v-870h-164v786q-31 8 -92 9q-86 0 -145 -39v-275h-150v275q-23 23 -54.5 32t-82.5 9q-59 0 -93 -35t-47.5 -115t-13.5 -223q0 -152 39 -226.5t133 -74.5q53 0 119 18 l35 -127q-39 -16 -76 -25t-88 -9q-170 0 -247.5 108.5t-77.5 335.5z" />
<glyph unicode="&#xe54;" horiz-adv-x="1155" d="M102 424q0 252 106.5 383t373.5 131h268q20 102 20 244h162q0 -139 -25.5 -222t-91 -124t-182.5 -41h-172q-170 0 -232.5 -90.5t-62.5 -276.5q0 -162 60.5 -231.5t187.5 -69.5q147 0 268 49l-49 236q43 78 121 114h172v-133h-145l59 -266l133 -29v-106q-43 -6 -90 -6 q-68 0 -99.5 23.5t-54.5 72.5h-16q-133 -96 -332 -96q-174 0 -276.5 114.5t-102.5 323.5z" />
<glyph unicode="&#xe55;" horiz-adv-x="1155" d="M102 424q0 145 38 246.5t134 165.5v6q-55 45 -55 129q0 82 66.5 134t181.5 52q100 0 161.5 -49t61.5 -121q0 -29 -6 -47l4 -6h182q20 102 21 248h162q0 -205 -73 -296t-247 -91h-172q-170 0 -232.5 -90.5t-62.5 -276.5q0 -162 60.5 -231.5t187.5 -69.5q147 0 268 49 l-49 236q43 78 121 114h172v-133h-145l59 -266l133 -29v-106q-43 -6 -90 -6q-68 0 -99.5 23.5t-54.5 72.5h-16q-133 -96 -332 -96q-174 0 -276.5 114.5t-102.5 323.5zM340 963q0 -39 26.5 -60.5t77.5 -21.5q82 0 115 10q10 37 10 65q0 41 -27.5 67t-76.5 26q-76 0 -115 -11 q-10 -35 -10 -75z" />
<glyph unicode="&#xe56;" horiz-adv-x="1085" d="M72 1157l170 27q49 -174 51 -344l14 -6q121 104 287 104q193 0 291 -128t98 -347q0 -233 -122 -358t-347 -125q-106 0 -196.5 23.5t-141.5 59.5v64q0 63 27 135h121l20 -121q27 -8 82 -13t98 -5q135 0 230 33q66 113 65 307q0 332 -256 332q-72 0 -120 -16.5t-109 -57.5 l6 -113l-147 -16q-10 121 -46 285.5t-75 279.5z" />
<glyph unicode="&#xe57;" horiz-adv-x="1583" d="M111 430q0 258 59 383t213 125q74 0 125 -30.5t90 -90.5h4q84 121 227 121q125 0 191 -47v-748h96q90 0 152 25q12 76 12 199v688h160v-715q0 -156 -97.5 -248t-285.5 -92h-197v784q-23 8 -72 9q-49 0 -85.5 -25t-57.5 -66h-104q-20 45 -51 69t-82 24q-84 0 -111 -87 t-27 -278q0 -166 48.5 -231.5t158.5 -65.5q59 0 125 19l35 -127q-76 -35 -170 -35q-186 0 -271 112.5t-85 327.5z" />
<glyph unicode="&#xe58;" horiz-adv-x="1193" d="M111 436q0 164 42 273.5t146 169t287 59.5h319q20 102 21 244h161q0 -139 -25.5 -222t-91 -123t-182.5 -40h-223q-117 0 -180 -41t-87 -117t-24 -199q0 -172 29 -245.5t117 -73.5q66 0 90.5 33.5t30.5 103.5h182q2 -66 32.5 -101.5t94.5 -35.5q51 0 100 6v295h-209v139 h222q49 -29 79.5 -62.5t59.5 -82.5v-176q0 -123 -67.5 -191.5t-180.5 -68.5q-154 0 -217 147h-14q-45 -80 -94.5 -113.5t-141.5 -33.5q-143 0 -209.5 120.5t-66.5 335.5z" />
<glyph unicode="&#xe59;" horiz-adv-x="1179" d="M111 424q0 274 87 395t265 121q127 0 201.5 -58.5t111.5 -172.5q98 8 152 26q25 94 24 262q0 63 -6 138l150 16q4 -94 4 -143q0 -193 -52.5 -307.5t-193.5 -114.5h-43l135 -473l-141 -33l-199 690q-68 27 -141 27q-72 0 -113 -35t-59.5 -116t-18.5 -222q0 -152 39 -226.5 t133 -74.5q53 0 119 18l35 -127q-39 -16 -76 -25t-88 -9q-170 0 -247.5 108.5t-77.5 335.5z" />
<glyph unicode="&#xe5a;" horiz-adv-x="1523" d="M115 776q0 137 24 281h158v-340q0 -59 12 -96q49 -12 109 -13q147 0 291 62v387h172v-1057h-172v545q-66 -41 -135.5 -65.5t-155.5 -24.5q-152 0 -227.5 87t-75.5 234zM1200 0v1057h172v-1057h-172z" />
<glyph unicode="&#xe5b;" horiz-adv-x="1478" d="M115 604q0 98 37 199l167 -21q-41 -111 -40 -192q0 -70 30.5 -109t96.5 -39q37 0 98 19v237h151v-131q0 -63 22.5 -84.5t88.5 -21.5q63 0 104 8v229h164v-110q39 -25 86 -34t111 -9q37 0 67.5 8t69.5 29l45 -142q-47 -27 -89 -38t-91 -11q-76 0 -126 26.5t-93 84.5h-13 q-49 -180 -241 -180q-51 0 -91 21.5t-65 59.5h-10q-39 -49 -92 -74.5t-137 -25.5q-117 0 -183.5 85t-66.5 216z" />
<glyph unicode="&#x1e0c;" horiz-adv-x="1198" d="M154 0v1241q168 41 362 41q317 0 452.5 -164t135.5 -473q0 -219 -52.5 -357t-195.5 -213t-410 -75h-292zM328 160h121q252 0 409 45q33 72 52.5 184.5t19.5 237.5q0 174 -37 281.5t-128 161.5t-257 54q-86 0 -180 -12v-952zM483 -252q0 57 32 88t91 31t91 -31t32 -88 q0 -53 -32.5 -84t-90.5 -31q-57 0 -90 31t-33 84z" />
<glyph unicode="&#x1e0d;" horiz-adv-x="1085" d="M102 481q0 213 84 355.5t271 142.5q86 0 165.5 -36t137.5 -95h12l-6 133v393h168v-1374h-150l-8 131h-16q-53 -68 -122 -107.5t-167 -39.5q-197 0 -283 127t-86 370zM279 475q0 -127 20 -201.5t72.5 -110.5t148.5 -36q88 0 150.5 46t95.5 112v434q-104 117 -258 117 q-123 0 -176 -90.5t-53 -270.5zM440 -252q0 57 32 88t91 31t91 -31t32 -88q0 -53 -32.5 -84t-90.5 -31q-57 0 -90 31t-33 84z" />
<glyph unicode="&#x1e0e;" horiz-adv-x="1200" d="M154 -143h624v-154h-624v154zM156 0v1241q168 41 362 41q317 0 452.5 -164t135.5 -473q0 -219 -52.5 -357t-195.5 -213t-409 -75h-293zM330 160h121q252 0 409 45q33 72 52.5 184.5t19.5 237.5q0 174 -37 281.5t-128 161.5t-257 54q-86 0 -180 -12v-952z" />
<glyph unicode="&#x1e0f;" horiz-adv-x="1085" d="M102 481q0 213 84 355.5t271 142.5q86 0 165.5 -36t137.5 -95h12l-6 133v393h168v-1374h-150l-8 131h-16q-53 -68 -122 -107.5t-167 -39.5q-197 0 -283 127t-86 370zM164 -143h635v-154h-635v154zM279 475q0 -127 20 -201.5t72.5 -110.5t148.5 -36q88 0 150.5 46 t95.5 112v434q-104 117 -258 117q-123 0 -176 -90.5t-53 -270.5z" />
<glyph unicode="&#x1e20;" horiz-adv-x="1224" d="M111 592q0 328 141 509t426 181q125 0 238.5 -24.5t166.5 -59.5v-115q0 -78 -26 -141h-121l-21 162q-35 8 -103.5 13t-135.5 5q-154 0 -268 -24q-55 -98 -89 -229.5t-34 -264.5q0 -240 99 -350.5t306 -110.5q145 0 244 25v358h-295v154h383l84 -70v-336 q0 -84 -57.5 -150.5t-159 -103t-225.5 -36.5q-267 0 -410 155.5t-143 452.5zM322 1425v144h626v-144h-626z" />
<glyph unicode="&#x1e21;" horiz-adv-x="1052" d="M102 455q0 252 80 388t287 136q188 0 270 -166h15l12 150h143v-1061q0 -150 -107.5 -227.5t-289.5 -77.5q-100 0 -194.5 23.5t-153.5 60.5l47 129q59 -31 136 -49.5t149 -18.5q82 0 140 11t112 36v236l6 135h-17q-59 -68 -134 -110t-159 -42q-184 0 -263 128t-79 319z M215 1130v144h627v-144h-627zM274 475q0 -170 51.5 -247.5t161.5 -77.5q72 0 137.5 35.5t116.5 103.5v411q-106 139 -252 140q-127 0 -171 -88t-44 -277z" />
<glyph unicode="&#x1e24;" horiz-adv-x="1228" d="M154 0v1262h174v-570h573v570h174v-1262h-174v532h-573v-532h-174zM492 -252q0 57 31.5 88t90.5 31t91 -31t32 -88q0 -53 -32.5 -84t-90.5 -31q-57 0 -89.5 31t-32.5 84z" />
<glyph unicode="&#x1e25;" horiz-adv-x="1077" d="M152 0v1374h167v-416l-6 -143h13q66 78 145.5 121t185.5 43q143 0 210 -62.5t67 -211.5v-705h-168v813q-63 18 -137 18q-106 0 -180 -32.5t-130 -98.5v-700h-167zM416 -252q0 57 31.5 88t91.5 31q59 0 91 -31t32 -88q0 -53 -33 -84t-90 -31q-58 0 -90.5 31t-32.5 84z" />
<glyph unicode="&#x1e2a;" horiz-adv-x="1228" d="M154 0v1262h174v-570h573v570h174v-1262h-174v532h-573v-532h-174zM338 -168l158 25q4 -66 28.5 -95.5t89.5 -29.5q66 0 90.5 29.5t28.5 95.5l158 -25q-12 -111 -81 -171t-196 -60t-195.5 60t-80.5 171z" />
<glyph unicode="&#x1e2b;" horiz-adv-x="1077" d="M152 0v1374h167v-416l-6 -143h13q66 78 145.5 121t185.5 43q143 0 210 -62.5t67 -211.5v-705h-168v813q-63 18 -137 18q-106 0 -180 -32.5t-130 -98.5v-700h-167zM262 -168l158 25q4 -66 28.5 -95.5t90.5 -29.5t90 29.5t28 95.5l158 -25q-12 -111 -80.5 -171t-195.5 -60 t-196 60t-81 171z" />
<glyph unicode="&#x1e36;" horiz-adv-x="935" d="M154 0v1262h174v-1102h559v-160h-733zM416 -252q0 57 31.5 88t91.5 31q59 0 91 -31t32 -88q0 -53 -33 -84t-90 -31q-58 0 -90.5 31t-32.5 84z" />
<glyph unicode="&#x1e37;" horiz-adv-x="579" d="M156 174v1200h163v-1179q0 -49 9 -70h26l117 59l72 -92q-31 -43 -87.5 -74.5t-115.5 -33.5q-29 8 -74 41.5t-77.5 75.5t-32.5 73zM203 -252q0 57 31.5 88t91.5 31q59 0 91 -31t32 -88q0 -53 -33 -84t-90 -31q-58 0 -90.5 31t-32.5 84z" />
<glyph unicode="&#x1e38;" horiz-adv-x="935" d="M-72 1425v144h627v-144h-627zM154 0v1262h174v-1102h559v-160h-733zM408 -252q0 57 31.5 88t90.5 31t91 -31t32 -88q0 -53 -32.5 -84t-90.5 -31q-57 0 -89.5 31t-32.5 84z" />
<glyph unicode="&#x1e39;" horiz-adv-x="606" d="M-55 1425v144h626v-144h-626zM156 174v1200h163v-1179q0 -49 9 -70h26l117 59l72 -92q-31 -43 -87.5 -74.5t-115.5 -33.5q-29 8 -74 41.5t-77.5 75.5t-32.5 73zM219 -252q0 57 32 88t91 31t91 -31t32 -88q0 -53 -33 -84t-90 -31t-90 31t-33 84z" />
<glyph unicode="&#x1e3a;" horiz-adv-x="935" d="M154 0v1262h174v-1102h559v-160h-733zM154 -143h634v-154h-634v154z" />
<glyph unicode="&#x1e3b;" horiz-adv-x="790" d="M143 -143h635v-154h-635v154zM158 174v1200h164v-1179q0 -49 8 -70h26l117 59l72 -92q-31 -43 -87.5 -74.5t-115.5 -33.5q-29 8 -74 41.5t-77.5 75.5t-32.5 73z" />
<glyph unicode="&#x1e42;" horiz-adv-x="1421" d="M139 0l49 1262h195l319 -713h17l319 713h195l49 -1262h-176l-25 651v305l-16 5l-285 -590h-139l-285 590l-16 -5v-305l-25 -651h-176zM588 -252q0 57 31.5 88t91.5 31q59 0 91 -31t32 -88q0 -53 -33 -84t-90 -31q-58 0 -90.5 31t-32.5 84z" />
<glyph unicode="&#x1e43;" horiz-adv-x="1662" d="M152 0v963h141l16 -140h17q63 72 144 114t171 42q115 0 178.5 -33t85.5 -123h17q61 72 145 114t174 42q96 0 155.5 -21.5t91.5 -82t32 -170.5v-705h-168v813q-63 18 -140 18q-184 0 -292 -118v-713h-168v813q-63 18 -140 18q-182 0 -293 -122v-709h-167zM717 -252 q0 57 31.5 88t91.5 31q59 0 91 -31t32 -88q0 -53 -33 -84t-90 -31q-58 0 -90.5 31t-32.5 84z" />
<glyph unicode="&#x1e44;" horiz-adv-x="1280" d="M154 0v1262h196l604 -998l17 4l-21 322v672h176v-1262h-196l-604 997l-17 -4l21 -321v-672h-176zM541 1530q0 57 31.5 88t91.5 31q59 0 90.5 -31t31.5 -88q0 -53 -32.5 -84t-89.5 -31q-58 0 -90.5 31t-32.5 84z" />
<glyph unicode="&#x1e45;" horiz-adv-x="1077" d="M152 0v963h145l12 -148h17q66 78 145.5 121t185.5 43q143 0 210 -62.5t67 -211.5v-705h-168v813q-63 18 -137 18q-106 0 -180 -32.5t-130 -98.5v-700h-167zM453 1235q0 57 31.5 88t90.5 31t91 -31t32 -88q0 -53 -32.5 -84t-90.5 -31q-57 0 -89.5 31t-32.5 84z" />
<glyph unicode="&#x1e46;" horiz-adv-x="1280" d="M154 0v1262h196l604 -998l17 4l-21 322v672h176v-1262h-196l-604 997l-17 -4l21 -321v-672h-176zM551 -252q0 57 31.5 88t91.5 31q59 0 91 -31t32 -88q0 -53 -33 -84t-90 -31q-58 0 -90.5 31t-32.5 84z" />
<glyph unicode="&#x1e47;" horiz-adv-x="1077" d="M152 0v963h145l12 -148h17q66 78 145.5 121t185.5 43q143 0 210 -62.5t67 -211.5v-705h-168v813q-63 18 -137 18q-106 0 -180 -32.5t-130 -98.5v-700h-167zM432 -252q0 57 32 88t91 31t91 -31t32 -88q0 -53 -33 -84t-90 -31t-90 31t-33 84z" />
<glyph unicode="&#x1e48;" horiz-adv-x="1280" d="M154 0v1262h196l604 -998l17 4l-21 322v672h176v-1262h-196l-604 997l-17 -4l21 -321v-672h-176zM365 -143h634v-154h-634v154z" />
<glyph unicode="&#x1e49;" horiz-adv-x="1077" d="M152 0v963h145l12 -148h17q66 78 145.5 121t185.5 43q143 0 210 -62.5t67 -211.5v-705h-168v813q-63 18 -137 18q-106 0 -180 -32.5t-130 -98.5v-700h-167zM238 -143h634v-154h-634v154z" />
<glyph unicode="&#x1e5a;" horiz-adv-x="1200" d="M154 0v1229q184 53 354 53q238 0 355.5 -90t117.5 -285q0 -242 -203 -340v-18q43 -20 71 -51t50 -78l139 -301l103 -19v-98q-57 -18 -135 -18q-56 0 -90.5 20.5t-55.5 67.5l-119 276q-27 61 -48 92t-60 48.5t-109 17.5h-196v-506h-174zM328 662h346q68 39 99.5 93 t31.5 146q0 125 -70.5 174t-228.5 49q-113 0 -178 -16v-446zM475 -250q0 57 32 88t91 31t91 -31t32 -88q0 -53 -33 -84t-90 -31t-90 31t-33 84z" />
<glyph unicode="&#x1e5b;" horiz-adv-x="765" d="M117 -252q0 57 31.5 88t91.5 31q59 0 90.5 -31t31.5 -88q0 -53 -32.5 -84t-89.5 -31q-58 0 -90.5 31t-32.5 84zM152 0v958h141l12 -188h21q43 92 131 146.5t174 54.5q16 0 40.5 -17.5t33.5 -31.5l-19 -138h-94q-102 0 -176 -45t-97 -135v-604h-167z" />
<glyph unicode="&#x1e5c;" horiz-adv-x="1200" d="M154 0v1229q184 53 354 53q238 0 355.5 -90t117.5 -285q0 -242 -203 -340v-18q43 -20 71 -51t50 -78l139 -301l103 -19v-98q-57 -18 -135 -18q-56 0 -90.5 20.5t-55.5 67.5l-119 276q-27 61 -48 92t-60 48.5t-109 17.5h-196v-506h-174zM236 1425v144h626v-144h-626z M328 662h346q68 39 99.5 93t31.5 146q0 125 -70.5 174t-228.5 49q-113 0 -178 -16v-446zM459 -252q0 57 31.5 88t91.5 31q59 0 91 -31t32 -88q0 -53 -33 -84t-90 -31q-58 0 -90.5 31t-32.5 84z" />
<glyph unicode="&#x1e5d;" horiz-adv-x="811" d="M113 -252q0 57 31.5 88t91.5 31q59 0 90.5 -31t31.5 -88q0 -53 -32.5 -84t-89.5 -31q-58 0 -90.5 31t-32.5 84zM152 0v958h141l12 -188h21q43 92 131 146.5t174 54.5q16 0 40.5 -17.5t33.5 -31.5l-19 -138h-94q-102 0 -176 -45t-97 -135v-604h-167zM154 1133v143h626 v-143h-626z" />
<glyph unicode="&#x1e5e;" horiz-adv-x="1200" d="M154 0v1229q184 53 354 53q238 0 355.5 -90t117.5 -285q0 -242 -203 -340v-18q43 -20 71 -51t50 -78l139 -301l103 -19v-98q-57 -18 -135 -18q-56 0 -90.5 20.5t-55.5 67.5l-119 276q-27 61 -48 92t-60 48.5t-109 17.5h-196v-506h-174zM154 -143h634v-154h-634v154z M328 662h346q68 39 99.5 93t31.5 146q0 125 -70.5 174t-228.5 49q-113 0 -178 -16v-446z" />
<glyph unicode="&#x1e5f;" horiz-adv-x="825" d="M150 -143h634v-154h-634v154zM152 0v958h141l12 -188h21q43 92 131 146.5t174 54.5q16 0 40.5 -17.5t33.5 -31.5l-19 -138h-94q-102 0 -176 -45t-97 -135v-604h-167z" />
<glyph unicode="&#x1e60;" horiz-adv-x="1060" d="M102 84l60 152q166 -86 373 -86q125 0 221 22q25 66 24 154q0 92 -55 140t-199 83q-190 45 -293.5 123t-103.5 237q0 160 99.5 266.5t324.5 106.5q125 0 206 -21.5t152 -64.5v-74q0 -88 -34 -184h-125l-27 174q-100 14 -182 14q-131 0 -185.5 -48t-54.5 -154 q0 -59 23.5 -97.5t81 -64t163.5 -49.5q201 -45 292 -123t91 -228q0 -166 -101 -272t-335 -106q-230 0 -416 100zM412 1530q0 57 31.5 88t91.5 31q59 0 90.5 -31t31.5 -88q0 -53 -32.5 -84t-89.5 -31q-58 0 -90.5 31t-32.5 84z" />
<glyph unicode="&#x1e61;" horiz-adv-x="880" d="M90 63l49 134q133 -76 299 -76q94 0 170 16q18 49 19 109q0 53 -12.5 79.5t-53.5 46t-129 38.5q-168 35 -253 96t-85 186q0 76 39 141.5t120 105.5t200 40q174 0 290 -66v-63q0 -74 -26 -141h-121l-16 133q-66 8 -136 8q-104 0 -147 -28.5t-43 -102.5q0 -66 44 -103.5 t169 -64.5q117 -25 183.5 -54.5t101 -82t34.5 -140.5q0 -123 -89 -206.5t-271 -83.5q-197 -1 -336 79zM313 1235q0 57 32 88t91 31t91 -31t32 -88q0 -53 -32.5 -84t-90.5 -31q-57 0 -90 31t-33 84z" />
<glyph unicode="&#x1e62;" horiz-adv-x="1060" d="M102 84l60 152q166 -86 373 -86q125 0 221 22q25 66 24 154q0 92 -55 140t-199 83q-190 45 -293.5 123t-103.5 237q0 160 99.5 266.5t324.5 106.5q125 0 206 -21.5t152 -64.5v-74q0 -88 -34 -184h-125l-27 174q-100 14 -182 14q-131 0 -185.5 -48t-54.5 -154 q0 -59 23.5 -97.5t81 -64t163.5 -49.5q201 -45 292 -123t91 -228q0 -166 -101 -272t-335 -106q-230 0 -416 100zM432 -252q0 57 32 88t91 31t91 -31t32 -88q0 -53 -33 -84t-90 -31t-90 31t-33 84z" />
<glyph unicode="&#x1e63;" horiz-adv-x="880" d="M90 63l49 134q133 -76 299 -76q94 0 170 16q18 49 19 109q0 53 -12.5 79.5t-53.5 46t-129 38.5q-168 35 -253 96t-85 186q0 76 39 141.5t120 105.5t200 40q174 0 290 -66v-63q0 -74 -26 -141h-121l-16 133q-66 8 -136 8q-104 0 -147 -28.5t-43 -102.5q0 -66 44 -103.5 t169 -64.5q117 -25 183.5 -54.5t101 -82t34.5 -140.5q0 -123 -89 -206.5t-271 -83.5q-197 -1 -336 79zM334 -252q0 57 31.5 88t91.5 31q59 0 91 -31t32 -88q0 -53 -33 -84t-90 -31q-58 0 -90.5 31t-32.5 84z" />
<glyph unicode="&#x1e6c;" horiz-adv-x="1132" d="M74 1102v160h985v-160h-406v-1102h-174v1102h-405zM444 -252q0 57 32 88t91 31t91 -31t32 -88q0 -53 -32.5 -84t-90.5 -31q-57 0 -90 31t-33 84z" />
<glyph unicode="&#x1e6d;" horiz-adv-x="784" d="M41 827l20 136h152v258h160v-258h323l-20 -136h-303v-589q0 -43 18 -86q49 -18 101 -19q33 0 85 12.5t97 30.5l45 -137q-41 -20 -98.5 -37.5t-102.5 -17.5q-75 0 -143 18q-68 35 -115 86t-47 119v620h-172zM326 -252q0 57 31.5 88t91.5 31q59 0 90.5 -31t31.5 -88 q0 -53 -32.5 -84t-89.5 -31q-58 0 -90.5 31t-32.5 84z" />
<glyph unicode="&#x1e6e;" horiz-adv-x="1132" d="M74 1102v160h985v-160h-406v-1102h-174v1102h-405zM248 -143h635v-154h-635v154z" />
<glyph unicode="&#x1e6f;" horiz-adv-x="827" d="M41 827l20 136h152v258h160v-258h323l-20 -136h-303v-589q0 -43 18 -86q49 -18 101 -19q33 0 85 12.5t97 30.5l45 -137q-41 -20 -98.5 -37.5t-102.5 -17.5q-75 0 -143 18q-68 35 -115 86t-47 119v620h-172zM141 -143h635v-154h-635v154z" />
<glyph unicode="&#x1e80;" horiz-adv-x="1705" d="M74 1247l188 19q51 -291 105.5 -529.5t124.5 -519.5h16l139 418l133 405q-23 90 -43 193l174 18q51 -240 104.5 -430t131.5 -452l45 -152h22q70 281 124.5 519.5t105.5 529.5l188 -19q-70 -313 -146.5 -606t-176.5 -641h-213l-41 123q-123 367 -193 610h-28 q-20 -61 -37 -112.5t-31 -94.5q-129 -387 -180 -526h-191q-200 696 -321 1247zM573 1700l218 22l170 -297l-132 -20z" />
<glyph unicode="&#x1e81;" horiz-adv-x="1460" d="M76 956l164 15q72 -311 114.5 -485.5t91.5 -319.5h13q133 330 209 600q-14 59 -39 178l151 14q100 -477 219 -804h13q102 276 241 821l158 -19q-82 -297 -152.5 -521t-152.5 -435h-197q-92 227 -176 526h-8q-39 -117 -90 -257t-70 -189l-30 -80h-179q-165 454 -280 956z M455 1403l217 22l170 -297l-131 -20z" />
<glyph unicode="&#x1e82;" horiz-adv-x="1705" d="M74 1247l188 19q51 -291 105.5 -529.5t124.5 -519.5h16l139 418l133 405q-23 90 -43 193l174 18q51 -240 104.5 -430t131.5 -452l45 -152h22q70 281 124.5 519.5t105.5 529.5l188 -19q-70 -313 -146.5 -606t-176.5 -641h-213l-41 123q-123 367 -193 610h-28 q-20 -61 -37 -112.5t-31 -94.5q-129 -387 -180 -526h-191q-200 696 -321 1247zM741 1425l170 297l217 -22l-256 -295z" />
<glyph unicode="&#x1e83;" horiz-adv-x="1460" d="M76 956l164 15q72 -311 114.5 -485.5t91.5 -319.5h13q133 330 209 600q-14 59 -39 178l151 14q100 -477 219 -804h13q102 276 241 821l158 -19q-82 -297 -152.5 -521t-152.5 -435h-197q-92 227 -176 526h-8q-39 -117 -90 -257t-70 -189l-30 -80h-179q-165 454 -280 956z M664 1130l170 297l217 -22l-256 -295z" />
<glyph unicode="&#x1e84;" horiz-adv-x="1705" d="M74 1247l188 19q51 -291 105.5 -529.5t124.5 -519.5h16l139 418l133 405q-23 90 -43 193l174 18q51 -240 104.5 -430t131.5 -452l45 -152h22q70 281 124.5 519.5t105.5 529.5l188 -19q-70 -313 -146.5 -606t-176.5 -641h-213l-41 123q-123 367 -193 610h-28 q-20 -61 -37 -112.5t-31 -94.5q-129 -387 -180 -526h-191q-200 696 -321 1247zM596 1503q0 43 25.5 66.5t68.5 23.5q45 0 69.5 -23.5t24.5 -66.5q0 -41 -24.5 -64.5t-69.5 -23.5q-43 0 -68.5 23.5t-25.5 64.5zM918 1503q0 43 25.5 66.5t70.5 23.5t69.5 -23.5t24.5 -66.5 q0 -41 -24.5 -64.5t-69.5 -23.5t-70.5 23.5t-25.5 64.5z" />
<glyph unicode="&#x1e85;" horiz-adv-x="1460" d="M76 956l164 15q72 -311 114.5 -485.5t91.5 -319.5h13q133 330 209 600q-14 59 -39 178l151 14q100 -477 219 -804h13q102 276 241 821l158 -19q-82 -297 -152.5 -521t-152.5 -435h-197q-92 227 -176 526h-8q-39 -117 -90 -257t-70 -189l-30 -80h-179q-165 454 -280 956z M473 1208q0 43 25.5 66.5t68.5 23.5q45 0 70 -23.5t25 -66.5q0 -41 -25 -64.5t-70 -23.5q-43 0 -68.5 23.5t-25.5 64.5zM795 1208q0 43 25.5 66.5t70.5 23.5t69.5 -23.5t24.5 -66.5q0 -41 -24.5 -64.5t-69.5 -23.5t-70.5 23.5t-25.5 64.5z" />
<glyph unicode="&#x1e8e;" horiz-adv-x="1259" d="M57 1229l174 43q80 -199 176.5 -382t190.5 -321h64q94 137 190 320.5t176 382.5l174 -43q-102 -242 -201.5 -424t-240.5 -373h-43v-432h-174v432h-43q-141 190 -240.5 372.5t-202.5 424.5zM510 1530q0 57 31.5 88t91.5 31q59 0 91 -31t32 -88q0 -53 -33 -84t-90 -31 q-58 0 -90.5 31t-32.5 84z" />
<glyph unicode="&#x1e8f;" horiz-adv-x="1015" d="M61 958l166 15q106 -430 250 -787h80q113 348 215 787l170 -15q-84 -346 -181 -654t-194 -533q-33 -78 -115.5 -126t-162.5 -48q-102 -1 -180 38v64q0 66 20 129h121v-90q29 -6 72 -6q20 0 73 8q51 121 115 303h-131q-113 270 -186.5 479t-131.5 436zM391 1235 q0 57 32 88t91 31t91 -31t32 -88q0 -53 -33 -84t-90 -31t-90 31t-33 84z" />
<glyph unicode="&#x1e92;" horiz-adv-x="1148" d="M98 0v168l709 911v27h-502v-131h-151q-35 96 -35 186v101h903v-168l-711 -908v-32h553v133h152q35 -96 35 -187v-100h-953zM467 -252q0 57 31.5 88t91.5 31q59 0 91 -31t32 -88q0 -53 -33 -84t-90 -31q-58 0 -90.5 31t-32.5 84z" />
<glyph unicode="&#x1e93;" horiz-adv-x="927" d="M102 0v147l523 664v20h-340l-17 -124h-121q-27 72 -26 141v115h692v-148l-524 -659v-25h385l16 125h121q27 -72 27 -141v-115h-736zM369 -252q0 57 31.5 88t91.5 31q59 0 90.5 -31t31.5 -88q0 -53 -32.5 -84t-89.5 -31q-58 0 -90.5 31t-32.5 84z" />
<glyph unicode="&#x1e97;" horiz-adv-x="784" d="M41 827l20 136h152v258h160v-258h323l-20 -136h-303v-589q0 -43 18 -86q49 -18 101 -19q33 0 85 12.5t97 30.5l45 -137q-41 -20 -98.5 -37.5t-102.5 -17.5q-75 0 -143 18q-68 35 -115 86t-47 119v620h-172zM51 1503q0 43 25.5 66.5t68.5 23.5q45 0 70 -23.5t25 -66.5 q0 -41 -25 -64.5t-70 -23.5q-43 0 -68.5 23.5t-25.5 64.5zM373 1503q0 43 25.5 66.5t70.5 23.5t69.5 -23.5t24.5 -66.5q0 -41 -24.5 -64.5t-69.5 -23.5t-70.5 23.5t-25.5 64.5z" />
<glyph unicode="&#x1e9e;" horiz-adv-x="1214" d="M154 0v807q0 455 432 455q246 0 440 -138v-114l-281 -293v-15q184 -10 288 -101t104 -243q0 -186 -107.5 -282t-322.5 -96q-78 0 -143.5 11t-149.5 42l41 145q84 -25 140 -34t126 -9q78 0 119 6t94 25q31 78 31 194q0 115 -73 167.5t-233 52.5h-108v143l285 315v23 q-59 27 -108.5 36t-129.5 9q-150 0 -212 -68.5t-62 -230.5v-807h-170z" />
<glyph unicode="&#x1ea0;" horiz-adv-x="1243" d="M72 14q84 315 191.5 651t207.5 597h301q100 -260 207.5 -596t191.5 -652l-186 -14q-57 227 -108 410h-512q-61 -213 -107 -410zM410 563h421q-106 360 -167 533h-84q-74 -209 -170 -533zM496 -252q0 57 31.5 88t90.5 31t91 -31t32 -88q0 -53 -32.5 -84t-90.5 -31 q-57 0 -89.5 31t-32.5 84z" />
<glyph unicode="&#x1ea1;" horiz-adv-x="970" d="M82 231q0 156 118.5 232t327.5 76q68 0 136 -7v127q0 111 -45.5 151t-159.5 40q-70 0 -135 -8l-21 -154h-125q-27 72 -26 137v52q61 39 166.5 70.5t193.5 31.5q154 0 236.5 -79t82.5 -222v-678h-149l-8 135h-17q-51 -72 -127.5 -111.5t-162.5 -39.5q-140 0 -212.5 66.5 t-72.5 180.5zM258 250q0 -74 34 -104.5t97 -30.5q84 0 158 39t121 110v152q-72 16 -189 16q-129 0 -188 -16q-18 -45 -25.5 -81t-7.5 -85zM360 -252q0 57 32 88t91 31t91 -31t32 -88q0 -53 -32.5 -84t-90.5 -31q-57 0 -90 31t-33 84z" />
<glyph unicode="&#x1ea2;" horiz-adv-x="1243" d="M72 14q84 315 191.5 651t207.5 597h301q100 -260 207.5 -596t191.5 -652l-186 -14q-57 227 -108 410h-512q-61 -213 -107 -410zM410 563h421q-106 360 -167 533h-84q-74 -209 -170 -533zM494 1788q80 37 176 37q98 0 145 -44t47 -118q0 -152 -192 -152v-84h-92l-27 101 v71q109 0 146.5 9.5t37.5 50.5q0 35 -20.5 47t-67.5 12q-63 0 -121 -22z" />
<glyph unicode="&#x1ea3;" horiz-adv-x="970" d="M82 231q0 156 118.5 232t327.5 76q68 0 136 -7v127q0 111 -45.5 151t-159.5 40q-70 0 -135 -8l-21 -154h-125q-27 72 -26 137v52q61 39 166.5 70.5t193.5 31.5q154 0 236.5 -79t82.5 -222v-678h-149l-8 135h-17q-51 -72 -127.5 -111.5t-162.5 -39.5q-140 0 -212.5 66.5 t-72.5 180.5zM258 250q0 -74 34 -104.5t97 -30.5q84 0 158 39t121 110v152q-72 16 -189 16q-129 0 -188 -16q-18 -45 -25.5 -81t-7.5 -85zM365 1491q80 37 176 37q98 0 145 -44t47 -118q0 -152 -192 -152v-84h-92l-27 101v72q111 0 147.5 9t36.5 50q0 35 -20.5 47t-67.5 12 q-63 0 -121 -22z" />
<glyph unicode="&#x1ea4;" horiz-adv-x="1243" d="M72 14q84 315 191.5 651t207.5 597h301q100 -260 207.5 -596t191.5 -652l-186 -14q-57 227 -108 410h-512q-61 -213 -107 -410zM338 1425l205 273h153l203 -273l-108 -22l-166 153h-11l-172 -153zM410 563h421q-106 360 -167 533h-84q-74 -209 -170 -533zM864 1612 l123 221l152 -27l-168 -219z" />
<glyph unicode="&#x1ea5;" horiz-adv-x="970" d="M82 231q0 156 118.5 232t327.5 76q68 0 136 -7v127q0 111 -45.5 151t-159.5 40q-70 0 -135 -8l-21 -154h-125q-27 72 -26 137v52q61 39 166.5 70.5t193.5 31.5q154 0 236.5 -79t82.5 -222v-678h-149l-8 135h-17q-51 -72 -127.5 -111.5t-162.5 -39.5q-140 0 -212.5 66.5 t-72.5 180.5zM211 1130l205 273h153l203 -273l-108 -22l-166 154h-11l-172 -154zM258 250q0 -74 34 -104.5t97 -30.5q84 0 158 39t121 110v152q-72 16 -189 16q-129 0 -188 -16q-18 -45 -25.5 -81t-7.5 -85zM737 1317l123 221l152 -27l-168 -219z" />
<glyph unicode="&#x1ea6;" horiz-adv-x="1243" d="M72 14q84 315 191.5 651t207.5 597h301q100 -260 207.5 -596t191.5 -652l-186 -14q-57 227 -108 410h-512q-61 -213 -107 -410zM100 1806l152 27l123 -221l-107 -25zM340 1425l203 273h153l205 -273l-104 -22l-172 153h-11l-165 -153zM410 563h421q-106 360 -167 533h-84 q-74 -209 -170 -533z" />
<glyph unicode="&#x1ea7;" horiz-adv-x="970" d="M-23 1511l152 27l123 -221l-107 -25zM82 231q0 156 118.5 232t327.5 76q68 0 136 -7v127q0 111 -45.5 151t-159.5 40q-70 0 -135 -8l-21 -154h-125q-27 72 -26 137v52q61 39 166.5 70.5t193.5 31.5q154 0 236.5 -79t82.5 -222v-678h-149l-8 135h-17 q-51 -72 -127.5 -111.5t-162.5 -39.5q-140 0 -212.5 66.5t-72.5 180.5zM217 1130l203 273h153l205 -273l-104 -22l-172 154h-10l-166 -154zM258 250q0 -74 34 -104.5t97 -30.5q84 0 158 39t121 110v152q-72 16 -189 16q-129 0 -188 -16q-18 -45 -25.5 -81t-7.5 -85z" />
<glyph unicode="&#x1ea8;" horiz-adv-x="1243" d="M72 14q84 315 191.5 651t207.5 597h301q100 -260 207.5 -596t191.5 -652l-186 -14q-57 227 -108 410h-512q-61 -213 -107 -410zM340 1425l205 273h153l203 -273l-108 -22l-166 153h-11l-172 -153zM410 563h421q-106 360 -167 533h-84q-74 -209 -170 -533zM815 1905 q61 25 125 24q72 0 105.5 -29.5t33.5 -91.5q0 -113 -129 -112v-66h-76l-18 74v61q66 0 93.5 9.5t27.5 31.5q0 37 -51 37q-49 0 -88 -18z" />
<glyph unicode="&#x1ea9;" horiz-adv-x="960" d="M82 231q0 156 118.5 232t327.5 76q68 0 136 -7v127q0 111 -45.5 151t-159.5 40q-70 0 -135 -8l-21 -154h-125q-27 72 -26 137v52q61 39 166.5 70.5t193.5 31.5q154 0 236.5 -79t82.5 -222v-678h-149l-8 135h-17q-51 -72 -127.5 -111.5t-162.5 -39.5q-140 0 -212.5 66.5 t-72.5 180.5zM221 1128l205 273h154l202 -273l-108 -22l-166 154h-10l-172 -154zM258 250q0 -74 34 -104.5t97 -30.5q84 0 158 39t121 110v152q-72 16 -189 16q-129 0 -188 -16q-18 -45 -25.5 -81t-7.5 -85zM696 1608q61 25 125 24q72 0 106 -29.5t34 -91.5 q0 -113 -130 -112v-66h-75l-19 74v61q66 0 93.5 9.5t27.5 31.5q0 37 -51 37q-47 0 -88 -18z" />
<glyph unicode="&#x1eaa;" horiz-adv-x="1243" d="M72 14q84 315 191.5 651t207.5 597h301q100 -260 207.5 -596t191.5 -652l-186 -14q-57 227 -108 410h-512q-61 -213 -107 -410zM340 1423l205 273h153l203 -273l-108 -22l-166 153h-11l-172 -153zM371 1812q4 82 38.5 121t104.5 39q27 0 51.5 -9t63.5 -30q57 -29 78 -28 q61 0 71 75l90 -30q-4 -82 -38.5 -121t-104.5 -39q-27 0 -49.5 9t-61.5 28q-53 31 -82 31q-61 0 -71 -74zM410 563h421q-106 360 -167 533h-84q-74 -209 -170 -533z" />
<glyph unicode="&#x1eab;" horiz-adv-x="970" d="M82 231q0 156 118.5 232t327.5 76q68 0 136 -7v127q0 111 -45.5 151t-159.5 40q-70 0 -135 -8l-21 -154h-125q-27 72 -26 137v52q61 39 166.5 70.5t193.5 31.5q154 0 236.5 -79t82.5 -222v-678h-149l-8 135h-17q-51 -72 -127.5 -111.5t-162.5 -39.5q-140 0 -212.5 66.5 t-72.5 180.5zM223 1128l205 273h154l202 -273l-108 -22l-166 154h-10l-172 -154zM254 1518q4 82 39 120.5t104 38.5q27 0 51.5 -9t63.5 -30q57 -29 78 -28q61 0 72 76l90 -31q-4 -82 -39 -121t-105 -39q-27 0 -49 9t-61 28q-53 31 -82 31q-61 0 -72 -74zM258 250 q0 -74 34 -104.5t97 -30.5q84 0 158 39t121 110v152q-72 16 -189 16q-129 0 -188 -16q-18 -45 -25.5 -81t-7.5 -85z" />
<glyph unicode="&#x1eac;" horiz-adv-x="1243" d="M72 14q84 315 191.5 651t207.5 597h301q100 -260 207.5 -596t191.5 -652l-186 -14q-57 227 -108 410h-512q-61 -213 -107 -410zM340 1423l205 273h153l203 -273l-108 -22l-166 153h-11l-172 -153zM410 563h421q-106 360 -167 533h-84q-74 -209 -170 -533zM496 -252 q0 57 31.5 88t90.5 31t91 -31t32 -88q0 -53 -32.5 -84t-90.5 -31q-57 0 -89.5 31t-32.5 84z" />
<glyph unicode="&#x1ead;" horiz-adv-x="970" d="M82 231q0 156 118.5 232t327.5 76q68 0 136 -7v127q0 111 -45.5 151t-159.5 40q-70 0 -135 -8l-21 -154h-125q-27 72 -26 137v52q61 39 166.5 70.5t193.5 31.5q154 0 236.5 -79t82.5 -222v-678h-149l-8 135h-17q-51 -72 -127.5 -111.5t-162.5 -39.5q-140 0 -212.5 66.5 t-72.5 180.5zM217 1128l205 273h153l203 -273l-108 -22l-166 154h-10l-172 -154zM258 250q0 -74 34 -104.5t97 -30.5q84 0 158 39t121 110v152q-72 16 -189 16q-129 0 -188 -16q-18 -45 -25.5 -81t-7.5 -85zM375 -252q0 57 31.5 88t91.5 31q59 0 91 -31t32 -88 q0 -53 -33 -84t-90 -31q-58 0 -90.5 31t-32.5 84z" />
<glyph unicode="&#x1eae;" horiz-adv-x="1243" d="M72 14q84 315 191.5 651t207.5 597h301q100 -260 207.5 -596t191.5 -652l-186 -14q-57 227 -108 410h-512q-61 -213 -107 -410zM342 1636l158 25q4 -66 28.5 -95.5t89.5 -29.5q66 0 90.5 29.5t28.5 95.5l158 -25q-12 -111 -81 -171t-196 -60q-126 0 -195 60.5t-81 170.5z M410 563h421q-106 360 -167 533h-84q-74 -209 -170 -533zM559 1745l123 221l152 -27l-168 -219z" />
<glyph unicode="&#x1eaf;" horiz-adv-x="970" d="M82 231q0 156 118.5 232t327.5 76q68 0 136 -7v127q0 111 -45.5 151t-159.5 40q-70 0 -135 -8l-21 -154h-125q-27 72 -26 137v52q61 39 166.5 70.5t193.5 31.5q154 0 236.5 -79t82.5 -222v-678h-149l-8 135h-17q-51 -72 -127.5 -111.5t-162.5 -39.5q-140 0 -212.5 66.5 t-72.5 180.5zM240 1341l157 25q4 -66 29 -95.5t90 -29.5q66 0 90.5 29.5t28.5 95.5l158 -25q-12 -111 -81 -171t-196 -60t-195.5 60.5t-80.5 170.5zM258 250q0 -74 34 -104.5t97 -30.5q84 0 158 39t121 110v152q-72 16 -189 16q-129 0 -188 -16q-18 -45 -25.5 -81t-7.5 -85z M457 1450l123 221l151 -26l-168 -220z" />
<glyph unicode="&#x1eb0;" horiz-adv-x="1243" d="M72 14q84 315 191.5 651t207.5 597h301q100 -260 207.5 -596t191.5 -652l-186 -14q-57 227 -108 410h-512q-61 -213 -107 -410zM342 1636l158 25q4 -66 28.5 -95.5t89.5 -29.5q66 0 90.5 29.5t28.5 95.5l158 -25q-12 -111 -81 -171t-196 -60q-126 0 -195 60.5t-81 170.5z M410 563h421q-106 360 -167 533h-84q-74 -209 -170 -533zM410 1939l151 27l123 -221l-106 -25z" />
<glyph unicode="&#x1eb1;" horiz-adv-x="970" d="M82 231q0 156 118.5 232t327.5 76q68 0 136 -7v127q0 111 -45.5 151t-159.5 40q-70 0 -135 -8l-21 -154h-125q-27 72 -26 137v52q61 39 166.5 70.5t193.5 31.5q154 0 236.5 -79t82.5 -222v-678h-149l-8 135h-17q-51 -72 -127.5 -111.5t-162.5 -39.5q-140 0 -212.5 66.5 t-72.5 180.5zM229 1341l158 25q4 -66 28.5 -95.5t90.5 -29.5t90.5 29.5t28.5 95.5l157 -25q-12 -111 -80.5 -171t-195.5 -60t-195.5 60.5t-81.5 170.5zM258 250q0 -74 34 -104.5t97 -30.5q84 0 158 39t121 110v152q-72 16 -189 16q-129 0 -188 -16q-18 -45 -25.5 -81 t-7.5 -85zM297 1645l152 26l122 -221l-106 -25z" />
<glyph unicode="&#x1eb2;" horiz-adv-x="1243" d="M72 14q84 315 191.5 651t207.5 597h301q100 -260 207.5 -596t191.5 -652l-186 -14q-57 227 -108 410h-512q-61 -213 -107 -410zM344 1636l158 25q4 -66 28.5 -95.5t90.5 -29.5t90 29.5t28 95.5l158 -25q-12 -111 -80.5 -171t-195.5 -60t-196 60.5t-81 170.5zM410 563h421 q-106 360 -167 533h-84q-74 -209 -170 -533zM524 1972q61 25 125 25q72 0 105.5 -30t33.5 -91q0 -113 -129 -113v-65h-75l-19 74v61q68 0 94.5 9t26.5 32q0 37 -51 37q-47 0 -88 -19z" />
<glyph unicode="&#x1eb3;" horiz-adv-x="970" d="M82 231q0 156 118.5 232t327.5 76q68 0 136 -7v127q0 111 -45.5 151t-159.5 40q-70 0 -135 -8l-21 -154h-125q-27 72 -26 137v52q61 39 166.5 70.5t193.5 31.5q154 0 236.5 -79t82.5 -222v-678h-149l-8 135h-17q-51 -72 -127.5 -111.5t-162.5 -39.5q-140 0 -212.5 66.5 t-72.5 180.5zM217 1341l158 25q4 -66 28.5 -95.5t90.5 -29.5t90 29.5t28 95.5l158 -25q-12 -111 -80.5 -171t-195.5 -60t-196 60.5t-81 170.5zM258 250q0 -74 34 -104.5t97 -30.5q84 0 158 39t121 110v152q-72 16 -189 16q-129 0 -188 -16q-18 -45 -25.5 -81t-7.5 -85z M397 1677q61 25 125 25q72 0 106 -30t34 -91q0 -113 -130 -113v-65h-75l-19 74v61q66 0 93.5 9t27.5 32q0 37 -51 37q-47 0 -88 -19z" />
<glyph unicode="&#x1eb4;" horiz-adv-x="1243" d="M72 14q84 315 191.5 651t207.5 597h301q100 -260 207.5 -596t191.5 -652l-186 -14q-57 227 -108 410h-512q-61 -213 -107 -410zM344 1636l158 25q4 -66 28.5 -95.5t90.5 -29.5t90 29.5t28 95.5l158 -25q-12 -111 -80.5 -171t-195.5 -60t-196 60.5t-81 170.5zM377 1778 q4 82 39 120.5t104 38.5q27 0 51.5 -9t63.5 -30q57 -29 78 -28q61 0 71 76l90 -31q-4 -82 -38.5 -121t-104.5 -39q-27 0 -49.5 9.5t-60.5 27.5q-53 31 -82 31q-61 0 -72 -74zM410 563h421q-106 360 -167 533h-84q-74 -209 -170 -533z" />
<glyph unicode="&#x1eb5;" horiz-adv-x="970" d="M82 231q0 156 118.5 232t327.5 76q68 0 136 -7v127q0 111 -45.5 151t-159.5 40q-70 0 -135 -8l-21 -154h-125q-27 72 -26 137v52q61 39 166.5 70.5t193.5 31.5q154 0 236.5 -79t82.5 -222v-678h-149l-8 135h-17q-51 -72 -127.5 -111.5t-162.5 -39.5q-140 0 -212.5 66.5 t-72.5 180.5zM221 1341l158 25q4 -66 28.5 -95.5t90.5 -29.5t90 29.5t28 95.5l158 -25q-12 -111 -80.5 -171t-195.5 -60t-196 60.5t-81 170.5zM254 1483q4 82 39 120.5t104 38.5q27 0 51.5 -9t63.5 -29q57 -29 78 -29q61 0 72 76l90 -31q-4 -82 -39 -121t-105 -39 q-27 0 -49 9.5t-61 27.5q-53 31 -82 31q-61 0 -72 -74zM258 250q0 -74 34 -104.5t97 -30.5q84 0 158 39t121 110v152q-72 16 -189 16q-129 0 -188 -16q-18 -45 -25.5 -81t-7.5 -85z" />
<glyph unicode="&#x1eb6;" horiz-adv-x="1243" d="M72 14q84 315 191.5 651t207.5 597h301q100 -260 207.5 -596t191.5 -652l-186 -14q-57 227 -108 410h-512q-61 -213 -107 -410zM342 1636l158 25q4 -66 28.5 -95.5t89.5 -29.5q66 0 90.5 29.5t28.5 95.5l158 -25q-12 -111 -81 -171t-196 -60q-126 0 -195 60.5t-81 170.5z M410 563h421q-106 360 -167 533h-84q-74 -209 -170 -533zM500 -252q0 57 31.5 88t91.5 31q59 0 90.5 -31t31.5 -88q0 -53 -32.5 -84t-89.5 -31q-58 0 -90.5 31t-32.5 84z" />
<glyph unicode="&#x1eb7;" horiz-adv-x="970" d="M82 231q0 156 118.5 232t327.5 76q68 0 136 -7v127q0 111 -45.5 151t-159.5 40q-70 0 -135 -8l-21 -154h-125q-27 72 -26 137v52q61 39 166.5 70.5t193.5 31.5q154 0 236.5 -79t82.5 -222v-678h-149l-8 135h-17q-51 -72 -127.5 -111.5t-162.5 -39.5q-140 0 -212.5 66.5 t-72.5 180.5zM258 250q0 -74 34 -104.5t97 -30.5q84 0 158 39t121 110v152q-72 16 -189 16q-129 0 -188 -16q-18 -45 -25.5 -81t-7.5 -85zM258 1341l158 25q4 -66 28.5 -95.5t90.5 -29.5t90 29.5t28 95.5l158 -25q-12 -111 -80.5 -171t-195.5 -60t-196 60.5t-81 170.5z M383 -252q0 57 31.5 88t91.5 31q59 0 91 -31t32 -88q0 -53 -33 -84t-90 -31t-90 31t-33 84z" />
<glyph unicode="&#x1eb8;" horiz-adv-x="1103" d="M154 190v1072h804v-158h-632v-397h573v-154h-573v-391q123 -20 268 -21q195 0 348 37l39 -151q-145 -43 -393 -43q-205 0 -319.5 46t-114.5 160zM465 -252q0 57 31.5 88t91.5 31q59 0 91 -31t32 -88q0 -53 -33 -84t-90 -31q-58 0 -90.5 31t-32.5 84z" />
<glyph unicode="&#x1eb9;" horiz-adv-x="999" d="M102 473q0 238 114 372t325 134q180 0 269 -103.5t89 -283.5q0 -41 -2 -62l-123 -120l-510 8q4 -143 74 -218t205 -75q92 0 158.5 23.5t136.5 70.5l53 -129q-82 -51 -162 -78.5t-197 -27.5q-430 0 -430 489zM262 537l471 8q12 55 12 100q0 90 -53 141.5t-162 51.5 q-147 0 -205.5 -71t-62.5 -230zM393 -252q0 57 32 88t91 31t91 -31t32 -88q0 -53 -33 -84t-90 -31t-90 31t-33 84z" />
<glyph unicode="&#x1eba;" horiz-adv-x="1103" d="M154 190v1072h804v-158h-632v-397h573v-154h-573v-391q123 -20 268 -21q195 0 348 37l39 -151q-145 -43 -393 -43q-205 0 -319.5 46t-114.5 160zM432 1786q80 37 176 37q98 0 145.5 -44t47.5 -118q0 -152 -193 -152v-84h-92l-27 101v71q109 0 147 9.5t38 50.5 q0 35 -20.5 47t-67.5 12q-63 0 -121 -22z" />
<glyph unicode="&#x1ebb;" horiz-adv-x="999" d="M102 473q0 238 114 372t325 134q180 0 269 -103.5t89 -283.5q0 -41 -2 -62l-123 -120l-510 8q4 -143 74 -218t205 -75q92 0 158.5 23.5t136.5 70.5l53 -129q-82 -51 -162 -78.5t-197 -27.5q-430 0 -430 489zM262 537l471 8q12 55 12 100q0 90 -53 141.5t-162 51.5 q-147 0 -205.5 -71t-62.5 -230zM375 1491q80 37 176 37q98 0 145 -44t47 -118q0 -152 -192 -152v-84h-92l-27 101v72q111 0 147.5 9t36.5 50q0 35 -20.5 47t-67.5 12q-63 0 -120 -22z" />
<glyph unicode="&#x1ebc;" horiz-adv-x="1103" d="M154 190v1072h804v-158h-632v-397h573v-154h-573v-391q123 -20 268 -21q195 0 348 37l39 -151q-145 -43 -393 -43q-205 0 -319.5 46t-114.5 160zM268 1434q6 100 47 148t125 48q31 0 61.5 -12t69.5 -35q63 -37 93 -37q72 0 81 92l113 -36q-6 -100 -47 -148.5t-125 -48.5 q-35 0 -63.5 12.5t-65.5 34.5q-31 18 -51.5 27.5t-42.5 9.5q-72 0 -82 -92z" />
<glyph unicode="&#x1ebd;" horiz-adv-x="999" d="M102 473q0 238 114 372t325 134q180 0 269 -103.5t89 -283.5q0 -41 -2 -62l-123 -120l-510 8q4 -143 74 -218t205 -75q92 0 158.5 23.5t136.5 70.5l53 -129q-82 -51 -162 -78.5t-197 -27.5q-430 0 -430 489zM223 1139q6 100 47 148t125 48q31 0 61.5 -12t69.5 -35 q63 -37 92 -37q72 0 82 92l113 -36q-6 -100 -47 -148.5t-125 -48.5q-35 0 -63.5 12.5t-65.5 34.5q-31 18 -51.5 27.5t-42.5 9.5q-72 0 -82 -92zM262 537l471 8q12 55 12 100q0 90 -53 141.5t-162 51.5q-147 0 -205.5 -71t-62.5 -230z" />
<glyph unicode="&#x1ebe;" horiz-adv-x="1103" d="M154 190v1072h804v-158h-632v-397h573v-154h-573v-391q123 -20 268 -21q195 0 348 37l39 -151q-145 -43 -393 -43q-205 0 -319.5 46t-114.5 160zM283 1425l204 273h154l203 -273l-109 -22l-166 153h-10l-172 -153zM809 1612l123 221l151 -27l-168 -219z" />
<glyph unicode="&#x1ebf;" horiz-adv-x="997" d="M102 473q0 238 114 372t325 134q180 0 269 -103.5t89 -283.5q0 -41 -2 -62l-123 -120l-510 8q4 -143 74 -218t205 -75q92 0 158.5 23.5t136.5 70.5l53 -129q-82 -51 -162 -78.5t-197 -27.5q-430 0 -430 489zM242 1130l204 273h154l203 -273l-109 -22l-166 154h-10 l-172 -154zM262 537l471 8q12 55 12 100q0 90 -53 141.5t-162 51.5q-147 0 -205.5 -71t-62.5 -230zM768 1317l123 221l151 -27l-168 -219z" />
<glyph unicode="&#x1ec0;" horiz-adv-x="1103" d="M39 1806l151 27l123 -221l-106 -25zM154 190v1072h804v-158h-632v-397h573v-154h-573v-391q123 -20 268 -21q195 0 348 37l39 -151q-145 -43 -393 -43q-205 0 -319.5 46t-114.5 160zM279 1425l202 273h154l205 -273l-105 -22l-172 153h-10l-166 -153z" />
<glyph unicode="&#x1ec1;" horiz-adv-x="997" d="M8 1509l152 27l123 -221l-107 -25zM102 473q0 238 114 372t325 134q180 0 269 -103.5t89 -283.5q0 -41 -2 -62l-123 -120l-510 8q4 -143 74 -218t205 -75q92 0 158.5 23.5t136.5 70.5l53 -129q-82 -51 -162 -78.5t-197 -27.5q-430 0 -430 489zM248 1128l203 273h153 l205 -273l-104 -22l-173 154h-10l-166 -154zM262 537l471 8q12 55 12 100q0 90 -53 141.5t-162 51.5q-147 0 -205.5 -71t-62.5 -230z" />
<glyph unicode="&#x1ec2;" horiz-adv-x="1103" d="M154 190v1072h804v-158h-632v-397h573v-154h-573v-391q123 -20 268 -21q195 0 348 37l39 -151q-145 -43 -393 -43q-205 0 -319.5 46t-114.5 160zM283 1423l204 273h154l203 -273l-109 -22l-166 153h-10l-172 -153zM758 1903q61 25 125 24q72 0 105.5 -29.5t33.5 -91.5 q0 -113 -129 -112v-66h-76l-18 74v61q66 0 93.5 9.5t27.5 31.5q0 37 -52 37q-49 0 -88 -18z" />
<glyph unicode="&#x1ec3;" horiz-adv-x="995" d="M102 473q0 238 114 372t325 134q180 0 269 -103.5t89 -283.5q0 -41 -2 -62l-123 -120l-510 8q4 -143 74 -218t205 -75q92 0 158.5 23.5t136.5 70.5l53 -129q-82 -51 -162 -78.5t-197 -27.5q-430 0 -430 489zM231 1128l205 273h154l203 -273l-109 -22l-166 154h-10 l-172 -154zM262 537l471 8q12 55 12 100q0 90 -53 141.5t-162 51.5q-147 0 -205.5 -71t-62.5 -230zM707 1608q61 25 124 24q72 0 106 -29.5t34 -91.5q0 -113 -129 -112v-66h-76l-18 74v61q68 0 94 9.5t26 31.5q0 37 -51 37q-47 0 -88 -18z" />
<glyph unicode="&#x1ec4;" horiz-adv-x="1103" d="M154 190v1072h804v-158h-632v-397h573v-154h-573v-391q123 -20 268 -21q195 0 348 37l39 -151q-145 -43 -393 -43q-205 0 -319.5 46t-114.5 160zM276 1423l205 273h154l203 -273l-109 -22l-166 153h-10l-172 -153zM307 1812q4 82 39 121t105 39q27 0 51 -9t63 -30 q57 -29 78 -28q61 0 72 75l90 -30q-4 -82 -39 -121t-104 -39q-27 0 -49.5 9t-61.5 28q-53 31 -82 31q-61 0 -72 -74z" />
<glyph unicode="&#x1ec5;" horiz-adv-x="999" d="M102 473q0 238 114 372t325 134q180 0 269 -103.5t89 -283.5q0 -41 -2 -62l-123 -120l-510 8q4 -143 74 -218t205 -75q92 0 158.5 23.5t136.5 70.5l53 -129q-82 -51 -162 -78.5t-197 -27.5q-430 0 -430 489zM236 1128l204 273h154l203 -273l-109 -22l-166 154h-10 l-172 -154zM262 537l471 8q12 55 12 100q0 90 -53 141.5t-162 51.5q-147 0 -205.5 -71t-62.5 -230zM266 1518q4 82 39 120.5t105 38.5q27 0 51 -9t63 -30q57 -29 78 -28q61 0 72 76l90 -31q-4 -82 -39 -121t-104 -39q-27 0 -49.5 9t-61.5 28q-53 31 -82 31q-61 0 -72 -74z " />
<glyph unicode="&#x1ec6;" horiz-adv-x="1103" d="M154 190v1072h804v-158h-632v-397h573v-154h-573v-391q123 -20 268 -21q195 0 348 37l39 -151q-145 -43 -393 -43q-205 0 -319.5 46t-114.5 160zM315 1425l205 273h154l203 -273l-109 -22l-166 153h-10l-172 -153zM461 -252q0 57 31.5 88t91.5 31q59 0 91 -31t32 -88 q0 -53 -33 -84t-90 -31q-58 0 -90.5 31t-32.5 84z" />
<glyph unicode="&#x1ec7;" horiz-adv-x="999" d="M102 473q0 238 114 372t325 134q180 0 269 -103.5t89 -283.5q0 -41 -2 -62l-123 -120l-510 8q4 -143 74 -218t205 -75q92 0 158.5 23.5t136.5 70.5l53 -129q-82 -51 -162 -78.5t-197 -27.5q-430 0 -430 489zM240 1133l204 272h154l203 -272l-109 -23l-166 154h-10 l-172 -154zM262 537l471 8q12 55 12 100q0 90 -53 141.5t-162 51.5q-147 0 -205.5 -71t-62.5 -230zM397 -252q0 57 32 88t91 31t91 -31t32 -88q0 -53 -32.5 -84t-90.5 -31q-57 0 -90 31t-33 84z" />
<glyph unicode="&#x1ec8;" horiz-adv-x="495" d="M111 1776q80 37 176 36q98 0 145 -44t47 -117q0 -152 -192 -152v-84h-92l-27 101v71q111 0 147.5 9.5t36.5 50.5q0 35 -20.5 47t-67.5 12q-63 0 -121 -23zM160 0v1262h174v-1262h-174z" />
<glyph unicode="&#x1ec9;" horiz-adv-x="475" d="M106 1491q80 37 177 37q98 0 145 -44t47 -118q0 -152 -192 -152v-84h-93l-26 101v72q109 0 146.5 9t37.5 50q0 35 -20.5 47t-67.5 12q-63 0 -121 -22zM156 0v961h163v-961h-163z" />
<glyph unicode="&#x1eca;" horiz-adv-x="495" d="M125 -252q0 57 31.5 88t91.5 31q59 0 91 -31t32 -88q0 -53 -33 -84t-90 -31q-58 0 -90.5 31t-32.5 84zM160 0v1262h174v-1262h-174z" />
<glyph unicode="&#x1ecb;" horiz-adv-x="475" d="M115 -252q0 57 31.5 88t91.5 31q59 0 90.5 -31t31.5 -88q0 -53 -32.5 -84t-89.5 -31q-58 0 -90.5 31t-32.5 84zM152 1135v204h176v-204h-176zM156 0v958h163v-958h-163z" />
<glyph unicode="&#x1ecc;" horiz-adv-x="1271" d="M106 606q0 346 126 511t419 165q262 0 388 -156.5t126 -468.5q0 -346 -126 -509.5t-418 -163.5q-252 0 -383.5 157.5t-131.5 464.5zM281 645q0 -264 84 -383t284 -119q70 0 137.5 10.5t106.5 26.5q98 217 98 438q0 266 -83 385t-285 119q-72 0 -143.5 -10t-110.5 -27 q-88 -190 -88 -440zM512 -252q0 57 31.5 88t91.5 31q59 0 91 -31t32 -88q0 -53 -33 -84t-90 -31t-90 31t-33 84z" />
<glyph unicode="&#x1ecd;" horiz-adv-x="1058" d="M102 473q0 510 451 510q403 0 403 -510q0 -244 -106.5 -366.5t-343.5 -122.5q-217 0 -310.5 127t-93.5 362zM268 502q0 -143 20.5 -221t82 -116t182.5 -38q112 0 192 35q45 94 46 278q0 145 -21.5 228.5t-82 124.5t-181.5 41q-117 0 -193 -33q-45 -96 -45 -299zM406 -252 q0 57 31.5 88t90.5 31t91 -31t32 -88q0 -53 -32.5 -84t-90.5 -31q-57 0 -89.5 31t-32.5 84z" />
<glyph unicode="&#x1ece;" horiz-adv-x="1271" d="M106 606q0 346 126 511t419 165q262 0 388 -156.5t126 -468.5q0 -346 -126 -509.5t-418 -163.5q-252 0 -383.5 157.5t-131.5 464.5zM281 645q0 -264 84 -383t284 -119q70 0 137.5 10.5t106.5 26.5q98 217 98 438q0 266 -83 385t-285 119q-72 0 -143.5 -10t-110.5 -27 q-88 -190 -88 -440zM514 1786q80 37 176 37q98 0 145.5 -44t47.5 -118q0 -152 -193 -152v-84h-92l-27 101v71q109 0 147 9.5t38 50.5q0 35 -20.5 47t-67.5 12q-63 0 -121 -22z" />
<glyph unicode="&#x1ecf;" horiz-adv-x="1058" d="M102 473q0 510 451 510q403 0 403 -510q0 -244 -106.5 -366.5t-343.5 -122.5q-217 0 -310.5 127t-93.5 362zM268 502q0 -143 20.5 -221t82 -116t182.5 -38q112 0 192 35q45 94 46 278q0 145 -21.5 228.5t-82 124.5t-181.5 41q-117 0 -193 -33q-45 -96 -45 -299zM410 1491 q80 37 176 37q98 0 145 -44t47 -118q0 -152 -192 -152v-84h-92l-27 101v72q111 0 147.5 9t36.5 50q0 35 -20.5 47t-67.5 12q-63 0 -121 -22z" />
<glyph unicode="&#x1ed0;" horiz-adv-x="1271" d="M106 606q0 346 126 511t419 165q262 0 388 -156.5t126 -468.5q0 -346 -126 -509.5t-418 -163.5q-252 0 -383.5 157.5t-131.5 464.5zM281 645q0 -264 84 -383t284 -119q70 0 137.5 10.5t106.5 26.5q98 217 98 438q0 266 -83 385t-285 119q-72 0 -143.5 -10t-110.5 -27 q-88 -190 -88 -440zM375 1425l205 273h153l203 -273l-109 -22l-165 153h-11l-172 -153zM901 1612l123 221l152 -27l-168 -219z" />
<glyph unicode="&#x1ed1;" horiz-adv-x="1058" d="M102 473q0 510 451 510q403 0 403 -510q0 -244 -106.5 -366.5t-343.5 -122.5q-217 0 -310.5 127t-93.5 362zM258 1128l205 273h153l203 -273l-108 -22l-166 154h-10l-173 -154zM268 502q0 -143 20.5 -221t82 -116t182.5 -38q112 0 192 35q45 94 46 278q0 145 -21.5 228.5 t-82 124.5t-181.5 41q-117 0 -193 -33q-45 -96 -45 -299zM784 1315l123 221l152 -27l-168 -219z" />
<glyph unicode="&#x1ed2;" horiz-adv-x="1271" d="M106 606q0 346 126 511t419 165q262 0 388 -156.5t126 -468.5q0 -346 -126 -509.5t-418 -163.5q-252 0 -383.5 157.5t-131.5 464.5zM113 1804l151 27l123 -221l-106 -25zM281 645q0 -264 84 -383t284 -119q70 0 137.5 10.5t106.5 26.5q98 217 98 438q0 266 -83 385 t-285 119q-72 0 -143.5 -10t-110.5 -27q-88 -190 -88 -440zM352 1423l203 273h154l204 -273l-104 -22l-172 153h-10l-166 -153z" />
<glyph unicode="&#x1ed3;" horiz-adv-x="1058" d="M14 1511l152 27l123 -221l-107 -25zM102 473q0 510 451 510q403 0 403 -510q0 -244 -106.5 -366.5t-343.5 -122.5q-217 0 -310.5 127t-93.5 362zM254 1130l203 273h153l205 -273l-104 -22l-172 154h-11l-166 -154zM268 502q0 -143 20.5 -221t82 -116t182.5 -38 q112 0 192 35q45 94 46 278q0 145 -21.5 228.5t-82 124.5t-181.5 41q-117 0 -193 -33q-45 -96 -45 -299z" />
<glyph unicode="&#x1ed4;" horiz-adv-x="1271" d="M106 606q0 346 126 511t419 165q262 0 388 -156.5t126 -468.5q0 -346 -126 -509.5t-418 -163.5q-252 0 -383.5 157.5t-131.5 464.5zM281 645q0 -264 84 -383t284 -119q70 0 137.5 10.5t106.5 26.5q98 217 98 438q0 266 -83 385t-285 119q-72 0 -143.5 -10t-110.5 -27 q-88 -190 -88 -440zM360 1425l205 273h154l203 -273l-109 -22l-166 153h-10l-172 -153zM836 1905q61 25 125 24q72 0 105.5 -29.5t33.5 -91.5q0 -113 -129 -112v-66h-76l-18 74v61q68 0 94 9.5t26 31.5q0 37 -51 37q-49 0 -88 -18z" />
<glyph unicode="&#x1ed5;" horiz-adv-x="1081" d="M102 473q0 510 451 510q403 0 403 -510q0 -244 -106.5 -366.5t-343.5 -122.5q-217 0 -310.5 127t-93.5 362zM244 1128l205 273h153l203 -273l-109 -22l-166 154h-10l-172 -154zM268 502q0 -143 20.5 -221t82 -116t182.5 -38q112 0 192 35q45 94 46 278q0 145 -21.5 228.5 t-82 124.5t-181.5 41q-117 0 -193 -33q-45 -96 -45 -299zM719 1608q61 25 125 24q72 0 105.5 -29.5t33.5 -91.5q0 -113 -129 -112v-66h-76l-18 74v61q68 0 94.5 9.5t26.5 31.5q0 37 -52 37q-47 0 -88 -18z" />
<glyph unicode="&#x1ed6;" horiz-adv-x="1271" d="M106 606q0 346 126 511t419 165q262 0 388 -156.5t126 -468.5q0 -346 -126 -509.5t-418 -163.5q-252 0 -383.5 157.5t-131.5 464.5zM281 645q0 -264 84 -383t284 -119q70 0 137.5 10.5t106.5 26.5q98 217 98 438q0 266 -83 385t-285 119q-72 0 -143.5 -10t-110.5 -27 q-88 -190 -88 -440zM362 1425l205 273h154l203 -273l-109 -22l-166 153h-10l-172 -153zM393 1815q4 82 39 120.5t105 38.5q27 0 51 -9t63 -30q57 -29 78 -28q61 0 72 75l90 -30q-4 -82 -39 -121t-104 -39q-27 0 -49.5 9t-61.5 28q-53 31 -82 31q-61 0 -72 -74z" />
<glyph unicode="&#x1ed7;" horiz-adv-x="1058" d="M102 473q0 510 451 510q403 0 403 -510q0 -244 -106.5 -366.5t-343.5 -122.5q-217 0 -310.5 127t-93.5 362zM252 1128l205 273h153l203 -273l-108 -22l-166 154h-11l-172 -154zM268 502q0 -143 20.5 -221t82 -116t182.5 -38q112 0 192 35q45 94 46 278q0 145 -21.5 228.5 t-82 124.5t-181.5 41q-117 0 -193 -33q-45 -96 -45 -299zM283 1518q4 82 38.5 120.5t104.5 38.5q27 0 51.5 -9t63.5 -30q57 -29 77 -28q61 0 72 76l90 -31q-4 -82 -38.5 -121t-104.5 -39q-27 0 -49.5 9t-61.5 28q-53 31 -82 31q-61 0 -71 -74z" />
<glyph unicode="&#x1ed8;" horiz-adv-x="1271" d="M106 606q0 346 126 511t419 165q262 0 388 -156.5t126 -468.5q0 -346 -126 -509.5t-418 -163.5q-252 0 -383.5 157.5t-131.5 464.5zM281 645q0 -264 84 -383t284 -119q70 0 137.5 10.5t106.5 26.5q98 217 98 438q0 266 -83 385t-285 119q-72 0 -143.5 -10t-110.5 -27 q-88 -190 -88 -440zM377 1425l205 273h153l203 -273l-109 -22l-165 153h-11l-172 -153zM535 -252q0 57 31.5 88t90.5 31t91 -31t32 -88q0 -53 -32.5 -84t-90.5 -31q-57 0 -89.5 31t-32.5 84z" />
<glyph unicode="&#x1ed9;" horiz-adv-x="1058" d="M102 473q0 510 451 510q403 0 403 -510q0 -244 -106.5 -366.5t-343.5 -122.5q-217 0 -310.5 127t-93.5 362zM248 1128l205 273h153l203 -273l-109 -22l-165 154h-11l-172 -154zM268 502q0 -143 20.5 -221t82 -116t182.5 -38q112 0 192 35q45 94 46 278q0 145 -21.5 228.5 t-82 124.5t-181.5 41q-117 0 -193 -33q-45 -96 -45 -299zM406 -252q0 57 31.5 88t90.5 31t91 -31t32 -88q0 -53 -32.5 -84t-90.5 -31q-57 0 -89.5 31t-32.5 84z" />
<glyph unicode="&#x1eda;" horiz-adv-x="1343" d="M106 606q0 346 126 511t419 165q137 0 229.5 -37t153.5 -117h21q41 78 61.5 156t22.5 182h164q0 -174 -46.5 -280.5t-154.5 -179.5q33 -72 48 -153t15 -196q0 -346 -126 -510.5t-418 -164.5q-252 0 -383.5 158.5t-131.5 465.5zM281 645q0 -264 84 -384t284 -120 q70 0 137.5 10.5t106.5 26.5q98 217 98 440q0 266 -83 385t-285 119q-72 0 -143.5 -10t-110.5 -27q-88 -190 -88 -440zM537 1425l170 297l217 -22l-256 -295z" />
<glyph unicode="&#x1edb;" horiz-adv-x="1169" d="M102 473q0 510 451 510q244 0 340 -186h18q41 61 56.5 132.5t17.5 184.5h164q0 -162 -47 -266.5t-164 -175.5q18 -82 18 -199q0 -244 -106.5 -367.5t-343.5 -123.5q-217 0 -310.5 128t-93.5 363zM268 502q0 -143 20.5 -222t82 -117t182.5 -38q112 0 192 35q45 94 46 280 q0 145 -21.5 228.5t-82 124.5t-181.5 41q-117 0 -193 -33q-45 -96 -45 -299zM459 1128l170 297l217 -22l-256 -295z" />
<glyph unicode="&#x1edc;" horiz-adv-x="1343" d="M106 606q0 346 126 511t419 165q137 0 229.5 -37t153.5 -117h21q41 78 61.5 156t22.5 182h164q0 -174 -46.5 -280.5t-154.5 -179.5q33 -72 48 -153t15 -196q0 -346 -126 -510.5t-418 -164.5q-252 0 -383.5 158.5t-131.5 465.5zM281 645q0 -264 84 -384t284 -120 q70 0 137.5 10.5t106.5 26.5q98 217 98 440q0 266 -83 385t-285 119q-72 0 -143.5 -10t-110.5 -27q-88 -190 -88 -440zM358 1700l217 22l170 -297l-131 -20z" />
<glyph unicode="&#x1edd;" horiz-adv-x="1169" d="M102 473q0 510 451 510q244 0 340 -186h18q41 61 56.5 132.5t17.5 184.5h164q0 -162 -47 -266.5t-164 -175.5q18 -82 18 -199q0 -244 -106.5 -367.5t-343.5 -123.5q-217 0 -310.5 128t-93.5 363zM252 1405l217 22l170 -297l-131 -20zM268 502q0 -143 20.5 -222t82 -117 t182.5 -38q112 0 192 35q45 94 46 280q0 145 -21.5 228.5t-82 124.5t-181.5 41q-117 0 -193 -33q-45 -96 -45 -299z" />
<glyph unicode="&#x1ede;" horiz-adv-x="1343" d="M106 606q0 346 126 511t419 165q137 0 229.5 -37t153.5 -117h21q41 78 61.5 156t22.5 182h164q0 -174 -46.5 -280.5t-154.5 -179.5q33 -72 48 -153t15 -196q0 -346 -126 -510.5t-418 -164.5q-252 0 -383.5 158.5t-131.5 465.5zM281 645q0 -264 84 -384t284 -120 q70 0 137.5 10.5t106.5 26.5q98 217 98 440q0 266 -83 385t-285 119q-72 0 -143.5 -10t-110.5 -27q-88 -190 -88 -440zM508 1786q80 37 176 37q98 0 145.5 -44t47.5 -118q0 -152 -193 -152v-84h-92l-27 101v71q109 0 147 9.5t38 50.5q0 35 -20.5 47t-67.5 12q-63 0 -121 -22 z" />
<glyph unicode="&#x1edf;" horiz-adv-x="1169" d="M102 473q0 510 451 510q244 0 340 -186h18q41 61 56.5 132.5t17.5 184.5h164q0 -162 -47 -266.5t-164 -175.5q18 -82 18 -199q0 -244 -106.5 -367.5t-343.5 -123.5q-217 0 -310.5 128t-93.5 363zM268 502q0 -143 20.5 -222t82 -117t182.5 -38q112 0 192 35q45 94 46 280 q0 145 -21.5 228.5t-82 124.5t-181.5 41q-117 0 -193 -33q-45 -96 -45 -299zM395 1491q80 37 176 37q98 0 145.5 -44t47.5 -118q0 -152 -193 -152v-84h-92l-26 101v72q111 0 147.5 9t36.5 50q0 35 -20.5 47t-67.5 12q-63 0 -121 -22z" />
<glyph unicode="&#x1ee0;" horiz-adv-x="1343" d="M106 606q0 346 126 511t419 165q137 0 229.5 -37t153.5 -117h21q41 78 61.5 156t22.5 182h164q0 -174 -46.5 -280.5t-154.5 -179.5q33 -72 48 -153t15 -196q0 -346 -126 -510.5t-418 -164.5q-252 0 -383.5 158.5t-131.5 465.5zM281 645q0 -264 84 -384t284 -120 q70 0 137.5 10.5t106.5 26.5q98 217 98 440q0 266 -83 385t-285 119q-72 0 -143.5 -10t-110.5 -27q-88 -190 -88 -440zM365 1434q6 100 47 148t125 48q31 0 61.5 -12t69.5 -35q63 -37 92 -37q72 0 82 92l112 -36q-6 -100 -47 -148.5t-125 -48.5q-35 0 -63.5 12.5t-65.5 34.5 q-31 18 -51 27.5t-43 9.5q-72 0 -82 -92z" />
<glyph unicode="&#x1ee1;" horiz-adv-x="1169" d="M102 473q0 510 451 510q244 0 340 -186h18q41 61 56.5 132.5t17.5 184.5h164q0 -162 -47 -266.5t-164 -175.5q18 -82 18 -199q0 -244 -106.5 -367.5t-343.5 -123.5q-217 0 -310.5 128t-93.5 363zM244 1139q6 100 47 148t125 48q31 0 61.5 -12t69.5 -35q63 -37 92 -37 q72 0 82 92l113 -36q-6 -100 -47.5 -148.5t-124.5 -48.5q-35 0 -64 12.5t-66 34.5q-31 18 -51 27.5t-43 9.5q-72 0 -82 -92zM268 502q0 -143 20.5 -222t82 -117t182.5 -38q112 0 192 35q45 94 46 280q0 145 -21.5 228.5t-82 124.5t-181.5 41q-117 0 -193 -33 q-45 -96 -45 -299z" />
<glyph unicode="&#x1ee2;" horiz-adv-x="1343" d="M106 606q0 346 126 511t419 165q137 0 229.5 -37t153.5 -117h21q41 78 61.5 156t22.5 182h164q0 -174 -46.5 -280.5t-154.5 -179.5q33 -72 48 -153t15 -196q0 -346 -126 -510.5t-418 -164.5q-252 0 -383.5 158.5t-131.5 465.5zM281 645q0 -264 84 -384t284 -120 q70 0 137.5 10.5t106.5 26.5q98 217 98 440q0 266 -83 385t-285 119q-72 0 -143.5 -10t-110.5 -27q-88 -190 -88 -440zM526 -252q0 57 32 88t91 31t91 -31t32 -88q0 -53 -32.5 -84t-90.5 -31q-57 0 -90 31t-33 84z" />
<glyph unicode="&#x1ee3;" horiz-adv-x="1169" d="M102 473q0 510 451 510q244 0 340 -186h18q41 61 56.5 132.5t17.5 184.5h164q0 -162 -47 -266.5t-164 -175.5q18 -82 18 -199q0 -244 -106.5 -367.5t-343.5 -123.5q-217 0 -310.5 128t-93.5 363zM268 502q0 -143 20.5 -222t82 -117t182.5 -38q112 0 192 35q45 94 46 280 q0 145 -21.5 228.5t-82 124.5t-181.5 41q-117 0 -193 -33q-45 -96 -45 -299zM416 -252q0 57 31.5 88t91.5 31q59 0 91 -31t32 -88q0 -53 -33 -84t-90 -31q-58 0 -90.5 31t-32.5 84z" />
<glyph unicode="&#x1ee4;" horiz-adv-x="1247" d="M150 356v906h174v-875q0 -139 67.5 -191.5t226.5 -52.5q98 0 179.5 12.5t126.5 32.5v1074h174v-1000q0 -152 -131 -215t-363 -63q-223 0 -338.5 93t-115.5 279zM516 -252q0 57 32 88t91 31t91 -31t32 -88q0 -53 -33 -84t-90 -31t-90 31t-33 84z" />
<glyph unicode="&#x1ee5;" horiz-adv-x="1064" d="M139 258v705h168v-813q63 -18 135 -19q190 0 303 131v701h168v-963h-145l-12 147h-17q-70 -78 -147.5 -120.5t-177.5 -42.5q-144 0 -209.5 62.5t-65.5 211.5zM412 -252q0 57 31.5 88t91.5 31q59 0 90.5 -31t31.5 -88q0 -53 -32.5 -84t-89.5 -31q-58 0 -90.5 31t-32.5 84z " />
<glyph unicode="&#x1ee6;" horiz-adv-x="1247" d="M150 356v906h174v-875q0 -139 67.5 -191.5t226.5 -52.5q98 0 179.5 12.5t126.5 32.5v1074h174v-1000q0 -152 -131 -215t-363 -63q-223 0 -338.5 93t-115.5 279zM500 1786q80 37 176 37q98 0 145 -44t47 -118q0 -152 -192 -152v-84h-92l-27 101v71q111 0 147.5 9.5 t36.5 50.5q0 35 -20.5 47t-67.5 12q-63 0 -121 -22z" />
<glyph unicode="&#x1ee7;" horiz-adv-x="1064" d="M139 258v705h168v-813q63 -18 135 -19q190 0 303 131v701h168v-963h-145l-12 147h-17q-70 -78 -147.5 -120.5t-177.5 -42.5q-144 0 -209.5 62.5t-65.5 211.5zM399 1491q80 37 176 37q98 0 145.5 -44t47.5 -118q0 -152 -193 -152v-84h-92l-26 101v72q111 0 147.5 9 t36.5 50q0 35 -20.5 47t-67.5 12q-63 0 -121 -22z" />
<glyph unicode="&#x1ee8;" horiz-adv-x="1488" d="M150 356v906h174v-875q0 -139 67.5 -191.5t226.5 -52.5q98 0 179.5 12.5t126.5 32.5v1074h170v-203h16q227 94 227 366h172q0 -211 -110.5 -343t-300.5 -179v-641q0 -152 -131 -215t-363 -63q-223 0 -338.5 93t-115.5 279zM539 1423l170 297l217 -22l-256 -295z" />
<glyph unicode="&#x1ee9;" horiz-adv-x="1271" d="M139 258v705h168v-813q63 -18 135 -19q190 0 303 131v701h168v-166h19q86 47 120.5 117.5t34.5 199.5h164q0 -166 -83 -278.5t-255 -180.5v-655h-145l-12 147h-17q-70 -78 -147.5 -120.5t-177.5 -42.5q-144 0 -209.5 62.5t-65.5 211.5zM432 1130l170 297l217 -22 l-256 -295z" />
<glyph unicode="&#x1eea;" horiz-adv-x="1488" d="M150 356v906h174v-875q0 -139 67.5 -191.5t226.5 -52.5q98 0 179.5 12.5t126.5 32.5v1074h170v-203h16q227 94 227 366h172q0 -211 -110.5 -343t-300.5 -179v-641q0 -152 -131 -215t-363 -63q-223 0 -338.5 93t-115.5 279zM356 1700l217 22l170 -297l-131 -20z" />
<glyph unicode="&#x1eeb;" horiz-adv-x="1271" d="M139 258v705h168v-813q63 -18 135 -19q190 0 303 131v701h168v-166h19q86 47 120.5 117.5t34.5 199.5h164q0 -166 -83 -278.5t-255 -180.5v-655h-145l-12 147h-17q-70 -78 -147.5 -120.5t-177.5 -42.5q-144 0 -209.5 62.5t-65.5 211.5zM248 1405l217 22l170 -297 l-131 -20z" />
<glyph unicode="&#x1eec;" horiz-adv-x="1488" d="M150 356v906h174v-875q0 -139 67.5 -191.5t226.5 -52.5q98 0 179.5 12.5t126.5 32.5v1074h170v-203h16q227 94 227 366h172q0 -211 -110.5 -343t-300.5 -179v-641q0 -152 -131 -215t-363 -63q-223 0 -338.5 93t-115.5 279zM492 1786q80 37 176 37q98 0 145 -44t47 -118 q0 -152 -192 -152v-84h-93l-26 101v71q111 0 147.5 9.5t36.5 50.5q0 35 -20.5 47t-67.5 12q-63 0 -121 -22z" />
<glyph unicode="&#x1eed;" horiz-adv-x="1271" d="M139 258v705h168v-813q63 -18 135 -19q190 0 303 131v701h168v-166h19q86 47 120.5 117.5t34.5 199.5h164q0 -166 -83 -278.5t-255 -180.5v-655h-145l-12 147h-17q-70 -78 -147.5 -120.5t-177.5 -42.5q-144 0 -209.5 62.5t-65.5 211.5zM399 1491q80 37 176 37 q98 0 145.5 -44t47.5 -118q0 -152 -193 -152v-84h-92l-26 101v72q111 0 147.5 9t36.5 50q0 35 -20.5 47t-67.5 12q-63 0 -121 -22z" />
<glyph unicode="&#x1eee;" horiz-adv-x="1488" d="M150 356v906h174v-875q0 -139 67.5 -191.5t226.5 -52.5q98 0 179.5 12.5t126.5 32.5v1074h170v-203h16q227 94 227 366h172q0 -211 -110.5 -343t-300.5 -179v-641q0 -152 -131 -215t-363 -63q-223 0 -338.5 93t-115.5 279zM344 1434q6 100 47 148t125 48q31 0 61.5 -12 t69.5 -35q63 -37 92 -37q72 0 82 92l113 -36q-6 -100 -47 -148.5t-125 -48.5q-35 0 -63.5 12.5t-65.5 34.5q-31 18 -51.5 27.5t-42.5 9.5q-72 0 -82 -92z" />
<glyph unicode="&#x1eef;" horiz-adv-x="1271" d="M139 258v705h168v-813q63 -18 135 -19q190 0 303 131v701h168v-166h19q86 47 120.5 117.5t34.5 199.5h164q0 -166 -83 -278.5t-255 -180.5v-655h-145l-12 147h-17q-70 -78 -147.5 -120.5t-177.5 -42.5q-144 0 -209.5 62.5t-65.5 211.5zM225 1139q6 100 47 148t125 48 q31 0 61.5 -12t69.5 -35q63 -37 93 -37q72 0 81 92l113 -36q-6 -100 -47 -148.5t-125 -48.5q-35 0 -63.5 12.5t-65.5 34.5q-31 18 -51.5 27.5t-42.5 9.5q-72 0 -82 -92z" />
<glyph unicode="&#x1ef0;" horiz-adv-x="1488" d="M150 356v906h174v-875q0 -139 67.5 -191.5t226.5 -52.5q98 0 179.5 12.5t126.5 32.5v1074h170v-203h16q227 94 227 366h172q0 -211 -110.5 -343t-300.5 -179v-641q0 -152 -131 -215t-363 -63q-223 0 -338.5 93t-115.5 279zM512 -252q0 57 31.5 88t91.5 31q59 0 91 -31 t32 -88q0 -53 -33 -84t-90 -31t-90 31t-33 84z" />
<glyph unicode="&#x1ef1;" horiz-adv-x="1271" d="M139 258v705h168v-813q63 -18 135 -19q190 0 303 131v701h168v-166h19q86 47 120.5 117.5t34.5 199.5h164q0 -166 -83 -278.5t-255 -180.5v-655h-145l-12 147h-17q-70 -78 -147.5 -120.5t-177.5 -42.5q-144 0 -209.5 62.5t-65.5 211.5zM397 -252q0 57 32 88t91 31t91 -31 t32 -88q0 -53 -32.5 -84t-90.5 -31q-57 0 -90 31t-33 84z" />
<glyph unicode="&#x1ef2;" horiz-adv-x="1259" d="M57 1229l174 43q80 -199 176.5 -382t190.5 -321h64q94 137 190 320.5t176 382.5l174 -43q-102 -242 -201.5 -424t-240.5 -373h-43v-432h-174v432h-43q-141 190 -240.5 372.5t-202.5 424.5zM352 1700l217 22l170 -297l-131 -20z" />
<glyph unicode="&#x1ef3;" horiz-adv-x="1015" d="M61 958l166 15q106 -430 250 -787h80q113 348 215 787l170 -15q-84 -346 -181 -654t-194 -533q-33 -78 -115.5 -126t-162.5 -48q-102 -1 -180 38v64q0 66 20 129h121v-90q29 -6 72 -6q20 0 73 8q51 121 115 303h-131q-113 270 -186.5 479t-131.5 436zM242 1403l217 22 l170 -297l-131 -20z" />
<glyph unicode="&#x1ef4;" horiz-adv-x="1259" d="M57 1229l174 43q80 -199 176.5 -382t190.5 -321h64q94 137 190 320.5t176 382.5l174 -43q-102 -242 -201.5 -424t-240.5 -373h-43v-432h-174v432h-43q-141 190 -240.5 372.5t-202.5 424.5zM506 -252q0 57 31.5 88t91.5 31q59 0 91 -31t32 -88q0 -53 -33 -84t-90 -31 q-58 0 -90.5 31t-32.5 84z" />
<glyph unicode="&#x1ef5;" horiz-adv-x="1015" d="M61 958l166 15q106 -430 250 -787h80q113 348 215 787l170 -15q-84 -346 -181 -654t-194 -533q-33 -78 -115.5 -126t-162.5 -48q-102 -1 -180 38v64q0 66 20 129h121v-90q29 -6 72 -6q20 0 73 8q51 121 115 303h-131q-113 270 -186.5 479t-131.5 436zM360 -594 q0 57 32 88t91 31t91 -31t32 -88q0 -53 -32.5 -84t-90.5 -31q-57 0 -90 31t-33 84z" />
<glyph unicode="&#x1ef6;" horiz-adv-x="1259" d="M57 1229l174 43q80 -199 176.5 -382t190.5 -321h64q94 137 190 320.5t176 382.5l174 -43q-102 -242 -201.5 -424t-240.5 -373h-43v-432h-174v432h-43q-141 190 -240.5 372.5t-202.5 424.5zM496 1786q80 37 176 37q98 0 145 -44t47 -118q0 -152 -192 -152v-84h-92l-27 101 v71q111 0 147.5 9.5t36.5 50.5q0 35 -20.5 47t-67.5 12q-63 0 -121 -22z" />
<glyph unicode="&#x1ef7;" horiz-adv-x="1015" d="M61 958l166 15q106 -430 250 -787h80q113 348 215 787l170 -15q-84 -346 -181 -654t-194 -533q-33 -78 -115.5 -126t-162.5 -48q-102 -1 -180 38v64q0 66 20 129h121v-90q29 -6 72 -6q20 0 73 8q51 121 115 303h-131q-113 270 -186.5 479t-131.5 436zM367 1491 q80 37 176 37q98 0 145 -44t47 -118q0 -152 -192 -152v-84h-92l-27 101v72q111 0 147.5 9t36.5 50q0 35 -20.5 47t-67.5 12q-63 0 -121 -22z" />
<glyph unicode="&#x1ef8;" horiz-adv-x="1259" d="M57 1229l174 43q80 -199 176.5 -382t190.5 -321h64q94 137 190 320.5t176 382.5l174 -43q-102 -242 -201.5 -424t-240.5 -373h-43v-432h-174v432h-43q-141 190 -240.5 372.5t-202.5 424.5zM334 1434q6 100 47 148t125 48q31 0 61.5 -12t69.5 -35q63 -37 92 -37 q72 0 82 92l113 -36q-6 -100 -47 -148.5t-125 -48.5q-35 0 -64 12.5t-65 34.5q-31 18 -51.5 27.5t-43.5 9.5q-72 0 -82 -92z" />
<glyph unicode="&#x1ef9;" horiz-adv-x="1015" d="M61 958l166 15q106 -430 250 -787h80q113 348 215 787l170 -15q-84 -346 -181 -654t-194 -533q-33 -78 -115.5 -126t-162.5 -48q-102 -1 -180 38v64q0 66 20 129h121v-90q29 -6 72 -6q20 0 73 8q51 121 115 303h-131q-113 270 -186.5 479t-131.5 436zM217 1139 q6 100 47 148t125 48q31 0 61.5 -12t69.5 -35q63 -37 92 -37q72 0 82 92l113 -36q-6 -100 -47 -148.5t-125 -48.5q-35 0 -63.5 12.5t-65.5 34.5q-31 18 -51.5 27.5t-42.5 9.5q-72 0 -82 -92z" />
<glyph unicode="&#x2000;" horiz-adv-x="1101" />
<glyph unicode="&#x2001;" horiz-adv-x="2202" />
<glyph unicode="&#x2002;" horiz-adv-x="1101" />
<glyph unicode="&#x2003;" horiz-adv-x="2202" />
</font>
</defs>
</svg>
